<svg width="104" height="104" viewBox="0 0 104 104" fill="none" xmlns="http://www.w3.org/2000/svg">
<path d="M60.5 1.76001C72.2317 1.76001 83.0773 6.21077 91.0475 14.2923" stroke="#5307FE" stroke-width="3.08" stroke-miterlimit="10" stroke-linecap="round"/>
<path d="M19.934 96.4938C11.6273 91.9298 5.29288 85.3535 2 77.3583" stroke="#FF646B" stroke-width="3.08" stroke-miterlimit="10" stroke-linecap="round"/>
<path d="M16.0732 23.1507C-36.8173 67.3238 76.6443 143.197 97.9351 73.5764C112.125 27.1806 59.2342 -12.8924 16.0732 23.1507Z" stroke="#8F00FF" stroke-width="3.7" stroke-miterlimit="10" stroke-linecap="round"/>
<path d="M9.13108 41.2181C-27.7296 108.071 101.902 125.799 101.383 49.9308C101.033 -0.629829 39.2143 -13.3347 9.13108 41.2181Z" fill="url(#paint0_linear_101_17035)"/>
<path d="M91.0488 14.2922C96.084 19.4012 99.7645 25.6592 102.001 32.8182" stroke="#5307FE" stroke-width="3.08" stroke-miterlimit="10" stroke-linecap="round"/>
<path d="M12.8155 16.5635C12.8155 18.0309 11.874 19.2231 10.7153 19.2231C9.55667 19.2231 8.61523 18.0309 8.61523 16.5635C8.61523 15.0961 9.55667 13.9038 10.7153 13.9038C11.874 13.9038 12.8155 15.0961 12.8155 16.5635Z" stroke="#FF646B" stroke-width="3.08" stroke-miterlimit="10" stroke-linecap="round"/>
<path d="M101.57 88.45L101.979 87.9321" stroke="#5307FE" stroke-width="3.08" stroke-miterlimit="10" stroke-linecap="round"/>
<path d="M98.7109 92.0645L99.1199 91.552" stroke="#5307FE" stroke-width="3.08" stroke-miterlimit="10" stroke-linecap="round"/>
<path d="M99.1199 88.45L98.7109 87.9321" stroke="#5307FE" stroke-width="3.08" stroke-miterlimit="10" stroke-linecap="round"/>
<path d="M101.979 92.0645L101.57 91.552" stroke="#5307FE" stroke-width="3.08" stroke-miterlimit="10" stroke-linecap="round"/>
<g style="mix-blend-mode:color-dodge" opacity="0.9">
<mask id="mask0_101_17035" style="mask-type:luminance" maskUnits="userSpaceOnUse" x="2" y="5" width="100" height="95">
<path d="M9.13108 41.2181C-27.7296 108.071 101.902 125.799 101.383 49.9308C101.033 -0.629829 39.2143 -13.3347 9.13108 41.2181Z" fill="white"/>
</mask>
<g mask="url(#mask0_101_17035)">
<path d="M16.0752 23.1508C-36.8153 67.3239 76.6463 143.197 97.9371 73.5765" stroke="#8F00FF" stroke-width="3.7" stroke-miterlimit="10" stroke-linecap="round"/>
</g>
</g>
<path d="M63.8878 45.248C61.9197 45.248 60.3223 43.2303 60.3223 40.7379C60.3223 38.2455 61.9155 36.2278 63.8878 36.2278C65.8601 36.2278 67.449 38.2509 67.449 40.7379C67.449 43.2249 65.8558 45.248 63.8878 45.248Z" stroke="white" stroke-width="3.05" stroke-linecap="round" stroke-linejoin="round"/>
<path d="M68.0276 55.4335V62.8299C68.0276 63.9412 68.7262 64.8422 69.5825 64.8422C70.4387 64.8422 71.0053 63.9412 71.0053 62.8299V52.2398C71.0053 49.9254 69.5228 48.048 67.6954 48.048H60.8412C60.2321 48.048 59.6442 47.7404 59.214 47.1956L58.5153 46.3108L54.7667 41.5633C54.1447 40.7757 53.1522 40.7649 52.543 41.5364C51.9338 42.3078 52.0403 43.4461 52.658 44.2338L53.7145 45.5717L55.133 47.3682L56.3897 48.9597L58.6218 51.7866C59.3375 52.6929 59.7422 53.923 59.7422 55.2069V64.3189V77.5524C59.7422 78.7501 60.3513 79.7266 61.28 79.7266C62.2086 79.7266 62.9626 78.7555 62.9626 77.5524V66.52C62.9626 65.8726 63.3759 65.3547 63.8828 65.3547C64.394 65.3547 64.8029 65.878 64.8029 66.52V69.5627V72.341V77.5471C64.8029 78.7447 65.5569 79.7212 66.4856 79.7212C67.4142 79.7212 68.0234 78.7501 68.0234 77.5471V64.3135V52.8656" stroke="white" stroke-width="3.05" stroke-linecap="round" stroke-linejoin="round"/>
<path d="M39.8281 64.4159V73.954C39.8281 77.137 41.8643 79.7211 44.3819 79.7211H57.5747" stroke="white" stroke-width="3.05" stroke-linecap="round" stroke-linejoin="round"/>
<path d="M66.5323 33.7569V32.829C66.5323 29.646 64.4961 27.0619 61.9785 27.0619H35.2734C37.7868 27.0619 39.8272 29.6406 39.8272 32.829V38.089" stroke="white" stroke-width="3.05" stroke-linecap="round" stroke-linejoin="round"/>
<path d="M35.2745 27.0673C32.7612 27.0673 30.7207 29.646 30.7207 32.8344V36.2925H39.824" stroke="white" stroke-width="3.05" stroke-linecap="round" stroke-linejoin="round"/>
<path d="M48.0703 65.0255H54.622" stroke="white" stroke-width="3.05" stroke-linecap="round" stroke-linejoin="round"/>
<path d="M48.0703 71.6073H50.9159" stroke="white" stroke-width="3.05" stroke-linecap="round" stroke-linejoin="round"/>
<path d="M48.0703 68.3164H54.622" stroke="white" stroke-width="3.05" stroke-linecap="round" stroke-linejoin="round"/>
<path d="M44.8281 65.0255H45.5225" stroke="white" stroke-width="3.05" stroke-linecap="round" stroke-linejoin="round"/>
<path d="M44.8281 71.6073H45.5225" stroke="white" stroke-width="3.05" stroke-linecap="round" stroke-linejoin="round"/>
<path d="M44.8281 68.3164H45.5225" stroke="white" stroke-width="3.05" stroke-linecap="round" stroke-linejoin="round"/>
<path d="M49.8764 48.3879L49.05 45.8577C48.9776 45.6365 48.7816 45.5178 48.5984 45.5933L46.7369 46.3648C46.5963 46.4241 46.4387 46.3648 46.3407 46.2191C46.1575 45.9548 45.9658 45.7066 45.7571 45.4746C45.6421 45.3505 45.5952 45.1563 45.6421 44.9729L46.2513 42.6207C46.3109 42.3888 46.2214 42.1406 46.0425 42.0489L44.0446 41.0023C43.87 40.9106 43.6655 41.0023 43.5761 41.2235L42.69 43.43C42.6218 43.5972 42.4813 43.6943 42.3322 43.6835C42.0595 43.6566 41.7827 43.662 41.5058 43.6835C41.3567 43.6997 41.2118 43.6026 41.1437 43.43L40.2576 41.2181C40.1724 41.0023 39.9679 40.9052 39.789 40.9969L37.7912 42.0435C37.6165 42.1352 37.5228 42.3834 37.5824 42.6153L38.1916 44.9729C38.2384 45.1509 38.1916 45.3505 38.0766 45.4746C37.8678 45.7066 37.6719 45.9494 37.4887 46.2137C37.3907 46.3594 37.2374 46.4187 37.0925 46.3594L35.2352 45.5879C35.0521 45.5124 34.8561 45.6257 34.7837 45.8523L33.9573 48.3825C33.8849 48.6036 33.9573 48.8626 34.1319 48.9759L35.8742 50.098C36.0063 50.1843 36.0829 50.3624 36.0744 50.5512C36.0574 50.8965 36.0574 51.2471 36.0744 51.5978C36.0872 51.7866 36.0105 51.97 35.8742 52.0564L34.1277 53.1785C33.9573 53.2864 33.8806 53.5453 33.953 53.7719L34.7794 56.3021C34.8518 56.5233 35.0478 56.642 35.231 56.5665L37.0925 55.795C37.2331 55.7356 37.3907 55.795 37.4887 55.9407C37.6719 56.205 37.8636 56.4532 38.0723 56.6851C38.1873 56.8092 38.2342 57.0034 38.1873 57.1869L37.5782 59.539C37.5185 59.771 37.608 60.0192 37.7869 60.1109L39.7848 61.1575C39.9594 61.2492 40.1639 61.1575 40.2534 60.9363L41.1394 58.7298C41.2076 58.5626 41.3481 58.4654 41.4972 58.4762C41.7699 58.5032 42.0468 58.4978 42.3237 58.4762C42.4727 58.4601 42.6176 58.5572 42.6857 58.7298L43.5718 60.9417C43.657 61.1575 43.8615 61.2546 44.0404 61.1629L46.0383 60.1163C46.2129 60.0246 46.3066 59.7764 46.247 59.5444L45.6378 57.1869C45.591 57.0088 45.6378 56.8092 45.7528 56.6851C45.9616 56.4532 46.1575 56.2104 46.3407 55.946C46.4387 55.8004 46.592 55.741 46.7369 55.8004L48.5942 56.5719C48.7774 56.6474 48.9733 56.5341 49.0457 56.3075L49.8721 53.7773C49.9446 53.5561 49.8721 53.2972 49.6975 53.1839L47.9552 52.0617C47.8231 51.9754 47.7465 51.7974 47.755 51.6086C47.772 51.2633 47.772 50.9126 47.755 50.562C47.7422 50.3732 47.8189 50.1897 47.9552 50.1034L49.7017 48.9813C49.8721 48.8734 49.9488 48.6144 49.8764 48.3879Z" stroke="white" stroke-width="3.05" stroke-linecap="round" stroke-linejoin="round"/>
<path d="M44.381 49.785C44.9433 51.506 44.3001 53.4751 42.9412 54.1873C41.5823 54.8994 40.0274 54.0847 39.4651 52.3638C38.9028 50.6428 39.5461 48.6737 40.905 47.9616C42.2639 47.2495 43.8187 48.0641 44.381 49.785Z" stroke="white" stroke-width="3.05" stroke-linecap="round" stroke-linejoin="round"/>
<defs>
<linearGradient id="paint0_linear_101_17035" x1="32.5007" y1="101.549" x2="92.597" y2="19.3639" gradientUnits="userSpaceOnUse">
<stop stop-color="#170463"/>
<stop offset="1" stop-color="#4201D6"/>
</linearGradient>
</defs>
</svg>
