<svg width="104" height="102" viewBox="0 0 104 102" fill="none" xmlns="http://www.w3.org/2000/svg">
<path d="M71.4973 91.9159C63.3738 90.4538 55.2503 88.9917 47.1268 87.5346C38.7069 86.0178 30.2869 84.506 21.8707 82.9892C20.7151 82.7804 17.3306 81.9697 14.3326 78.1902C12.3101 75.639 10.8805 72.2623 10.344 68.4479L5.15469 31.5178C3.66507 20.9102 9.49974 10.9591 17.6232 10.2529L79.7034 4.88698C88.5548 4.12113 95.5752 14.6243 93.9392 26.1767L86.6749 77.3995C85.3392 86.8235 78.6678 93.2039 71.4973 91.9159Z" stroke="#58077F" stroke-width="3.7" stroke-miterlimit="10" stroke-linecap="round"/>
<path d="M16.6094 3.579C18.7406 2.25119 21.0857 1.54004 23.5059 1.54004" stroke="#FF646B" stroke-width="3.08" stroke-miterlimit="10" stroke-linecap="round"/>
<path d="M32.9284 95.2776C32.2005 95.4069 31.4576 95.4765 30.7297 95.4765C26.4559 95.4765 22.5123 93.2635 19.5781 89.5934" stroke="#5307FE" stroke-width="3.08" stroke-miterlimit="10" stroke-linecap="round"/>
<path d="M86.0213 10.5861L24.4065 5.25993C15.6226 4.49905 8.65474 14.9226 10.2794 26.3906L17.4912 77.2304C18.8157 86.5798 25.4383 92.9155 32.5525 91.6374L39.873 90.3195C44.0305 89.5735 47.7301 93.8554 47.7301 99.4153V100.862C47.7301 101.464 48.2817 101.768 48.6044 101.34L54.7768 93.1591C57.9023 89.0166 61.966 86.346 66.3448 85.5603L81.8076 82.7803C87.571 81.7459 92.1824 75.9274 93.2481 68.3484L98.3998 31.6968C99.8782 21.1688 94.0885 11.2923 86.0251 10.596L86.0213 10.5861Z" fill="url(#paint0_linear_101_17092)"/>
<g style="mix-blend-mode:screen" opacity="0.7">
<mask id="mask0_101_17092" style="mask-type:luminance" maskUnits="userSpaceOnUse" x="10" y="5" width="89" height="87">
<path d="M32.5525 91.6324L81.8038 82.7754C87.5672 81.741 92.1787 75.9225 93.2443 68.3435L98.3961 31.6919C99.8744 21.1639 94.0848 11.2873 86.0213 10.5911L24.4065 5.26494C15.6226 4.50406 8.65474 14.9276 10.2794 26.3956L17.4912 77.2354C18.8157 86.5848 25.4383 92.9205 32.5525 91.6424V91.6324Z" fill="white"/>
</mask>
<g mask="url(#mask0_101_17092)">
<path d="M14.3326 78.1902C12.3101 75.639 10.8805 72.2623 10.344 68.4479L5.15469 31.5178C3.66507 20.9102 9.49974 10.9591 17.6232 10.2529L79.7034 4.88698C88.5548 4.12113 95.5752 14.6243 93.9392 26.1767L86.6749 77.3995C85.3392 86.8235 78.6678 93.2039 71.4973 91.9159" stroke="#FF646B" stroke-width="3.7" stroke-miterlimit="10" stroke-linecap="round"/>
</g>
</g>
<path d="M100.25 10.9988C101.272 10.9988 102.1 9.90112 102.1 8.54707C102.1 7.19301 101.272 6.09534 100.25 6.09534C99.2286 6.09534 98.4004 7.19301 98.4004 8.54707C98.4004 9.90112 99.2286 10.9988 100.25 10.9988Z" stroke="#FF646B" stroke-width="3.08" stroke-miterlimit="10" stroke-linecap="round"/>
<path d="M92.9961 85.3215L93.3563 84.8441" stroke="#5307FE" stroke-width="3.08" stroke-miterlimit="10" stroke-linecap="round"/>
<path d="M90.4785 88.6535L90.8387 88.181" stroke="#5307FE" stroke-width="3.08" stroke-miterlimit="10" stroke-linecap="round"/>
<path d="M90.8387 85.3215L90.4785 84.8441" stroke="#5307FE" stroke-width="3.08" stroke-miterlimit="10" stroke-linecap="round"/>
<path d="M93.3563 88.6535L92.9961 88.181" stroke="#5307FE" stroke-width="3.08" stroke-miterlimit="10" stroke-linecap="round"/>
<path d="M4.61719 10.4966L4.97364 10.0192" stroke="#5307FE" stroke-width="3.08" stroke-miterlimit="10" stroke-linecap="round"/>
<path d="M2.09961 13.8335L2.45982 13.3561" stroke="#5307FE" stroke-width="3.08" stroke-miterlimit="10" stroke-linecap="round"/>
<path d="M2.45982 10.4966L2.09961 10.0192" stroke="#5307FE" stroke-width="3.08" stroke-miterlimit="10" stroke-linecap="round"/>
<path d="M4.97364 13.8335L4.61719 13.3561" stroke="#5307FE" stroke-width="3.08" stroke-miterlimit="10" stroke-linecap="round"/>
<path d="M53.6953 34.427H62.2503" stroke="white" stroke-width="3.05" stroke-linecap="round" stroke-linejoin="round"/>
<path d="M66.9836 68.2141C66.7698 69.8155 65.7154 71.0289 64.4434 71.0289H42.8082C41.3824 71.0289 40.2305 69.4972 40.2305 67.6124V30.6176C40.2305 29.6777 40.5119 28.7776 41.0109 28.1162L44.4704 23.531C44.9695 22.8696 45.6486 22.4966 46.3578 22.4966H64.4434C65.8692 22.4966 67.0212 24.0283 67.0212 25.9131V44.5373" stroke="white" stroke-width="3.05" stroke-linecap="round" stroke-linejoin="round"/>
<path d="M53.6953 40.4941H59.046" stroke="white" stroke-width="3.05" stroke-linecap="round" stroke-linejoin="round"/>
<path d="M49.9062 22.4916V26.7386H57.3431V22.4916" stroke="white" stroke-width="3.05" stroke-linecap="round" stroke-linejoin="round"/>
<path d="M45.8418 46.1536V59.5013H57.7438" stroke="white" stroke-width="3.05" stroke-linecap="round" stroke-linejoin="round"/>
<path d="M48.8184 54.951L52.0227 50.704L55.2271 54.951L60.2626 48.2771" stroke="white" stroke-width="3.05" stroke-linecap="round" stroke-linejoin="round"/>
<path d="M51.335 34.626H45.8418V40.6931H51.335V34.626Z" stroke="white" stroke-width="3.05" stroke-linecap="round" stroke-linejoin="round"/>
<path d="M67.7039 60.7794C67.4487 61.1176 67.036 61.1176 66.7846 60.7794L63.1824 55.9953C62.9273 55.6571 62.9273 55.1151 63.1824 54.7769L64.4582 53.086C64.7133 52.7479 65.1223 52.7479 65.3775 53.086L67.0622 55.319C67.1673 55.4582 67.3324 55.4582 67.4374 55.319L71.5123 49.9182C70.3679 48.6053 68.8783 47.8146 67.2498 47.8146C63.6477 47.8146 60.7285 51.6836 60.7285 56.4628C60.7285 61.2419 63.6477 65.106 67.2498 65.106C70.8519 65.106 73.7711 61.2369 73.7711 56.4628C73.7711 55.3587 73.6136 54.2995 73.3284 53.3247L67.7076 60.7744L67.7039 60.7794Z" stroke="white" stroke-width="3.05" stroke-linecap="round" stroke-linejoin="round"/>
<defs>
<linearGradient id="paint0_linear_101_17092" x1="30.0123" y1="94.0046" x2="91.9866" y2="13.0104" gradientUnits="userSpaceOnUse">
<stop stop-color="#FF000C"/>
<stop offset="0.12" stop-color="#FF3841"/>
<stop offset="0.36" stop-color="#FE3832"/>
<stop offset="0.68" stop-color="#FE7919"/>
<stop offset="1" stop-color="#FFBF00"/>
</linearGradient>
</defs>
</svg>
