<svg width="132" height="118" viewBox="0 0 132 118" fill="none" xmlns="http://www.w3.org/2000/svg">
<path d="M90.6501 106.835C80.2521 105.139 69.854 103.443 59.4559 101.753C48.6784 99.9935 37.9008 98.2398 27.1281 96.4803C25.6489 96.238 21.3167 95.2977 17.4793 90.9134C14.8906 87.954 13.0607 84.037 12.3739 79.6124L5.7316 36.7735C3.82488 24.4687 11.2933 12.9254 21.6914 12.1062L101.154 5.8817C112.484 4.9933 121.47 17.177 119.376 30.5778L110.078 89.9962C108.368 100.928 99.8283 108.329 90.6501 106.835Z" stroke="#2D029D" stroke-width="3.7" stroke-miterlimit="10" stroke-linecap="round"/>
<path d="M20.3945 4.3652C23.1225 2.82493 26.1243 2 29.2221 2" stroke="#FF000C" stroke-width="3.08" stroke-miterlimit="10" stroke-linecap="round"/>
<path d="M41.2818 110.736C40.35 110.886 39.3991 110.967 38.4673 110.967C32.9969 110.967 27.9492 108.4 24.1934 104.143" stroke="#4E00FF" stroke-width="3.08" stroke-miterlimit="10" stroke-linecap="round"/>
<path d="M109.243 12.4934L30.3755 6.31504C19.1321 5.43242 10.2133 17.5238 12.2929 30.8266L21.5239 89.8007C23.2193 100.646 31.6963 107.995 40.8024 106.513L50.1727 104.984C55.4942 104.119 60.2298 109.086 60.2298 115.535V117.214C60.2298 117.912 60.9358 118.264 61.3489 117.768L69.2495 108.278C73.2502 103.473 78.4517 100.375 84.0566 99.4634L103.849 96.2387C111.226 95.0388 117.129 88.2893 118.493 79.4977L125.087 36.9818C126.979 24.7693 119.569 13.3126 109.247 12.5049L109.243 12.4934Z" fill="url(#paint0_linear_307_14093)"/>
<g style="mix-blend-mode:screen" opacity="0.7">
<mask id="mask0_307_14093" style="mask-type:luminance" maskUnits="userSpaceOnUse" x="11" y="6" width="115" height="101">
<path d="M40.8024 106.507L103.844 96.233C111.221 95.0331 117.124 88.2836 118.488 79.492L125.082 36.9762C126.975 24.7637 119.564 13.3069 109.243 12.4993L30.3755 6.3209C19.1321 5.43828 10.2133 17.5296 12.2929 30.8324L21.5239 89.8066C23.2193 100.652 31.6963 108.001 40.8024 106.519V106.507Z" fill="white"/>
</mask>
<g mask="url(#mask0_307_14093)">
<path d="M17.4793 90.9134C14.8906 87.954 13.0607 84.037 12.3739 79.6124L5.7316 36.7735C3.82488 24.4687 11.2933 12.9254 21.6914 12.1062L101.154 5.8817C112.484 4.9933 121.47 17.177 119.376 30.5778L110.078 89.9962C108.368 100.928 99.8283 108.329 90.6501 106.835" stroke="#FFFF00" stroke-width="3.7" stroke-miterlimit="10" stroke-linecap="round"/>
</g>
</g>
<path d="M127.454 12.9732C128.761 12.9732 129.822 11.6999 129.822 10.1292C129.822 8.55846 128.761 7.28516 127.454 7.28516C126.146 7.28516 125.086 8.55846 125.086 10.1292C125.086 11.6999 126.146 12.9732 127.454 12.9732Z" stroke="#FF000C" stroke-width="3.08" stroke-miterlimit="10" stroke-linecap="round"/>
<path d="M118.17 99.1866L118.631 98.6328" stroke="#4E00FF" stroke-width="3.08" stroke-miterlimit="10" stroke-linecap="round"/>
<path d="M114.947 103.052L115.408 102.504" stroke="#4E00FF" stroke-width="3.08" stroke-miterlimit="10" stroke-linecap="round"/>
<path d="M115.408 99.1866L114.947 98.6328" stroke="#4E00FF" stroke-width="3.08" stroke-miterlimit="10" stroke-linecap="round"/>
<path d="M118.631 103.052L118.17 102.504" stroke="#4E00FF" stroke-width="3.08" stroke-miterlimit="10" stroke-linecap="round"/>
<path d="M5.04492 12.3897L5.50118 11.8359" stroke="#4E00FF" stroke-width="3.08" stroke-miterlimit="10" stroke-linecap="round"/>
<path d="M1.82227 16.2608L2.28333 15.707" stroke="#4E00FF" stroke-width="3.08" stroke-miterlimit="10" stroke-linecap="round"/>
<path d="M2.28333 12.3897L1.82227 11.8359" stroke="#4E00FF" stroke-width="3.08" stroke-miterlimit="10" stroke-linecap="round"/>
<path d="M5.50118 16.2608L5.04492 15.707" stroke="#4E00FF" stroke-width="3.08" stroke-miterlimit="10" stroke-linecap="round"/>
<path d="M54.5677 61.6775L53.3146 63.1827C53.157 63.372 53.157 63.6788 53.3146 63.868L60.7011 72.7402C60.8586 72.9294 61.1141 72.9294 61.2716 72.7402L62.5248 71.235C62.6824 71.0457 62.6823 70.7389 62.5248 70.5497L55.1383 61.6775C54.9807 61.4883 54.7253 61.4883 54.5677 61.6775Z" stroke="white" stroke-width="3.05" stroke-linecap="round" stroke-linejoin="round"/>
<path d="M76.5455 48.0689C80.8104 54.0569 80.1764 58.8738 74.2545 62.5197C67.7899 66.5001 71.2383 74.288 65.8016 79.8375C60.6193 85.1275 54.0971 78.7184 51.2154 75.2571C48.3337 71.7959 42.9978 63.9676 47.402 57.7374C52.0223 51.2071 58.5061 55.3491 61.82 47.5843C64.8554 40.4714 68.8657 39.7099 73.8511 44.8326" stroke="white" stroke-width="3.05" stroke-linecap="round" stroke-linejoin="round"/>
<path d="M72.3721 53.5042L83.1448 39.463C83.7691 38.6496 84.6673 38.3439 85.4837 37.8362C87.6114 36.5152 89.667 34.9461 91.9051 32.252C93.3988 30.458 91.8138 28.7735 90.8629 27.6313C89.9119 26.489 88.5095 24.5853 87.0158 26.3794C84.7729 29.0734 83.4666 31.5425 82.3667 34.0923C81.9441 35.0787 81.6895 36.1517 81.0123 36.9017L69.3223 49.841" stroke="white" stroke-width="3.05" stroke-linecap="round" stroke-linejoin="round"/>
<path d="M87.5527 37.0684L87.9177 37.6106" stroke="white" stroke-width="3.05" stroke-linecap="round" stroke-linejoin="round"/>
<path d="M89.8926 34.957L90.2624 35.5051" stroke="white" stroke-width="3.05" stroke-linecap="round" stroke-linejoin="round"/>
<path d="M92.2305 32.8516L92.6003 33.3938" stroke="white" stroke-width="3.05" stroke-linecap="round" stroke-linejoin="round"/>
<path d="M82.6965 31.9403L82.2402 31.4961" stroke="white" stroke-width="3.05" stroke-linecap="round" stroke-linejoin="round"/>
<path d="M84.4495 29.1297L83.998 28.6855" stroke="white" stroke-width="3.05" stroke-linecap="round" stroke-linejoin="round"/>
<path d="M86.2082 26.3154L85.752 25.877" stroke="white" stroke-width="3.05" stroke-linecap="round" stroke-linejoin="round"/>
<path d="M76.6748 28.0234L76.0312 28.7965" stroke="white" stroke-width="3.05" stroke-linecap="round" stroke-linejoin="round"/>
<path d="M73.1972 32.1992L72.5488 32.9722" stroke="white" stroke-width="3.05" stroke-linecap="round" stroke-linejoin="round"/>
<path d="M72.5488 28.0234L73.1972 28.7965" stroke="white" stroke-width="3.05" stroke-linecap="round" stroke-linejoin="round"/>
<path d="M76.0312 32.1992L76.6748 32.9722" stroke="white" stroke-width="3.05" stroke-linecap="round" stroke-linejoin="round"/>
<path d="M66.1172 36.2207L66.2901 36.4284" stroke="white" stroke-width="3.05" stroke-linecap="round" stroke-linejoin="round"/>
<path d="M63.6445 33.25L63.8174 33.4577" stroke="white" stroke-width="3.05" stroke-linecap="round" stroke-linejoin="round"/>
<path d="M66.1172 33.4577L66.2901 33.25" stroke="white" stroke-width="3.05" stroke-linecap="round" stroke-linejoin="round"/>
<path d="M63.6445 36.4284L63.8174 36.2207" stroke="white" stroke-width="3.05" stroke-linecap="round" stroke-linejoin="round"/>
<path d="M55.0331 42.7793L54.3848 43.5523" stroke="white" stroke-width="3.05" stroke-linecap="round" stroke-linejoin="round"/>
<path d="M51.5518 46.957L50.9082 47.73" stroke="white" stroke-width="3.05" stroke-linecap="round" stroke-linejoin="round"/>
<path d="M50.9082 42.7793L51.5518 43.5523" stroke="white" stroke-width="3.05" stroke-linecap="round" stroke-linejoin="round"/>
<path d="M54.3848 46.957L55.0331 47.73" stroke="white" stroke-width="3.05" stroke-linecap="round" stroke-linejoin="round"/>
<path d="M56.7578 32.0039L56.9307 32.2116" stroke="white" stroke-width="3.05" stroke-linecap="round" stroke-linejoin="round"/>
<path d="M54.2832 29.0332L54.4561 29.2409" stroke="white" stroke-width="3.05" stroke-linecap="round" stroke-linejoin="round"/>
<path d="M56.7578 29.2409L56.9307 29.0332" stroke="white" stroke-width="3.05" stroke-linecap="round" stroke-linejoin="round"/>
<path d="M54.2832 32.2116L54.4561 32.0039" stroke="white" stroke-width="3.05" stroke-linecap="round" stroke-linejoin="round"/>
<path d="M65.9787 63.1438C68.5623 63.1438 70.6567 60.6282 70.6567 57.525C70.6567 54.4219 68.5623 51.9062 65.9787 51.9062C63.3952 51.9062 61.3008 54.4219 61.3008 57.525C61.3008 60.6282 63.3952 63.1438 65.9787 63.1438Z" stroke="white" stroke-width="3.05" stroke-linecap="round" stroke-linejoin="round"/>
<defs>
<linearGradient id="paint0_linear_307_14093" x1="37.5509" y1="109.259" x2="107.305" y2="8.66711" gradientUnits="userSpaceOnUse">
<stop stop-color="#FE0047"/>
<stop offset="0.12" stop-color="#FE0F41"/>
<stop offset="0.36" stop-color="#FE3832"/>
<stop offset="0.68" stop-color="#FE7919"/>
<stop offset="1" stop-color="#FFBF00"/>
</linearGradient>
</defs>
</svg>
