<svg width="153" height="107" viewBox="0 0 153 107" fill="none" xmlns="http://www.w3.org/2000/svg">
<path d="M29.5985 8.04321H123.399C124.522 8.04321 125.433 9.03604 125.433 10.2592V69.822H27.5635V10.2592C27.5635 9.03604 28.4746 8.04321 29.5971 8.04321H29.5985Z" fill="url(#paint0_linear_25_614)"/>
<path d="M120.999 15.9962V65.441H32V15.9962C32 14.0236 33.4677 12.4243 35.2779 12.4243H117.72C119.53 12.4243 120.998 14.0236 120.998 15.9962H120.999Z" fill="url(#paint1_linear_25_614)"/>
<path d="M101.133 19.1613H66.1558C65.8233 19.1613 65.5537 19.455 65.5537 19.8173V20.6192C65.5537 20.9815 65.8233 21.2752 66.1558 21.2752H101.133C101.466 21.2752 101.735 20.9815 101.735 20.6192V19.8173C101.735 19.455 101.466 19.1613 101.133 19.1613Z" fill="url(#paint2_linear_25_614)"/>
<path d="M101.133 26.009H66.1558C65.8233 26.009 65.5537 26.3028 65.5537 26.6651V27.4669C65.5537 27.8293 65.8233 28.123 66.1558 28.123H101.133C101.466 28.123 101.735 27.8293 101.735 27.4669V26.6651C101.735 26.3028 101.466 26.009 101.133 26.009Z" fill="url(#paint3_linear_25_614)"/>
<path d="M101.133 32.8568H66.1558C65.8233 32.8568 65.5537 33.1505 65.5537 33.5129V34.3147C65.5537 34.677 65.8233 34.9708 66.1558 34.9708H101.133C101.466 34.9708 101.735 34.677 101.735 34.3147V33.5129C101.735 33.1505 101.466 32.8568 101.133 32.8568Z" fill="url(#paint4_linear_25_614)"/>
<path d="M101.133 39.7045H66.1558C65.8233 39.7045 65.5537 39.9982 65.5537 40.3605V41.1624C65.5537 41.5247 65.8233 41.8184 66.1558 41.8184H101.133C101.466 41.8184 101.735 41.5247 101.735 41.1624V40.3605C101.735 39.9982 101.466 39.7045 101.133 39.7045Z" fill="url(#paint5_linear_25_614)"/>
<path d="M101.133 46.5525H66.1558C65.8233 46.5525 65.5537 46.8462 65.5537 47.2085V48.0104C65.5537 48.3727 65.8233 48.6665 66.1558 48.6665H101.133C101.466 48.6665 101.735 48.3727 101.735 48.0104V47.2085C101.735 46.8462 101.466 46.5525 101.133 46.5525Z" fill="url(#paint6_linear_25_614)"/>
<path d="M101.133 53.4001H66.1558C65.8233 53.4001 65.5537 53.6939 65.5537 54.0562V54.8581C65.5537 55.2204 65.8233 55.5141 66.1558 55.5141H101.133C101.466 55.5141 101.735 55.2204 101.735 54.8581V54.0562C101.735 53.6939 101.466 53.4001 101.133 53.4001Z" fill="url(#paint7_linear_25_614)"/>
<path d="M58.4286 16.7018H36.9121C35.7719 16.7018 34.8477 17.7089 34.8477 18.9513V55.9355C34.8477 57.1779 35.7719 58.185 36.9121 58.185H58.4286C59.5688 58.185 60.493 57.1779 60.493 55.9355V18.9513C60.493 17.7089 59.5688 16.7018 58.4286 16.7018Z" fill="url(#paint8_linear_25_614)"/>
<path d="M51.7587 33.9647C50.6469 34.9678 49.222 35.5699 47.67 35.5699C46.118 35.5699 44.6931 34.9663 43.5813 33.9633C41.1008 35.5116 39.4297 38.423 39.4297 41.7616V50.7408H55.9103V41.7616C55.9103 38.4244 54.2392 35.5116 51.7587 33.9647Z" fill="url(#paint9_linear_25_614)"/>
<path d="M52.9972 30.5165C53.9872 27.3072 52.4022 23.831 49.457 22.7522C46.5118 21.6734 43.3217 23.4005 42.3317 26.6098C41.3416 29.8191 42.9266 33.2953 45.8718 34.3741C48.817 35.4529 52.0071 33.7258 52.9972 30.5165Z" fill="url(#paint10_linear_25_614)"/>
<path d="M145.929 98.913C139.089 91.2546 132.248 83.5977 125.409 75.9393H27.5903C20.9449 83.379 14.3007 90.8187 7.65525 98.2584L0.000976562 100.711C0.000976562 104.09 2.51493 106.828 5.61491 106.828H147.386C150.487 106.828 152.999 104.089 152.999 100.711L145.93 98.913H145.929Z" fill="url(#paint11_linear_25_614)"/>
<path d="M152.999 100.712H0C9.1969 90.4163 18.3938 80.1191 27.5894 69.8234H125.408C134.605 80.1191 143.802 90.4163 152.997 100.712H152.999Z" fill="url(#paint12_linear_25_614)"/>
<path d="M9.19434 96.4814L29.2284 74.0515H123.77L143.804 96.4814H9.19434Z" fill="url(#paint13_linear_25_614)"/>
<path style="mix-blend-mode:screen" d="M34.0968 78.2852H118.903C119.295 78.2852 119.612 78.6321 119.612 79.0578V80.004C119.612 80.4312 119.293 80.7767 118.903 80.7767H34.0968C33.7048 80.7767 33.3877 80.4297 33.3877 80.004V79.0578C33.3877 78.6307 33.7061 78.2852 34.0968 78.2852Z" fill="url(#paint14_linear_25_614)"/>
<path style="mix-blend-mode:screen" d="M124.725 86.4423H28.2736C27.8819 86.4423 27.5645 86.7882 27.5645 87.215V88.1626C27.5645 88.5893 27.8819 88.9353 28.2736 88.9353H124.725C125.116 88.9353 125.434 88.5893 125.434 88.1626V87.215C125.434 86.7882 125.116 86.4423 124.725 86.4423Z" fill="url(#paint15_linear_25_614)"/>
<path style="mix-blend-mode:multiply" d="M78.0185 10.2082C78.0185 11.1223 77.3389 11.8629 76.5 11.8629C75.6611 11.8629 74.9814 11.1223 74.9814 10.2082C74.9814 9.29408 75.6611 8.55347 76.5 8.55347C77.3389 8.55347 78.0185 9.29408 78.0185 10.2082Z" fill="url(#paint16_linear_25_614)"/>
<path style="mix-blend-mode:screen" opacity="0.3" d="M121.001 44.8219V58.1851L79.0049 12.4243H91.2656L121.001 44.8219Z" fill="url(#paint17_linear_25_614)"/>
<path style="mix-blend-mode:screen" opacity="0.3" d="M78.5885 65.4411H72.2361L32.002 21.5975V14.6754L78.5885 65.4411Z" fill="url(#paint18_linear_25_614)"/>
<path style="mix-blend-mode:screen" opacity="0.3" d="M114.769 65.441H95.1322L46.4785 12.4243H66.1139L114.769 65.441Z" fill="url(#paint19_linear_25_614)"/>
<path d="M124.61 47.7756C124.445 47.691 120.528 45.6572 116.23 40.989C112.279 36.6969 107.222 29.247 105.562 18.132C105.388 16.9715 105.254 15.7804 105.162 14.5936C105.139 14.3196 105.119 14.0294 105.1 13.7393L104.972 11.6778L106.859 11.4898C106.874 11.4883 108.631 11.3031 111.083 10.5902C113.145 9.98957 115.08 9.20377 116.834 8.25176C118.085 7.57238 119.246 6.80698 120.284 5.97451C121.217 5.22661 122.068 4.41016 122.812 3.55146C123.197 3.10679 123.561 2.64319 123.897 2.17082L125.434 0L126.97 2.17228C132.706 10.2797 143.893 11.4796 144.006 11.4912L145.893 11.6793L145.765 13.7408C145.522 17.6596 144.847 21.4356 143.762 24.9637C143.311 26.4333 142.781 27.8839 142.187 29.2718C141.533 30.8041 140.784 32.3072 139.958 33.7389C138.845 35.672 137.565 37.525 136.157 39.2439C135.147 40.4758 134.058 41.6553 132.921 42.7473C132.407 43.24 131.881 43.7182 131.357 44.1687C128.512 46.6151 126.349 47.7333 126.259 47.78L125.434 48.2027L124.608 47.78L124.61 47.7756Z" fill="url(#paint20_linear_25_614)"/>
<path d="M143.832 13.5951C143.584 17.5737 142.897 21.1295 141.925 24.2888C141.482 25.7321 140.979 27.0938 140.431 28.3753C139.782 29.8974 139.069 31.3072 138.317 32.6105C137.174 34.5933 135.942 36.3296 134.711 37.8327C133.669 39.1026 132.628 40.2077 131.638 41.1582C131.127 41.6481 130.632 42.0971 130.156 42.5039C127.452 44.8292 125.434 45.8614 125.434 45.8614C125.434 45.8614 110.528 38.2308 107.478 17.7909C107.314 16.7019 107.186 15.5764 107.095 14.4129C107.072 14.1418 107.054 13.8691 107.036 13.5936C107.036 13.5936 108.917 13.407 111.585 12.6314C113.379 12.1095 115.528 11.3207 117.699 10.1428C118.96 9.45899 120.227 8.64402 121.435 7.67597C122.414 6.89016 123.356 6.00375 124.223 5.00072C124.645 4.51523 125.05 4.00206 125.433 3.45972C131.753 12.3923 143.829 13.5936 143.829 13.5936L143.832 13.5951Z" fill="url(#paint21_linear_25_614)"/>
<path d="M124.072 29.8171L115.251 23.1821L121.71 33.3773C121.85 33.5945 122.029 33.7957 122.242 33.9561C122.355 34.0421 122.476 34.1135 122.598 34.1704C122.664 34.252 122.737 34.3307 122.816 34.4036C123.691 35.1938 124.987 35.0611 125.712 34.1077L139.738 15.6681L124.071 29.8171H124.072Z" fill="url(#paint22_linear_25_614)"/>
<path style="mix-blend-mode:screen" d="M143.832 13.595C142.364 37.1941 125.436 45.8613 125.436 45.8613V3.46106C131.756 12.3936 143.832 13.595 143.832 13.595Z" fill="url(#paint23_linear_25_614)"/>
<defs>
<linearGradient id="paint0_linear_25_614" x1="55.3308" y1="-4.98755" x2="102.806" y2="79.5515" gradientUnits="userSpaceOnUse">
<stop stop-color="#7A17BF"/>
<stop offset="1" stop-color="#0D0654"/>
</linearGradient>
<linearGradient id="paint1_linear_25_614" x1="74.0029" y1="3.9743" x2="82.1887" y2="105.252" gradientUnits="userSpaceOnUse">
<stop stop-color="#FDB968"/>
<stop offset="1" stop-color="#FF646B"/>
</linearGradient>
<linearGradient id="paint2_linear_25_614" x1="148.147" y1="58.7798" x2="64.5915" y2="16.7123" gradientUnits="userSpaceOnUse">
<stop stop-color="#91C1EF"/>
<stop offset="1" stop-color="#FFE1FF"/>
</linearGradient>
<linearGradient id="paint3_linear_25_614" x1="145.475" y1="64.0298" x2="61.9183" y2="21.9623" gradientUnits="userSpaceOnUse">
<stop stop-color="#91C1EF"/>
<stop offset="1" stop-color="#FFE1FF"/>
</linearGradient>
<linearGradient id="paint4_linear_25_614" x1="142.803" y1="69.2797" x2="59.2478" y2="27.2121" gradientUnits="userSpaceOnUse">
<stop stop-color="#91C1EF"/>
<stop offset="1" stop-color="#FFE1FF"/>
</linearGradient>
<linearGradient id="paint5_linear_25_614" x1="140.131" y1="74.5309" x2="56.5747" y2="32.4634" gradientUnits="userSpaceOnUse">
<stop stop-color="#91C1EF"/>
<stop offset="1" stop-color="#FFE1FF"/>
</linearGradient>
<linearGradient id="paint6_linear_25_614" x1="137.459" y1="79.7811" x2="53.9028" y2="37.7136" gradientUnits="userSpaceOnUse">
<stop stop-color="#91C1EF"/>
<stop offset="1" stop-color="#FFE1FF"/>
</linearGradient>
<linearGradient id="paint7_linear_25_614" x1="134.787" y1="85.0323" x2="51.231" y2="42.9648" gradientUnits="userSpaceOnUse">
<stop stop-color="#91C1EF"/>
<stop offset="1" stop-color="#FFE1FF"/>
</linearGradient>
<linearGradient id="paint8_linear_25_614" x1="39.5973" y1="16.8126" x2="60.125" y2="60.9935" gradientUnits="userSpaceOnUse">
<stop stop-color="#7A17BF"/>
<stop offset="1" stop-color="#0D0654"/>
</linearGradient>
<linearGradient id="paint9_linear_25_614" x1="59.1641" y1="62.3064" x2="39.6626" y2="37.3074" gradientUnits="userSpaceOnUse">
<stop stop-color="#91C1EF"/>
<stop offset="1" stop-color="#FFE1FF"/>
</linearGradient>
<linearGradient id="paint10_linear_25_614" x1="66.206" y1="56.8024" x2="46.7045" y2="31.8034" gradientUnits="userSpaceOnUse">
<stop stop-color="#C8E4FF"/>
<stop offset="1" stop-color="#FFE1FF"/>
</linearGradient>
<linearGradient id="paint11_linear_25_614" x1="117.656" y1="152.106" x2="27.0706" y2="59.0006" gradientUnits="userSpaceOnUse">
<stop stop-color="#7A17BF"/>
<stop offset="1" stop-color="#0D0654"/>
</linearGradient>
<linearGradient id="paint12_linear_25_614" x1="77.9248" y1="44.1307" x2="74.9624" y2="143.209" gradientUnits="userSpaceOnUse">
<stop stop-color="#FDB968"/>
<stop offset="1" stop-color="#FF646B"/>
</linearGradient>
<linearGradient id="paint13_linear_25_614" x1="112.101" y1="139.931" x2="32.0882" y2="57.6922" gradientUnits="userSpaceOnUse">
<stop stop-color="#7A17BF"/>
<stop offset="1" stop-color="#0D0654"/>
</linearGradient>
<linearGradient id="paint14_linear_25_614" x1="59.9857" y1="61.2685" x2="121.222" y2="118.3" gradientUnits="userSpaceOnUse">
<stop stop-color="#7A17BF"/>
<stop offset="1" stop-color="#0D0654"/>
</linearGradient>
<linearGradient id="paint15_linear_25_614" x1="56.2335" y1="65.2779" x2="117.428" y2="122.271" gradientUnits="userSpaceOnUse">
<stop stop-color="#7A17BF"/>
<stop offset="1" stop-color="#0D0654"/>
</linearGradient>
<linearGradient id="paint16_linear_25_614" x1="75.0283" y1="6.47887" x2="78.1215" y2="13.0826" gradientUnits="userSpaceOnUse">
<stop stop-color="#7A17BF"/>
<stop offset="1" stop-color="#0D0654"/>
</linearGradient>
<linearGradient id="paint17_linear_25_614" x1="141.046" y1="83.1459" x2="25.7872" y2="-45.8036" gradientUnits="userSpaceOnUse">
<stop stop-color="white"/>
<stop offset="1"/>
</linearGradient>
<linearGradient id="paint18_linear_25_614" x1="107.616" y1="113.026" x2="-7.64127" y2="-15.9253" gradientUnits="userSpaceOnUse">
<stop stop-color="white"/>
<stop offset="1"/>
</linearGradient>
<linearGradient id="paint19_linear_25_614" x1="124.821" y1="97.6476" x2="9.56338" y2="-31.3035" gradientUnits="userSpaceOnUse">
<stop stop-color="white"/>
<stop offset="1"/>
</linearGradient>
<linearGradient id="paint20_linear_25_614" x1="131.849" y1="2.10813" x2="111.678" y2="39.8598" gradientUnits="userSpaceOnUse">
<stop stop-color="#FDB968"/>
<stop offset="1" stop-color="#FF646B"/>
</linearGradient>
<linearGradient id="paint21_linear_25_614" x1="119.987" y1="-2.63433" x2="136.454" y2="44.1245" gradientUnits="userSpaceOnUse">
<stop stop-color="#7A17BF"/>
<stop offset="1" stop-color="#0D0654"/>
</linearGradient>
<linearGradient id="paint22_linear_25_614" x1="125.516" y1="18.5679" x2="144.763" y2="37.1566" gradientUnits="userSpaceOnUse">
<stop stop-color="#FDB968"/>
<stop offset="0.375" stop-color="#FDB566"/>
<stop offset="1" stop-color="#FA000B"/>
</linearGradient>
<linearGradient id="paint23_linear_25_614" x1="125.782" y1="5.42923" x2="140.587" y2="39.6582" gradientUnits="userSpaceOnUse">
<stop stop-color="#7A17BF"/>
<stop offset="1" stop-color="#0D0654"/>
</linearGradient>
</defs>
</svg>
