<svg width="157" height="120" viewBox="0 0 157 120" fill="none" xmlns="http://www.w3.org/2000/svg">
<path d="M117.282 41.131H97.8223C97.6115 41.131 97.4404 40.9655 97.4404 40.7614C97.4404 40.5574 97.6115 40.3919 97.8223 40.3919H116.518V19.0183H130.331C130.542 19.0183 130.713 19.1838 130.713 19.3879C130.713 19.5919 130.542 19.7574 130.331 19.7574H117.281V41.131H117.282Z" fill="url(#paint0_linear_80_1832)"/>
<path d="M132.429 90.4458H94.6055C94.3947 90.4458 94.2236 90.2803 94.2236 90.0762C94.2236 89.8722 94.3947 89.7067 94.6055 89.7067H131.667V65.0954C131.667 64.8913 131.838 64.7258 132.049 64.7258C132.259 64.7258 132.43 64.8913 132.43 65.0954V90.4445L132.429 90.4458Z" fill="url(#paint1_linear_80_1832)"/>
<path d="M58.8581 43.5277H35.2656V26.6896C35.2656 26.4856 35.4366 26.3201 35.6475 26.3201C35.8584 26.3201 36.0294 26.4856 36.0294 26.6896V42.7898H58.8594C59.0703 42.7898 59.2413 42.9553 59.2413 43.1594C59.2413 43.3634 59.0703 43.5289 58.8594 43.5289L58.8581 43.5277Z" fill="url(#paint2_linear_80_1832)"/>
<path d="M40.7054 91.5432H24.3204C24.1095 91.5432 23.9385 91.3777 23.9385 91.1737C23.9385 90.9696 24.1095 90.8041 24.3204 90.8041H39.9429V75.8711H61.1166C61.3275 75.8711 61.4985 76.0366 61.4985 76.2407C61.4985 76.4447 61.3275 76.6102 61.1166 76.6102H40.7054V91.5432Z" fill="url(#paint3_linear_80_1832)"/>
<path d="M102.947 22.4586H54.2664C52.7154 22.4586 51.458 23.6753 51.458 25.1762V116.527C51.458 118.028 52.7154 119.245 54.2664 119.245H102.947C104.498 119.245 105.755 118.028 105.755 116.527V25.1762C105.755 23.6753 104.498 22.4586 102.947 22.4586Z" fill="url(#paint4_linear_80_1832)"/>
<path d="M105.757 25.6478V109.911C105.757 113.369 102.858 116.174 99.2847 116.174H57.93C54.3564 116.174 51.458 113.369 51.458 109.911V25.6478C51.458 23.7951 52.2913 22.1289 53.6158 20.9854C54.7602 19.9899 56.2712 19.3877 57.9313 19.3877H99.286C102.86 19.3877 105.758 22.1899 105.758 25.6478H105.757Z" fill="url(#paint5_linear_80_1832)"/>
<path d="M101.468 33.5344V104.419C101.468 105.997 100.418 107.336 98.9602 107.817C98.5835 107.941 98.181 108.009 97.7605 108.009H59.4559C57.4049 108.009 55.7461 106.403 55.7461 104.419V33.5344C55.7461 31.5522 57.4062 29.947 59.4559 29.947H97.7605C99.8089 29.947 101.468 31.5534 101.468 33.5344Z" fill="#FF5E6B"/>
<path d="M72.2958 23.616H59.5447C59.1641 23.616 58.8555 23.9146 58.8555 24.2829V26.0212C58.8555 26.3896 59.1641 26.6882 59.5447 26.6882H72.2958C72.6764 26.6882 72.985 26.3896 72.985 26.0212V24.2829C72.985 23.9146 72.6764 23.616 72.2958 23.616Z" fill="#FF5E6B"/>
<path d="M97.6669 23.616H84.9158C84.5352 23.616 84.2266 23.9146 84.2266 24.2829V26.0212C84.2266 26.3896 84.5352 26.6882 84.9158 26.6882H97.6669C98.0475 26.6882 98.3561 26.3896 98.3561 26.0212V24.2829C98.3561 23.9146 98.0475 23.616 97.6669 23.616Z" fill="url(#paint6_linear_80_1832)"/>
<path d="M81.4507 23.616H75.7644C75.3838 23.616 75.0752 23.9146 75.0752 24.2829V26.0212C75.0752 26.3896 75.3838 26.6882 75.7644 26.6882H81.4507C81.8314 26.6882 82.14 26.3896 82.14 26.0212V24.2829C82.14 23.9146 81.8314 23.616 81.4507 23.616Z" fill="url(#paint7_linear_80_1832)"/>
<path d="M83.6648 109.987H73.5486C73.168 109.987 72.8594 110.286 72.8594 110.654V112.393C72.8594 112.761 73.168 113.06 73.5486 113.06H83.6648C84.0455 113.06 84.3541 112.761 84.3541 112.393V110.654C84.3541 110.286 84.0455 109.987 83.6648 109.987Z" fill="url(#paint8_linear_80_1832)"/>
<path d="M77.6595 89.4376C68.7597 83.4412 64.2861 75.118 62.1 69.1914C59.7378 62.7869 59.4691 57.8208 59.4588 57.613L59.3906 56.2256L60.8 55.9618C72.0234 53.8577 77.2994 48.0654 77.3522 48.0069L78.6072 46.5996L79.8622 48.0069C79.9111 48.0617 85.272 53.8726 96.4144 55.9618L97.8238 56.2269L97.7556 57.6143C97.7453 57.8221 97.4766 62.7881 95.1144 69.1926C92.9283 75.1193 88.4547 83.4425 79.5562 89.4388L78.6085 90.0772L77.6608 89.4388L77.6595 89.4376Z" fill="url(#paint9_linear_80_1832)"/>
<path d="M96.098 57.5372C96.098 57.5372 95.1374 76.9846 78.6084 88.1212C62.0768 76.9846 61.1162 57.5372 61.1162 57.5372C73.0327 55.3012 78.6084 49.0535 78.6084 49.0535C78.6084 49.0535 84.1828 55.3012 96.098 57.5372Z" fill="url(#paint10_linear_80_1832)"/>
<path style="mix-blend-mode:screen" d="M96.098 57.5373C96.098 57.5373 95.1374 76.9847 78.6084 88.1213V49.0548C78.6084 49.0548 84.1828 55.3025 96.098 57.5385V57.5373Z" fill="url(#paint11_linear_80_1832)"/>
<path style="mix-blend-mode:multiply" d="M105.757 108.874V109.912C105.757 113.37 102.858 116.174 99.2847 116.174H57.93C54.3564 116.174 51.458 113.37 51.458 109.912V25.6479C51.458 23.7951 52.2913 22.129 53.6158 20.9855L105.758 108.874H105.757Z" fill="url(#paint12_linear_80_1832)"/>
<path style="mix-blend-mode:screen" opacity="0.3" d="M101.467 57.4862V66.4303L63.7646 29.947H73.0077L101.467 57.4862Z" fill="url(#paint13_linear_80_1832)"/>
<path style="mix-blend-mode:screen" opacity="0.3" d="M101.468 104.394V104.42C101.468 105.998 100.419 107.337 98.9605 107.819L55.7451 65.9986V60.1541L101.468 104.394Z" fill="url(#paint14_linear_80_1832)"/>
<path style="mix-blend-mode:screen" opacity="0.3" d="M101.468 83.2324V95.1454L55.7451 50.9051V38.9921L101.468 83.2324Z" fill="url(#paint15_linear_80_1832)"/>
<path d="M140.407 63.5296C145.023 59.0624 145.023 51.8197 140.407 47.3525C135.79 42.8853 128.306 42.8853 123.689 47.3525C119.073 51.8197 119.073 59.0624 123.689 63.5296C128.306 67.9968 135.79 67.9968 140.407 63.5296Z" fill="url(#paint16_linear_80_1832)"/>
<path d="M139.577 52.9657C139.406 52.9657 139.233 52.9047 139.098 52.7827C137.178 51.0519 134.673 50.1 132.045 50.1C129.417 50.1 126.914 51.0531 124.993 52.784C124.709 53.0403 124.265 53.0241 124 52.7491C123.737 52.4741 123.752 52.0449 124.036 51.7885C126.219 49.8238 129.063 48.7412 132.045 48.7412C135.027 48.7412 137.875 49.8238 140.056 51.7885C140.34 52.0449 140.356 52.4741 140.091 52.7491C139.953 52.8922 139.766 52.9657 139.577 52.9657Z" fill="url(#paint17_linear_80_1832)"/>
<path d="M126.271 55.5153C126.081 55.5153 125.89 55.4406 125.751 55.2926C125.49 55.0151 125.511 54.5858 125.798 54.3332C127.511 52.8251 129.729 51.9939 132.043 51.9939C134.358 51.9939 136.579 52.8251 138.29 54.3332C138.577 54.5858 138.598 55.0163 138.337 55.2926C138.076 55.5701 137.631 55.59 137.345 55.3374C135.893 54.057 134.011 53.3527 132.045 53.3527C130.078 53.3527 128.197 54.0582 126.744 55.3374C126.609 55.4556 126.441 55.5141 126.272 55.5141L126.271 55.5153Z" fill="#FF5E6B"/>
<path d="M135.995 58.1271C135.831 58.1271 135.666 58.0711 135.533 57.9591C134.569 57.1416 133.329 56.6924 132.045 56.6924C130.76 56.6924 129.522 57.1429 128.555 57.9604C128.263 58.2067 127.819 58.1781 127.565 57.8957C127.31 57.6132 127.34 57.1839 127.632 56.9363C128.854 55.9023 130.422 55.3336 132.045 55.3336C133.668 55.3336 135.238 55.9035 136.458 56.9375C136.75 57.1852 136.78 57.6144 136.524 57.8969C136.385 58.05 136.191 58.1283 135.995 58.1283V58.1271Z" fill="#FF5E6B"/>
<path d="M134.008 60.8706C134.456 59.8224 133.942 58.6207 132.859 58.1865C131.776 57.7523 130.534 58.2501 130.085 59.2983C129.636 60.3465 130.151 61.5483 131.234 61.9825C132.317 62.4166 133.559 61.9189 134.008 60.8706Z" fill="url(#paint18_linear_80_1832)"/>
<path d="M44.0065 24.2658C48.623 19.7986 48.623 12.5559 44.0065 8.08867C39.39 3.62147 31.9052 3.62147 27.2886 8.08867C22.6721 12.5559 22.6721 19.7986 27.2886 24.2658C31.9052 28.733 39.39 28.733 44.0065 24.2658Z" fill="url(#paint19_linear_80_1832)"/>
<path d="M43.1791 13.7026C43.0081 13.7026 42.8358 13.6416 42.7007 13.5209C40.7809 11.7901 38.2759 10.8382 35.6475 10.8382C33.0191 10.8382 30.5168 11.7913 28.5956 13.5221C28.3114 13.7785 27.8678 13.7623 27.6029 13.4873C27.3393 13.2123 27.3547 12.783 27.6389 12.5267C29.8211 10.5619 32.6655 9.47937 35.6475 9.47937C38.6296 9.47937 41.4778 10.5619 43.6587 12.5267C43.9429 12.783 43.9583 13.2123 43.6935 13.4873C43.5559 13.6304 43.3681 13.7038 43.1791 13.7038V13.7026Z" fill="url(#paint20_linear_80_1832)"/>
<path d="M29.8734 16.2521C29.6831 16.2521 29.4928 16.1775 29.3539 16.0294C29.0929 15.7519 29.1135 15.3226 29.4002 15.07C31.1131 13.5619 33.3312 12.7307 35.6459 12.7307C37.9605 12.7307 40.1813 13.5619 41.8928 15.07C42.1796 15.3226 42.2001 15.7531 41.9391 16.0294C41.6781 16.3069 41.2331 16.3268 40.9477 16.0742C39.4959 14.7938 37.6133 14.0895 35.6472 14.0895C33.681 14.0895 31.7997 14.795 30.3467 16.0742C30.2116 16.1924 30.0432 16.2509 29.8747 16.2509L29.8734 16.2521Z" fill="#FF5E6B"/>
<path d="M39.5976 18.8639C39.433 18.8639 39.2684 18.8079 39.136 18.6959C38.1716 17.8784 36.932 17.4292 35.6473 17.4292C34.3627 17.4292 33.1244 17.8797 32.1574 18.6972C31.8655 18.9436 31.4219 18.9149 31.1672 18.6325C30.9126 18.35 30.9422 17.9207 31.2341 17.6731C32.457 16.6391 34.0245 16.0704 35.6473 16.0704C37.2702 16.0704 38.8402 16.6403 40.0606 17.6744C40.3525 17.922 40.382 18.3513 40.1261 18.6337C39.9873 18.7868 39.7931 18.8652 39.5976 18.8652V18.8639Z" fill="#FF5E6B"/>
<path d="M37.716 21.2644C37.9696 20.1567 37.2472 19.0598 36.1024 18.8144C34.9576 18.569 33.8241 19.2681 33.5705 20.3758C33.3169 21.4836 34.0393 22.5805 35.1841 22.8259C36.3289 23.0713 37.4625 22.3722 37.716 21.2644Z" fill="url(#paint21_linear_80_1832)"/>
<path d="M148.641 27.4764C153.258 23.0092 153.258 15.7664 148.641 11.2992C144.025 6.83205 136.54 6.83204 131.923 11.2992C127.307 15.7664 127.307 23.0092 131.923 27.4764C136.54 31.9436 144.025 31.9436 148.641 27.4764Z" fill="url(#paint22_linear_80_1832)"/>
<path d="M147.813 16.9129C147.642 16.9129 147.47 16.8519 147.335 16.73C145.415 14.9992 142.91 14.0473 140.281 14.0473C137.653 14.0473 135.151 15.0004 133.229 16.7313C132.945 16.9876 132.502 16.9714 132.237 16.6964C131.973 16.4214 131.989 15.9921 132.273 15.7358C134.455 13.771 137.299 12.6885 140.281 12.6885C143.263 12.6885 146.112 13.771 148.293 15.7358C148.577 15.9921 148.592 16.4214 148.327 16.6964C148.19 16.8395 148.002 16.9129 147.813 16.9129Z" fill="url(#paint23_linear_80_1832)"/>
<path d="M134.507 19.4623C134.317 19.4623 134.127 19.3877 133.988 19.2396C133.727 18.9621 133.747 18.5328 134.034 18.2802C135.747 16.7721 137.965 15.9409 140.28 15.9409C142.594 15.9409 144.815 16.7721 146.527 18.2802C146.813 18.5328 146.834 18.9634 146.573 19.2396C146.312 19.5171 145.867 19.537 145.581 19.2844C144.13 18.004 142.247 17.2997 140.281 17.2997C138.315 17.2997 136.434 18.0052 134.98 19.2844C134.845 19.4026 134.677 19.4611 134.509 19.4611L134.507 19.4623Z" fill="#FF5E6B"/>
<path d="M144.231 22.0755C144.067 22.0755 143.902 22.0195 143.77 21.9075C142.805 21.09 141.566 20.6408 140.281 20.6408C138.997 20.6408 137.758 21.0912 136.791 21.9087C136.499 22.1551 136.056 22.1265 135.801 21.844C135.546 21.5616 135.576 21.1323 135.868 20.8847C137.091 19.8506 138.658 19.282 140.281 19.282C141.904 19.282 143.474 19.8519 144.694 20.8859C144.986 21.1335 145.016 21.5628 144.76 21.8453C144.621 21.9983 144.427 22.0767 144.231 22.0767V22.0755Z" fill="#FF5E6B"/>
<path d="M140.399 26.0905C141.57 26.0268 142.465 25.0568 142.4 23.924C142.334 22.7912 141.331 21.9245 140.161 21.9882C138.99 22.052 138.094 23.022 138.16 24.1548C138.226 25.2876 139.229 26.1542 140.399 26.0905Z" fill="url(#paint24_linear_80_1832)"/>
<path d="M25.0768 99.2634C29.6934 94.7962 29.6934 87.5534 25.0768 83.0862C20.4603 78.619 12.9755 78.619 8.35895 83.0862C3.74243 87.5534 3.74243 94.7962 8.35895 99.2634C12.9755 103.731 20.4603 103.731 25.0768 99.2634Z" fill="url(#paint25_linear_80_1832)"/>
<path d="M24.2484 88.6997C24.0774 88.6997 23.9051 88.6387 23.7701 88.5167C21.8502 86.7859 19.3453 85.834 16.7169 85.834C14.0885 85.834 11.5861 86.7872 9.66497 88.518C9.38078 88.7743 8.93715 88.7581 8.67225 88.4832C8.40864 88.2082 8.42407 87.7789 8.70825 87.5225C10.8904 85.5578 13.7349 84.4752 16.7169 84.4752C19.6989 84.4752 22.5472 85.5578 24.7281 87.5225C25.0123 87.7789 25.0277 88.2082 24.7628 88.4832C24.6252 88.6263 24.4375 88.6997 24.2484 88.6997Z" fill="url(#paint26_linear_80_1832)"/>
<path d="M10.9428 91.2493C10.7525 91.2493 10.5622 91.1746 10.4233 91.0278C10.1622 90.7503 10.1828 90.321 10.4696 90.0684C12.1824 88.5603 14.4006 87.7291 16.7152 87.7291C19.0298 87.7291 21.2506 88.5603 22.9621 90.0684C23.2489 90.321 23.2695 90.7516 23.0084 91.0278C22.7474 91.3053 22.3025 91.3252 22.017 91.0726C20.5652 89.7922 18.6826 89.0879 16.7165 89.0879C14.7503 89.0879 12.8691 89.7934 11.416 91.0726C11.281 91.1908 11.1125 91.2493 10.9441 91.2493H10.9428Z" fill="url(#paint27_linear_80_1832)"/>
<path d="M20.667 93.8611C20.5024 93.8611 20.3378 93.8051 20.2053 93.6931C19.2409 92.8756 18.0013 92.4264 16.7167 92.4264C15.4321 92.4264 14.1937 92.8769 13.2267 93.6944C12.9348 93.9408 12.4912 93.9121 12.2366 93.6297C11.982 93.3472 12.0115 92.9179 12.3034 92.6703C13.5263 91.6363 15.0939 91.0676 16.7167 91.0676C18.3395 91.0676 19.9096 91.6375 21.1299 92.6715C21.4218 92.9192 21.4514 93.3485 21.1955 93.6309C21.0566 93.784 20.8624 93.8624 20.667 93.8624V93.8611Z" fill="#FF5E6B"/>
<path d="M16.7178 97.874C17.8903 97.874 18.8408 96.9542 18.8408 95.8196C18.8408 94.685 17.8903 93.7653 16.7178 93.7653C15.5452 93.7653 14.5947 94.685 14.5947 95.8196C14.5947 96.9542 15.5452 97.874 16.7178 97.874Z" fill="url(#paint28_linear_80_1832)"/>
<defs>
<linearGradient id="paint0_linear_80_1832" x1="109.506" y1="-16.518" x2="116.398" y2="58.5057" gradientUnits="userSpaceOnUse">
<stop stop-color="#FDB968"/>
<stop offset="1" stop-color="#FF646B"/>
</linearGradient>
<linearGradient id="paint1_linear_80_1832" x1="104.142" y1="-16.0251" x2="111.034" y2="58.9986" gradientUnits="userSpaceOnUse">
<stop stop-color="#FDB968"/>
<stop offset="1" stop-color="#FF646B"/>
</linearGradient>
<linearGradient id="paint2_linear_80_1832" x1="41.9883" y1="-10.315" x2="48.8807" y2="64.7087" gradientUnits="userSpaceOnUse">
<stop stop-color="#FDB968"/>
<stop offset="1" stop-color="#FF646B"/>
</linearGradient>
<linearGradient id="paint3_linear_80_1832" x1="33.5699" y1="-9.54106" x2="40.4623" y2="65.4814" gradientUnits="userSpaceOnUse">
<stop stop-color="#FDB968"/>
<stop offset="1" stop-color="#FF646B"/>
</linearGradient>
<linearGradient id="paint4_linear_80_1832" x1="75.9648" y1="128.397" x2="76.6801" y2="111.751" gradientUnits="userSpaceOnUse">
<stop stop-color="#FDB968"/>
<stop offset="1" stop-color="#FF646B"/>
</linearGradient>
<linearGradient id="paint5_linear_80_1832" x1="78.6073" y1="9.79155" x2="78.6073" y2="119.857" gradientUnits="userSpaceOnUse">
<stop stop-color="#7A17BF"/>
<stop offset="1" stop-color="#0D0654"/>
</linearGradient>
<linearGradient id="paint6_linear_80_1832" x1="80.4151" y1="25.1527" x2="103.414" y2="25.1527" gradientUnits="userSpaceOnUse">
<stop stop-color="#F65168"/>
<stop offset="1" stop-color="#FEBE68"/>
</linearGradient>
<linearGradient id="paint7_linear_80_1832" x1="73.1695" y1="25.1527" x2="84.6693" y2="25.1527" gradientUnits="userSpaceOnUse">
<stop stop-color="#FDB968"/>
<stop offset="1" stop-color="#FF646B"/>
</linearGradient>
<linearGradient id="paint8_linear_80_1832" x1="57.7448" y1="111.523" x2="84.0442" y2="111.523" gradientUnits="userSpaceOnUse">
<stop stop-color="#FDB968"/>
<stop offset="1" stop-color="#FF646B"/>
</linearGradient>
<linearGradient id="paint9_linear_80_1832" x1="78.6072" y1="43.7825" x2="78.6072" y2="89.5309" gradientUnits="userSpaceOnUse">
<stop stop-color="#FFC16D"/>
<stop offset="1" stop-color="#FF5E6B"/>
</linearGradient>
<linearGradient id="paint10_linear_80_1832" x1="78.6071" y1="49.0547" x2="78.6071" y2="88.1212" gradientUnits="userSpaceOnUse">
<stop stop-color="#7A17BF"/>
<stop offset="1" stop-color="#0D0654"/>
</linearGradient>
<linearGradient id="paint11_linear_80_1832" x1="82.425" y1="44.2182" x2="88.0914" y2="79.3521" gradientUnits="userSpaceOnUse">
<stop stop-color="#7A17BF"/>
<stop offset="1" stop-color="#0D0654"/>
</linearGradient>
<linearGradient id="paint12_linear_80_1832" x1="71.4281" y1="123.843" x2="81.4279" y2="40.4347" gradientUnits="userSpaceOnUse">
<stop stop-color="#FF8C02"/>
<stop offset="1" stop-color="#FF9E29"/>
</linearGradient>
<linearGradient id="paint13_linear_80_1832" x1="126.09" y1="83.9701" x2="37.4883" y2="-3.17505" gradientUnits="userSpaceOnUse">
<stop stop-color="white"/>
<stop offset="1"/>
</linearGradient>
<linearGradient id="paint14_linear_80_1832" x1="102.919" y1="107.53" x2="14.3157" y2="20.3848" gradientUnits="userSpaceOnUse">
<stop stop-color="white"/>
<stop offset="1"/>
</linearGradient>
<linearGradient id="paint15_linear_80_1832" x1="112.244" y1="98.0472" x2="23.6423" y2="10.9033" gradientUnits="userSpaceOnUse">
<stop stop-color="white"/>
<stop offset="1"/>
</linearGradient>
<linearGradient id="paint16_linear_80_1832" x1="124.123" y1="46.9523" x2="139.401" y2="64.4283" gradientUnits="userSpaceOnUse">
<stop stop-color="#7A17BF"/>
<stop offset="1" stop-color="#0D0654"/>
</linearGradient>
<linearGradient id="paint17_linear_80_1832" x1="126.845" y1="46.7155" x2="138.375" y2="59.9041" gradientUnits="userSpaceOnUse">
<stop stop-color="#FDB968"/>
<stop offset="1" stop-color="#FF646B"/>
</linearGradient>
<linearGradient id="paint18_linear_80_1832" x1="122.836" y1="50.2193" x2="134.366" y2="63.4092" gradientUnits="userSpaceOnUse">
<stop stop-color="#FDB968"/>
<stop offset="1" stop-color="#FF646B"/>
</linearGradient>
<linearGradient id="paint19_linear_80_1832" x1="27.7233" y1="7.6893" x2="43.0004" y2="25.1653" gradientUnits="userSpaceOnUse">
<stop stop-color="#7A17BF"/>
<stop offset="1" stop-color="#0D0654"/>
</linearGradient>
<linearGradient id="paint20_linear_80_1832" x1="30.4473" y1="7.45238" x2="41.9773" y2="20.6411" gradientUnits="userSpaceOnUse">
<stop stop-color="#FDB968"/>
<stop offset="1" stop-color="#FF646B"/>
</linearGradient>
<linearGradient id="paint21_linear_80_1832" x1="26.4323" y1="10.9578" x2="37.9623" y2="24.1477" gradientUnits="userSpaceOnUse">
<stop stop-color="#FDB968"/>
<stop offset="1" stop-color="#FF646B"/>
</linearGradient>
<linearGradient id="paint22_linear_80_1832" x1="132.358" y1="10.8999" x2="147.635" y2="28.3747" gradientUnits="userSpaceOnUse">
<stop stop-color="#7A17BF"/>
<stop offset="1" stop-color="#0D0654"/>
</linearGradient>
<linearGradient id="paint23_linear_80_1832" x1="135.081" y1="10.6627" x2="146.611" y2="23.8526" gradientUnits="userSpaceOnUse">
<stop stop-color="#FDB968"/>
<stop offset="1" stop-color="#FF646B"/>
</linearGradient>
<linearGradient id="paint24_linear_80_1832" x1="131.071" y1="14.1679" x2="142.601" y2="27.3578" gradientUnits="userSpaceOnUse">
<stop stop-color="#FDB968"/>
<stop offset="1" stop-color="#FF646B"/>
</linearGradient>
<linearGradient id="paint25_linear_80_1832" x1="8.79434" y1="82.6864" x2="24.0701" y2="100.162" gradientUnits="userSpaceOnUse">
<stop stop-color="#7A17BF"/>
<stop offset="1" stop-color="#0D0654"/>
</linearGradient>
<linearGradient id="paint26_linear_80_1832" x1="11.5154" y1="82.4495" x2="23.0466" y2="95.6394" gradientUnits="userSpaceOnUse">
<stop stop-color="#FDB968"/>
<stop offset="1" stop-color="#FF646B"/>
</linearGradient>
<linearGradient id="paint27_linear_80_1832" x1="10.2047" y1="83.5955" x2="21.7346" y2="96.7854" gradientUnits="userSpaceOnUse">
<stop stop-color="#FDB968"/>
<stop offset="1" stop-color="#FF646B"/>
</linearGradient>
<linearGradient id="paint28_linear_80_1832" x1="7.5081" y1="85.9547" x2="19.0381" y2="99.1434" gradientUnits="userSpaceOnUse">
<stop stop-color="#FDB968"/>
<stop offset="1" stop-color="#FF646B"/>
</linearGradient>
</defs>
</svg>
