<svg width="155" height="112" viewBox="0 0 155 112" fill="none" xmlns="http://www.w3.org/2000/svg">
<path d="M154.998 104.016V52.8033C154.998 48.8593 151.467 45.6621 147.11 45.6621L71.157 45.6621C66.8007 45.6621 63.2692 48.8593 63.2692 52.8033V104.016C63.2692 107.96 66.8007 111.157 71.157 111.157H147.11C151.467 111.157 154.998 107.96 154.998 104.016Z" fill="url(#paint0_linear_80_1798)"/>
<path d="M136.562 55.2283H81.7109V27.9693C81.7109 13.8753 93.6181 2.40906 108.255 2.40906H110.02C124.656 2.40906 136.563 13.8753 136.563 27.9693V55.2283H136.562ZM87.3396 49.8072H130.933V27.9679C130.933 16.8627 121.55 7.82861 110.018 7.82861H108.253C96.7208 7.82861 87.338 16.8627 87.338 27.9679V49.8072H87.3396Z" fill="url(#paint1_linear_80_1798)"/>
<path d="M138.305 52.8192H79.9639V25.5603C79.9639 11.4662 92.6288 0 108.196 0H110.073C125.64 0 138.305 11.4662 138.305 25.5603V52.8192ZM85.9516 47.3996H132.319V25.5603C132.319 14.455 122.34 5.421 110.074 5.421H108.198C95.9317 5.421 85.9532 14.455 85.9532 25.5603V47.3996H85.9516Z" fill="url(#paint2_linear_80_1798)"/>
<path d="M155 46.7768V97.9909C155 101.932 151.465 105.132 147.112 105.132H71.1574C66.8044 105.132 63.2696 101.932 63.2696 97.9909V46.7768C63.2696 42.8359 66.8044 39.6356 71.1574 39.6356L147.112 39.6356C151.465 39.6356 155 42.8359 155 46.7768Z" fill="url(#paint3_linear_80_1798)"/>
<path d="M150.509 50.8502V93.9205C150.509 94.6339 150.395 95.3229 150.181 95.9715C149.205 98.9187 146.187 101.066 142.615 101.066H75.6555C71.2946 101.066 67.7598 97.8658 67.7598 93.9205V50.8502C67.7598 49.6492 68.087 48.5144 68.6653 47.5205C69.9903 45.2509 72.6211 43.7018 75.6555 43.7018H142.615C146.976 43.7018 150.511 46.902 150.511 50.8502H150.509Z" fill="url(#paint4_linear_80_1798)"/>
<path d="M118.421 63.6353C118.421 58.9925 114.264 55.2284 109.135 55.2284C104.007 55.2284 99.8496 58.9925 99.8496 63.6353C99.8496 67.2843 102.419 70.3897 106.009 71.5518V86.7102C106.009 88.2736 107.409 89.5408 109.135 89.5408C110.862 89.5408 112.262 88.2736 112.262 86.7102V71.5518C115.851 70.3897 118.421 67.2843 118.421 63.6353Z" fill="url(#paint5_linear_80_1798)"/>
<path style="mix-blend-mode:screen" d="M150.508 69.1815V85.0087L104.886 43.7018H122.364L150.508 69.1815Z" fill="url(#paint6_linear_80_1798)"/>
<path style="mix-blend-mode:screen" d="M116.672 101.066H107.613L67.7578 64.9859V56.7832L116.672 101.066Z" fill="url(#paint7_linear_80_1798)"/>
<path style="mix-blend-mode:screen" d="M150.179 95.9715C149.204 98.9187 146.185 101.066 142.614 101.066H127.811L68.6641 47.5205C69.989 45.2509 72.6199 43.7018 75.6543 43.7018H92.445L150.179 95.9715Z" fill="url(#paint8_linear_80_1798)"/>
<path d="M86.2783 55.7505V98.9819C86.2783 101.418 84.0939 103.397 81.4011 103.397H4.87753C2.1863 103.397 0.000282288 101.42 0.000282288 98.9819V55.7505C0.000282288 53.314 2.18472 51.3348 4.87753 51.3348L81.4011 51.3348C84.0923 51.3348 86.2783 53.3125 86.2783 55.7505Z" fill="url(#paint9_linear_80_1798)"/>
<path d="M80.5839 53.3672H5.69352C3.78956 53.3672 2.24609 54.7646 2.24609 56.4883V98.2426C2.24609 99.9663 3.78956 101.364 5.69352 101.364H80.5839C82.4879 101.364 84.0314 99.9663 84.0314 98.2426V56.4883C84.0314 54.7646 82.4879 53.3672 80.5839 53.3672Z" fill="url(#paint10_linear_80_1798)"/>
<path style="mix-blend-mode:multiply" d="M33.635 62.9204H12.7676C11.6393 62.9204 10.7246 63.7485 10.7246 64.7701V89.9607C10.7246 90.9823 11.6393 91.8104 12.7676 91.8104H33.635C34.7633 91.8104 35.678 90.9823 35.678 89.9607V64.7701C35.678 63.7485 34.7633 62.9204 33.635 62.9204Z" fill="url(#paint11_linear_80_1798)"/>
<path d="M26.991 74.9144C26.0569 75.6149 24.8574 76.0363 23.5515 76.0363C22.2457 76.0363 21.0478 75.6149 20.112 74.9144C18.0261 75.996 16.6201 78.0313 16.6201 80.3642V86.6396H30.4829V80.3642C30.4829 78.0313 29.077 75.996 26.991 74.9144Z" fill="url(#paint12_linear_80_1798)"/>
<path d="M26.8969 74.1756C28.7452 72.5023 28.7452 69.7894 26.8969 68.1161C25.0487 66.4428 22.0522 66.4428 20.2039 68.1161C18.3557 69.7894 18.3557 72.5023 20.2039 74.1756C22.0521 75.8489 25.0487 75.8489 26.8969 74.1756Z" fill="url(#paint13_linear_80_1798)"/>
<path d="M77.4088 63.1852H41.5856C41.204 63.1852 40.8945 63.4653 40.8945 63.8108V64.5228C40.8945 64.8684 41.204 65.1485 41.5856 65.1485H77.4088C77.7904 65.1485 78.0998 64.8684 78.0998 64.5228V63.8108C78.0998 63.4653 77.7904 63.1852 77.4088 63.1852Z" fill="url(#paint14_linear_80_1798)"/>
<path d="M77.4088 68.4639H41.5856C41.204 68.4639 40.8945 68.744 40.8945 69.0895V69.8015C40.8945 70.147 41.204 70.4272 41.5856 70.4272H77.4088C77.7904 70.4272 78.0998 70.147 78.0998 69.8015V69.0895C78.0998 68.744 77.7904 68.4639 77.4088 68.4639Z" fill="url(#paint15_linear_80_1798)"/>
<path d="M77.4088 73.7438H41.5856C41.204 73.7438 40.8945 74.0239 40.8945 74.3694V75.0814C40.8945 75.427 41.204 75.7071 41.5856 75.7071H77.4088C77.7904 75.7071 78.0998 75.427 78.0998 75.0814V74.3694C78.0998 74.0239 77.7904 73.7438 77.4088 73.7438Z" fill="url(#paint16_linear_80_1798)"/>
<path d="M77.4088 79.0239H41.5856C41.204 79.0239 40.8945 79.3041 40.8945 79.6496V80.3616C40.8945 80.7071 41.204 80.9872 41.5856 80.9872H77.4088C77.7904 80.9872 78.0998 80.7071 78.0998 80.3616V79.6496C78.0998 79.3041 77.7904 79.0239 77.4088 79.0239Z" fill="url(#paint17_linear_80_1798)"/>
<path d="M77.4088 84.3026H41.5856C41.204 84.3026 40.8945 84.5827 40.8945 84.9283V85.6402C40.8945 85.9858 41.204 86.2659 41.5856 86.2659H77.4088C77.7904 86.2659 78.0998 85.9858 78.0998 85.6402V84.9283C78.0998 84.5827 77.7904 84.3026 77.4088 84.3026Z" fill="url(#paint18_linear_80_1798)"/>
<path d="M77.4088 89.5825H41.5856C41.204 89.5825 40.8945 89.8626 40.8945 90.2082V90.9202C40.8945 91.2657 41.204 91.5458 41.5856 91.5458H77.4088C77.7904 91.5458 78.0998 91.2657 78.0998 90.9202V90.2082C78.0998 89.8626 77.7904 89.5825 77.4088 89.5825Z" fill="url(#paint19_linear_80_1798)"/>
<path d="M72.0503 27.1265C71.6308 27.1265 71.2098 26.9884 70.8778 26.7094C66.1769 22.7454 60.0414 20.5606 53.6025 20.5606C47.1636 20.5606 41.0376 22.744 36.3319 26.7094C35.6361 27.2962 34.5478 27.2603 33.9013 26.6303C33.2547 26.0003 33.2928 25.0165 33.9886 24.4297C39.333 19.9263 46.2993 17.4467 53.6025 17.4467C60.9056 17.4467 67.8815 19.9263 73.2211 24.4311C73.9153 25.0165 73.9551 26.0017 73.3069 26.6317C72.9685 26.9611 72.5094 27.128 72.0487 27.128L72.0503 27.1265Z" fill="url(#paint20_linear_80_1798)"/>
<path d="M39.4652 32.9688C38.9981 32.9688 38.5326 32.7977 38.1927 32.4597C37.554 31.8239 37.6048 30.8387 38.307 30.2605C42.5011 26.8042 47.9344 24.8999 53.6044 24.8999C59.2744 24.8999 64.7125 26.8042 68.9018 30.2605C69.604 30.8401 69.6549 31.8239 69.0146 32.4597C68.3744 33.0954 67.2861 33.1414 66.5855 32.5618C63.0301 29.6291 58.4197 28.0139 53.6044 28.0139C48.7892 28.0139 44.182 29.6291 40.6233 32.5632C40.2945 32.8351 39.8798 32.9688 39.4668 32.9688H39.4652Z" fill="url(#paint21_linear_80_1798)"/>
<path d="M63.2808 38.9552C62.8789 38.9552 62.4753 38.8286 62.1496 38.5697C59.7873 36.6984 56.7529 35.6672 53.6057 35.6672C50.4585 35.6672 47.4273 36.6984 45.0602 38.5711C44.3453 39.1364 43.2586 39.0717 42.6343 38.423C42.0099 37.7757 42.083 36.7919 42.7979 36.2267C45.7926 33.8578 49.6308 32.5532 53.6057 32.5532C57.5806 32.5532 61.4252 33.8578 64.4151 36.2267C65.13 36.7934 65.2015 37.7757 64.5756 38.423C64.2356 38.7739 63.759 38.9537 63.2808 38.9537V38.9552Z" fill="url(#paint22_linear_80_1798)"/>
<path d="M58.7059 44.3267C59.2489 41.7736 57.4031 39.3054 54.5832 38.8138C51.7633 38.3222 49.037 39.9932 48.494 42.5463C47.951 45.0993 49.7968 47.5675 52.6167 48.0591C55.4366 48.5508 58.1629 46.8797 58.7059 44.3267Z" fill="url(#paint23_linear_80_1798)"/>
<defs>
<linearGradient id="paint0_linear_80_1798" x1="109.134" y1="117.664" x2="109.134" y2="91.0596" gradientUnits="userSpaceOnUse">
<stop stop-color="#FDB968"/>
<stop offset="1" stop-color="#FF646B"/>
</linearGradient>
<linearGradient id="paint1_linear_80_1798" x1="114.477" y1="78.4772" x2="106.758" y2="11.9081" gradientUnits="userSpaceOnUse">
<stop stop-color="#FDB968"/>
<stop offset="1" stop-color="#FF646B"/>
</linearGradient>
<linearGradient id="paint2_linear_80_1798" x1="93.752" y1="-7.03479" x2="111.79" y2="56.2787" gradientUnits="userSpaceOnUse">
<stop stop-color="#FDB968"/>
<stop offset="1" stop-color="#FF646B"/>
</linearGradient>
<linearGradient id="paint3_linear_80_1798" x1="98.686" y1="16.6758" x2="114.954" y2="122.492" gradientUnits="userSpaceOnUse">
<stop stop-color="#FDB968"/>
<stop offset="1" stop-color="#FF646B"/>
</linearGradient>
<linearGradient id="paint4_linear_80_1798" x1="99.9703" y1="23.5251" x2="114.239" y2="116.331" gradientUnits="userSpaceOnUse">
<stop stop-color="#7A17BF"/>
<stop offset="1" stop-color="#0D0654"/>
</linearGradient>
<linearGradient id="paint5_linear_80_1798" x1="103.586" y1="58.6775" x2="120.957" y2="97.5912" gradientUnits="userSpaceOnUse">
<stop stop-color="#FDB968"/>
<stop offset="1" stop-color="#FF646B"/>
</linearGradient>
<linearGradient id="paint6_linear_80_1798" x1="173.984" y1="105.119" x2="103.937" y2="15.2469" gradientUnits="userSpaceOnUse">
<stop stop-color="#7A17BF"/>
<stop offset="1"/>
</linearGradient>
<linearGradient id="paint7_linear_80_1798" x1="139.088" y1="132.319" x2="69.0393" y2="42.4452" gradientUnits="userSpaceOnUse">
<stop stop-color="#7A17BF"/>
<stop offset="1"/>
</linearGradient>
<linearGradient id="paint8_linear_80_1798" x1="155.131" y1="119.814" x2="85.0825" y2="29.9419" gradientUnits="userSpaceOnUse">
<stop stop-color="#7A17BF"/>
<stop offset="1"/>
</linearGradient>
<linearGradient id="paint9_linear_80_1798" x1="32.6191" y1="51.762" x2="58.1161" y2="127.466" gradientUnits="userSpaceOnUse">
<stop stop-color="#FDB968"/>
<stop offset="1" stop-color="#FF646B"/>
</linearGradient>
<linearGradient id="paint10_linear_80_1798" x1="13.3827" y1="35.3279" x2="51.9274" y2="101.761" gradientUnits="userSpaceOnUse">
<stop stop-color="#7A17BF"/>
<stop offset="1" stop-color="#0D0654"/>
</linearGradient>
<linearGradient id="paint11_linear_80_1798" x1="18.2772" y1="65.2303" x2="25.9514" y2="88.3052" gradientUnits="userSpaceOnUse">
<stop stop-color="#7A17BF"/>
<stop offset="1" stop-color="#0D0654"/>
</linearGradient>
<linearGradient id="paint12_linear_80_1798" x1="40.8062" y1="95.7311" x2="14.4613" y2="70.2977" gradientUnits="userSpaceOnUse">
<stop stop-color="#91C1EF"/>
<stop offset="1" stop-color="#FFE1FF"/>
</linearGradient>
<linearGradient id="paint13_linear_80_1798" x1="46.7884" y1="89.5346" x2="20.4419" y2="64.101" gradientUnits="userSpaceOnUse">
<stop stop-color="#91C1EF"/>
<stop offset="1" stop-color="#FFE1FF"/>
</linearGradient>
<linearGradient id="paint14_linear_80_1798" x1="94.6602" y1="91.4711" x2="55.3577" y2="54.2379" gradientUnits="userSpaceOnUse">
<stop stop-color="#91C1EF"/>
<stop offset="1" stop-color="#FFE1FF"/>
</linearGradient>
<linearGradient id="paint15_linear_80_1798" x1="91.7514" y1="94.4914" x2="52.4492" y2="57.2581" gradientUnits="userSpaceOnUse">
<stop stop-color="#91C1EF"/>
<stop offset="1" stop-color="#FFE1FF"/>
</linearGradient>
<linearGradient id="paint16_linear_80_1798" x1="88.8425" y1="97.512" x2="49.5384" y2="60.2786" gradientUnits="userSpaceOnUse">
<stop stop-color="#91C1EF"/>
<stop offset="1" stop-color="#FFE1FF"/>
</linearGradient>
<linearGradient id="paint17_linear_80_1798" x1="85.9336" y1="100.533" x2="46.6295" y2="63.2991" gradientUnits="userSpaceOnUse">
<stop stop-color="#91C1EF"/>
<stop offset="1" stop-color="#FFE1FF"/>
</linearGradient>
<linearGradient id="paint18_linear_80_1798" x1="83.0247" y1="103.553" x2="43.7205" y2="66.3211" gradientUnits="userSpaceOnUse">
<stop stop-color="#91C1EF"/>
<stop offset="1" stop-color="#FFE1FF"/>
</linearGradient>
<linearGradient id="paint19_linear_80_1798" x1="80.1159" y1="106.573" x2="40.8116" y2="69.3414" gradientUnits="userSpaceOnUse">
<stop stop-color="#91C1EF"/>
<stop offset="1" stop-color="#FFE1FF"/>
</linearGradient>
<linearGradient id="paint20_linear_80_1798" x1="40.8676" y1="12.8052" x2="66.9975" y2="44.7517" gradientUnits="userSpaceOnUse">
<stop stop-color="#FEBE68"/>
<stop offset="1" stop-color="#F85268"/>
</linearGradient>
<linearGradient id="paint21_linear_80_1798" x1="37.6573" y1="15.4315" x2="63.7871" y2="47.378" gradientUnits="userSpaceOnUse">
<stop stop-color="#FDB968"/>
<stop offset="1" stop-color="#FF646B"/>
</linearGradient>
<linearGradient id="paint22_linear_80_1798" x1="34.37" y1="18.1212" x2="60.4983" y2="50.0675" gradientUnits="userSpaceOnUse">
<stop stop-color="#FDB968"/>
<stop offset="1" stop-color="#FF646B"/>
</linearGradient>
<linearGradient id="paint23_linear_80_1798" x1="31.0418" y1="20.8361" x2="57.1701" y2="52.7825" gradientUnits="userSpaceOnUse">
<stop stop-color="#FDB968"/>
<stop offset="1" stop-color="#FF646B"/>
</linearGradient>
</defs>
</svg>
