<svg width="17" height="25" viewBox="0 0 17 25" fill="none" xmlns="http://www.w3.org/2000/svg">
<path d="M7.875 24.4814C7.9375 24.5439 8 24.5986 8.0625 24.6455C8.125 24.6924 8.17969 24.7314 8.22656 24.7627C8.22656 24.7627 8.23438 24.7627 8.25 24.7627C8.28125 24.7939 8.31641 24.8135 8.35547 24.8213C8.39453 24.8291 8.4375 24.833 8.48438 24.833C8.51562 24.833 8.55078 24.8291 8.58984 24.8213C8.62891 24.8135 8.67188 24.7939 8.71875 24.7627C8.78125 24.7314 8.83984 24.6924 8.89453 24.6455C8.94922 24.5986 9.00781 24.5439 9.07031 24.4814C9.07031 24.4814 9.4375 24.0518 10.1719 23.1924C10.9062 22.333 11.7305 21.2236 12.6445 19.8643C13.5586 18.5049 14.4297 16.9814 15.2578 15.2939C16.0859 13.6221 16.5859 11.9658 16.7578 10.3252C16.7734 10.1533 16.7891 9.98145 16.8047 9.80957C16.8203 9.6377 16.8281 9.46582 16.8281 9.29395C16.8281 8.12207 16.6094 7.02832 16.1719 6.0127C15.7188 4.99707 15.1133 4.10645 14.3555 3.34082C13.5977 2.5752 12.7109 1.97363 11.6953 1.53613C10.6641 1.09863 9.57031 0.879883 8.41406 0.879883C7.25781 0.879883 6.16406 1.09863 5.13281 1.53613C4.11719 1.97363 3.23047 2.5752 2.47266 3.34082C1.71484 4.10645 1.10938 4.99707 0.65625 6.0127C0.21875 7.02832 0 8.12207 0 9.29395C0 9.46582 0.0078125 9.6377 0.0234375 9.80957C0.0390625 9.98145 0.0546875 10.1533 0.0703125 10.3252C0.257812 11.9658 0.765625 13.6299 1.59375 15.3174C2.4375 16.9893 3.32031 18.5049 4.24219 19.8643C5.16406 21.2236 6 22.333 6.75 23.1924C7.5 24.0518 7.875 24.4814 7.875 24.4814ZM8.41406 3.87988C9.16406 3.87988 9.86719 4.02051 10.5234 4.30176C11.1797 4.58301 11.75 4.96973 12.2344 5.46191C12.7188 5.9541 13.1094 6.52832 13.4062 7.18457C13.6875 7.84082 13.8281 8.54395 13.8281 9.29395C13.8281 10.0283 13.6875 10.7314 13.4062 11.4033C13.1094 12.0596 12.7188 12.6299 12.2344 13.1143C11.75 13.5986 11.1797 13.9814 10.5234 14.2627C9.86719 14.5596 9.16406 14.708 8.41406 14.708C7.66406 14.708 6.96094 14.5596 6.30469 14.2627C5.64844 13.9814 5.07812 13.5986 4.59375 13.1143C4.10938 12.6299 3.71875 12.0596 3.42188 11.4033C3.14062 10.7314 3 10.0283 3 9.29395C3 8.54395 3.14062 7.84082 3.42188 7.18457C3.71875 6.52832 4.10938 5.9541 4.59375 5.46191C5.07812 4.96973 5.64844 4.58301 6.30469 4.30176C6.96094 4.02051 7.66406 3.87988 8.41406 3.87988Z" fill="#1B127F"/>
</svg>
