<svg width="206" height="327" viewBox="0 0 206 327" fill="none" xmlns="http://www.w3.org/2000/svg">
<line y1="-5" x2="71.962" y2="-5" transform="matrix(0.0126068 0.99992 -0.99989 0.0148563 113 255.044)" stroke="url(#paint0_linear_130_22)" stroke-width="10"/>
<line x1="97.0005" y1="73.1319" x2="96.0005" y2="0.0684259" stroke="url(#paint1_linear_130_22)" stroke-width="10"/>
<path d="M101.5 68C88.8274 68 76.279 70.496 64.571 75.3456C52.8631 80.1952 42.225 87.3033 33.2642 96.2642C24.3033 105.225 17.1952 115.863 12.3456 127.571C7.49605 139.279 5 151.827 5 164.5C5 177.173 7.49605 189.721 12.3456 201.429C17.1952 213.137 24.3033 223.775 33.2642 232.736C42.2251 241.697 52.8631 248.805 64.5711 253.654C76.279 258.504 88.8274 261 101.5 261" stroke="url(#paint2_linear_130_22)" stroke-width="10"/>
<path d="M113 260C124.556 260 135.999 257.543 146.676 252.769C157.353 247.994 167.054 240.997 175.225 232.175C183.397 223.354 189.879 212.881 194.301 201.355C198.724 189.829 201 177.476 201 165C201 152.524 198.724 140.171 194.301 128.645C189.879 117.119 183.397 106.646 175.225 97.8249C167.054 89.0033 157.353 82.0056 146.676 77.2314C135.999 72.4572 124.556 70 113 70" stroke="url(#paint3_linear_130_22)" stroke-width="10"/>
<path d="M57.0891 195.976L102.605 119.131L144.347 196.378L57.0891 195.976Z" stroke="url(#paint4_linear_130_22)" stroke-width="15"/>
<path d="M133.098 159L157 204H140L121 169H101L110.561 159H133.098Z" fill="url(#paint5_linear_130_22)"/>
<defs>
<linearGradient id="paint0_linear_130_22" x1="4.82054" y1="0.75" x2="4.86865" y2="-1.24884" gradientUnits="userSpaceOnUse">
<stop stop-color="#0E044A"/>
<stop offset="1" stop-color="#5000FF"/>
</linearGradient>
<linearGradient id="paint1_linear_130_22" x1="102.683" y1="68.1589" x2="100.684" y2="68.1389" gradientUnits="userSpaceOnUse">
<stop stop-color="#0E044A"/>
<stop offset="1" stop-color="#5000FF"/>
</linearGradient>
<linearGradient id="paint2_linear_130_22" x1="77.375" y1="248.071" x2="-32.9107" y2="152.561" gradientUnits="userSpaceOnUse">
<stop stop-color="#0E044A"/>
<stop offset="1" stop-color="#5000FF"/>
</linearGradient>
<linearGradient id="paint3_linear_130_22" x1="135" y1="82.7276" x2="242.086" y2="168.633" gradientUnits="userSpaceOnUse">
<stop stop-color="#0E044A"/>
<stop offset="1" stop-color="#5000FF"/>
</linearGradient>
<linearGradient id="paint4_linear_130_22" x1="63.2906" y1="225.2" x2="121.957" y2="140.073" gradientUnits="userSpaceOnUse">
<stop stop-color="#0E044A"/>
<stop offset="1" stop-color="#5000FF"/>
</linearGradient>
<linearGradient id="paint5_linear_130_22" x1="104.751" y1="192.75" x2="147.399" y2="162.108" gradientUnits="userSpaceOnUse">
<stop stop-color="#FCA270"/>
<stop offset="0.494792" stop-color="#FCA170"/>
<stop offset="1" stop-color="#FF7077"/>
</linearGradient>
</defs>
</svg>
