<svg width="126" height="85" viewBox="0 0 126 85" fill="none" xmlns="http://www.w3.org/2000/svg">
<path d="M111.937 21.8691V35.8559C111.937 37.8643 110.192 39.4916 108.038 39.4916H30.063C27.9088 39.4916 26.1634 37.8643 26.1634 35.8559V21.8691C26.1634 19.8627 27.9088 18.2334 30.063 18.2334H108.038C110.192 18.2334 111.937 19.8617 111.937 21.8691Z" fill="url(#paint0_linear_37_71)"/>
<path d="M68.8352 25.5649H105.577C106.135 25.5649 106.588 25.987 106.588 26.5081V31.2201C106.588 31.7402 106.136 32.1633 105.577 32.1633H68.8352C68.2774 32.1633 67.8235 31.7412 67.8235 31.2201V26.5081C67.8235 25.988 68.2763 25.5649 68.8352 25.5649Z" fill="url(#paint1_linear_37_71)"/>
<path d="M35.9104 29.4868C36.2801 27.6973 35.0237 25.9673 33.1044 25.6227C31.185 25.2781 29.3294 26.4494 28.9598 28.2389C28.5902 30.0284 29.8465 31.7584 31.7659 32.103C33.6852 32.4476 35.5408 31.2763 35.9104 29.4868Z" fill="url(#paint2_linear_37_71)"/>
<path d="M43.2225 31.197C44.6047 29.9084 44.6047 27.8192 43.2225 26.5306C41.8404 25.242 39.5995 25.242 38.2174 26.5306C36.8352 27.8192 36.8352 29.9084 38.2174 31.197C39.5995 32.4856 41.8404 32.4856 43.2225 31.197Z" fill="url(#paint3_linear_37_71)"/>
<path d="M52.478 29.4878C52.8476 27.6983 51.5913 25.9683 49.6719 25.6237C47.7525 25.2791 45.897 26.4504 45.5273 28.2399C45.1577 30.0293 46.4141 31.7593 48.3334 32.1039C50.2528 32.4485 52.1084 31.2772 52.478 29.4878Z" fill="url(#paint4_linear_37_71)"/>
<path d="M111.937 43.1274V57.1142C111.937 59.1226 110.192 60.7499 108.038 60.7499H30.0629C27.9087 60.7499 26.1633 59.1226 26.1633 57.1142V43.1274C26.1633 41.121 27.9087 39.4917 30.0629 39.4917H108.038C110.192 39.4917 111.937 41.12 111.937 43.1274Z" fill="url(#paint5_linear_37_71)"/>
<path d="M68.835 46.8223H105.576C106.134 46.8223 106.588 47.2444 106.588 47.7655V52.4774C106.588 52.9975 106.135 53.4206 105.576 53.4206H68.835C68.2772 53.4206 67.8234 52.9985 67.8234 52.4774V47.7655C67.8234 47.2454 68.2761 46.8223 68.835 46.8223Z" fill="url(#paint6_linear_37_71)"/>
<path d="M34.4273 52.8559C36.044 51.8316 36.4639 49.7794 35.3652 48.2722C34.2665 46.7649 32.0653 46.3734 30.4487 47.3978C28.832 48.4221 28.4121 50.4743 29.5108 51.9815C30.6095 53.4888 32.8107 53.8802 34.4273 52.8559Z" fill="url(#paint7_linear_37_71)"/>
<path d="M44.2005 50.6958C44.5419 48.9015 43.2585 47.1889 41.334 46.8705C39.4094 46.5522 37.5724 47.7487 37.231 49.5431C36.8895 51.3374 38.1729 53.05 40.0975 53.3684C42.0221 53.6867 43.8591 52.4902 44.2005 50.6958Z" fill="url(#paint8_linear_37_71)"/>
<path d="M50.9953 52.8564C52.612 51.8321 53.0319 49.7799 51.9332 48.2726C50.8345 46.7654 48.6333 46.3739 47.0167 47.3982C45.4 48.4226 44.9801 50.4748 46.0788 51.982C47.1775 53.4892 49.3787 53.8807 50.9953 52.8564Z" fill="url(#paint9_linear_37_71)"/>
<path d="M111.937 64.3847V78.3715C111.937 78.4986 111.93 78.6226 111.918 78.7476C111.716 80.579 110.057 82.0072 108.038 82.0072H30.0629C28.045 82.0072 26.3843 80.579 26.1826 78.7476C26.1708 78.6226 26.1633 78.4986 26.1633 78.3715V64.3847C26.1633 62.3783 27.9087 60.749 30.0629 60.749H108.038C110.192 60.749 111.937 62.3773 111.937 64.3847Z" fill="url(#paint10_linear_37_71)"/>
<path d="M68.835 68.0796H105.576C106.134 68.0796 106.588 68.5017 106.588 69.0228V73.7347C106.588 74.2548 106.135 74.6779 105.576 74.6779H68.835C68.2772 74.6779 67.8234 74.2558 67.8234 73.7347V69.0228C67.8234 68.5027 68.2761 68.0796 68.835 68.0796Z" fill="url(#paint11_linear_37_71)"/>
<path d="M35.8742 72.1181C36.3169 70.3431 35.1324 68.5696 33.2285 68.1569C31.3247 67.7442 29.4224 68.8485 28.9797 70.6235C28.537 72.3985 29.7215 74.172 31.6254 74.5847C33.5292 74.9974 35.4315 73.8931 35.8742 72.1181Z" fill="url(#paint12_linear_37_71)"/>
<path d="M41.2888 74.6456C43.2177 74.3508 44.525 72.6539 44.2088 70.8556C43.8926 69.0572 42.0726 67.8384 40.1437 68.1332C38.2148 68.428 36.9075 70.1248 37.2237 71.9232C37.5399 73.7215 39.3599 74.9404 41.2888 74.6456Z" fill="url(#paint13_linear_37_71)"/>
<path d="M52.4411 72.1181C52.8838 70.3431 51.6993 68.5696 49.7954 68.1569C47.8916 67.7442 45.9893 68.8485 45.5466 70.6235C45.1039 72.3985 46.2884 74.172 48.1923 74.5847C50.0961 74.9974 51.9984 73.8931 52.4411 72.1181Z" fill="url(#paint14_linear_37_71)"/>
<path style="mix-blend-mode:multiply" d="M111.937 35.5708V35.8569C111.937 37.8653 110.192 39.4926 108.038 39.4926H30.0629C27.9087 39.4926 26.1633 37.8653 26.1633 35.8569V35.5708H111.936H111.937Z" fill="url(#paint15_linear_37_71)"/>
<path style="mix-blend-mode:multiply" d="M111.937 56.978V57.1141C111.937 59.1225 110.192 60.7498 108.038 60.7498H30.0628C27.9086 60.7498 26.1631 59.1225 26.1631 57.1141V56.978H111.936H111.937Z" fill="url(#paint16_linear_37_71)"/>
<path style="mix-blend-mode:multiply" d="M111.918 78.7476C111.716 80.5789 110.056 82.0072 108.037 82.0072H30.0626C28.0446 82.0072 26.3839 80.5789 26.1823 78.7476H111.917H111.918Z" fill="url(#paint17_linear_37_71)"/>
<path d="M16.5607 83.9938C8.51789 78.7728 4.47555 71.5253 2.49944 66.3643C0.36456 60.7872 0.121032 56.4633 0.11245 56.2823L0.0502319 55.074L1.32365 54.844C11.467 53.0116 16.2357 47.9676 16.2818 47.9176L17.4157 46.6924L18.5497 47.9176C18.5948 47.9646 23.4385 53.0246 33.5078 54.844L34.7813 55.074L34.719 56.2823C34.7094 56.4633 34.4669 60.7872 32.3321 66.3643C30.357 71.5253 26.3136 78.7728 18.2708 83.9938L17.4147 84.5499L16.5586 83.9938H16.5607Z" fill="url(#paint18_linear_37_71)"/>
<path d="M33.2246 56.2171C33.2246 56.2171 33.0766 59.1337 31.8321 63.2405C31.4953 64.3467 31.0833 65.5399 30.5716 66.7862C30.194 67.7034 29.7627 68.6526 29.2692 69.6137C28.4496 71.2181 27.4594 72.8654 26.2664 74.4907C25.6742 75.2989 25.0305 76.103 24.3311 76.8912C23.8622 77.4243 23.3677 77.9494 22.8452 78.4685C21.2832 80.0228 19.4863 81.5041 17.4179 82.8454C6.21137 75.5729 2.92214 64.2307 1.97915 59.0136C1.66374 57.2743 1.61011 56.2161 1.61011 56.2161C1.76245 56.1891 1.91371 56.1601 2.0639 56.1311C3.33947 55.885 4.53135 55.591 5.64171 55.2619C7.90748 54.5968 9.83209 53.7926 11.4295 52.9804C12.4594 52.4573 13.3509 51.9322 14.1104 51.4391C15.4557 50.566 16.3826 49.7958 16.904 49.3227C17.2484 49.0106 17.4179 48.8286 17.4179 48.8286C17.4179 48.8286 22.4547 54.2687 33.2236 56.2161L33.2246 56.2171Z" fill="url(#paint19_linear_37_71)"/>
<path style="mix-blend-mode:screen" d="M33.2246 56.217C33.2246 56.217 32.3567 73.1504 17.4189 82.8473V48.8306C17.4189 48.8306 22.4558 54.2707 33.2246 56.217Z" fill="url(#paint20_linear_37_71)"/>
<path style="mix-blend-mode:screen" d="M31.8321 63.2405C31.4952 64.3467 31.0833 65.5399 30.5715 66.7862L14.1115 51.4401C15.4567 50.567 16.3837 49.7968 16.905 49.3237L31.8321 63.2405Z" fill="url(#paint21_linear_37_71)"/>
<path style="mix-blend-mode:screen" d="M24.331 76.8925C23.8622 77.4256 23.3676 77.9507 22.8452 78.4698L1.97909 59.0139C1.66368 57.2746 1.61005 56.2164 1.61005 56.2164C1.76238 56.1894 1.91365 56.1604 2.06384 56.1313L24.331 76.8915V76.8925Z" fill="url(#paint22_linear_37_71)"/>
<path style="mix-blend-mode:screen" d="M29.2691 69.6148C28.4495 71.2191 27.4593 72.8664 26.2664 74.4917L5.64166 55.2629C7.90743 54.5978 9.83204 53.7936 11.4294 52.9814L29.2681 69.6148H29.2691Z" fill="url(#paint23_linear_37_71)"/>
<path d="M97.4621 29.5279C95.2521 29.5279 93.2739 28.4627 92.1689 26.6783C91.0639 24.8939 91.0639 22.7635 92.1689 20.9792L103.396 2.84957C104.501 1.06521 106.48 0 108.689 0C110.898 0 112.877 1.06521 113.982 2.84957L125.209 20.9792C126.314 22.7635 126.314 24.8939 125.209 26.6783C124.104 28.4627 122.126 29.5279 119.916 29.5279H97.4621Z" fill="url(#paint24_linear_37_71)"/>
<path d="M123.823 25.6462C123.345 26.5414 122.52 27.2716 121.471 27.6406C120.996 27.8087 120.473 27.9007 119.916 27.9007H97.462C94.0999 27.9007 91.9982 24.508 93.6793 21.7945L94.8519 19.8981L96.1564 17.7937L97.7077 15.2882L101.555 9.07295L103.199 6.41943L104.906 3.66488C105.201 3.18778 105.574 2.7957 105.998 2.48764C107.986 1.03435 111.085 1.42843 112.471 3.66488L119.587 15.1572L123.698 21.7955C124.487 23.0697 124.442 24.496 123.823 25.6482V25.6462Z" fill="url(#paint25_linear_37_71)"/>
<path d="M106.917 22.6198C106.917 21.6116 107.668 20.8834 108.689 20.8834C109.77 20.8834 110.461 21.6116 110.461 22.6198C110.461 23.628 109.77 24.3561 108.689 24.3561C107.608 24.3561 106.917 23.6 106.917 22.6198ZM107.668 18.616L107.247 5.17529H110.13L109.709 18.616H107.667H107.668Z" fill="url(#paint26_linear_37_71)"/>
<path style="mix-blend-mode:screen" d="M123.823 25.6459L103.201 6.41909L104.907 3.66454C105.202 3.18744 105.575 2.79537 106 2.4873L119.588 15.1558L123.699 21.7941C124.488 23.0684 124.443 24.4947 123.824 25.6469L123.823 25.6459Z" fill="url(#paint27_linear_37_71)"/>
<path style="mix-blend-mode:screen" d="M106.998 27.9005H103.437L94.8531 19.8979L96.1576 17.7935L106.998 27.9005Z" fill="url(#paint28_linear_37_71)"/>
<path style="mix-blend-mode:screen" d="M121.472 27.6404C120.996 27.8085 120.473 27.9005 119.916 27.9005H111.237L97.7089 15.288L101.556 9.07275L121.472 27.6404Z" fill="url(#paint29_linear_37_71)"/>
<defs>
<linearGradient id="paint0_linear_37_71" x1="67.7432" y1="15.1068" x2="70.018" y2="42.6473" gradientUnits="userSpaceOnUse">
<stop stop-color="#F9C075"/>
<stop offset="0.489583" stop-color="#FD566D"/>
</linearGradient>
<linearGradient id="paint1_linear_37_71" x1="53.508" y1="28.8636" x2="110.128" y2="28.8636" gradientUnits="userSpaceOnUse">
<stop stop-color="#7A17BF"/>
<stop offset="1" stop-color="#0D0654"/>
</linearGradient>
<linearGradient id="paint2_linear_37_71" x1="24.541" y1="23.6493" x2="37.9412" y2="33.8338" gradientUnits="userSpaceOnUse">
<stop stop-color="#7A17BF"/>
<stop offset="1" stop-color="#0D0654"/>
</linearGradient>
<linearGradient id="paint3_linear_37_71" x1="32.826" y1="23.6485" x2="46.2263" y2="33.833" gradientUnits="userSpaceOnUse">
<stop stop-color="#7A17BF"/>
<stop offset="1" stop-color="#0D0654"/>
</linearGradient>
<linearGradient id="paint4_linear_37_71" x1="41.109" y1="23.6501" x2="54.5092" y2="33.8347" gradientUnits="userSpaceOnUse">
<stop stop-color="#7A17BF"/>
<stop offset="1" stop-color="#0D0654"/>
</linearGradient>
<linearGradient id="paint5_linear_37_71" x1="67.7431" y1="36.3641" x2="70.0179" y2="63.9046" gradientUnits="userSpaceOnUse">
<stop stop-color="#FDB968"/>
<stop offset="1" stop-color="#FF646B"/>
</linearGradient>
<linearGradient id="paint6_linear_37_71" x1="-117.96" y1="50.1209" x2="-117.853" y2="50.1209" gradientUnits="userSpaceOnUse">
<stop stop-color="#7A17BF"/>
<stop offset="1" stop-color="#0D0654"/>
</linearGradient>
<linearGradient id="paint7_linear_37_71" x1="24.5466" y1="44.9064" x2="37.9468" y2="55.0909" gradientUnits="userSpaceOnUse">
<stop stop-color="#7A17BF"/>
<stop offset="1" stop-color="#0D0654"/>
</linearGradient>
<linearGradient id="paint8_linear_37_71" x1="32.8196" y1="44.9081" x2="46.2199" y2="55.0926" gradientUnits="userSpaceOnUse">
<stop stop-color="#7A17BF"/>
<stop offset="1" stop-color="#0D0654"/>
</linearGradient>
<linearGradient id="paint9_linear_37_71" x1="41.1147" y1="44.9059" x2="54.5149" y2="55.0904" gradientUnits="userSpaceOnUse">
<stop stop-color="#7A17BF"/>
<stop offset="1" stop-color="#0D0654"/>
</linearGradient>
<linearGradient id="paint10_linear_37_71" x1="67.7431" y1="57.6224" x2="70.0179" y2="85.1619" gradientUnits="userSpaceOnUse">
<stop stop-color="#FDB968"/>
<stop offset="1" stop-color="#FF646B"/>
</linearGradient>
<linearGradient id="paint11_linear_37_71" x1="-117.96" y1="71.3782" x2="-117.853" y2="71.3782" gradientUnits="userSpaceOnUse">
<stop stop-color="#7A17BF"/>
<stop offset="1" stop-color="#0D0654"/>
</linearGradient>
<linearGradient id="paint12_linear_37_71" x1="24.5275" y1="66.1667" x2="37.9278" y2="76.3503" gradientUnits="userSpaceOnUse">
<stop stop-color="#7A17BF"/>
<stop offset="1" stop-color="#0D0654"/>
</linearGradient>
<linearGradient id="paint13_linear_37_71" x1="32.8282" y1="66.1654" x2="46.2285" y2="76.349" gradientUnits="userSpaceOnUse">
<stop stop-color="#7A17BF"/>
<stop offset="1" stop-color="#0D0654"/>
</linearGradient>
<linearGradient id="paint14_linear_37_71" x1="41.095" y1="66.1673" x2="54.4953" y2="76.3509" gradientUnits="userSpaceOnUse">
<stop stop-color="#7A17BF"/>
<stop offset="1" stop-color="#0D0654"/>
</linearGradient>
<linearGradient id="paint15_linear_37_71" x1="29.976" y1="37.5312" x2="119.17" y2="37.5312" gradientUnits="userSpaceOnUse">
<stop stop-color="#4739DC"/>
<stop offset="1" stop-color="#130D51"/>
</linearGradient>
<linearGradient id="paint16_linear_37_71" x1="29.9759" y1="58.8634" x2="119.17" y2="58.8634" gradientUnits="userSpaceOnUse">
<stop stop-color="#281BAE"/>
<stop offset="1" stop-color="#191260"/>
</linearGradient>
<linearGradient id="paint17_linear_37_71" x1="29.9757" y1="80.3769" x2="119.17" y2="80.3769" gradientUnits="userSpaceOnUse">
<stop stop-color="#231894"/>
<stop offset="1" stop-color="#19115E"/>
</linearGradient>
<linearGradient id="paint18_linear_37_71" x1="16.4985" y1="48.9228" x2="21.1222" y2="87.8069" gradientUnits="userSpaceOnUse">
<stop stop-color="#FDB968"/>
<stop offset="1" stop-color="#FF646B"/>
</linearGradient>
<linearGradient id="paint19_linear_37_71" x1="17.4179" y1="48.8296" x2="17.4179" y2="82.8464" gradientUnits="userSpaceOnUse">
<stop stop-color="#7A17BF"/>
<stop offset="1" stop-color="#0D0654"/>
</linearGradient>
<linearGradient id="paint20_linear_37_71" x1="20.8669" y1="44.6187" x2="25.6293" y2="75.2671" gradientUnits="userSpaceOnUse">
<stop stop-color="#7A17BF"/>
<stop offset="1" stop-color="#0D0654"/>
</linearGradient>
<linearGradient id="paint21_linear_37_71" x1="35.2425" y1="72.2273" x2="13.8432" y2="42.3583" gradientUnits="userSpaceOnUse">
<stop stop-color="#7A17BF"/>
<stop offset="1"/>
</linearGradient>
<linearGradient id="paint22_linear_37_71" x1="23.5704" y1="80.5892" x2="2.17102" y2="50.7203" gradientUnits="userSpaceOnUse">
<stop stop-color="#7A17BF"/>
<stop offset="1"/>
</linearGradient>
<linearGradient id="paint23_linear_37_71" x1="29.1318" y1="76.6041" x2="7.73246" y2="46.7352" gradientUnits="userSpaceOnUse">
<stop stop-color="#7A17BF"/>
<stop offset="1"/>
</linearGradient>
<linearGradient id="paint24_linear_37_71" x1="96.5835" y1="1.43128" x2="111.052" y2="32.2298" gradientUnits="userSpaceOnUse">
<stop stop-color="#FDB968"/>
<stop offset="1" stop-color="#FF646B"/>
</linearGradient>
<linearGradient id="paint25_linear_37_71" x1="106.594" y1="1.7865" x2="108.828" y2="28.8334" gradientUnits="userSpaceOnUse">
<stop stop-color="#7A17BF"/>
<stop offset="1" stop-color="#0D0654"/>
</linearGradient>
<linearGradient id="paint26_linear_37_71" x1="97.3923" y1="6.01646" x2="129.528" y2="33.6668" gradientUnits="userSpaceOnUse">
<stop stop-color="#FDB968"/>
<stop offset="1" stop-color="#FF646B"/>
</linearGradient>
<linearGradient id="paint27_linear_37_71" x1="131.658" y1="26.8711" x2="103.783" y2="2.35246" gradientUnits="userSpaceOnUse">
<stop stop-color="#7A17BF"/>
<stop offset="1"/>
</linearGradient>
<linearGradient id="paint28_linear_37_71" x1="120.963" y1="39.0297" x2="93.0882" y2="14.511" gradientUnits="userSpaceOnUse">
<stop stop-color="#7A17BF"/>
<stop offset="1"/>
</linearGradient>
<linearGradient id="paint29_linear_37_71" x1="125.91" y1="33.4056" x2="98.035" y2="8.88688" gradientUnits="userSpaceOnUse">
<stop stop-color="#7A17BF"/>
<stop offset="1"/>
</linearGradient>
</defs>
</svg>
