<svg width="143" height="101" viewBox="0 0 143 101" fill="none" xmlns="http://www.w3.org/2000/svg">
<g clip-path="url(#clip0_6_77)">
<path d="M126.685 49.2363V94.6666C126.685 96.4381 125.806 98.0268 124.416 99.0965C123.28 99.9725 121.804 100.5 120.19 100.5H38.0047C37.7442 100.5 37.4898 100.487 37.2378 100.459C35.9511 100.323 34.7808 99.8495 33.837 99.14C32.4146 98.0704 31.5096 96.4632 31.5096 94.6677V49.2374H126.685V49.2363Z" fill="url(#paint0_linear_6_77)"/>
<path d="M126.685 49.2362L105.854 62.1232L80.438 77.847L52.3422 61.417L31.5096 49.2362L80.438 20.6255L126.685 49.2362Z" fill="url(#paint1_linear_6_77)"/>
<path d="M105.854 39.8691V62.1229L80.4378 77.8467L52.342 61.4167V39.8691H105.854Z" fill="url(#paint2_linear_6_77)"/>
<path d="M97.7692 43.7397H60.4269C60.1706 43.7397 59.9629 43.9263 59.9629 44.1565V44.5602C59.9629 44.7904 60.1706 44.977 60.4269 44.977H97.7692C98.0255 44.977 98.2332 44.7904 98.2332 44.5602V44.1565C98.2332 43.9263 98.0255 43.7397 97.7692 43.7397Z" fill="url(#paint3_linear_6_77)"/>
<path d="M97.7692 48.6167H60.4269C60.1706 48.6167 59.9629 48.8033 59.9629 49.0335V49.4372C59.9629 49.6673 60.1706 49.8539 60.4269 49.8539H97.7692C98.0255 49.8539 98.2332 49.6673 98.2332 49.4372V49.0335C98.2332 48.8033 98.0255 48.6167 97.7692 48.6167Z" fill="url(#paint4_linear_6_77)"/>
<path d="M97.7692 53.4941H60.4269C60.1706 53.4941 59.9629 53.6807 59.9629 53.9109V54.3146C59.9629 54.5448 60.1706 54.7314 60.4269 54.7314H97.7692C98.0255 54.7314 98.2332 54.5448 98.2332 54.3146V53.9109C98.2332 53.6807 98.0255 53.4941 97.7692 53.4941Z" fill="url(#paint5_linear_6_77)"/>
<path d="M97.7692 58.3721H60.4269C60.1706 58.3721 59.9629 58.5587 59.9629 58.7888V59.1925C59.9629 59.4227 60.1706 59.6093 60.4269 59.6093H97.7692C98.0255 59.6093 98.2332 59.4227 98.2332 59.1925V58.7888C98.2332 58.5587 98.0255 58.3721 97.7692 58.3721Z" fill="url(#paint6_linear_6_77)"/>
<path d="M97.7692 63.2495H60.4269C60.1706 63.2495 59.9629 63.4361 59.9629 63.6663V64.07C59.9629 64.3002 60.1706 64.4867 60.4269 64.4867H97.7692C98.0255 64.4867 98.2332 64.3002 98.2332 64.07V63.6663C98.2332 63.4361 98.0255 63.2495 97.7692 63.2495Z" fill="url(#paint7_linear_6_77)"/>
<path d="M124.416 99.0962C123.279 99.9722 121.804 100.5 120.19 100.5H38.0046C37.7441 100.5 37.4896 100.487 37.2376 100.459C35.951 100.323 34.7806 99.8492 33.8368 99.1397L80.4378 71.8892L124.417 99.0962H124.416Z" fill="url(#paint8_linear_6_77)"/>
<path d="M78.2401 96.8002C69.9167 91.5945 65.732 84.3692 63.687 79.2233C61.4771 73.6628 61.2263 69.3516 61.2166 69.171L61.1524 67.9664L62.4706 67.7368C72.9686 65.9098 77.9033 60.8814 77.9517 60.8303L79.1257 59.6094L80.2997 60.8303C80.3457 60.8771 85.3591 65.9228 95.7809 67.7368L97.099 67.9664L97.0348 69.171C97.0251 69.3516 96.7744 73.6628 94.5645 79.2233C92.5194 84.3692 88.3359 91.5945 80.0114 96.8002L79.1245 97.3541L78.2377 96.8002H78.2401Z" fill="url(#paint9_linear_6_77)"/>
<path d="M95.4865 69.1056C95.4865 69.1056 95.3326 72.0131 94.0448 76.1089C93.6971 77.2123 93.2694 78.4005 92.7399 79.6443C92.3486 80.5594 91.9027 81.505 91.3927 82.4637C90.5446 84.0633 89.5196 85.7053 88.2851 87.3266C87.672 88.1319 87.0057 88.9338 86.2824 89.7206C85.7978 90.2516 85.2853 90.775 84.7449 91.293C83.1287 92.8425 81.2678 94.3202 79.1282 95.6564C67.53 88.4061 64.1256 77.0969 63.1491 71.8945C62.822 70.16 62.7662 69.1056 62.7662 69.1056C62.9237 69.0784 63.08 69.0501 63.2363 69.0207C64.5557 68.7748 65.7903 68.482 66.94 68.1534C69.2844 67.4896 71.2773 66.6877 72.9299 65.8781C73.9961 65.3569 74.918 64.8324 75.7043 64.3416C77.0964 63.4711 78.056 62.704 78.5963 62.2317C78.9525 61.9205 79.1282 61.7388 79.1282 61.7388C79.1282 61.7388 84.3415 67.1632 95.4865 69.1045V69.1056Z" fill="url(#paint10_linear_6_77)"/>
<path style="mix-blend-mode:screen" d="M95.4864 69.1058C95.4864 69.1058 94.5887 85.9885 79.1281 95.6567V61.7412C79.1281 61.7412 84.3414 67.1646 95.4864 69.1058Z" fill="url(#paint11_linear_6_77)"/>
<path d="M97.2483 86.8768L95.6514 88.311L99.3532 91.6358L100.95 90.2015L97.2483 86.8768Z" fill="url(#paint12_linear_6_77)"/>
<path d="M99.0958 88.9096L97.9162 89.9691C97.5216 90.3235 97.5215 90.8981 97.9161 91.2526L107.455 99.8203C107.85 100.175 108.49 100.175 108.884 99.8203L110.064 98.7607C110.459 98.4063 110.459 97.8317 110.064 97.4773L100.525 88.9096C100.13 88.5552 99.4904 88.5552 99.0958 88.9096Z" fill="url(#paint13_linear_6_77)"/>
<path d="M79.1815 72.2277C74.3232 76.5912 74.3232 83.6925 79.1815 88.056C84.0398 92.4195 91.9464 92.4205 96.8047 88.056C101.664 83.6914 101.663 76.5901 96.8047 72.2266C91.9464 67.8632 84.0398 67.8621 79.1803 72.2266L79.1815 72.2277ZM96.0608 87.3878C91.6059 91.389 84.3827 91.3879 79.9278 87.3878C75.473 83.3867 75.473 76.8992 79.9278 72.898C84.3827 68.8969 91.606 68.8969 96.062 72.898C100.517 76.8992 100.517 83.3867 96.062 87.3889L96.0608 87.3878Z" fill="url(#paint14_linear_6_77)"/>
<path style="mix-blend-mode:screen" opacity="0.8" d="M99.3538 81.0712C99.2544 82.0701 98.9915 83.0581 98.5663 83.9994C98.0611 85.1202 97.3244 86.1757 96.3576 87.1093C96.2631 87.2029 96.1626 87.2976 96.0608 87.3879C94.6542 88.6512 92.9701 89.5163 91.1843 89.981C87.3195 90.9897 82.9761 90.1246 79.9266 87.3879C76.8796 84.6512 75.9164 80.7502 77.0395 77.2768C77.5568 75.6729 78.52 74.1603 79.9266 72.897C80.0272 72.8067 80.1326 72.7153 80.2368 72.6304C81.2763 71.761 82.4527 71.1005 83.6994 70.6467C84.7486 70.2648 85.8487 70.0286 86.9597 69.9394C90.2151 69.675 93.5711 70.6608 96.0608 72.897C98.5505 75.1342 99.6482 78.1484 99.3538 81.0712Z" fill="url(#paint15_linear_6_77)"/>
<path style="mix-blend-mode:screen" opacity="0.8" d="M96.3564 87.1083C96.2619 87.2019 96.1614 87.2966 96.0596 87.3869C94.653 88.6502 92.9689 89.5153 91.1831 89.98L77.0383 77.2758C77.5556 75.6719 78.5188 74.1593 79.9254 72.896C80.026 72.8057 80.1314 72.7143 80.2356 72.6294L96.3552 87.1072L96.3564 87.1083Z" fill="url(#paint16_linear_6_77)"/>
<path style="mix-blend-mode:screen" opacity="0.8" d="M99.3537 81.0711C99.2544 82.07 98.9914 83.0581 98.5662 83.9993L83.7005 70.6477C84.7497 70.2658 85.8498 70.0297 86.9608 69.9404L99.3549 81.0722L99.3537 81.0711Z" fill="url(#paint17_linear_6_77)"/>
<path d="M46.8004 11.144H16.221C13.8899 11.144 11.9999 12.8416 11.9999 14.9352V26.1355C11.9999 28.2291 13.8899 29.9266 16.221 29.9266H44.1084L51.0227 36.0126V14.9352C51.0227 12.8416 49.1327 11.144 46.8016 11.144H46.8004Z" fill="url(#paint18_linear_6_77)"/>
<path d="M44.8583 15.0811H18.1618C17.9055 15.0811 17.6978 15.2676 17.6978 15.4978V15.9015C17.6978 16.1317 17.9055 16.3183 18.1618 16.3183H44.8583C45.1145 16.3183 45.3223 16.1317 45.3223 15.9015V15.4978C45.3223 15.2676 45.1145 15.0811 44.8583 15.0811Z" fill="url(#paint19_linear_6_77)"/>
<path d="M44.8583 19.4492H18.1618C17.9055 19.4492 17.6978 19.6358 17.6978 19.866V20.2697C17.6978 20.4999 17.9055 20.6864 18.1618 20.6864H44.8583C45.1145 20.6864 45.3223 20.4999 45.3223 20.2697V19.866C45.3223 19.6358 45.1145 19.4492 44.8583 19.4492Z" fill="url(#paint20_linear_6_77)"/>
<path d="M44.8583 23.8169H18.1618C17.9055 23.8169 17.6978 24.0035 17.6978 24.2337V24.6374C17.6978 24.8675 17.9055 25.0541 18.1618 25.0541H44.8583C45.1145 25.0541 45.3223 24.8675 45.3223 24.6374V24.2337C45.3223 24.0035 45.1145 23.8169 44.8583 23.8169Z" fill="url(#paint21_linear_6_77)"/>
<path d="M95.1994 0.5H125.779C128.11 0.5 130 2.19752 130 4.29112V15.4915C130 17.5851 128.11 19.2826 125.779 19.2826H97.8915L90.9772 25.3686V4.29112C90.9772 2.19752 92.8672 0.5 95.1982 0.5H95.1994Z" fill="url(#paint22_linear_6_77)"/>
<path d="M97.1416 5.67432L123.838 5.67432C124.094 5.67432 124.302 5.48773 124.302 5.25755V4.85385C124.302 4.62368 124.094 4.43709 123.838 4.43709L97.1416 4.43709C96.8853 4.43709 96.6775 4.62368 96.6775 4.85385V5.25755C96.6775 5.48773 96.8853 5.67432 97.1416 5.67432Z" fill="url(#paint23_linear_6_77)"/>
<path d="M97.1416 10.041L123.838 10.041C124.094 10.041 124.302 9.85442 124.302 9.62425V9.22055C124.302 8.99038 124.094 8.80379 123.838 8.80379L97.1416 8.80379C96.8853 8.80379 96.6775 8.99038 96.6775 9.22055V9.62425C96.6775 9.85442 96.8853 10.041 97.1416 10.041Z" fill="url(#paint24_linear_6_77)"/>
<path d="M97.1416 14.4087L123.838 14.4087C124.094 14.4087 124.302 14.2221 124.302 13.9919V13.5882C124.302 13.3581 124.094 13.1715 123.838 13.1715L97.1416 13.1715C96.8853 13.1715 96.6775 13.3581 96.6775 13.5882V13.9919C96.6775 14.2221 96.8853 14.4087 97.1416 14.4087Z" fill="url(#paint25_linear_6_77)"/>
</g>
<defs>
<linearGradient id="paint0_linear_6_77" x1="77.1522" y1="48.1427" x2="81.2553" y2="110.677" gradientUnits="userSpaceOnUse">
<stop stop-color="#FDB968"/>
<stop offset="1" stop-color="#EC000B"/>
</linearGradient>
<linearGradient id="paint1_linear_6_77" x1="75.9722" y1="27.3611" x2="84.1957" y2="98.7062" gradientUnits="userSpaceOnUse">
<stop stop-color="#7A17BF"/>
<stop offset="1" stop-color="#0D0654"/>
</linearGradient>
<linearGradient id="paint2_linear_6_77" x1="101.992" y1="112.541" x2="84.7525" y2="54.7623" gradientUnits="userSpaceOnUse">
<stop stop-color="#91C1EF"/>
<stop offset="1" stop-color="#FFE1FF"/>
</linearGradient>
<linearGradient id="paint3_linear_6_77" x1="77.2553" y1="35.6069" x2="82.2013" y2="64.7319" gradientUnits="userSpaceOnUse">
<stop stop-color="#91C1EF"/>
<stop offset="1" stop-color="#FFE1FF"/>
</linearGradient>
<linearGradient id="paint4_linear_6_77" x1="77.2553" y1="40.4839" x2="82.2013" y2="69.6089" gradientUnits="userSpaceOnUse">
<stop stop-color="#91C1EF"/>
<stop offset="1" stop-color="#FFE1FF"/>
</linearGradient>
<linearGradient id="paint5_linear_6_77" x1="77.2553" y1="45.3624" x2="82.2013" y2="74.4863" gradientUnits="userSpaceOnUse">
<stop stop-color="#91C1EF"/>
<stop offset="1" stop-color="#FFE1FF"/>
</linearGradient>
<linearGradient id="paint6_linear_6_77" x1="77.2553" y1="50.2392" x2="82.2013" y2="79.3633" gradientUnits="userSpaceOnUse">
<stop stop-color="#91C1EF"/>
<stop offset="1" stop-color="#FFE1FF"/>
</linearGradient>
<linearGradient id="paint7_linear_6_77" x1="77.2553" y1="55.1167" x2="82.2013" y2="84.2417" gradientUnits="userSpaceOnUse">
<stop stop-color="#91C1EF"/>
<stop offset="1" stop-color="#FFE1FF"/>
</linearGradient>
<linearGradient id="paint8_linear_6_77" x1="77.226" y1="70.7782" x2="81.0715" y2="141.854" gradientUnits="userSpaceOnUse">
<stop stop-color="#FFB256"/>
<stop offset="1" stop-color="#FD0510"/>
</linearGradient>
<linearGradient id="paint9_linear_6_77" x1="79.2784" y1="69.5888" x2="82.648" y2="94.4914" gradientUnits="userSpaceOnUse">
<stop stop-color="#FDB968"/>
<stop offset="1" stop-color="#FF646B"/>
</linearGradient>
<linearGradient id="paint10_linear_6_77" x1="79.127" y1="61.7399" x2="79.127" y2="95.6554" gradientUnits="userSpaceOnUse">
<stop stop-color="#7A17BF"/>
<stop offset="1" stop-color="#0D0654"/>
</linearGradient>
<linearGradient id="paint11_linear_6_77" x1="82.6973" y1="57.5409" x2="87.2795" y2="88.1506" gradientUnits="userSpaceOnUse">
<stop stop-color="#7A17BF"/>
<stop offset="1" stop-color="#0D0654"/>
</linearGradient>
<linearGradient id="paint12_linear_6_77" x1="97.0966" y1="90.5627" x2="98.4255" y2="88.7736" gradientUnits="userSpaceOnUse">
<stop stop-color="#91C1EF"/>
<stop offset="1" stop-color="#FFE1FF"/>
</linearGradient>
<linearGradient id="paint13_linear_6_77" x1="105.464" y1="92.8985" x2="103.452" y2="95.3838" gradientUnits="userSpaceOnUse">
<stop stop-color="#7A17BF"/>
<stop offset="1" stop-color="#0D0654"/>
</linearGradient>
<linearGradient id="paint14_linear_6_77" x1="72.3305" y1="76.9757" x2="114.378" y2="87.5066" gradientUnits="userSpaceOnUse">
<stop stop-color="#7A17BF"/>
<stop offset="1" stop-color="#0D0654"/>
</linearGradient>
<linearGradient id="paint15_linear_6_77" x1="103.749" y1="97.1236" x2="83.9612" y2="70.6847" gradientUnits="userSpaceOnUse">
<stop stop-color="#91C1EF"/>
<stop offset="1" stop-color="#FFE1FF"/>
</linearGradient>
<linearGradient id="paint16_linear_6_77" x1="79.3487" y1="75.8797" x2="101.289" y2="99.076" gradientUnits="userSpaceOnUse">
<stop/>
<stop offset="1" stop-color="#FFE1FF"/>
</linearGradient>
<linearGradient id="paint17_linear_6_77" x1="85.1035" y1="70.4366" x2="107.043" y2="93.6317" gradientUnits="userSpaceOnUse">
<stop/>
<stop offset="1" stop-color="#FFE1FF"/>
</linearGradient>
<linearGradient id="paint18_linear_6_77" x1="8.9565" y1="12.3813" x2="78.9304" y2="43.7441" gradientUnits="userSpaceOnUse">
<stop stop-color="#7A17BF"/>
<stop offset="1" stop-color="#0D0654"/>
</linearGradient>
<linearGradient id="paint19_linear_6_77" x1="30.1064" y1="9.03094" x2="33.8747" y2="31.2228" gradientUnits="userSpaceOnUse">
<stop stop-color="#91C1EF"/>
<stop offset="1" stop-color="#FFE1FF"/>
</linearGradient>
<linearGradient id="paint20_linear_6_77" x1="30.1064" y1="13.4002" x2="33.8747" y2="35.5909" gradientUnits="userSpaceOnUse">
<stop stop-color="#91C1EF"/>
<stop offset="1" stop-color="#FFE1FF"/>
</linearGradient>
<linearGradient id="paint21_linear_6_77" x1="30.1064" y1="17.7679" x2="33.8747" y2="39.9586" gradientUnits="userSpaceOnUse">
<stop stop-color="#91C1EF"/>
<stop offset="1" stop-color="#FFE1FF"/>
</linearGradient>
<linearGradient id="paint22_linear_6_77" x1="98.6766" y1="-9.37497" x2="120.819" y2="45.9323" gradientUnits="userSpaceOnUse">
<stop stop-color="#7A17BF"/>
<stop offset="1" stop-color="#0D0654"/>
</linearGradient>
<linearGradient id="paint23_linear_6_77" x1="111.893" y1="-1.61303" x2="108.125" y2="20.5777" gradientUnits="userSpaceOnUse">
<stop stop-color="#91C1EF"/>
<stop offset="1" stop-color="#FFE1FF"/>
</linearGradient>
<linearGradient id="paint24_linear_6_77" x1="111.893" y1="2.75475" x2="108.125" y2="24.9466" gradientUnits="userSpaceOnUse">
<stop stop-color="#91C1EF"/>
<stop offset="1" stop-color="#FFE1FF"/>
</linearGradient>
<linearGradient id="paint25_linear_6_77" x1="111.893" y1="7.12242" x2="108.125" y2="29.3143" gradientUnits="userSpaceOnUse">
<stop stop-color="#91C1EF"/>
<stop offset="1" stop-color="#FFE1FF"/>
</linearGradient>
<clipPath id="clip0_6_77">
<rect x="-9.15527e-05" y="0.5" width="143" height="100" rx="6" fill="white"/>
</clipPath>
</defs>
</svg>
