<svg width="143" height="101" viewBox="0 0 143 101" fill="none" xmlns="http://www.w3.org/2000/svg">
<g clip-path="url(#clip0_6_67)">
<path d="M20.3167 77.7741C20.1171 77.7741 19.9545 77.6085 19.9545 77.4051V62.3911H46.1542C46.3539 62.3911 46.5164 62.5567 46.5164 62.7601C46.5164 62.9635 46.3539 63.1291 46.1542 63.1291H20.6777V77.4051C20.6777 77.6085 20.5151 77.7741 20.3155 77.7741H20.3167Z" fill="url(#paint0_linear_6_67)"/>
<path d="M80.3553 31.5578C80.1557 31.5578 79.9931 31.3922 79.9931 31.1888V16.1748H106.193C106.393 16.1748 106.555 16.3404 106.555 16.5438C106.555 16.7471 106.393 16.9128 106.193 16.9128H80.7164V31.1888C80.7164 31.3922 80.5538 31.5578 80.3542 31.5578H80.3553Z" fill="url(#paint1_linear_6_67)"/>
<path d="M67.014 98.5103C66.6398 98.3313 57.7301 94.0021 48.3445 83.8349C42.8394 77.8714 38.3193 71.1273 34.9123 63.789C30.6564 54.624 28.134 44.5079 27.4155 33.7232L27.3079 32.106L28.8931 31.9587C28.9541 31.9526 35.2028 31.3425 42.9458 28.6402C50.0122 26.1742 59.8209 21.4042 66.4175 12.6873L67.7074 10.9824L68.9973 12.6873C81.6991 29.472 106.275 31.9355 106.522 31.9575L108.107 32.1048L107.999 33.722C107.282 44.5067 104.76 54.6216 100.503 63.7878C97.0943 71.1261 92.5754 77.8702 87.0703 83.8336C77.6847 94.0009 68.7749 98.3301 68.4008 98.5091L67.7086 98.8403L67.0164 98.5091L67.014 98.5103Z" fill="url(#paint2_linear_6_67)"/>
<path d="M106.372 33.6114C105.851 41.4295 104.407 48.4135 102.364 54.6217C101.434 57.4567 100.377 60.1322 99.2245 62.6493C97.8605 65.639 96.3614 68.4094 94.7822 70.9704C92.3805 74.8673 89.7911 78.2771 87.2041 81.2302C85.014 83.7267 82.8252 85.898 80.7462 87.7648C79.6727 88.7269 78.6303 89.6086 77.6321 90.4098C71.95 94.9777 67.7085 97.0078 67.7085 97.0078C67.7085 97.0078 36.3802 82.0133 29.9678 41.8558C29.6259 39.7161 29.3545 37.5034 29.1644 35.2201C29.1178 34.6879 29.0772 34.1509 29.0413 33.6114C29.0413 33.6114 32.9947 33.2448 38.6014 31.7202C42.3731 30.6936 46.8896 29.1446 51.4526 26.832C54.1018 25.4888 56.7641 23.8886 59.3044 21.984C61.3642 20.4399 63.3415 18.6972 65.1658 16.7281C66.0528 15.7733 66.9028 14.765 67.7085 13.7007C80.9913 31.2513 106.375 33.6114 106.375 33.6114H106.372Z" fill="url(#paint3_linear_6_67)"/>
<path d="M74.4427 48.2125C74.4427 44.4228 71.4266 41.3516 67.7075 41.3516C63.9884 41.3516 60.9723 44.424 60.9723 48.2125C60.9723 51.1912 62.836 53.7254 65.4397 54.6741V67.0467C65.4397 68.3229 66.4547 69.3568 67.7075 69.3568C68.9604 69.3568 69.9753 68.3229 69.9753 67.0467V54.6741C72.579 53.7254 74.4427 51.1912 74.4427 48.2125Z" fill="url(#paint4_linear_6_67)"/>
<path style="mix-blend-mode:screen" d="M102.364 54.6224C101.434 57.4574 100.377 60.1329 99.2245 62.65L59.3032 21.9835C61.363 20.4393 63.3403 18.6967 65.1646 16.7275L102.365 54.6224H102.364Z" fill="url(#paint5_linear_6_67)"/>
<path style="mix-blend-mode:screen" d="M80.7451 87.7655C79.6716 88.7275 78.6292 89.6092 77.6309 90.4105L29.9667 41.8564C29.6248 39.7167 29.3534 37.504 29.1633 35.2207L80.7463 87.7667L80.7451 87.7655Z" fill="url(#paint6_linear_6_67)"/>
<path style="mix-blend-mode:screen" d="M94.7823 70.9712C92.3806 74.8681 89.7913 78.2779 87.2043 81.231L38.6004 31.7197C42.3721 30.6931 46.8885 29.1441 51.4516 26.8315L94.7823 70.9712Z" fill="url(#paint7_linear_6_67)"/>
<path style="mix-blend-mode:screen" d="M106.372 33.6114C103.287 79.9796 67.7062 97.009 67.7062 97.009V13.7007C80.989 31.2513 106.372 33.6114 106.372 33.6114Z" fill="url(#paint8_linear_6_67)"/>
<path d="M117.673 71.8602L107.825 68.3859L103.265 81.7961C102.84 83.0492 101.497 83.7128 100.267 83.2793L99.6405 83.0577C98.4104 82.6242 97.7588 81.2566 98.1844 80.0035L107.955 51.2688C108.381 50.0157 109.723 49.352 110.953 49.7855L111.58 50.0071C112.81 50.4407 113.461 51.8082 113.036 53.0613L112.464 54.7419L119.079 57.0764C120.309 57.5099 120.96 58.8775 120.535 60.1305L120.317 60.7687C119.892 62.0218 118.549 62.6855 117.319 62.2519L110.704 59.9174L109.368 63.8497L119.216 67.324C120.446 67.7575 121.098 69.1251 120.672 70.3782C120.247 71.6313 118.904 72.2949 117.674 71.8614L117.673 71.8602Z" fill="url(#paint9_linear_6_67)"/>
<path d="M94.812 98.2919C89.7277 96.4981 87.0343 90.8464 88.7952 85.6672C90.5562 80.4879 96.1043 77.7443 101.189 79.5381C106.273 81.3319 108.966 86.9836 107.205 92.1628C105.444 97.342 99.8963 100.086 94.812 98.2919ZM99.7851 83.6639C96.9387 82.6593 93.8305 84.1961 92.8455 87.0956C91.8592 89.9952 93.3679 93.1614 96.2143 94.1648C99.0607 95.1695 102.169 93.6327 103.154 90.7331C104.14 87.8336 102.632 84.6674 99.7851 83.6639Z" fill="url(#paint10_linear_6_67)"/>
<path d="M6.70296 100.5V100.199C2.7938 99.1653 0 95.5863 0 91.3301C0 86.565 3.58639 82.6364 8.15425 82.2004C8.1674 75.5246 13.5039 70.0981 20.0599 70.0981C25.2374 70.0981 29.7479 73.4848 31.3486 78.3608C31.7168 78.3145 32.0874 78.2914 32.4592 78.2914C36.5465 78.2914 40.0396 81.0935 41.1167 84.9514C41.4299 84.9112 41.7467 84.8917 42.0659 84.8917C46.2907 84.8917 49.7264 88.3929 49.7264 92.6953C49.7264 96.9977 46.2895 100.499 42.0659 100.499H6.70296V100.5Z" fill="url(#paint11_linear_6_67)"/>
<path d="M48.0996 92.6949C48.0996 94.4826 47.35 96.0925 46.1546 97.2165C45.081 98.2248 43.6441 98.841 42.0685 98.841H8.33253V98.8081C4.574 98.4635 1.62958 95.2485 1.62958 91.3309C1.62958 88.5179 3.14662 86.0665 5.3917 84.7817C6.13886 84.3519 6.96732 84.0523 7.84957 83.9122C8.22375 83.8513 8.60988 83.8197 9.00199 83.8197C9.30923 83.8197 9.61407 83.8416 9.91174 83.8781C9.82686 83.3399 9.78383 82.7882 9.78383 82.2268C9.78383 82.0649 9.78741 81.9041 9.79459 81.7458C9.91891 78.9327 11.1335 76.4095 13.0176 74.6023C13.8125 73.8412 14.7259 73.2055 15.7289 72.7318C17.0439 72.1071 18.5143 71.7588 20.0612 71.7588C20.4557 71.7588 20.8442 71.7807 21.228 71.8246C25.7361 72.3445 29.3583 75.8323 30.1688 80.3222C30.8909 80.0823 31.6596 79.9496 32.4617 79.9496C36.3793 79.9496 39.5819 83.0634 39.8174 86.9932C40.5144 86.7095 41.2723 86.5512 42.0685 86.5512C45.4002 86.5512 48.0996 89.3009 48.0996 92.6949Z" fill="url(#paint12_linear_6_67)"/>
<path style="mix-blend-mode:screen" d="M46.1543 97.2165C45.0808 98.2248 43.6438 98.841 42.0682 98.841H41.3593L15.7286 72.7318C17.0436 72.1071 18.514 71.7588 20.061 71.7588C20.4555 71.7588 20.844 71.7807 21.2277 71.8246L46.1555 97.2177L46.1543 97.2165Z" fill="url(#paint13_linear_6_67)"/>
<path style="mix-blend-mode:screen" d="M22.5047 98.8414H19.1944L5.39041 84.7821C6.13758 84.3522 6.96603 84.0526 7.84828 83.9126L22.5047 98.8426V98.8414Z" fill="url(#paint14_linear_6_67)"/>
<path style="mix-blend-mode:screen" d="M36.8118 98.8412H26.5762L9.79433 81.746C9.91865 78.933 11.1332 76.4097 13.0173 74.6025L36.8118 98.8412Z" fill="url(#paint15_linear_6_67)"/>
<path d="M99.9766 28.9019V28.6011C96.0674 27.5672 93.2736 23.9881 93.2736 19.732C93.2736 14.9668 96.86 11.0383 101.428 10.6023C101.441 3.92643 106.778 -1.5 113.333 -1.5C118.511 -1.5 123.021 1.88664 124.622 6.76263C124.99 6.71636 125.361 6.69321 125.733 6.69321C129.82 6.69321 133.313 9.49533 134.39 13.3533C134.704 13.3131 135.02 13.2936 135.34 13.2936C139.564 13.2936 143 16.7947 143 21.0971C143 25.3995 139.563 28.9007 135.34 28.9007H99.9742L99.9766 28.9019Z" fill="url(#paint16_linear_6_67)"/>
<path d="M141.374 21.0972C141.374 22.8849 140.625 24.4948 139.429 25.6188C138.356 26.6271 136.919 27.2433 135.343 27.2433H101.607V27.2105C97.8486 26.8658 94.9041 23.6509 94.9041 19.7333C94.9041 16.9202 96.4212 14.4688 98.6663 13.1841C99.4134 12.7542 100.242 12.4546 101.124 12.3146C101.498 12.2537 101.884 12.222 102.277 12.222C102.584 12.222 102.889 12.2439 103.186 12.2805C103.101 11.7422 103.058 11.1906 103.058 10.6292C103.058 10.4672 103.062 10.3065 103.069 10.1481C103.193 7.33507 104.408 4.81183 106.292 3.00465C107.087 2.24353 108 1.60785 109.003 1.13414C110.318 0.509417 111.789 0.161133 113.336 0.161133C113.73 0.161133 114.119 0.183044 114.503 0.228102C119.011 0.748094 122.633 4.23582 123.443 8.72577C124.165 8.48587 124.934 8.35312 125.736 8.35312C129.654 8.35312 132.856 11.467 133.092 15.3968C133.789 15.113 134.547 14.9547 135.343 14.9547C138.675 14.9547 141.374 17.7045 141.374 21.0984V21.0972Z" fill="url(#paint17_linear_6_67)"/>
<path style="mix-blend-mode:screen" d="M139.429 25.6188C138.356 26.6271 136.919 27.2433 135.343 27.2433H134.634L109.003 1.13414C110.318 0.509417 111.789 0.161133 113.336 0.161133C113.73 0.161133 114.119 0.183044 114.503 0.228102L139.43 25.6212L139.429 25.6188Z" fill="url(#paint18_linear_6_67)"/>
<path style="mix-blend-mode:screen" d="M115.779 27.2422H112.469L98.6652 13.183C99.4123 12.7531 100.241 12.4535 101.123 12.3135L115.779 27.2435V27.2422Z" fill="url(#paint19_linear_6_67)"/>
<path style="mix-blend-mode:screen" d="M130.085 27.2421H119.85L103.068 10.1469C103.192 7.33385 104.407 4.8106 106.291 3.00342L130.085 27.2421Z" fill="url(#paint20_linear_6_67)"/>
</g>
<defs>
<linearGradient id="paint0_linear_6_67" x1="15.1284" y1="23.8703" x2="47.9141" y2="104.508" gradientUnits="userSpaceOnUse">
<stop stop-color="#FDB968"/>
<stop offset="0.854167" stop-color="#FF646B"/>
<stop offset="1" stop-color="#FF646B"/>
</linearGradient>
<linearGradient id="paint1_linear_6_67" x1="82.5371" y1="-3.53739" x2="115.323" y2="77.1016" gradientUnits="userSpaceOnUse">
<stop stop-color="#FDB968"/>
<stop offset="1" stop-color="#FF646B"/>
</linearGradient>
<linearGradient id="paint2_linear_6_67" x1="47.0833" y1="11.9238" x2="109.719" y2="102.925" gradientUnits="userSpaceOnUse">
<stop stop-color="#FDB968"/>
<stop offset="1" stop-color="#FF646B"/>
</linearGradient>
<linearGradient id="paint3_linear_6_67" x1="56.256" y1="1.7226" x2="86.93" y2="94.8904" gradientUnits="userSpaceOnUse">
<stop stop-color="#7A17BF"/>
<stop offset="1" stop-color="#0D0654"/>
</linearGradient>
<linearGradient id="paint4_linear_6_67" x1="63.6812" y1="44.1671" x2="78.9584" y2="74.5847" gradientUnits="userSpaceOnUse">
<stop stop-color="#FDB968"/>
<stop offset="1" stop-color="#FF646B"/>
</linearGradient>
<linearGradient id="paint5_linear_6_67" x1="123.626" y1="91.1034" x2="56.091" y2="10.7997" gradientUnits="userSpaceOnUse">
<stop stop-color="#7A17BF"/>
<stop offset="1"/>
</linearGradient>
<linearGradient id="paint6_linear_6_67" x1="95.698" y1="114.59" x2="28.1638" y2="34.2858" gradientUnits="userSpaceOnUse">
<stop stop-color="#7A17BF"/>
<stop offset="1"/>
</linearGradient>
<linearGradient id="paint7_linear_6_67" x1="108.929" y1="103.463" x2="41.3941" y2="23.159" gradientUnits="userSpaceOnUse">
<stop stop-color="#7A17BF"/>
<stop offset="1"/>
</linearGradient>
<linearGradient id="paint8_linear_6_67" x1="68.4366" y1="17.5659" x2="96.1798" y2="86.1829" gradientUnits="userSpaceOnUse">
<stop stop-color="#7A17BF"/>
<stop offset="1" stop-color="#0D0654"/>
</linearGradient>
<linearGradient id="paint9_linear_6_67" x1="102.678" y1="47.272" x2="114.051" y2="84.6631" gradientUnits="userSpaceOnUse">
<stop stop-color="#FDB968"/>
<stop offset="1" stop-color="#FF646B"/>
</linearGradient>
<linearGradient id="paint10_linear_6_67" x1="114.066" y1="103.912" x2="83.5422" y2="76.4544" gradientUnits="userSpaceOnUse">
<stop stop-color="#FDB968"/>
<stop offset="1" stop-color="#FF646B"/>
</linearGradient>
<linearGradient id="paint11_linear_6_67" x1="18.544" y1="66.6518" x2="29.1438" y2="107.798" gradientUnits="userSpaceOnUse">
<stop stop-color="#FDB968"/>
<stop offset="1" stop-color="#FF646B"/>
</linearGradient>
<linearGradient id="paint12_linear_6_67" x1="20.2812" y1="66.213" x2="27.3338" y2="104.563" gradientUnits="userSpaceOnUse">
<stop stop-color="#7A17BF"/>
<stop offset="1" stop-color="#0D0654"/>
</linearGradient>
<linearGradient id="paint13_linear_6_67" x1="71.4622" y1="134.973" x2="3.92692" y2="54.6688" gradientUnits="userSpaceOnUse">
<stop stop-color="#7A17BF"/>
<stop offset="1"/>
</linearGradient>
<linearGradient id="paint14_linear_6_67" x1="58.0613" y1="146.242" x2="-9.47282" y2="65.9385" gradientUnits="userSpaceOnUse">
<stop stop-color="#7A17BF"/>
<stop offset="1"/>
</linearGradient>
<linearGradient id="paint15_linear_6_67" x1="64.3564" y1="140.948" x2="-3.17891" y2="60.6447" gradientUnits="userSpaceOnUse">
<stop stop-color="#7A17BF"/>
<stop offset="1"/>
</linearGradient>
<linearGradient id="paint16_linear_6_67" x1="111.819" y1="-4.94632" x2="122.417" y2="36.1994" gradientUnits="userSpaceOnUse">
<stop stop-color="#FDB968"/>
<stop offset="1" stop-color="#FF646B"/>
</linearGradient>
<linearGradient id="paint17_linear_6_67" x1="113.555" y1="-5.38463" x2="120.608" y2="32.9651" gradientUnits="userSpaceOnUse">
<stop stop-color="#7A17BF"/>
<stop offset="1" stop-color="#0D0654"/>
</linearGradient>
<linearGradient id="paint18_linear_6_67" x1="161.438" y1="59.3038" x2="93.9035" y2="-20.9999" gradientUnits="userSpaceOnUse">
<stop stop-color="#7A17BF"/>
<stop offset="1"/>
</linearGradient>
<linearGradient id="paint19_linear_6_67" x1="148.038" y1="70.5733" x2="80.5025" y2="-9.72923" gradientUnits="userSpaceOnUse">
<stop stop-color="#7A17BF"/>
<stop offset="1"/>
</linearGradient>
<linearGradient id="paint20_linear_6_67" x1="154.332" y1="65.2795" x2="86.7976" y2="-15.0231" gradientUnits="userSpaceOnUse">
<stop stop-color="#7A17BF"/>
<stop offset="1"/>
</linearGradient>
<clipPath id="clip0_6_67">
<rect y="0.5" width="143" height="100" rx="6" fill="white"/>
</clipPath>
</defs>
</svg>
