<svg width="24" height="26" viewBox="0 0 24 26" fill="none" xmlns="http://www.w3.org/2000/svg">
<g clip-path="url(#clip0_6_121)">
<path d="M8.92188 7.43701C8.84375 6.60889 8.60938 5.89014 8.21875 5.28076C7.8125 4.67139 7.38281 4.15967 6.92969 3.74561C6.47656 3.33154 6.05469 3.01514 5.66406 2.79639C5.28906 2.59326 5.08594 2.48389 5.05469 2.46826C4.97656 2.43701 4.90234 2.41357 4.83203 2.39795C4.76172 2.38232 4.6875 2.38232 4.60938 2.39795C2.625 2.72607 1.36719 3.30811 0.835938 4.14404C0.304688 4.97998 0.03125 5.42139 0.015625 5.46826C0 5.53076 -0.00390625 5.59717 0.00390625 5.66748C0.0117188 5.73779 0.0234375 5.8042 0.0390625 5.8667C1.22656 9.53857 2.66406 12.5151 4.35156 14.7964C6.05469 17.0776 7.76953 18.8745 9.49609 20.187C11.2227 21.4995 12.8438 22.437 14.3594 22.9995C15.875 23.562 17.0391 23.9526 17.8516 24.1714C17.9766 24.2026 18.0898 24.2339 18.1914 24.2651C18.293 24.2964 18.3828 24.3276 18.4609 24.3589C18.4922 24.3745 18.5273 24.3823 18.5664 24.3823C18.6055 24.3823 18.6484 24.3823 18.6953 24.3823C18.7422 24.3823 18.793 24.3784 18.8477 24.3706C18.9023 24.3628 18.9531 24.3433 19 24.312C19.0469 24.2964 19.4883 23.9526 20.3242 23.2808C21.1602 22.6089 21.7188 21.3745 22 19.5776C22.0156 19.4995 22.0156 19.4214 22 19.3433C21.9844 19.2651 21.9609 19.1948 21.9297 19.1323C21.8984 19.0854 21.5391 18.6323 20.8516 17.7729C20.1641 16.9136 18.9688 16.2808 17.2656 15.8745C17.1562 15.8433 17.043 15.8433 16.9258 15.8745C16.8086 15.9058 16.7031 15.9604 16.6094 16.0386C16.0781 16.4917 15.4922 16.9214 14.8516 17.3276C14.2109 17.7339 13.7344 17.9683 13.4219 18.0308C12.3594 17.4995 11.4141 16.8823 10.5859 16.1792C9.75781 15.4761 9.05469 14.7847 8.47656 14.105C7.89844 13.4253 7.46094 12.812 7.16406 12.2651C6.85156 11.7183 6.6875 11.3511 6.67188 11.1636C6.64062 10.9448 6.83594 10.519 7.25781 9.88623C7.67969 9.25342 8.17188 8.63232 8.73438 8.02295C8.79688 7.94482 8.84766 7.85498 8.88672 7.75342C8.92578 7.65186 8.9375 7.54639 8.92188 7.43701Z" fill="#1B127F"/>
</g>
<defs>
<clipPath id="clip0_6_121">
<rect width="24" height="25" fill="white" transform="matrix(1 0 0 -1 0 25.8901)"/>
</clipPath>
</defs>
</svg>
