<svg width="61" height="106" viewBox="0 0 61 106" fill="none" xmlns="http://www.w3.org/2000/svg">
<mask id="mask0_41_21962" style="mask-type:luminance" maskUnits="userSpaceOnUse" x="54" y="87" width="3" height="1">
<path d="M56.1917 87.4546C56.1917 87.4546 56.1917 87.4546 56.1258 87.4546L54.9401 87.9361C54.9401 87.9361 55.006 87.9361 55.0719 87.9361C55.4671 87.761 55.8624 87.6297 56.2576 87.4546H56.1917Z" fill="white"/>
</mask>
<g mask="url(#mask0_41_21962)">
<path d="M54.8741 87.98C54.8741 87.98 54.94 87.98 55.0058 87.98L56.1916 87.4984C56.1916 87.4984 56.1916 87.4984 56.1257 87.4984L54.94 87.98H54.8741Z" fill="#8E8E8E"/>
</g>
<path d="M11.726 104.528L54.874 87.98L56.0597 87.4984L12.9776 104.046L11.726 104.528Z" fill="#888888"/>
<mask id="mask1_41_21962" style="mask-type:luminance" maskUnits="userSpaceOnUse" x="5" y="102" width="8" height="4">
<path d="M12.9778 104.046L11.792 104.528C8.36655 105.841 5.59979 104.79 5.59979 102.208H8.03718C8.03718 104.265 10.2769 105.097 12.9778 104.09V104.046Z" fill="white"/>
</mask>
<g mask="url(#mask1_41_21962)">
<path d="M8.8272 103.959L6.58743 104.397C7.7073 105.228 9.55179 105.316 11.7257 104.528L12.9114 104.046C11.1987 104.703 9.68357 104.615 8.8272 103.959Z" fill="#8E8E8E"/>
<path d="M6.12735 103.915C6.12735 103.915 6.45674 104.265 6.65436 104.396L8.89408 103.958C8.89408 103.958 8.63059 103.696 8.49884 103.564L6.19324 103.915H6.12735Z" fill="#929292"/>
<path d="M5.86383 103.477C5.86383 103.477 6.06146 103.783 6.12734 103.915L8.43294 103.565C8.43294 103.565 8.3012 103.346 8.23532 103.214L5.86383 103.477Z" fill="#989898"/>
<path d="M5.73157 103.083C5.73157 103.083 5.79742 103.346 5.8633 103.477L8.23479 103.215C8.23479 103.215 8.16894 102.996 8.10306 102.908L5.66568 103.083H5.73157Z" fill="#9D9D9D"/>
<path d="M5.59979 102.689C5.59979 102.689 5.59981 102.952 5.66568 103.083L8.10306 102.908C8.10306 102.908 8.10305 102.689 8.03717 102.601L5.59979 102.733V102.689Z" fill="#A3A3A3"/>
<path d="M5.59979 102.339C5.59979 102.339 5.59979 102.602 5.59979 102.689L8.03717 102.558C8.03717 102.558 8.03717 102.383 8.03717 102.251H5.59979V102.339Z" fill="#A9A9A9"/>
<path d="M5.59979 102.164C5.59979 102.164 5.59979 102.251 5.59979 102.339H8.03717C8.03717 102.339 8.03717 102.207 8.03717 102.164H5.59979Z" fill="#AEAEAE"/>
</g>
<mask id="mask2_41_21962" style="mask-type:luminance" maskUnits="userSpaceOnUse" x="0" y="100" width="8" height="5">
<path d="M7.37821 104.791C5.5996 104.134 3.88683 103.433 2.10822 102.777C0.988345 102.339 0.32962 101.42 0.32962 100.15L5.59957 102.164C5.59957 103.433 6.25834 104.353 7.37821 104.791Z" fill="white"/>
</mask>
<g mask="url(#mask2_41_21962)">
<path d="M5.59957 102.164L0.32962 100.15C0.32962 101.42 0.988345 102.339 2.10822 102.777L7.37821 104.791C6.25834 104.353 5.59957 103.433 5.59957 102.164Z" fill="#8E8E8E"/>
</g>
<path d="M60.6704 5.98513L60.9998 81.8513V80.8882L60.6704 5.0658V5.98513Z" fill="#9E9E9E"/>
<mask id="mask3_41_21962" style="mask-type:luminance" maskUnits="userSpaceOnUse" x="49" y="0" width="10" height="3">
<path d="M53.6217 0.381528C55.4003 1.03819 57.113 1.73862 58.8917 2.39528C57.7718 1.95751 56.1908 2.00129 54.478 2.65795L49.2081 0.644199C50.9208 -0.0124619 52.5018 -0.0562452 53.5558 0.381528H53.6217Z" fill="white"/>
</mask>
<g mask="url(#mask3_41_21962)">
<path d="M49.274 0.687824L54.544 2.7016C54.544 2.7016 55.1369 2.4827 55.4004 2.43893L50.1304 0.425171C50.1304 0.425171 49.5375 0.60027 49.274 0.687824Z" fill="#D9D9D9"/>
<path d="M50.1299 0.381656L55.3999 2.39541C55.3999 2.39541 55.861 2.26409 56.1245 2.22031L50.8546 0.206543C50.8546 0.206543 50.3934 0.294102 50.1299 0.381656Z" fill="#D3D3D3"/>
<path d="M50.8553 0.206437L56.1252 2.22021C56.1252 2.22021 56.5205 2.17643 56.6522 2.13265L51.3823 0.118896C51.3823 0.118896 51.0529 0.118882 50.8553 0.206437Z" fill="#CFCFCF"/>
<path d="M51.3829 0.16272L56.6529 2.17647C56.6529 2.17647 56.9822 2.17647 57.114 2.17647L51.844 0.16272C51.844 0.16272 51.5147 0.16272 51.3829 0.16272Z" fill="#C9C9C9"/>
<path d="M51.8426 0.118896L57.1125 2.13265C57.1125 2.13265 57.3761 2.13265 57.5078 2.13265L52.2378 0.118896C52.2378 0.118896 51.9743 0.118896 51.8426 0.118896Z" fill="#C4C4C4"/>
<path d="M52.2383 0.118896L57.5083 2.13265C57.5083 2.13265 57.7718 2.13265 57.9035 2.13265L52.6335 0.118896C52.6335 0.118896 52.3701 0.118896 52.2383 0.118896Z" fill="#BEBEBE"/>
<path d="M52.6341 0.16272L57.9041 2.17647C57.9041 2.17647 58.1676 2.17648 58.2335 2.22026L52.9635 0.20649C52.9635 0.20649 52.7658 0.206497 52.6341 0.16272Z" fill="#B8B8B8"/>
<path d="M52.9637 0.206543L58.2337 2.22031C58.2337 2.22031 58.4313 2.26409 58.563 2.30787L53.2931 0.2941C53.2931 0.2941 53.0954 0.25032 52.9637 0.206543Z" fill="#B3B3B3"/>
<path d="M53.2931 0.294189L58.5631 2.30796C58.5631 2.30796 58.7607 2.35172 58.8925 2.3955L53.6225 0.381746C53.6225 0.381746 53.4249 0.294189 53.2931 0.294189Z" fill="#AEAEAE"/>
<path d="M53.6213 0.381348L58.8913 2.3951V2.43889L53.6213 0.381348Z" fill="#A9A9A9"/>
</g>
<mask id="mask4_41_21962" style="mask-type:luminance" maskUnits="userSpaceOnUse" x="54" y="2" width="7" height="4">
<path d="M55.7301 4.10251L54.5444 2.70163C57.9699 1.38831 60.7366 2.43896 60.7366 5.0656V5.98494C60.7366 3.9274 58.4969 3.05185 55.796 4.10251H55.7301Z" fill="white"/>
</mask>
<g mask="url(#mask4_41_21962)">
<path d="M54.5443 2.70166L55.73 4.10253L54.5443 2.70166Z" fill="white"/>
<path d="M54.5443 2.70157L55.73 4.10244C55.73 4.10244 55.8618 4.10244 55.8618 4.05866L54.6761 2.61401C54.6761 2.61401 54.5443 2.65779 54.4784 2.70157H54.5443Z" fill="white"/>
<path d="M54.7422 2.61398L55.928 4.05862C55.928 4.05862 56.0597 4.05863 56.1256 4.01485L55.0057 2.57019C55.0057 2.57019 54.874 2.61397 54.8081 2.65775L54.7422 2.61398Z" fill="white"/>
<path d="M55.0059 2.52628L56.1258 3.97092C56.1258 3.97092 56.2576 3.92714 56.3234 3.88336L55.2694 2.43872C55.2694 2.43872 55.0718 2.4825 55.0059 2.52628Z" fill="white"/>
<path d="M55.2696 2.43924L56.3236 3.88389C56.3236 3.88389 56.4554 3.88389 56.5213 3.84012L55.5331 2.35168C55.5331 2.35168 55.3355 2.39546 55.2696 2.43924Z" fill="white"/>
<path d="M55.5319 2.3954L56.52 3.88383C56.52 3.88383 56.7177 3.84007 56.7835 3.79629L55.8613 2.30786C55.8613 2.30786 55.5978 2.35162 55.466 2.3954H55.5319Z" fill="white"/>
<path d="M55.8613 2.30782L56.7836 3.79626C56.7836 3.79626 56.9812 3.75247 57.1129 3.75247L56.2566 2.26404C56.2566 2.26404 55.9931 2.30782 55.8613 2.35159V2.30782Z" fill="white"/>
<path d="M56.323 2.22018L57.1793 3.70861C57.1793 3.70861 57.4428 3.70861 57.5087 3.70861L56.7182 2.17639C56.7182 2.17639 56.4547 2.1764 56.2571 2.22018H56.323Z" fill="white"/>
<path d="M56.7188 2.17639L57.5093 3.70861C57.5093 3.70861 57.7069 3.70861 57.8386 3.70861L57.1799 2.17639C57.1799 2.17639 56.9164 2.17639 56.7188 2.17639Z" fill="white"/>
<path d="M57.1784 2.13257L57.8372 3.66477C57.8372 3.66477 58.0348 3.66477 58.1666 3.66477L57.5737 2.13257C57.5737 2.13257 57.3102 2.13257 57.1784 2.13257Z" fill="#FAFAFA"/>
<path d="M57.5744 2.13257L58.1673 3.66477C58.1673 3.66477 58.3649 3.66477 58.4308 3.66477L57.9038 2.13257C57.9038 2.13257 57.6402 2.13257 57.5744 2.13257Z" fill="#F4F4F4"/>
<path d="M57.9038 2.17639L58.4308 3.70861C58.4308 3.70861 58.6284 3.70861 58.6943 3.70861L58.2332 2.22018C58.2332 2.22018 58.0356 2.22017 57.9038 2.17639Z" fill="#EEEEEE"/>
<path d="M58.2338 2.22018L58.6949 3.70861C58.6949 3.70861 58.8267 3.7086 58.9584 3.75238L58.5632 2.26395C58.5632 2.26395 58.3656 2.22017 58.2338 2.17639V2.22018Z" fill="#EAEAEA"/>
<path d="M58.5633 2.30786L58.9585 3.79629C58.9585 3.79629 59.0903 3.84005 59.1562 3.88383L58.8268 2.3954C58.8268 2.3954 58.6291 2.35164 58.5633 2.30786Z" fill="#E4E4E4"/>
<path d="M58.8256 2.3949L59.155 3.88333C59.155 3.88333 59.2867 3.92711 59.3526 3.97088L59.0891 2.52624C59.0891 2.52624 58.8914 2.43868 58.8256 2.43868V2.3949Z" fill="#DFDFDF"/>
<path d="M59.0892 2.48249L59.3527 3.92715C59.3527 3.92715 59.4845 3.97093 59.5504 4.01471L59.2869 2.57005C59.2869 2.57005 59.1551 2.4825 59.0233 2.43872L59.0892 2.48249Z" fill="#D9D9D9"/>
<path d="M59.3531 2.61401L59.6167 4.05866C59.6167 4.05866 59.7484 4.14621 59.8143 4.14621L59.6167 2.74534C59.6167 2.74534 59.4849 2.65779 59.419 2.61401H59.3531Z" fill="#D3D3D3"/>
<path d="M59.5509 2.74548L59.7485 4.14636C59.7485 4.14636 59.8803 4.23391 59.8803 4.27768L59.7485 2.9206C59.7485 2.9206 59.6168 2.83304 59.5509 2.74548Z" fill="#CFCFCF"/>
<path d="M59.7487 2.92078L59.8804 4.27786C59.8804 4.27786 60.0122 4.36543 60.0122 4.40921L59.8804 3.09589C59.8804 3.09589 59.7486 2.96455 59.6828 2.92078H59.7487Z" fill="#C9C9C9"/>
<path d="M59.9463 3.09546L60.0781 4.40878C60.0781 4.40878 60.1439 4.49632 60.2098 4.58387V3.27056C60.2098 3.27056 60.0122 3.13924 59.9463 3.09546Z" fill="#C4C4C4"/>
<path d="M60.1444 3.27075V4.58407C60.1444 4.58407 60.3421 4.71541 60.3421 4.75918V3.48964C60.3421 3.48964 60.2103 3.35831 60.1444 3.27075Z" fill="#BEBEBE"/>
<path d="M60.2763 3.48938V4.75893C60.2763 4.75893 60.408 4.89026 60.408 4.93404V3.75205C60.408 3.75205 60.2763 3.57694 60.2763 3.53317V3.48938Z" fill="#B8B8B8"/>
<path d="M60.4064 3.75232V4.93431C60.4064 4.93431 60.4723 5.06564 60.5381 5.15319V4.01499C60.5381 4.01499 60.4722 3.83987 60.4064 3.75232Z" fill="#B3B3B3"/>
<path d="M60.5386 5.1533C60.5386 5.1533 60.5386 5.32841 60.6044 5.37219V4.27775C60.6044 4.27775 60.6045 4.05887 60.5386 3.97131V5.10953V5.1533Z" fill="#AEAEAE"/>
</g>
<mask id="mask5_41_21962" style="mask-type:luminance" maskUnits="userSpaceOnUse" x="0" y="17" width="6" height="8">
<path d="M0 24.1529C0 23.8465 0 23.54 0 23.2336C0 21.2198 2.17389 18.7683 4.80888 17.7176C5.20412 17.5425 5.59937 17.4112 5.99462 17.2361C2.70089 18.5494 0.0658747 21.57 0 24.1091V24.1529Z" fill="white"/>
</mask>
<g mask="url(#mask5_41_21962)">
<path d="M0.065918 23.2336V24.153C0.065918 21.6139 2.76675 18.5932 6.06049 17.2799L4.87474 17.7615C2.23976 18.8121 0.131793 21.2199 0.065918 23.2774V23.2336Z" fill="#8E8E8E"/>
</g>
<path d="M5.27039 26.2977L5.59973 102.164H8.03711L7.70772 26.2977H5.27039Z" fill="#BEBEBE"/>
<path d="M0 24.2842L0.329394 100.15L5.59934 102.164L5.27 26.2979L0 24.2842Z" fill="#919191"/>
<path d="M6.12582 17.2359L11.3958 19.2497L54.5437 2.70188L49.2738 0.68811L6.12582 17.2359Z" fill="#EAEAEA"/>
<path d="M11.3962 19.2495L12.582 20.6504L55.7299 4.10253L54.5441 2.70166L11.3962 19.2495Z" fill="white"/>
<path d="M55.7296 4.10286L12.5817 20.6507C9.88082 21.7013 7.64108 24.2404 7.64108 26.298L7.97043 102.164C7.97043 104.222 10.2102 105.097 12.911 104.047L56.059 87.4987C58.7598 86.4481 60.9996 83.909 60.9996 81.8514L60.6702 5.98529C60.6702 3.92776 58.4305 3.05221 55.7296 4.10286Z" fill="url(#paint0_linear_41_21962)"/>
<mask id="mask6_41_21962" style="mask-type:luminance" maskUnits="userSpaceOnUse" x="5" y="19" width="8" height="8">
<path d="M7.70772 26.2978H5.27039C5.27039 23.7149 8.03713 20.563 11.3967 19.2496L12.5825 20.6505C9.88162 21.7012 7.64188 24.2403 7.64188 26.2978H7.70772Z" fill="white"/>
</mask>
<g mask="url(#mask6_41_21962)">
<path d="M5.27039 26.298H7.70772C7.70772 26.298 7.70772 26.2105 7.70772 26.1229H5.27039C5.27039 26.1229 5.27039 26.2105 5.27039 26.298Z" fill="#AEAEAE"/>
<path d="M5.27039 26.1227H7.70772C7.70772 26.1227 7.70772 25.9914 7.70772 25.9039L5.27039 25.8163C5.27039 25.8163 5.27039 26.0352 5.27039 26.1665V26.1227Z" fill="#B3B3B3"/>
<path d="M5.27039 25.8164L7.70772 25.904C7.70772 25.904 7.70772 25.7289 7.70772 25.6413L5.27039 25.4662C5.27039 25.4662 5.27039 25.6851 5.27039 25.7726V25.8164Z" fill="#B8B8B8"/>
<path d="M5.33643 25.4659L7.77381 25.641C7.77381 25.641 7.77381 25.4658 7.77381 25.3783L5.40231 25.1594C5.40231 25.1594 5.4023 25.3783 5.33643 25.4659Z" fill="#BEBEBE"/>
<path d="M5.40234 25.1597L7.77384 25.3786C7.77384 25.3786 7.77385 25.2035 7.83973 25.1159L5.46823 24.8533C5.46823 24.8533 5.46822 25.0722 5.40234 25.1597Z" fill="#C4C4C4"/>
<path d="M5.53397 24.8529L7.90541 25.1156C7.90541 25.1156 7.90543 24.9405 7.9713 24.8967L5.59981 24.5465C5.59981 24.5465 5.53395 24.7216 5.46808 24.8529H5.53397Z" fill="#C9C9C9"/>
<path d="M5.59984 24.5469L7.97133 24.8971C7.97133 24.8971 7.97134 24.7657 8.03722 24.6782L5.66572 24.2842C5.66572 24.2842 5.59987 24.4593 5.534 24.5469H5.59984Z" fill="#CFCFCF"/>
<path d="M5.73218 24.2839L8.10367 24.6779C8.10367 24.6779 8.10364 24.5466 8.16951 24.459L5.86391 24.0212C5.86391 24.0212 5.79805 24.1963 5.73218 24.2839Z" fill="#D3D3D3"/>
<path d="M5.86398 24.0215L8.16959 24.4593C8.16959 24.4593 8.1696 24.3279 8.23548 24.2842L5.92987 23.8026C5.92987 23.8026 5.86397 23.9777 5.7981 24.0215H5.86398Z" fill="#D9D9D9"/>
<path d="M5.99567 23.8024L8.30127 24.2839C8.30127 24.2839 8.30124 24.1964 8.36711 24.1088L6.12739 23.5835C6.12739 23.5835 6.06154 23.7148 5.99567 23.8024Z" fill="#DFDFDF"/>
<path d="M6.1275 23.5833L8.36722 24.1086C8.36722 24.1086 8.36723 24.0211 8.43311 23.9773L6.19339 23.4082C6.19339 23.4082 6.12749 23.5395 6.06161 23.5833H6.1275Z" fill="#E4E4E4"/>
<path d="M6.19183 23.4086L8.43155 23.9777C8.43155 23.9777 8.43157 23.8902 8.49744 23.8464L6.25767 23.2335C6.25767 23.2335 6.19182 23.3211 6.12595 23.4086H6.19183Z" fill="#EAEAEA"/>
<path d="M6.32391 23.2772L8.56368 23.89C8.56368 23.89 8.56364 23.8025 8.62952 23.7587L6.45569 23.1021C6.45569 23.1021 6.38979 23.1896 6.32391 23.2772Z" fill="#EEEEEE"/>
<path d="M6.38983 23.102L8.56371 23.7586C8.56371 23.7586 8.56367 23.6711 8.62955 23.6711L6.45572 23.0144C6.45572 23.0144 6.45571 23.102 6.38983 23.1458V23.102Z" fill="#F4F4F4"/>
<path d="M6.52167 22.9711L8.69555 23.6277C8.69555 23.6277 8.69556 23.5402 8.76143 23.5402L6.58756 22.8397C6.58756 22.8397 6.58754 22.9273 6.52167 22.9711Z" fill="#FAFAFA"/>
<path d="M6.58762 22.8396L8.76149 23.5401C8.76149 23.5401 8.76151 23.4963 8.82738 23.4525L6.6535 22.7521C6.6535 22.7521 6.65349 22.8396 6.58762 22.8834V22.8396Z" fill="white"/>
<path d="M6.71945 22.7081L8.89333 23.4086C8.89333 23.4086 8.89334 23.3648 8.95922 23.321L6.85123 22.5768C6.85123 22.5768 6.85122 22.6644 6.78534 22.6644L6.71945 22.7081Z" fill="white"/>
<path d="M6.78534 22.6205L8.89333 23.3647C8.89333 23.3647 8.89333 23.321 8.89333 23.2772L6.78534 22.533C6.78534 22.533 6.78533 22.5768 6.71945 22.6205H6.78534Z" fill="white"/>
<path d="M6.85132 22.5328L8.95931 23.2771C8.95931 23.2771 8.95932 23.2333 9.0252 23.1895L6.91721 22.4015C6.91721 22.4015 6.91719 22.4453 6.85132 22.4891V22.5328Z" fill="white"/>
<path d="M6.91721 22.4014L9.0252 23.1894C9.0252 23.1894 9.0252 23.1456 9.0252 23.1018L6.91721 22.3138C6.91721 22.3138 6.91719 22.3576 6.85132 22.4014H6.91721Z" fill="white"/>
<path d="M7.04929 22.3143L9.15727 23.1023C9.15727 23.1023 9.15727 23.0585 9.15727 23.0147L7.11517 22.2267C7.11517 22.2267 7.11516 22.2705 7.04929 22.3143Z" fill="white"/>
<path d="M7.11517 22.2265L9.15727 23.0145C9.15727 23.0145 9.15727 22.9708 9.15727 22.927L7.11517 22.0952C7.11517 22.0952 7.11516 22.139 7.04929 22.1828L7.11517 22.2265Z" fill="white"/>
<path d="M7.18109 22.1389L9.22319 22.9707C9.22319 22.9707 9.22319 22.9269 9.22319 22.8831L7.18109 22.0514C7.18109 22.0514 7.18108 22.0952 7.1152 22.1389H7.18109Z" fill="white"/>
<path d="M7.24696 22.0513L9.28911 22.8831C9.28911 22.8831 9.28911 22.8831 9.28911 22.8393L7.24696 21.9637C7.24696 21.9637 7.247 22.0075 7.18112 22.0513H7.24696Z" fill="white"/>
<path d="M7.31299 21.9638L9.35509 22.8393C9.35509 22.8393 9.35509 22.7955 9.35509 22.7518L7.37888 21.8762C7.37888 21.8762 7.37886 21.92 7.31299 21.9638Z" fill="white"/>
<path d="M7.37888 21.92L9.35509 22.7955C9.35509 22.7955 9.35509 22.7955 9.35509 22.7518L7.37888 21.8762C7.37888 21.8762 7.37886 21.92 7.31299 21.9638L7.37888 21.92Z" fill="white"/>
<path d="M7.51071 21.8328L9.48697 22.7083C9.48697 22.7083 9.48697 22.7084 9.48697 22.6646L7.51071 21.7452C7.51071 21.7452 7.5107 21.789 7.44482 21.8328H7.51071Z" fill="white"/>
<path d="M7.57663 21.7452L9.55284 22.6645C9.55284 22.6645 9.55284 22.6645 9.55284 22.6207L7.57663 21.7014C7.57663 21.7014 7.57662 21.7452 7.51074 21.789L7.57663 21.7452Z" fill="white"/>
<path d="M7.6424 21.6576L9.61861 22.5769C9.61861 22.5769 9.61862 22.5769 9.6845 22.5331L7.77412 21.6138C7.77412 21.6138 7.77411 21.6576 7.70823 21.7013L7.6424 21.6576Z" fill="white"/>
<path d="M7.70871 21.5698L9.61908 22.4892C9.61908 22.4892 9.6191 22.4891 9.68497 22.4016L7.7746 21.4385C7.7746 21.4385 7.77458 21.4823 7.70871 21.526V21.5698Z" fill="white"/>
<path d="M7.83878 21.4822L9.74915 22.4453C9.74915 22.4453 9.74911 22.4015 9.81499 22.3578L7.90461 21.3947C7.90461 21.3947 7.90465 21.4384 7.83878 21.4822Z" fill="white"/>
<path d="M7.90469 21.3945L9.81507 22.3576C9.81507 22.3576 9.81508 22.3138 9.88095 22.27L7.97058 21.2632C7.97058 21.2632 7.97057 21.3069 7.90469 21.3507V21.3945Z" fill="white"/>
<path d="M8.03656 21.3507L9.94693 22.3576C9.94693 22.3576 9.9469 22.3138 10.0128 22.27L8.16829 21.2632C8.16829 21.2632 8.16832 21.3069 8.10245 21.3507H8.03656Z" fill="white"/>
<path d="M8.10245 21.2637L9.94693 22.2706C9.94693 22.2706 9.9469 22.2268 10.0128 22.183L8.16829 21.1761C8.16829 21.1761 8.10243 21.2637 8.03656 21.2637H8.10245Z" fill="white"/>
<path d="M8.23431 21.1322L10.0788 22.1391C10.0788 22.1391 10.1447 22.0953 10.2106 22.0515L8.36604 21.0009C8.36604 21.0009 8.30019 21.0884 8.23431 21.1322Z" fill="white"/>
<path d="M8.36636 21.0445L10.2109 22.0952C10.2109 22.0952 10.2768 22.0514 10.3426 22.0076L8.56403 20.9132C8.56403 20.9132 8.43225 21.0008 8.43225 21.0445H8.36636Z" fill="white"/>
<path d="M8.49823 20.9134L10.2768 22.0079C10.2768 22.0079 10.4745 21.8765 10.5403 21.789L8.82762 20.6508C8.82762 20.6508 8.62998 20.8259 8.49823 20.9134Z" fill="white"/>
<path d="M8.82785 20.6505L10.5406 21.7887C10.5406 21.7887 10.6723 21.6574 10.8041 21.6136L9.15719 20.4316C9.15719 20.4316 8.95956 20.563 8.89369 20.6505H8.82785Z" fill="white"/>
<path d="M9.15765 20.4315L10.8045 21.6135C10.8045 21.6135 11.0022 21.4822 11.068 21.4384L9.48705 20.2126C9.48705 20.2126 9.22353 20.3878 9.15765 20.4315Z" fill="white"/>
<path d="M9.48547 20.2125L11.0665 21.4383C11.0665 21.4383 11.1323 21.3945 11.1982 21.3508L9.6172 20.125C9.6172 20.125 9.48546 20.2125 9.41959 20.2125H9.48547Z" fill="white"/>
<path d="M9.68369 20.0815L11.2647 21.3073C11.2647 21.3073 11.3306 21.2635 11.3964 21.2197L9.8813 19.9502C9.8813 19.9502 9.74956 20.0377 9.68369 20.0377V20.0815Z" fill="white"/>
<path d="M9.88144 19.9939L11.3966 21.2635C11.3966 21.2635 11.4624 21.2197 11.5283 21.1759L10.0132 19.9064C10.0132 19.9064 9.94731 19.9502 9.88144 19.9939Z" fill="white"/>
<path d="M10.0131 19.9063L11.5282 21.1758C11.5282 21.1758 11.5941 21.1758 11.66 21.1321L10.2108 19.8625C10.2108 19.8625 10.1449 19.9063 10.079 19.9501L10.0131 19.9063Z" fill="white"/>
<path d="M10.145 19.8187L11.5942 21.0882C11.5942 21.0882 11.6601 21.0882 11.7259 21.0444L10.2767 19.7311C10.2767 19.7311 10.2108 19.7749 10.145 19.8187Z" fill="white"/>
<path d="M10.2768 19.7749L11.726 21.0882C11.726 21.0882 11.7919 21.0882 11.8578 21.0444L10.4745 19.7311C10.4745 19.7311 10.4086 19.7749 10.3427 19.8187L10.2768 19.7749Z" fill="white"/>
<path d="M10.409 19.6872L11.7924 21.0005C11.7924 21.0005 11.8582 21.0005 11.9241 20.9568L10.5408 19.6434C10.5408 19.6434 10.4749 19.6872 10.409 19.731V19.6872Z" fill="white"/>
<path d="M10.5407 19.644L11.924 20.9573C11.924 20.9573 11.9899 20.9573 12.0558 20.9135L10.7383 19.5564C10.7383 19.5564 10.6724 19.6002 10.6066 19.644H10.5407Z" fill="white"/>
<path d="M10.6725 19.5563L11.99 20.9134C11.99 20.9134 12.0559 20.9134 12.1218 20.8697L10.8043 19.5126C10.8043 19.5126 10.7384 19.5125 10.6725 19.5563Z" fill="white"/>
<path d="M10.8044 19.5125L12.1219 20.8696C12.1219 20.8696 12.1878 20.8696 12.2536 20.8258L10.9362 19.4688C10.9362 19.4688 10.8703 19.4687 10.8044 19.5563V19.5125Z" fill="white"/>
<path d="M10.9362 19.4248L12.2537 20.7819C12.2537 20.7819 12.3196 20.7819 12.3855 20.7382L11.1339 19.3373C11.1339 19.3373 11.0021 19.3373 11.0021 19.4248H10.9362Z" fill="white"/>
<path d="M11.1326 19.3811L12.3842 20.7819C12.3842 20.7819 12.4501 20.7819 12.516 20.7382L11.2644 19.3373C11.2644 19.3373 11.1326 19.3373 11.1326 19.4248V19.3811Z" fill="white"/>
<path d="M11.2645 19.2935L12.5161 20.6943C12.5161 20.6943 12.582 20.6943 12.6478 20.6943L11.4621 19.2935C11.4621 19.2935 11.3962 19.2935 11.3304 19.3372L11.2645 19.2935Z" fill="white"/>
</g>
<mask id="mask7_41_21962" style="mask-type:luminance" maskUnits="userSpaceOnUse" x="0" y="17" width="12" height="10">
<path d="M5.27 26.298L0 24.2842C0 21.7014 2.76674 18.5056 6.12635 17.2361L11.3963 19.2498C7.97086 20.5632 5.27 23.7151 5.27 26.298Z" fill="white"/>
</mask>
<g mask="url(#mask7_41_21962)">
<path d="M0 24.2845L5.27 26.2982C5.27 26.0355 5.26996 25.7729 5.33584 25.5102L0.0658888 23.4965C0.0658888 23.7591 0 24.0218 0 24.2845Z" fill="#8E8E8E"/>
<path d="M0.065918 23.4965L5.33587 25.5102C5.33587 25.5102 5.40177 25.1162 5.46764 24.9411L0.197645 22.9274C0.197645 22.9274 0.065918 23.3214 0.065918 23.4965Z" fill="#929292"/>
<path d="M0.263702 22.9269L5.5337 24.9406C5.5337 24.9406 5.66544 24.6342 5.73132 24.4591L0.461318 22.4453C0.461318 22.4453 0.329577 22.7518 0.263702 22.9269Z" fill="#989898"/>
<path d="M0.395752 22.4454L5.66575 24.4591C5.66575 24.4591 5.79749 24.1965 5.86337 24.0651L0.593418 22.0514C0.593418 22.0514 0.461627 22.314 0.395752 22.4892V22.4454Z" fill="#9D9D9D"/>
<path d="M0.593506 22.0516L5.86345 24.0654C5.86345 24.0654 5.99519 23.8027 6.06107 23.6713L0.791122 21.6576C0.791122 21.6576 0.659381 21.9203 0.593506 22.0516Z" fill="#A3A3A3"/>
<path d="M0.79129 21.6578L6.06124 23.6716C6.06124 23.6716 6.19298 23.4089 6.25885 23.3214L0.988906 21.3076C0.988906 21.3076 0.857165 21.5703 0.79129 21.6578Z" fill="#A9A9A9"/>
<path d="M1.05359 21.2634L6.32354 23.2772C6.32354 23.2772 6.45529 23.0583 6.58704 22.927L1.31704 20.9132C1.31704 20.9132 1.11946 21.1321 1.05359 21.2634Z" fill="#AEAEAE"/>
<path d="M1.25119 20.9133L6.52114 22.9271C6.52114 22.9271 6.71877 22.7082 6.78464 22.5769L1.5147 20.5631C1.5147 20.5631 1.31706 20.782 1.25119 20.9133Z" fill="#B3B3B3"/>
<path d="M1.51486 20.5634L6.78481 22.5771C6.78481 22.5771 6.98244 22.3582 7.04831 22.2269L1.77832 20.2131C1.77832 20.2131 1.58074 20.432 1.51486 20.5634Z" fill="#B8B8B8"/>
<path d="M1.8447 20.2566L7.11469 22.2704C7.11469 22.2704 7.31229 22.0515 7.44404 21.9201L2.17409 19.9064C2.17409 19.9064 1.97645 20.1253 1.8447 20.2566Z" fill="#BEBEBE"/>
<path d="M2.17432 19.9066L7.44426 21.9204C7.44426 21.9204 7.70778 21.7015 7.77366 21.5702L2.50366 19.5564C2.50366 19.5564 2.24019 19.7753 2.17432 19.9066Z" fill="#C4C4C4"/>
<path d="M2.50256 19.556L7.77256 21.5698C7.77256 21.5698 8.03604 21.3071 8.16779 21.2196L2.89785 19.2058C2.89785 19.2058 2.63431 19.4684 2.50256 19.556Z" fill="#C9C9C9"/>
<path d="M2.89789 19.1622L8.16783 21.1759C8.16783 21.1759 8.49722 20.9133 8.69484 20.7819L3.42485 18.7682C3.42485 18.7682 3.09551 19.0308 2.89789 19.1622Z" fill="#CFCFCF"/>
<path d="M3.42551 18.7682L8.6955 20.7819C8.6955 20.7819 9.15662 20.4755 9.35424 20.3004L4.08429 18.2866C4.08429 18.2866 3.62313 18.5931 3.42551 18.7682Z" fill="#D3D3D3"/>
<path d="M4.08493 18.2868L9.35488 20.3005C10.0136 19.8627 10.6724 19.5125 11.397 19.2498L6.12703 17.2361C5.40241 17.4987 4.74368 17.8928 4.08493 18.2868Z" fill="#D9D9D9"/>
</g>
<path d="M10.013 27.2605L10.3424 93.8897L59.0897 75.153L58.8262 8.56763L10.013 27.2605Z" fill="url(#paint1_linear_41_21962)"/>
<g style="mix-blend-mode:multiply">
<path d="M57.0482 9.22429L57.3775 74.2774L10.343 92.3575V93.8897L59.0903 75.153L58.8268 8.56763L57.0482 9.22429Z" fill="#4E00F4"/>
</g>
<path d="M44.0045 10.4943C43.4116 10.7132 42.8846 11.3261 42.8846 11.8076C42.8846 12.2892 43.4116 12.4643 44.0045 12.2454C44.5974 12.0265 45.1244 11.4136 45.1244 10.9321C45.1244 10.4505 44.5974 10.2754 44.0045 10.4943Z" fill="#767676"/>
<path d="M40.5145 12.2453L28.3935 16.9295C28.0641 17.0608 27.8006 17.3673 27.8006 17.6299C27.8006 17.8926 28.0641 17.9801 28.3935 17.8488L40.5145 13.2084C40.8438 13.0771 41.1073 12.7707 41.1073 12.508C41.1073 12.2453 40.8438 12.1578 40.5145 12.2891V12.2453Z" fill="#767676"/>
<path d="M24.8354 17.8491C24.2425 18.068 23.7155 18.6809 23.7155 19.1625C23.7155 19.644 24.2425 19.8191 24.8354 19.6002C25.4283 19.3814 25.9553 18.7685 25.9553 18.2869C25.9553 17.8054 25.4283 17.6303 24.8354 17.8491Z" fill="#767676"/>
<g style="mix-blend-mode:multiply">
<path d="M44.6632 10.4065C44.6632 10.4065 44.7291 10.5816 44.7291 10.7129C44.7291 11.1945 44.2021 11.7636 43.6092 12.0263C43.4116 12.1138 43.148 12.1576 43.0163 12.1138C43.2139 12.3765 43.6092 12.4202 44.0703 12.2451C44.6632 12.0262 45.1902 11.4134 45.1902 10.9318C45.1902 10.6254 44.9925 10.4503 44.6632 10.4065Z" fill="#767676"/>
<path d="M25.4942 17.7614C25.4942 17.7614 25.5601 17.9365 25.5601 18.0678C25.5601 18.5493 25.0331 19.1185 24.4402 19.3811C24.2426 19.4687 23.9791 19.5124 23.8474 19.4687C24.045 19.7313 24.4402 19.7751 24.9014 19.6C25.4942 19.3811 26.0212 18.7682 26.0212 18.2867C26.0212 17.9803 25.8236 17.8051 25.4942 17.7614Z" fill="#767676"/>
<path d="M40.7121 12.1574C40.7121 12.1574 40.7121 12.1574 40.7121 12.2012C40.7121 12.4638 40.4486 12.7703 40.1192 12.9016L27.9982 17.542C27.9982 17.542 27.8665 17.542 27.8006 17.5858C27.8006 17.8047 28.0641 17.8922 28.3935 17.7609L40.5145 13.0767C40.8438 12.9454 41.1073 12.6389 41.1073 12.3763C41.1073 12.1574 40.9097 12.0698 40.6462 12.1136L40.7121 12.1574Z" fill="#767676"/>
</g>
<path d="M40.6453 85.2219L33.3332 88.0237C31.6864 88.6804 30.303 90.2125 30.303 91.4821C30.303 92.7516 31.6864 93.277 33.3332 92.6203L40.6453 89.8185C42.2922 89.1619 43.6756 87.6297 43.6756 86.3601C43.6756 85.0906 42.2922 84.5652 40.6453 85.2219Z" fill="#767676"/>
<g style="mix-blend-mode:multiply">
<path d="M42.8199 85.0905C43.1493 85.3531 43.281 85.7034 43.3469 86.1411C43.3469 87.4107 42.0294 88.9429 40.3167 89.5995L33.0046 92.4013C32.2141 92.7077 31.4236 92.7515 30.8966 92.5764C31.4236 93.0142 32.3458 93.0579 33.3998 92.664L40.7119 89.8622C42.3588 89.2055 43.7421 87.6733 43.7421 86.4038C43.7421 85.7471 43.4128 85.3093 42.8199 85.0905Z" fill="#767676"/>
</g>
<defs>
<linearGradient id="paint0_linear_41_21962" x1="7.70696" y1="54.0966" x2="60.9996" y2="54.0966" gradientUnits="userSpaceOnUse">
<stop stop-color="#EBEBEB"/>
<stop offset="1" stop-color="white"/>
</linearGradient>
<linearGradient id="paint1_linear_41_21962" x1="10.013" y1="51.2068" x2="59.0897" y2="51.2068" gradientUnits="userSpaceOnUse">
<stop stop-color="#4601DF"/>
<stop offset="0.380208" stop-color="#1C036E"/>
<stop offset="0.713542" stop-color="#5607FF"/>
<stop offset="1" stop-color="#1B036D"/>
</linearGradient>
</defs>
</svg>
