<svg width="75" height="105" viewBox="0 0 75 105" fill="none" xmlns="http://www.w3.org/2000/svg">
<mask id="mask0_41_16841" style="mask-type:luminance" maskUnits="userSpaceOnUse" x="66" y="77" width="4" height="3">
<path d="M69.8481 77.3937C69.8481 77.3937 69.4248 77.7307 69.1425 77.9553C68.2253 78.6855 67.2376 79.2472 66.2498 79.7527L67.4493 78.9102C68.2959 78.517 69.072 78.0115 69.8481 77.4498V77.3937Z" fill="white"/>
</mask>
<g mask="url(#mask0_41_16841)">
<path d="M68.0846 78.6854C68.4374 78.4608 68.7902 78.1799 69.2135 77.8991L69.919 77.3374C69.919 77.3374 69.3545 77.7868 69.0018 78.0114L68.1551 78.6854H68.0846Z" fill="#1D0372"/>
<path d="M66.9563 79.3594C67.309 79.1347 67.7323 78.9662 68.0851 78.6853L68.9318 78.0114C68.9318 78.0114 68.2967 78.4045 68.0145 78.573L66.9563 79.3594Z" fill="#250388"/>
<path d="M66.3202 79.6961C66.3202 79.6961 66.8141 79.4714 67.0258 79.3591L68.0841 78.5728C68.0841 78.5728 67.7313 78.7412 67.5197 78.8536L66.3202 79.6961Z" fill="#27028D"/>
</g>
<mask id="mask1_41_16841" style="mask-type:luminance" maskUnits="userSpaceOnUse" x="74" y="67" width="1" height="5">
<path d="M74.506 70.5973C74.506 70.5973 74.3649 71.1028 74.2238 71.3275C74.506 70.485 74.6471 69.6986 74.6471 68.9122L74.9999 67.6204C74.9999 68.5752 74.7882 69.5862 74.506 70.5973Z" fill="white"/>
</mask>
<g mask="url(#mask1_41_16841)">
<path d="M74.7182 69.1369L75.0709 67.9012C75.0709 67.9012 75.0709 67.7327 75.0709 67.6765L74.7182 68.9684C74.7182 68.9684 74.7182 69.0807 74.7182 69.193V69.1369Z" fill="#1A0369"/>
<path d="M74.5766 70.092L74.8589 69.081C74.9294 68.6878 75 68.2947 75 67.9015L74.6472 69.1372C74.6472 69.4742 74.6472 69.8112 74.5766 70.1482V70.092Z" fill="#290293"/>
<path d="M74.2941 71.159L74.5763 70.3727C74.7174 69.9233 74.788 69.5302 74.8585 69.0808L74.5763 70.0918C74.5763 70.4288 74.4352 70.822 74.2941 71.159Z" fill="#27028D"/>
<path d="M74.2941 71.3274L74.5763 70.5972C74.5763 70.5972 74.5763 70.4287 74.5763 70.3726L74.2941 71.1589C74.2941 71.1589 74.2941 71.2712 74.2941 71.3274Z" fill="#250388"/>
</g>
<path d="M74.5766 35.3801L74.7178 68.9125L75 67.6206L74.9294 34.0883L74.5766 35.3801Z" fill="#1B036C"/>
<path d="M29.2793 79.0786L34.5003 81.55L45.8596 76.2702L40.6386 73.855L29.2793 79.0786Z" fill="#4C00EF"/>
<path d="M37.8175 62.2842L37.3236 63.0144L38.4525 61.7787L38.0997 62.0034L37.8175 62.2842Z" fill="#1B036C"/>
<mask id="mask2_41_16841" style="mask-type:luminance" maskUnits="userSpaceOnUse" x="38" y="57" width="4" height="6">
<path d="M41.2032 57.0045C41.2032 57.0045 41.0621 57.5101 40.921 57.7347C40.4271 59.1389 39.5805 60.5431 38.4516 61.7788L38.0988 62.0035C39.5805 60.4308 40.6388 58.6896 41.2032 57.0045Z" fill="white"/>
</mask>
<g mask="url(#mask2_41_16841)">
<path d="M38.0988 62.0035L38.4516 61.7788C38.4516 61.7788 38.7338 61.4418 38.8749 61.2733L38.6632 61.3856C38.6632 61.3856 38.3104 61.7788 38.0988 62.0035Z" fill="#002B7E"/>
<path d="M38.6636 61.3858L38.8753 61.2735C39.1575 60.8803 39.4397 60.5433 39.722 60.1501V59.9816C39.3692 60.4309 39.0164 60.9364 38.6636 61.3858Z" fill="#00297A"/>
<path d="M39.7212 60.1502C39.9329 59.8132 40.1445 59.42 40.3562 59.083L40.4973 58.6898C40.2856 59.1392 40.0034 59.5885 39.7212 60.0378V60.2063V60.1502Z" fill="#002876"/>
<path d="M40.3567 59.0829C40.5683 58.6897 40.7094 58.2966 40.8506 57.9034L41.0622 57.2294C40.9211 57.7349 40.6389 58.1842 40.4272 58.6898L40.2861 59.0829H40.3567Z" fill="#002671"/>
<path d="M40.8495 57.9032C40.8495 57.9032 40.8495 57.7909 40.8495 57.7347L41.1317 57.0045C41.1317 57.0045 41.1317 57.173 41.0612 57.2292L40.8495 57.9032Z" fill="#00256D"/>
</g>
<path d="M34.5012 81.5502L33.7251 84.4148L49.0354 77.3376L45.8605 76.2704L34.5012 81.5502Z" fill="#4C00EF"/>
<path d="M42.5448 65.4298L45.8609 76.2702L49.0359 77.3374L45.5081 65.823L42.5448 65.4298Z" fill="#4C00EF"/>
<path d="M42.5448 65.4299L45.5081 65.8231L45.7198 65.5423L43.6737 64.1942L42.5448 65.4299Z" fill="#4C00EF"/>
<path d="M37.3236 63.0144L42.5446 65.4296L43.6735 64.1939L38.4525 61.7787L37.3236 63.0144Z" fill="#4C00EF"/>
<path d="M37.3236 63.0142L40.6397 73.8546L45.8607 76.2698L42.5446 65.4294L37.3236 63.0142Z" fill="#2D029C"/>
<mask id="mask3_41_16841" style="mask-type:luminance" maskUnits="userSpaceOnUse" x="60" y="26" width="13" height="5">
<path d="M67.0965 27.1794C68.8604 27.9657 70.6242 28.8083 72.3176 29.5946C70.6948 28.8644 68.5076 28.9767 66.1088 30.1001L60.8878 27.6849C63.2866 26.5615 65.5443 26.4492 67.0965 27.1794Z" fill="white"/>
</mask>
<g mask="url(#mask3_41_16841)">
<path d="M60.8877 27.6847L66.1087 30.1C66.1087 30.1 66.3909 29.9876 66.532 29.9315L61.311 27.5162C61.311 27.5162 61.0288 27.6286 60.8877 27.6847Z" fill="#4C00EF"/>
<path d="M61.3114 27.5162L66.5324 29.9314C66.5324 29.9314 66.9558 29.7629 67.1674 29.7067L61.9464 27.2915C61.9464 27.2915 61.5231 27.46 61.3114 27.5724V27.5162Z" fill="#4601E1"/>
<path d="M61.9456 27.2358L67.1667 29.651C67.1667 29.651 67.5194 29.5387 67.7311 29.4825L62.51 27.0673C62.51 27.0673 62.1573 27.1796 61.9456 27.2358Z" fill="#4100CC"/>
<path d="M62.5105 27.067L67.7316 29.4823C67.7316 29.4823 68.0843 29.3699 68.2255 29.3699L63.0044 26.9547C63.0044 26.9547 62.6516 27.0109 62.5105 27.067Z" fill="#21037D"/>
<path d="M63.0049 26.9546L68.226 29.3698C68.226 29.3698 68.5082 29.3137 68.6493 29.2575L63.4282 26.8423C63.4282 26.8423 63.146 26.8423 63.0049 26.9546Z" fill="#230381"/>
<path d="M63.4283 26.8422L68.6493 29.2574C68.6493 29.2574 68.9315 29.2574 69.0726 29.2012L63.8516 26.786C63.8516 26.786 63.5694 26.786 63.4283 26.8422Z" fill="#230381"/>
<path d="M63.8502 26.786L69.0712 29.2012C69.0712 29.2012 69.3534 29.2012 69.424 29.2012L64.203 26.786C64.203 26.786 63.9207 26.786 63.8502 26.786Z" fill="#1A0369"/>
<path d="M64.2037 26.7299L69.4248 29.1451C69.4248 29.1451 69.6364 29.1451 69.7775 29.1451L64.5565 26.7299C64.5565 26.7299 64.3448 26.7299 64.2037 26.7299Z" fill="#290293"/>
<path d="M64.5566 26.7299L69.7776 29.1451C69.7776 29.1451 69.9893 29.1451 70.1304 29.1451L64.9094 26.7299C64.9094 26.7299 64.6977 26.7299 64.5566 26.7299Z" fill="#27028D"/>
<path d="M64.9099 26.7299L70.131 29.1451C70.131 29.1451 70.3426 29.1451 70.4838 29.1451L65.2627 26.7299C65.2627 26.7299 65.0511 26.7299 64.9099 26.7299Z" fill="#250388"/>
<path d="M65.263 26.7299L70.4841 29.1451C70.4841 29.1451 70.6957 29.1451 70.7663 29.1451L65.5453 26.7299C65.5453 26.7299 65.3336 26.7299 65.263 26.7299Z" fill="#1D0372"/>
<path d="M65.5436 26.786L70.7646 29.2012C70.7646 29.2012 70.9763 29.2012 71.0469 29.2012L65.8258 26.786C65.8258 26.786 65.6142 26.786 65.5436 26.786Z" fill="#1C036F"/>
<path d="M65.897 26.8423L71.118 29.2575C71.118 29.2575 71.3297 29.2575 71.4002 29.3136L66.1792 26.8984C66.1792 26.8984 65.9675 26.8985 65.897 26.8423Z" fill="#250386"/>
<path d="M66.1796 26.8986L71.4006 29.3138C71.4006 29.3138 71.6122 29.3138 71.6828 29.37L66.4618 26.9547C66.4618 26.9547 66.2501 26.9547 66.1796 26.8986Z" fill="#1E0374"/>
<path d="M66.4619 26.9547L71.6829 29.3699C71.6829 29.3699 71.8946 29.4261 71.9651 29.4823L66.744 27.067C66.744 27.067 66.5324 27.0109 66.4619 26.9547Z" fill="#1C036E"/>
<path d="M66.7442 27.0673L71.9653 29.4825C71.9653 29.4825 72.1769 29.5387 72.2475 29.5948L67.0264 27.1796C67.0264 27.1796 66.8148 27.1234 66.7442 27.0673Z" fill="#1A0369"/>
<path d="M67.0268 27.179L72.2479 29.5942L72.3184 29.6504L67.0973 27.179H67.0268Z" fill="#1B036D"/>
</g>
<mask id="mask4_41_16841" style="mask-type:luminance" maskUnits="userSpaceOnUse" x="66" y="29" width="9" height="7">
<path d="M67.3099 32.0657L66.1105 30.0997C70.9082 27.9092 74.8592 29.6504 74.9298 34.0877L74.577 35.3234C74.577 31.6724 71.3315 30.2121 67.3099 32.0095V32.0657Z" fill="white"/>
</mask>
<g mask="url(#mask4_41_16841)">
<path d="M66.1103 30.0997L67.3097 32.0656C67.3097 32.0656 67.3803 32.0656 67.4508 32.0095L66.2513 30.0436C66.2513 30.0436 66.1103 30.0435 66.1103 30.0997Z" fill="#9A79EF"/>
<path d="M66.2518 30.0434L67.4513 32.0093C67.4513 32.0093 67.5924 31.9531 67.6629 31.8969L66.534 29.8749C66.534 29.8749 66.3929 29.9311 66.2518 29.9872V30.0434Z" fill="#9573F2"/>
<path d="M66.5341 29.9311L67.663 31.9531C67.663 31.9531 67.8041 31.9531 67.8747 31.8969L66.8163 29.8749C66.8163 29.8749 66.6752 29.9311 66.6047 29.9872L66.5341 29.9311Z" fill="#8F6BEF"/>
<path d="M66.7462 29.8187L67.8045 31.8407C67.8045 31.8407 67.9456 31.7845 68.0161 31.7284L66.9579 29.7063C66.9579 29.7063 66.7462 29.7625 66.6756 29.8187H66.7462Z" fill="#8666DC"/>
<path d="M67.0268 29.7062L68.0851 31.7282C68.0851 31.7282 68.2262 31.6721 68.2967 31.6721L67.309 29.65C67.309 29.65 67.0973 29.7062 67.0268 29.7623V29.7062Z" fill="#8466D7"/>
<path d="M67.3091 29.5937L68.2969 31.6157C68.2969 31.6157 68.438 31.5596 68.5791 31.5596L67.6619 29.4813C67.6619 29.4813 67.4502 29.5375 67.3797 29.5937H67.3091Z" fill="#8863E5"/>
<path d="M67.6627 29.5382L68.5799 31.6165C68.5799 31.6165 68.7915 31.5603 68.8621 31.5041L68.0154 29.4259C68.0154 29.4259 67.8038 29.4821 67.6627 29.5382Z" fill="#6D4AE6"/>
<path d="M68.0155 29.4258L68.8622 31.504C68.8622 31.504 69.0739 31.4479 69.215 31.4479L68.4389 29.3696C68.4389 29.3696 68.1566 29.4258 68.0155 29.4819V29.4258Z" fill="#613DE0"/>
<path d="M68.4394 29.3132L69.2155 31.3915C69.2155 31.3915 69.4977 31.3915 69.6388 31.3353L68.9333 29.2009C68.9333 29.2009 68.5805 29.2571 68.4394 29.3132Z" fill="#6832E1"/>
<path d="M69.0023 29.2571L69.7079 31.3915C69.7079 31.3915 70.1312 31.3915 70.4134 31.3353L69.849 29.2009C69.849 29.2009 69.2845 29.2009 69.0023 29.2571Z" fill="#6528EB"/>
<path d="M70.3437 31.2791C71.4726 31.2791 72.4604 31.5038 73.1659 32.0654V30.0995C72.3193 29.4255 71.1198 29.0885 69.7793 29.0885L70.3437 31.2229V31.2791Z" fill="#682AEE"/>
<path d="M73.1657 32.1212C73.1657 32.1212 73.5185 32.4021 73.5891 32.5706L73.7302 30.717C73.7302 30.717 73.3774 30.3239 73.1657 30.2115V32.1774V32.1212Z" fill="#4C00EF"/>
<path d="M73.5896 32.5148C73.5896 32.5148 73.7307 32.6833 73.8013 32.7956L74.013 30.9982C74.013 30.9982 73.8013 30.7736 73.7308 30.6613L73.5896 32.5148Z" fill="#4601E1"/>
<path d="M73.8722 32.8515C73.8722 32.8515 74.0133 33.0761 74.0839 33.1885L74.2955 31.4473C74.2955 31.4473 74.1545 31.1664 74.0134 30.9979L73.8017 32.7953L73.8722 32.8515Z" fill="#4100CC"/>
<path d="M74.0823 33.1891C74.0823 33.1891 74.2234 33.4699 74.2939 33.5822L74.5761 31.9534C74.5761 31.9534 74.435 31.6164 74.3645 31.4479L74.1528 33.1891H74.0823Z" fill="#21037D"/>
<path d="M74.2943 33.582C74.2943 33.582 74.4355 33.919 74.4355 34.0875L74.7177 32.571C74.7177 32.571 74.5766 32.1778 74.506 31.9531L74.2238 33.582H74.2943Z" fill="#230381"/>
<path d="M74.4354 34.0874C74.4354 34.0874 74.5059 34.4806 74.5764 34.7053L74.9292 33.3011C74.9292 33.3011 74.8587 32.7956 74.7882 32.5709L74.5059 34.0874H74.4354Z" fill="#230381"/>
<path d="M74.5061 34.7053C74.5061 34.7053 74.5061 35.0985 74.5061 35.3232L74.8589 34.0875C74.8589 34.0875 74.8589 33.582 74.8589 33.3011L74.5061 34.7053Z" fill="#1A0369"/>
</g>
<path d="M14.1813 103.624L66.3211 79.6965L67.45 78.854L15.3807 102.782L14.1813 103.624Z" fill="#230382"/>
<path d="M31.3966 65.0369L36.6177 67.4521L37.7466 67.6206L32.5255 65.2054L31.3966 65.0369Z" fill="#250388"/>
<path d="M33.7251 84.4146L34.5012 81.5501L37.7467 67.6204L37.1823 69.6424L33.7251 84.4146Z" fill="#2D029E"/>
<path d="M36.9699 69.5862L37.1816 69.6423L37.746 67.6203L36.6171 67.4518L36.9699 69.5862Z" fill="#4C00EF"/>
<mask id="mask5_41_16841" style="mask-type:luminance" maskUnits="userSpaceOnUse" x="38" y="52" width="9" height="13">
<path d="M39.4397 52.2866L44.6607 54.7018C45.7896 55.2074 46.4951 56.3869 46.5657 57.9596C46.5657 59.9254 45.5073 62.2283 43.6729 64.1942L38.4519 61.779C40.2863 59.8693 41.3446 57.5103 41.3446 55.5444C41.3446 53.9155 40.6391 52.7921 39.4397 52.2866Z" fill="white"/>
</mask>
<g mask="url(#mask5_41_16841)">
<path d="M38.4518 61.7787L43.6729 64.1939L38.4518 61.7787Z" fill="#6832E1"/>
<path d="M38.4518 61.7789L43.6729 64.1941C43.6729 64.1941 43.9551 63.9133 44.0962 63.7448L38.8752 61.3296C38.8752 61.3296 38.593 61.6104 38.4518 61.7789Z" fill="#6528EB"/>
<path d="M38.8758 61.3298L44.0968 63.745C44.0968 63.745 44.3085 63.4642 44.4496 63.3519L39.2286 60.9366C39.2286 60.9366 39.0169 61.2175 38.8758 61.3298Z" fill="#682AEE"/>
<path d="M39.1581 60.9364L44.3791 63.3516C44.3791 63.3516 44.5908 63.0708 44.6613 62.9584L39.4403 60.5432C39.4403 60.5432 39.2286 60.8241 39.1581 60.9364Z" fill="#4C00EF"/>
<path d="M39.4387 60.5434L44.6597 62.9587C44.6597 62.9587 44.8714 62.6778 44.9419 62.5655L39.7209 60.1503C39.7209 60.1503 39.5092 60.4311 39.4387 60.5434Z" fill="#4601E1"/>
<path d="M39.7213 60.1499L44.9423 62.5651C44.9423 62.5651 45.1539 62.2843 45.2245 62.1158L40.0035 59.7006C40.0035 59.7006 39.7918 59.9814 39.7213 60.1499Z" fill="#4100CC"/>
<path d="M40.0038 59.6444L45.2249 62.0596C45.2249 62.0596 45.4365 61.7226 45.5071 61.5541L40.286 59.1389C40.286 59.1389 40.0744 59.4759 40.0038 59.6444Z" fill="#21037D"/>
<path d="M40.3569 59.1391L45.578 61.5543C45.578 61.5543 45.7896 61.2173 45.8602 60.9926L40.6392 58.5774C40.6392 58.5774 40.498 58.9144 40.3569 59.1391Z" fill="#230381"/>
<path d="M40.569 58.6337L45.7901 61.0489C45.7901 61.0489 45.9312 60.7119 46.0017 60.4872L40.7807 58.072C40.7807 58.072 40.6396 58.409 40.569 58.6337Z" fill="#230381"/>
<path d="M40.7805 58.0723L46.0016 60.4875C46.0016 60.4875 46.1427 60.1505 46.2133 59.9258L40.9923 57.5106C40.9923 57.5106 40.8511 57.8476 40.7805 58.0723Z" fill="#1A0369"/>
<path d="M40.9926 57.5099L46.2136 59.9251C46.2136 59.9251 46.2842 59.5881 46.3547 59.3634L41.1337 56.9482C41.1337 56.9482 41.0632 57.2852 40.9926 57.5099Z" fill="#290293"/>
<path d="M41.1322 57.0047L46.3532 59.4199C46.3532 59.4199 46.4238 59.0267 46.4943 58.8582L41.2733 56.443C41.2733 56.443 41.2733 56.8362 41.1322 57.0047Z" fill="#27028D"/>
<path d="M41.2737 56.443L46.4947 58.8583C46.4947 58.8583 46.4947 58.4651 46.4947 58.2404L41.2737 55.8252C41.2737 55.8252 41.2737 56.2184 41.2737 56.443Z" fill="#250388"/>
<path d="M41.2737 55.1512C41.2737 55.1512 41.2737 55.4321 41.2737 55.6006C41.2737 55.7129 41.2737 55.7691 41.2737 55.8815L46.4947 58.2967C46.4947 58.2967 46.4947 58.1282 46.4947 58.0158C46.4947 57.8473 46.4947 57.735 46.4947 57.5665L41.2737 55.1512Z" fill="#1D0372"/>
<path d="M41.1322 54.196C41.1322 54.196 41.2733 54.7577 41.3438 55.0948L46.5649 57.51C46.5649 57.173 46.4943 56.8921 46.3532 56.6113L41.1322 54.196Z" fill="#1C036F"/>
<path d="M40.7805 53.4659C40.7805 53.4659 41.0628 53.9714 41.1333 54.1961L46.3544 56.6113C46.3544 56.6113 46.1427 56.1058 46.0016 55.8812L40.7805 53.4659Z" fill="#250386"/>
<path d="M40.4275 53.0167C40.4275 53.0167 40.6391 53.2976 40.7802 53.4661L46.0013 55.8813C46.0013 55.8813 45.7896 55.6005 45.6485 55.432L40.4275 53.0167Z" fill="#1E0374"/>
<path d="M40.1451 52.7357C40.1451 52.7357 40.3568 52.9604 40.4979 53.0727L45.719 55.4879C45.719 55.4879 45.5073 55.2632 45.3662 55.1509L40.1451 52.7357Z" fill="#1C036E"/>
<path d="M39.7923 52.4553C39.7923 52.4553 40.004 52.6238 40.1451 52.68L45.3661 55.0952C45.3661 55.0952 45.1545 54.9267 45.0134 54.8705L39.7923 52.4553Z" fill="#1A0369"/>
<path d="M39.4387 52.2866C39.4387 52.2866 39.6503 52.399 39.7914 52.4551L45.0125 54.8703C45.0125 54.8703 44.8008 54.758 44.6597 54.7018L39.4387 52.2866Z" fill="#1B036D"/>
<path d="M39.4387 52.2866L39.6503 52.3989L39.4387 52.2866Z" fill="#613FCA"/>
<path d="M44.6601 54.702L39.6508 52.399L44.6601 54.702Z" fill="#613FCA"/>
</g>
<mask id="mask6_41_16841" style="mask-type:luminance" maskUnits="userSpaceOnUse" x="30" y="64" width="7" height="4">
<path d="M35.5599 67.171L30.3388 64.7557C30.3388 64.7557 30.9738 64.9804 31.3972 65.0366L36.6182 67.4518C36.2654 67.4518 35.9126 67.2833 35.5599 67.171Z" fill="white"/>
</mask>
<g mask="url(#mask6_41_16841)">
<path d="M30.3388 64.7557L35.5599 67.171H35.6304L30.4094 64.7557H30.3388Z" fill="#1B036D"/>
<path d="M30.4096 64.7557L35.6306 67.171C35.6306 67.171 35.7717 67.2271 35.8423 67.2271L30.6212 64.8119C30.6212 64.8119 30.4801 64.8119 30.4096 64.7557Z" fill="#1A0369"/>
<path d="M30.6214 64.8682L35.8424 67.2834C35.8424 67.2834 35.9835 67.2834 36.0541 67.3396L30.8331 64.9243C30.8331 64.9243 30.692 64.9243 30.6214 64.8682Z" fill="#1C036E"/>
<path d="M30.8332 64.9244L36.0542 67.3397C36.0542 67.3397 36.1953 67.3396 36.2659 67.3958L31.0448 64.9806C31.0448 64.9806 30.9037 64.9806 30.8332 64.9806V64.9244Z" fill="#1E0374"/>
<path d="M31.0448 64.9806L36.2658 67.3958C36.2658 67.3958 36.4069 67.3958 36.4775 67.3958L31.2564 64.9806C31.2564 64.9806 31.1153 64.9806 31.0448 64.9806Z" fill="#250386"/>
<path d="M31.2548 65.0369L36.4759 67.4521C36.4759 67.4521 36.5464 67.4521 36.617 67.4521L31.396 65.0369C31.396 65.0369 31.3254 65.0369 31.2548 65.0369Z" fill="#1C036F"/>
</g>
<mask id="mask7_41_16841" style="mask-type:luminance" maskUnits="userSpaceOnUse" x="5" y="99" width="11" height="6">
<path d="M15.3808 102.781L14.1813 103.624C9.31308 105.87 5.43258 104.073 5.36203 99.6357L8.11365 99.4672C8.11365 103.118 11.3592 104.578 15.3808 102.781Z" fill="white"/>
</mask>
<g mask="url(#mask7_41_16841)">
<path d="M13.9695 103.736C13.9695 103.736 14.1106 103.68 14.1812 103.623L15.3806 102.781C15.3806 102.781 15.2395 102.781 15.1689 102.837L13.8989 103.68L13.9695 103.736Z" fill="#27028D"/>
<path d="M13.1239 104.073C13.1239 104.073 13.6884 103.848 13.9 103.736L15.17 102.893C15.17 102.893 14.7467 103.062 14.5351 103.174L13.1239 104.073Z" fill="#290293"/>
<path d="M12.4175 104.298C12.4175 104.298 12.9114 104.185 13.123 104.073L14.5341 103.174C14.5341 103.174 14.1108 103.287 13.9697 103.343L12.4881 104.298H12.4175Z" fill="#1A0369"/>
<path d="M11.7821 104.466C11.7821 104.466 12.2054 104.353 12.4171 104.297L13.8987 103.342C13.8987 103.342 13.5459 103.455 13.3343 103.455L11.7115 104.466H11.7821Z" fill="#230381"/>
<path d="M11.1481 104.522C11.1481 104.522 11.5715 104.466 11.7832 104.41L13.4059 103.399C13.4059 103.399 13.0531 103.455 12.912 103.455L11.2187 104.466L11.1481 104.522Z" fill="#230381"/>
<path d="M10.583 104.578C10.583 104.578 10.9358 104.578 11.1474 104.578L12.8407 103.567C12.8407 103.567 12.5585 103.567 12.3468 103.567L10.5125 104.578H10.583Z" fill="#21037D"/>
<path d="M10.0181 104.578C10.0181 104.578 10.3708 104.578 10.5825 104.578L12.4169 103.567C12.4169 103.567 12.1347 103.567 11.9936 103.567L10.0886 104.578H10.0181Z" fill="#4100CC"/>
<path d="M9.52546 104.578C9.52546 104.578 9.87824 104.578 10.0193 104.578L11.9243 103.567C11.9243 103.567 11.6421 103.567 11.501 103.567L9.4549 104.578H9.52546Z" fill="#4601E1"/>
<path d="M7.97372 104.129C8.46761 104.354 8.9615 104.466 9.52593 104.522L11.572 103.511C11.0781 103.511 10.6548 103.343 10.302 103.174L8.04424 104.129H7.97372Z" fill="#4C00EF"/>
<path d="M8.46721 101.32L5.7861 101.882C6.20943 102.949 6.98557 103.736 7.97333 104.185L10.2311 103.23C9.38442 102.837 8.74941 102.219 8.39664 101.32H8.46721Z" fill="#682AEE"/>
<path d="M5.57404 101.265C5.57404 101.265 5.71514 101.658 5.78569 101.826L8.4668 101.265C8.4668 101.265 8.32566 100.984 8.32566 100.815L5.64461 101.265H5.57404Z" fill="#6528EB"/>
<path d="M5.50329 100.872C5.50329 100.872 5.5033 101.153 5.57386 101.265L8.25496 100.816C8.25496 100.816 8.25495 100.591 8.18439 100.479L5.43277 100.816L5.50329 100.872Z" fill="#6832E1"/>
<path d="M5.43277 100.534C5.43277 100.534 5.43277 100.759 5.43277 100.815L8.18439 100.478C8.18439 100.478 8.18439 100.31 8.18439 100.254L5.43277 100.534Z" fill="#613DE0"/>
<path d="M5.43277 100.253C5.43277 100.253 5.43277 100.478 5.43277 100.534L8.18439 100.253C8.18439 100.253 8.18439 100.085 8.18439 100.029L5.43277 100.31V100.253Z" fill="#6D4AE6"/>
<path d="M5.43277 100.029C5.43277 100.029 5.43277 100.198 5.43277 100.254L8.18439 99.9731C8.18439 99.9731 8.18439 99.8607 8.18439 99.7484L5.43277 99.9731V100.029Z" fill="#8863E5"/>
<path d="M5.36197 99.7481C5.36197 99.7481 5.36197 99.9166 5.36197 99.9728L8.11359 99.7481C8.11359 99.7481 8.11359 99.6358 8.11359 99.5234L5.36197 99.6919V99.7481Z" fill="#8466D7"/>
<path d="M5.36203 99.6357C5.36203 99.6357 5.36203 99.6918 5.36203 99.748L8.11365 99.5795C8.11365 99.5795 8.11365 99.5233 8.11365 99.4672L5.36203 99.6357Z" fill="#8666DC"/>
</g>
<mask id="mask8_41_16841" style="mask-type:luminance" maskUnits="userSpaceOnUse" x="0" y="97" width="8" height="8">
<path d="M7.97311 104.13C6.20925 103.343 4.44534 102.501 2.75203 101.714C1.19983 100.984 0.212067 99.4115 0.212067 97.2209L5.43314 99.6362C5.43314 101.827 6.42091 103.399 7.97311 104.13Z" fill="white"/>
</mask>
<g mask="url(#mask8_41_16841)">
<path d="M7.90142 104.13H7.97199L4.65591 102.613L7.90142 104.13Z" fill="#613FCA"/>
<path d="M2.68185 101.715L4.65737 102.613L2.68185 101.715Z" fill="#613FCA"/>
<path d="M2.258 101.434C2.258 101.434 2.54021 101.602 2.75188 101.715L7.97295 104.13C7.97295 104.13 7.62018 103.961 7.47907 103.849L2.258 101.434Z" fill="#1B036D"/>
<path d="M1.76361 101.096C1.76361 101.096 2.04587 101.321 2.18697 101.433L7.408 103.848C7.408 103.848 7.12579 103.624 6.98469 103.511L1.76361 101.096Z" fill="#1A0369"/>
<path d="M1.34 100.703C1.34 100.703 1.6222 100.984 1.76331 101.153L6.98438 103.568C6.98438 103.568 6.70213 103.287 6.56102 103.119L1.34 100.703Z" fill="#1C036E"/>
<path d="M0.918091 100.086C0.918091 100.086 1.20029 100.479 1.3414 100.647L6.56242 103.063C6.56242 103.063 6.28022 102.669 6.13911 102.501L0.918091 100.086Z" fill="#1E0374"/>
<path d="M0.423706 99.0742C0.564815 99.4674 0.705922 99.8044 0.917586 100.085L6.13861 102.5C5.92694 102.163 5.78584 101.826 5.64473 101.489L0.423706 99.0742Z" fill="#250386"/>
<path d="M0.141235 97.8389C0.141235 98.2882 0.282336 98.6814 0.35289 99.0746L5.57391 101.49C5.4328 101.097 5.36226 100.703 5.36226 100.254L0.141235 97.8389Z" fill="#1C036F"/>
<path d="M0.141205 97.2211C0.141205 97.2211 0.141205 97.6142 0.141205 97.7827L5.36223 100.198C5.36223 100.198 5.36223 99.8048 5.36223 99.6363L0.141205 97.2211Z" fill="#1D0372"/>
</g>
<mask id="mask9_41_16841" style="mask-type:luminance" maskUnits="userSpaceOnUse" x="37" y="53" width="13" height="13">
<path d="M37.9575 56.3869C37.9575 56.3869 38.3808 56.0499 38.6631 55.8252C39.5097 55.1512 40.3564 54.6457 41.2736 54.1963C45.648 52.1743 49.2462 53.8032 49.2462 57.8473C49.2462 60.3187 47.9057 63.1832 45.7185 65.5423L43.6724 64.1942C45.5068 62.2845 46.5652 59.9255 46.5652 57.9596C46.5652 54.7018 43.6724 53.41 40.1447 55.0389C39.3686 55.3759 38.663 55.8252 38.028 56.3307L37.9575 56.3869Z" fill="white"/>
</mask>
<g mask="url(#mask9_41_16841)">
<path d="M43.6727 64.1942L45.7188 65.5423L45.7893 65.4861L43.6727 64.1942Z" fill="#B19FEF"/>
<path d="M43.6727 64.1938L45.7188 65.5419C45.7188 65.5419 46.0716 65.1487 46.2127 64.9802L44.0255 63.7445C44.0255 63.7445 43.7433 64.0815 43.6021 64.1938H43.6727Z" fill="#A38FE5"/>
<path d="M44.0948 63.6882L46.282 64.9239C46.282 64.9239 46.7053 64.3622 46.917 64.0814L44.6592 63.0142C44.6592 63.0142 44.3065 63.4635 44.1654 63.6882H44.0948Z" fill="#B194F5"/>
<path d="M44.6599 63.0703L46.9177 64.1375C47.1999 63.8005 47.4116 63.4635 47.6232 63.0703L45.2244 62.2278C45.0833 62.5086 44.8716 62.7895 44.6599 63.0703Z" fill="#B091F3"/>
<path d="M45.2249 62.2278L47.6237 63.0704C48.1176 62.284 48.4704 61.4415 48.7526 60.6551L46.142 60.262C45.9304 60.936 45.5776 61.5538 45.2249 62.2278Z" fill="#B194F5"/>
<path d="M46.1414 60.2623L48.7519 60.6555C48.7519 60.6555 48.8224 60.3746 48.893 60.2623L46.2119 59.9253C46.2119 59.9253 46.2119 60.15 46.1414 60.2623Z" fill="#B091F3"/>
<path d="M46.2119 59.9252L48.8929 60.2622C48.8929 60.2622 48.893 60.0375 48.9635 59.9814L46.2825 59.7006C46.2825 59.7006 46.2825 59.8691 46.2825 59.9252H46.2119Z" fill="#B49DF2"/>
<path d="M46.2824 59.7003L48.9635 59.9811C48.9635 59.9811 48.9635 59.8126 48.9635 59.7003L46.2824 59.4756C46.2824 59.4756 46.2824 59.5879 46.2824 59.7003Z" fill="#AB91EF"/>
<path d="M46.3534 59.4761L49.0345 59.7008C49.0345 59.7008 49.0345 59.5323 49.0345 59.4761L46.3534 59.3076C46.3534 59.3076 46.3534 59.4199 46.3534 59.4761Z" fill="#B09AEB"/>
<path d="M46.4237 59.3074L49.1048 59.4759C49.1048 59.4759 49.1048 59.3636 49.1048 59.2512L46.4237 59.1389C46.4237 59.1389 46.4237 59.2512 46.4237 59.3074Z" fill="#A08CD7"/>
<path d="M46.424 59.1386L49.105 59.2509C49.105 59.2509 49.105 59.1386 49.105 59.0263L46.3534 58.9139C46.3534 58.9139 46.3534 59.0263 46.3534 59.0824L46.424 59.1386Z" fill="#B8A0F8"/>
<path d="M46.4942 58.9701L49.2459 59.0824C49.2459 59.0824 49.2459 58.9701 49.2459 58.9139H46.4942C46.4942 58.9139 46.4942 58.9139 46.4942 59.0263V58.9701Z" fill="#9D7EEB"/>
<path d="M46.4942 58.8577H49.2459C49.2459 58.8577 49.2459 58.8015 49.2459 58.7454H46.4942C46.4942 58.7454 46.4942 58.8015 46.4942 58.8577Z" fill="#9D7EF0"/>
<path d="M46.4942 58.6897H49.2459C49.2459 58.6897 49.2459 58.5774 49.2459 58.5212H46.4942C46.4942 58.5212 46.4942 58.6336 46.4942 58.6897Z" fill="#9974FA"/>
<path d="M46.4942 58.5209H49.2459C49.2459 58.5209 49.2459 58.3524 49.2459 58.2963H46.4942C46.4942 58.2963 46.4942 58.4648 46.4942 58.5209Z" fill="#9A79EF"/>
<path d="M46.565 58.4085H49.3166C49.3166 58.4085 49.3166 58.24 49.3166 58.1838L46.565 58.2962C46.565 58.2962 46.565 58.4085 46.565 58.4647V58.4085Z" fill="#9573F2"/>
<path d="M46.565 58.2403L49.3166 58.128C49.3166 58.128 49.3166 58.0157 49.3166 57.9033L46.565 58.0156V58.1841V58.2403Z" fill="#8F6BEF"/>
<path d="M46.565 57.9032C46.565 57.9032 46.565 57.9032 46.565 57.9594C46.565 57.9594 46.565 58.0156 46.565 58.0717L49.3166 57.9594V57.7347L46.565 57.9032Z" fill="#8666DC"/>
<path d="M46.565 57.7346C46.565 57.7346 46.565 57.8469 46.565 57.9031L49.3166 57.7346C49.3166 57.7346 49.3166 57.5661 49.3166 57.5099L46.565 57.7346Z" fill="#8466D7"/>
<path d="M46.4942 57.5657C46.4942 57.5657 46.4942 57.6781 46.4942 57.7343L49.2459 57.5096C49.2459 57.5096 49.2459 57.3411 49.2459 57.2849L46.4942 57.5657Z" fill="#8863E5"/>
<path d="M46.4942 57.3416C46.4942 57.3416 46.4942 57.51 46.4942 57.5662L49.2459 57.2854C49.2459 57.2854 49.2459 57.1169 49.2459 57.0045L46.4942 57.3416Z" fill="#6D4AE6"/>
<path d="M46.4942 57.1166C46.4942 57.1166 46.4942 57.2851 46.4942 57.3412L49.2459 57.0042C49.2459 57.0042 49.2459 56.8357 49.2459 56.7234L46.4942 57.0604V57.1166Z" fill="#613DE0"/>
<path d="M46.4237 56.7799C46.4237 56.7799 46.4237 57.0046 46.4943 57.0607L49.2459 56.7237C49.2459 56.7237 49.2459 56.4429 49.1753 56.3306L46.4943 56.7799H46.4237Z" fill="#6832E1"/>
<path d="M46.2824 56.3863C46.2824 56.3863 46.3529 56.6671 46.4235 56.7794L49.1045 56.3301C49.1045 56.3301 48.9635 55.9931 48.9635 55.8246L46.2824 56.3863Z" fill="#6528EB"/>
<path d="M46.9177 53.7463L44.6599 54.7012C45.3655 55.0382 45.9299 55.5999 46.2827 56.3862L48.9638 55.8246C48.5404 54.8697 47.9055 54.1395 46.9883 53.7463H46.9177Z" fill="#682AEE"/>
<path d="M43.5317 54.4206C43.955 54.4206 44.3077 54.5891 44.6605 54.7015L46.9182 53.7466C46.4949 53.5781 46.0011 53.4096 45.5072 53.3534L43.4611 54.3644L43.5317 54.4206Z" fill="#4C00EF"/>
<path d="M43.1078 54.3644C43.1078 54.3644 43.39 54.3644 43.4606 54.3644L45.5066 53.3534C45.5066 53.3534 45.2244 53.3534 45.0128 53.3534L43.1078 54.3644Z" fill="#4601E1"/>
<path d="M42.7547 54.3644C42.7547 54.3644 43.0369 54.3644 43.178 54.3644L45.0829 53.3534C45.0829 53.3534 44.7302 53.3534 44.589 53.3534L42.7547 54.3644Z" fill="#4100CC"/>
<path d="M42.3311 54.4207C42.3311 54.4207 42.6133 54.4207 42.7544 54.4207L44.5888 53.4097C44.5888 53.4097 44.236 53.4097 44.0949 53.4097L42.3311 54.4207Z" fill="#21037D"/>
<path d="M41.8384 54.4769C41.8384 54.4769 42.1206 54.4769 42.2617 54.4207L44.0256 53.4097C44.0256 53.4097 43.6728 53.4097 43.4612 53.522L41.8384 54.5331V54.4769Z" fill="#230381"/>
<path d="M41.4145 54.5893C41.4145 54.5893 41.7673 54.5331 41.9084 54.477L43.5312 53.4659C43.5312 53.4659 43.1078 53.5783 42.9667 53.6344L41.4851 54.5893H41.4145Z" fill="#230381"/>
<path d="M40.8496 54.758C40.8496 54.758 41.2024 54.6457 41.3435 54.5895L42.8251 53.6346C42.8251 53.6346 42.4018 53.747 42.1902 53.8593L40.8496 54.758Z" fill="#1A0369"/>
<path d="M40.2862 54.9821C40.2862 54.9821 40.7095 54.8136 40.8506 54.7574L42.1912 53.8588C42.1912 53.8588 41.6973 54.0273 41.4857 54.1396L40.2157 54.9821H40.2862Z" fill="#290293"/>
<path d="M40.7091 54.5331L39.6508 55.3194C39.6508 55.3194 40.0036 55.1509 40.1447 55.0948C40.1447 55.0948 40.2858 55.0947 40.2858 55.0386L41.5557 54.196C41.5557 54.196 41.4146 54.2522 41.3441 54.3084C41.1324 54.4207 40.9208 54.5331 40.7091 54.6454V54.5331Z" fill="#27028D"/>
<path d="M38.8036 55.8246C38.8036 55.8246 39.368 55.4876 39.6502 55.3191L40.7086 54.5327C40.7086 54.5327 40.003 54.9259 39.7208 55.1505L38.8741 55.8246H38.8036Z" fill="#250388"/>
<path d="M37.9575 56.3862C37.9575 56.3862 38.522 55.993 38.7336 55.8245L39.5803 55.1505C39.5803 55.1505 38.8747 55.5999 38.5925 55.8807L37.887 56.4424L37.9575 56.3862Z" fill="#1D0372"/>
</g>
<mask id="mask10_41_16841" style="mask-type:luminance" maskUnits="userSpaceOnUse" x="33" y="61" width="4" height="9">
<path d="M33.7953 62.4527C33.7953 62.4527 33.9364 61.9472 34.0775 61.7225C33.8658 62.4527 33.7247 63.1829 33.7247 63.9131C33.7247 65.879 34.8536 67.227 36.6175 67.4517L36.9702 69.5861C34.7125 69.2491 33.3719 67.6202 33.3719 65.1488C33.3719 64.3063 33.5131 63.3514 33.8658 62.4527H33.7953Z" fill="white"/>
</mask>
<g mask="url(#mask10_41_16841)">
<path d="M33.796 62.6774L34.0782 61.891C34.0782 61.891 34.0782 61.7787 34.0782 61.7225L33.796 62.4527C33.796 62.4527 33.796 62.565 33.796 62.6212V62.6774Z" fill="#250388"/>
<path d="M33.5131 63.857L33.7953 62.846C33.7953 62.509 33.9364 62.2281 34.007 61.8911L33.7248 62.6775C33.5837 63.0706 33.5132 63.4638 33.4426 63.857H33.5131Z" fill="#27028D"/>
<path d="M33.3719 64.9237L33.7247 63.688C33.7247 63.4072 33.7247 63.1263 33.7952 62.7893L33.513 63.8003C33.513 64.1935 33.4425 64.5305 33.3719 64.9237Z" fill="#290293"/>
<path d="M33.7247 63.6882L33.3719 64.9239V65.1486C33.3719 65.1486 33.3719 65.5979 33.3719 65.8226L33.7247 64.4184C33.7247 64.4184 33.7247 64.0252 33.7247 63.8567C33.7247 63.8006 33.7247 63.7444 33.7247 63.6882Z" fill="#1A0369"/>
<path d="M33.3719 65.8788C33.3719 65.8788 33.3719 66.3282 33.513 66.5528L33.7952 65.0363C33.7952 65.0363 33.7247 64.6993 33.7247 64.4746L33.3719 65.8788Z" fill="#230381"/>
<path d="M33.5134 66.5527C33.5134 66.5527 33.6545 66.9459 33.725 67.1144L34.0072 65.4855C34.0072 65.4855 33.9367 65.2046 33.8662 65.0361L33.5839 66.5527H33.5134Z" fill="#230381"/>
<path d="M33.7249 67.1148C33.7249 67.1148 33.8661 67.4519 33.9367 67.5642L34.1483 65.823C34.1483 65.823 34.0072 65.5983 34.0072 65.486L33.7249 67.1148Z" fill="#21037D"/>
<path d="M33.937 67.5639C33.937 67.5639 34.0781 67.8447 34.1486 67.957L34.3603 66.1597C34.3603 66.1597 34.2192 65.935 34.1486 65.8226L33.937 67.5639Z" fill="#4100CC"/>
<path d="M34.1488 67.9573C34.1488 67.9573 34.2899 68.1819 34.431 68.2943L34.5721 66.4407C34.5721 66.4407 34.431 66.2722 34.3605 66.1599L34.1488 67.9573Z" fill="#4601E1"/>
<path d="M34.4297 68.2377C34.4297 68.2377 34.7824 68.5747 34.9941 68.7432V66.7774C34.9941 66.7774 34.7119 66.4965 34.5707 66.3842L34.4297 68.2377Z" fill="#4C00EF"/>
<path d="M34.9948 66.8338V68.7997C35.4887 69.1929 36.1943 69.4738 36.9704 69.5861L36.6176 67.4517C35.9826 67.3394 35.4181 67.1147 34.9948 66.7777V66.8338Z" fill="#682AEE"/>
</g>
<mask id="mask11_41_16841" style="mask-type:luminance" maskUnits="userSpaceOnUse" x="0" y="53" width="6" height="8">
<path d="M0.564911 60.7115C0.564911 60.7115 0.706026 60.206 0.847136 59.9813C1.55268 57.7908 3.17545 55.544 5.22154 53.9713C5.36265 53.859 5.43317 53.8029 5.57428 53.6905C5.71539 53.5782 5.78596 53.522 5.92707 53.4097C3.45766 55.3194 1.48213 58.0155 0.635481 60.7115H0.564911Z" fill="white"/>
</mask>
<g mask="url(#mask11_41_16841)">
<path d="M0.56488 60.7116C0.56488 60.7116 0.564895 60.5431 0.63545 60.4869L0.847105 59.8129C0.847105 59.8129 0.847105 59.9252 0.847105 60.0375L0.56488 60.7677V60.7116Z" fill="#00256D"/>
<path d="M0.635651 60.487C0.847314 59.9253 1.05897 59.4198 1.34119 58.8581L1.48227 58.465C1.27061 58.9143 1.05898 59.3636 0.917875 59.813L0.70622 60.487H0.635651Z" fill="#002671"/>
<path d="M1.4122 58.4089L1.27106 58.8021C1.55328 58.2966 1.83551 57.7911 2.11773 57.3418V57.1732C1.83551 57.5664 1.55329 57.9596 1.34163 58.4089H1.4122Z" fill="#002876"/>
<path d="M2.18759 57.2288V57.3973C2.61092 56.8917 2.96368 56.3301 3.38701 55.8807L3.10478 55.9931C2.75201 56.3862 2.46981 56.8356 2.18759 57.2849V57.2288Z" fill="#00297A"/>
<path d="M3.10583 55.9377L3.38806 55.8253C4.02305 55.0951 4.72856 54.3649 5.50466 53.7471L4.8697 54.2526C4.23471 54.7581 3.67029 55.376 3.1764 55.9938L3.10583 55.9377Z" fill="#002B7E"/>
<path d="M4.8696 54.2522L5.50456 53.7467C5.50456 53.7467 5.78682 53.522 5.92793 53.4097L5.22239 53.9713C5.22239 53.9713 5.01071 54.1399 4.8696 54.2522Z" fill="#1B036C"/>
</g>
<path d="M5.29175 66.1036L5.36232 99.6359L8.11394 99.5235L8.04337 65.9351L5.29175 66.1036Z" fill="#4C00EF"/>
<path d="M0 63.6882L0.141139 97.2206L5.36216 99.6358L5.29159 66.1035L0 63.6882Z" fill="#1B036C"/>
<path d="M13.9697 54.0275L15.2397 55.9933L67.3089 32.0658L66.1095 30.0999L13.9697 54.0275Z" fill="#4C00EF"/>
<path d="M8.75046 51.6125L13.9715 54.0278L66.1113 30.1002L60.8903 27.6849L8.75046 51.6125Z" fill="#4C00EF"/>
<path d="M67.3084 32.0662L15.1686 55.9937C11.2175 57.8473 7.97202 62.2846 7.97202 65.9355L8.1131 99.4678C8.1131 103.119 11.3586 104.579 15.3802 102.782L67.52 78.8541C71.4711 77.0567 74.7166 72.5633 74.7166 68.9124L74.5755 35.3801C74.5755 31.7291 71.33 30.2688 67.3084 32.0662ZM49.0348 77.3376L33.7244 84.3586L37.1816 69.5864H36.9699C34.7122 69.1932 33.3716 67.5644 33.3716 65.1491C33.3716 61.105 36.8994 56.2184 41.3443 54.1963C45.7187 52.1743 49.317 53.8032 49.317 57.8473C49.317 60.3187 47.9765 63.1833 45.7893 65.5423L45.507 65.8231L49.1053 77.3376H49.0348Z" fill="url(#paint0_linear_41_16841)"/>
<mask id="mask12_41_16841" style="mask-type:luminance" maskUnits="userSpaceOnUse" x="5" y="54" width="11" height="13">
<path d="M8.04337 65.935L5.29175 66.1035C5.29175 61.6662 9.17229 56.2741 14.0406 54.0273L15.24 55.9932C11.2889 57.8468 8.04337 62.2841 8.04337 65.935Z" fill="white"/>
</mask>
<g mask="url(#mask12_41_16841)">
<path d="M5.29172 66.1035L8.04334 65.935V65.8226L5.29172 65.935V66.0473V66.1035Z" fill="#8666DC"/>
<path d="M5.29172 65.991L8.04334 65.8787C8.04334 65.8787 8.04334 65.7664 8.04334 65.7102L5.29172 65.8225C5.29172 65.8225 5.29172 65.991 5.29172 66.0472V65.991Z" fill="#8F6BEF"/>
<path d="M5.29172 65.7668L8.04334 65.6545C8.04334 65.6545 8.04334 65.5421 8.04334 65.486H5.29172C5.29172 65.486 5.29172 65.7107 5.29172 65.7668Z" fill="#9573F2"/>
<path d="M5.29172 65.5419H8.04334C8.04334 65.5419 8.04334 65.3734 8.04334 65.3173H5.29172C5.29172 65.3173 5.29172 65.4858 5.29172 65.5419Z" fill="#9A79EF"/>
<path d="M5.29172 65.3734H8.04334C8.04334 65.3734 8.04334 65.261 8.04334 65.2048H5.29172C5.29172 65.2048 5.29172 65.3172 5.29172 65.3734Z" fill="#9974FA"/>
<path d="M5.29172 65.1484H8.04334C8.04334 65.1484 8.04334 65.036 8.04334 64.9799H5.29172C5.29172 64.9799 5.29172 65.0922 5.29172 65.1484Z" fill="#9D7EF0"/>
<path d="M5.36203 64.9241H8.11365C8.11365 64.9241 8.11365 64.8679 8.11365 64.8118L5.36203 64.6995C5.36203 64.6995 5.36203 64.8118 5.36203 64.9241Z" fill="#9D7EEB"/>
<path d="M5.36203 64.7557L8.11365 64.868C8.11365 64.868 8.11365 64.7557 8.11365 64.6995L5.4326 64.5872C5.4326 64.5872 5.4326 64.7557 5.4326 64.8118L5.36203 64.7557Z" fill="#B8A0F8"/>
<path d="M5.4328 64.5306L8.11385 64.6429C8.11385 64.6429 8.11385 64.5306 8.11385 64.4744L5.4328 64.3059C5.4328 64.3059 5.4328 64.4744 5.4328 64.5306Z" fill="#A08CD7"/>
<path d="M5.50381 64.2502L8.18492 64.4187C8.18492 64.4187 8.18492 64.3064 8.18492 64.2502L5.50381 64.0255C5.50381 64.0255 5.50381 64.194 5.50381 64.2502Z" fill="#B09AEB"/>
<path d="M5.50332 64.0253L8.18442 64.25C8.18442 64.25 8.18442 64.0815 8.18442 64.0253L5.50332 63.7445C5.50332 63.7445 5.50335 63.9692 5.4328 64.0253H5.50332Z" fill="#AB91EF"/>
<path d="M5.57407 63.7448L8.25517 64.0257C8.25517 64.0257 8.25513 63.8572 8.32569 63.801L5.64464 63.464C5.64464 63.464 5.64462 63.6887 5.57407 63.7448Z" fill="#B49DF2"/>
<path d="M5.71512 63.4635L8.39617 63.8005C8.39617 63.8005 8.4667 63.5197 8.53726 63.4073L5.92677 63.0142C5.92677 63.0142 5.78563 63.3512 5.78563 63.4635H5.71512Z" fill="#B091F3"/>
<path d="M5.85641 62.958L8.46695 63.3512C8.74917 62.621 9.10195 61.8347 9.52528 61.1607L7.1264 60.262C6.56196 61.1607 6.13863 62.0594 5.85641 62.958Z" fill="#B194F5"/>
<path d="M7.12601 60.2624L9.52489 61.1611C9.73655 60.8803 9.94819 60.5432 10.1599 60.2624L7.90211 59.1952C7.61989 59.5322 7.40824 59.9254 7.19658 60.3186L7.12601 60.2624Z" fill="#B091F3"/>
<path d="M7.90278 59.1949L10.1605 60.2621C10.1605 60.2621 10.5133 59.7566 10.725 59.532L8.53775 58.2963C8.25553 58.5771 8.04388 58.9141 7.83221 59.1949H7.90278Z" fill="#B194F5"/>
<path d="M8.60721 58.2963L10.7944 59.5321C10.7944 59.5321 11.1472 59.1388 11.2883 58.9703L9.24223 57.6223C9.24223 57.6223 8.81889 58.0717 8.67778 58.2963H8.60721Z" fill="#A38FE5"/>
<path d="M9.17216 57.622L11.2183 58.97C11.7121 58.4645 12.206 57.959 12.7705 57.5658L11.0066 55.937C10.3716 56.4425 9.73658 57.0604 9.10159 57.6782L9.17216 57.622Z" fill="#B19FEF"/>
<path d="M11.0069 55.8811L12.7707 57.5099C12.7707 57.5099 12.9824 57.3414 13.1235 57.2291L11.4302 55.5441C11.4302 55.5441 11.148 55.7687 11.0069 55.8811Z" fill="#A38FE5"/>
<path d="M11.4307 55.6L13.124 57.2851C13.124 57.2851 13.2651 57.1728 13.4062 57.1166L11.7835 55.3754C11.7835 55.3754 11.5718 55.5439 11.4307 55.6Z" fill="#B194F5"/>
<path d="M11.7819 55.3196L13.4046 57.0608C13.4046 57.0608 13.5457 56.9485 13.6162 56.8923L12.064 55.095C12.064 55.095 11.8524 55.2073 11.7819 55.2635V55.3196Z" fill="#B091F3"/>
<path d="M12.0647 55.151L13.6169 56.9484C13.6169 56.9484 13.758 56.8361 13.8285 56.8361L12.3469 55.0387C12.3469 55.0387 12.2058 55.151 12.0647 55.2072V55.151Z" fill="#B49DF2"/>
<path d="M12.2763 54.9825L13.7579 56.7798C13.7579 56.7798 13.899 56.6675 13.9696 56.6675L12.4879 54.814C12.4879 54.814 12.3468 54.9263 12.2057 54.9825H12.2763Z" fill="#AB91EF"/>
<path d="M12.5591 54.8137L14.0407 56.6673C14.0407 56.6673 14.1818 56.6111 14.2524 56.5549L12.8413 54.7014C12.8413 54.7014 12.7002 54.8137 12.6296 54.8137H12.5591Z" fill="#B09AEB"/>
<path d="M12.7706 54.7013L14.1817 56.5549C14.1817 56.5549 14.3228 56.4987 14.3934 56.4425L12.9823 54.589C12.9823 54.589 12.8412 54.7013 12.7706 54.7013Z" fill="#A08CD7"/>
<path d="M12.9827 54.5326L14.3937 56.3861C14.3937 56.3861 14.5348 56.3299 14.6054 56.2737L13.2649 54.364C13.2649 54.364 13.1238 54.4202 13.0532 54.4764L12.9827 54.5326Z" fill="#B8A0F8"/>
<path d="M13.2635 54.4209L14.604 56.3306C14.604 56.3306 14.7452 56.2745 14.8157 56.2183L13.5457 54.3086C13.5457 54.3086 13.4046 54.3647 13.334 54.4209H13.2635Z" fill="#9D7EEB"/>
<path d="M13.4753 54.3084L14.7453 56.2181C14.7453 56.2181 14.8864 56.1619 14.957 56.1058L13.687 54.196C13.687 54.196 13.5459 54.2522 13.4753 54.3084Z" fill="#9D7EF0"/>
<path d="M13.6869 54.1958L14.9569 56.1056C14.9569 56.1056 15.098 56.0494 15.1685 55.9932L13.9691 54.0273C13.9691 54.0273 13.828 54.0835 13.7575 54.1397L13.6869 54.1958Z" fill="#9974FA"/>
<path d="M13.899 54.0836L15.0984 56.0495C15.0984 56.0495 15.0984 56.0495 15.1689 56.0495L13.9695 54.0836C13.9695 54.0836 13.9695 54.0836 13.899 54.0836Z" fill="#9A79EF"/>
</g>
<mask id="mask13_41_16841" style="mask-type:luminance" maskUnits="userSpaceOnUse" x="0" y="51" width="15" height="16">
<path d="M5.29155 66.104L0.0705261 63.6888C0.0705261 59.2515 3.95101 53.8594 8.81927 51.6127L14.0403 54.0279C9.24264 56.2746 5.29155 61.6668 5.29155 66.104Z" fill="white"/>
</mask>
<g mask="url(#mask13_41_16841)">
<path d="M-3.05176e-05 63.6886L5.22105 66.1038C5.22105 66.1038 5.22105 65.8791 5.22105 65.7668L-3.05176e-05 63.3516C-3.05176e-05 63.3516 -3.05176e-05 63.5762 -3.05176e-05 63.6886Z" fill="#1D0372"/>
<path d="M-3.05176e-05 63.2958L5.22104 65.711C5.22104 65.711 5.22101 65.1493 5.29156 64.8685L0.0705391 62.4532C0.0705391 62.4532 0.070524 63.0149 -3.05176e-05 63.2958Z" fill="#250388"/>
<path d="M0.141266 62.5095L5.36229 64.9247C5.36229 64.9247 5.43282 64.4192 5.50337 64.1384L0.282351 61.7231C0.282351 61.7231 0.141266 62.2287 0.141266 62.5095Z" fill="#27028D"/>
<path d="M0.282288 61.7231L5.50331 64.1384C5.50331 64.1384 5.64446 63.6328 5.71502 63.4081L0.493943 60.9929C0.493943 60.9929 0.352842 61.4985 0.282288 61.7231Z" fill="#290293"/>
<path d="M0.423828 60.9929L5.64485 63.4081C5.64485 63.4081 5.78596 62.9026 5.92707 62.6779L0.706053 60.2627C0.706053 60.2627 0.494383 60.7682 0.423828 60.9929Z" fill="#1A0369"/>
<path d="M0.706421 60.2628L5.92744 62.678C5.92744 62.678 6.13911 62.1725 6.20967 61.9478L0.988592 59.5326C0.988592 59.5326 0.776975 60.0381 0.706421 60.2628Z" fill="#230381"/>
<path d="M0.987 59.4761L6.20807 61.8914C6.20807 61.8914 6.41971 61.3859 6.56081 61.1612L1.33979 58.746C1.33979 58.746 1.05755 59.2515 0.987 59.4761Z" fill="#230381"/>
<path d="M1.34012 58.7461L6.56114 61.1613C6.56114 61.1613 6.84339 60.7119 6.9845 60.4872L1.76343 58.072C1.76343 58.072 1.48123 58.5214 1.34012 58.7461Z" fill="#21037D"/>
<path d="M1.76373 58.0722L6.98481 60.4874C6.98481 60.4874 7.26701 60.0381 7.40812 59.8696L2.1871 57.4543C2.1871 57.4543 1.90484 57.8475 1.76373 58.0722Z" fill="#4100CC"/>
<path d="M2.18759 57.3982L7.40861 59.8134C7.40861 59.8134 7.69081 59.4203 7.83192 59.2518L2.6109 56.8365C2.6109 56.8365 2.3287 57.2297 2.18759 57.3982Z" fill="#4601E1"/>
<path d="M2.54044 56.8361L7.76151 59.2513C7.76151 59.2513 8.04371 58.9143 8.18482 58.7458L2.9638 56.3306C2.9638 56.3306 2.68154 56.6676 2.54044 56.8361Z" fill="#4C00EF"/>
<path d="M2.96255 56.3306L8.18358 58.7459C8.18358 58.7459 8.46578 58.4088 8.60689 58.1841L3.38587 55.7689C3.38587 55.7689 3.10366 56.106 2.96255 56.3306Z" fill="#682AEE"/>
<path d="M3.38644 55.7691L8.60746 58.1843C8.60746 58.1843 8.96025 57.7911 9.17191 57.5665L3.95089 55.1512C3.95089 55.1512 3.59811 55.5444 3.38644 55.7691Z" fill="#6528EB"/>
<path d="M3.95132 55.1513L9.17235 57.5665C9.66623 57.061 10.1601 56.5555 10.7246 56.1061L5.50348 53.6909C4.93904 54.1403 4.44521 54.6457 3.95132 55.1513Z" fill="#6832E1"/>
<path d="M5.50378 53.7468L10.7249 56.162C11.0776 55.8812 11.4304 55.6004 11.8537 55.3195L6.63268 52.9043C6.27991 53.1851 5.85656 53.4659 5.50378 53.7468Z" fill="#6528EB"/>
<path d="M6.5611 52.9047L11.7822 55.3199C12.3466 54.9268 12.911 54.5897 13.4755 54.3089L8.25444 51.8937C7.69001 52.1745 7.12553 52.5115 6.5611 52.9047Z" fill="#682AEE"/>
<path d="M8.2543 51.8936L13.4753 54.3089C13.4753 54.3089 13.8281 54.1403 13.9692 54.0842L8.74818 51.6689C8.74818 51.6689 8.39541 51.8375 8.2543 51.8936Z" fill="#4C00EF"/>
</g>
<path d="M68.8614 20.2142L68.9319 24.7077L69.2847 24.8762L69.2142 18.9224L68.8614 20.2142Z" fill="#1B036C"/>
<path d="M58.0671 29.6507L55.386 31.2234L69.2852 24.8764L68.9325 24.7079L58.0671 29.6507Z" fill="#230382"/>
<path d="M50.0948 22.91V28.8077L55.3864 31.2229L55.3158 25.3253L50.0948 22.91Z" fill="#1B036C"/>
<path d="M55.3155 25.3255L55.3861 31.2231L58.0671 29.6504V25.157L55.3155 25.3255Z" fill="#4C00EF"/>
<mask id="mask14_41_16841" style="mask-type:luminance" maskUnits="userSpaceOnUse" x="45" y="15" width="11" height="11">
<path d="M45.6485 15.0464C47.4124 15.8327 49.1762 16.6753 50.8696 17.4616C53.6212 18.7535 55.3145 21.4495 55.3145 25.269L50.0935 22.8537C50.0935 19.0343 48.4002 16.3383 45.6485 15.0464Z" fill="white"/>
</mask>
<g mask="url(#mask14_41_16841)">
<path d="M50.0238 21.8989C50.0238 22.2359 50.0238 22.5729 50.0238 22.91L55.2448 25.3252C55.2448 24.9882 55.2448 24.6512 55.2448 24.3142L50.0238 21.8989Z" fill="#1D0372"/>
<path d="M49.6004 19.652C49.8121 20.326 49.9532 21.0562 50.0238 21.8426L55.2448 24.2578C55.2448 23.4714 55.0331 22.7412 54.8215 22.0672L49.6004 19.652Z" fill="#1C036F"/>
<path d="M48.8234 17.855C49.1762 18.4167 49.4584 18.9783 49.67 19.6524L54.8911 22.0676C54.6794 21.3936 54.3972 20.8319 54.0444 20.2702L48.8234 17.855Z" fill="#250386"/>
<path d="M48.0482 16.8436C48.3304 17.1806 48.6127 17.5176 48.8243 17.8547L54.0453 20.2699C53.8337 19.8767 53.5515 19.5397 53.2692 19.2589L48.0482 16.8436Z" fill="#1E0374"/>
<path d="M47.2712 16.1134C47.2712 16.1134 47.8357 16.5627 48.0473 16.8436L53.2684 19.2588C53.2684 19.2588 52.7745 18.7533 52.4923 18.5286L47.2712 16.1134Z" fill="#1C036E"/>
<path d="M46.4962 15.5518C46.4962 15.5518 47.0607 15.9449 47.2724 16.1134L52.4934 18.5287C52.4934 18.5287 51.9995 18.1355 51.7173 17.967L46.4962 15.5518Z" fill="#1A0369"/>
<path d="M45.6486 15.1027C45.6486 15.1027 46.213 15.3835 46.4953 15.552L51.7163 17.9672C51.7163 17.9672 51.1518 17.6302 50.8696 17.5179L45.6486 15.1027Z" fill="#1B036D"/>
<path d="M45.6485 15.0464V15.1026L50.9401 17.5178H50.8696L45.6485 15.0464Z" fill="#613FCA"/>
</g>
<path d="M24.3412 40.6596L24.4118 45.153L24.7646 45.3215L24.694 39.3677L24.3412 40.6596Z" fill="#1B036C"/>
<mask id="mask15_41_16841" style="mask-type:luminance" maskUnits="userSpaceOnUse" x="34" y="15" width="25" height="11">
<path d="M34.8535 21.5061C34.8535 21.5061 35.2768 21.1691 35.559 21.0006C37.3229 19.5964 39.2279 18.4169 41.2034 17.5182C50.5166 13.2494 58.066 16.6757 58.1365 25.2132L55.3849 25.3817C55.3849 17.6305 48.4705 14.5413 40.004 18.4169C38.2401 19.2594 36.4762 20.2704 34.8535 21.5623V21.5061Z" fill="white"/>
</mask>
<g mask="url(#mask15_41_16841)">
<path d="M55.3138 25.1014C55.3138 25.1014 55.3138 25.2137 55.3138 25.326L58.0654 25.1575C58.0654 25.1575 58.0654 24.989 58.0654 24.9329L55.3138 25.1014Z" fill="#8666DC"/>
<path d="M55.3138 24.7078C55.3138 24.7078 55.3138 24.9887 55.3138 25.1572L58.0654 24.9887C58.0654 24.9887 58.0654 24.6516 58.0654 24.5393L55.3138 24.764V24.7078Z" fill="#8466D7"/>
<path d="M55.3138 24.2585C55.3138 24.2585 55.3138 24.5394 55.3138 24.6517L58.0654 24.427C58.0654 24.427 58.0654 24.09 58.0654 23.9777L55.3138 24.2585Z" fill="#8863E5"/>
<path d="M55.243 23.7533C55.243 23.7533 55.243 24.0902 55.243 24.2587L57.9947 23.9779C57.9947 23.9779 57.9947 23.5848 57.9947 23.4163L55.243 23.7533Z" fill="#6D4AE6"/>
<path d="M55.1728 23.1917C55.1728 23.1917 55.1728 23.5287 55.2433 23.7533L57.995 23.4163C57.995 23.4163 57.9949 23.0231 57.9244 22.8546L55.1728 23.1917Z" fill="#613DE0"/>
<path d="M54.9624 22.4614C54.9624 22.4614 55.1036 22.967 55.1036 23.1916L57.8552 22.8546C57.8552 22.8546 57.7141 22.2929 57.6435 22.0682L54.9624 22.5176V22.4614Z" fill="#6832E1"/>
<path d="M54.6801 21.5061C54.8212 21.8431 54.8918 22.124 55.0329 22.5171L57.714 22.0678C57.6434 21.6746 57.5023 21.3376 57.3612 21.0006L54.6801 21.5623V21.5061Z" fill="#6528EB"/>
<path d="M53.1275 16.5076L50.8698 17.4624C52.6336 18.2488 53.9742 19.5968 54.6797 21.4504L57.3608 20.8887C56.5142 18.8666 55.0325 17.3501 53.1275 16.4514V16.5076Z" fill="#682AEE"/>
<path d="M48.1188 16.7321C49.1065 16.8444 50.0238 17.0691 50.7999 17.4623L53.0576 16.5074C52.1404 16.1142 51.1527 15.8334 50.0943 15.7211L48.0482 16.7321H48.1188Z" fill="#4C00EF"/>
<path d="M47.2007 16.6759C47.2007 16.6759 47.8357 16.676 48.1179 16.7321L50.164 15.7211C50.164 15.7211 49.529 15.6649 49.1763 15.6649L47.2713 16.6759H47.2007Z" fill="#4601E1"/>
<path d="M48.0481 15.6649L46.2137 16.6759C46.2137 16.6759 46.8487 16.6759 47.2015 16.6759L49.1064 15.6649C49.1064 15.6649 48.4009 15.6649 48.0481 15.6649Z" fill="#4100CC"/>
<path d="M45.225 16.7883C45.225 16.7883 45.9305 16.7321 46.2127 16.6759L48.0472 15.6649C47.6944 15.6649 47.3416 15.6649 46.9183 15.7773L45.1544 16.7883H45.225Z" fill="#21037D"/>
<path d="M44.1671 16.9569C44.5199 16.9007 44.8727 16.8445 45.2255 16.7884L46.9893 15.7773C46.6366 15.7773 46.2133 15.8897 45.7899 15.9458L44.1671 16.9569Z" fill="#230381"/>
<path d="M43.0376 17.2379C43.4609 17.1255 43.8136 17.0132 44.1664 16.9571L45.7892 15.946C45.3659 16.0584 44.9425 16.1146 44.5192 16.2269L43.0376 17.1817V17.2379Z" fill="#230381"/>
<path d="M41.7678 17.6308C42.1911 17.4623 42.6144 17.3499 43.0378 17.2376L44.5194 16.2827C44.0961 16.3951 43.6022 16.5636 43.1083 16.7321L41.6972 17.6308H41.7678Z" fill="#1A0369"/>
<path d="M40.3571 18.1922C40.8509 17.9675 41.2743 17.799 41.7682 17.6305L43.1792 16.7318C42.6854 16.9003 42.1915 17.125 41.627 17.3497L40.3571 18.1922Z" fill="#290293"/>
<path d="M39.7929 18.1366L38.7346 18.9229C39.1579 18.6983 39.5812 18.5298 39.934 18.3051C40.0751 18.2489 40.2162 18.1928 40.2867 18.1366L41.5567 17.2941C41.5567 17.2941 41.2745 17.4064 41.1334 17.4626C40.7101 17.6872 40.2162 17.9119 39.7929 18.1366Z" fill="#27028D"/>
<path d="M36.8293 20.1019C37.4643 19.7087 38.0993 19.3155 38.8048 18.9223L39.8632 18.136C39.1576 18.5292 38.4521 18.9224 37.7466 19.4279L36.8999 20.1019H36.8293Z" fill="#250388"/>
<path d="M34.8536 21.5067C35.4886 21.0011 36.1236 20.5518 36.7586 20.1025L37.6052 19.4285C36.8997 19.8778 36.1941 20.3833 35.4886 20.945L34.7831 21.5067H34.8536Z" fill="#1D0372"/>
</g>
<mask id="mask16_41_16841" style="mask-type:luminance" maskUnits="userSpaceOnUse" x="24" y="34" width="2" height="7">
<path d="M25.3993 34.874C25.3993 34.874 25.5404 34.3685 25.6815 34.1438C25.117 35.9412 24.7643 37.7386 24.7643 39.3674L24.4115 40.6593C24.4115 38.8058 24.7643 36.8961 25.3993 34.874Z" fill="white"/>
</mask>
<g mask="url(#mask16_41_16841)">
<path d="M25.2576 35.2671L25.5399 34.4807C25.5399 34.4807 25.6104 34.256 25.6809 34.0875L25.3988 34.8177C25.3988 34.8177 25.3282 35.0986 25.2576 35.2109V35.2671Z" fill="#250388"/>
<path d="M24.6235 37.7944L24.9057 36.7833C25.0468 36.0532 25.1879 35.2668 25.4701 34.4805L25.1879 35.2668C24.9057 36.1093 24.694 36.9518 24.5529 37.7944H24.6235Z" fill="#27028D"/>
<path d="M24.4117 40.1535L24.7644 38.9178C24.7644 38.1876 24.835 37.5136 24.9761 36.7834L24.6939 37.7945C24.5528 38.5808 24.4822 39.3672 24.4822 40.1535H24.4117Z" fill="#290293"/>
<path d="M24.3413 40.6591L24.694 39.3672C24.694 39.3672 24.694 39.0864 24.694 38.9178L24.3413 40.1536C24.3413 40.1536 24.3413 40.4906 24.3413 40.6591Z" fill="#1A0369"/>
</g>
<path d="M13.5468 50.152L10.7951 51.7248L24.765 45.3216L24.4122 45.1531L13.5468 50.152Z" fill="#230382"/>
<path d="M5.57404 43.3553V49.253L10.7951 51.7244V45.7706L5.57404 43.3553Z" fill="#1B036C"/>
<path d="M10.7951 45.7708V51.7246L13.5468 50.1519V45.6584L10.7951 45.7708Z" fill="#4C00EF"/>
<mask id="mask17_41_16841" style="mask-type:luminance" maskUnits="userSpaceOnUse" x="39" y="2" width="31" height="19">
<path d="M41.1346 7.57676L39.9352 5.61085C47.6961 2.01609 55.1044 1.45444 60.6076 3.92583C66.1109 6.45339 69.2153 11.7893 69.2153 18.9227L68.8625 20.2146C68.8625 13.4182 65.9698 8.41925 60.6782 6.00402C55.4572 3.64497 48.4722 4.20668 41.064 7.57676H41.1346Z" fill="white"/>
</mask>
<g mask="url(#mask17_41_16841)">
<path d="M39.935 5.61111L41.1344 7.57702C41.1344 7.57702 41.4872 7.40852 41.6283 7.35235L40.4288 5.38647C40.4288 5.38647 40.0761 5.55494 39.935 5.61111Z" fill="#9A79EF"/>
<path d="M40.4294 5.3867L41.6289 7.35258C41.6289 7.35258 42.1227 7.12788 42.405 7.01554L41.2761 4.99353C41.2761 4.99353 40.7117 5.21819 40.4294 5.33052V5.3867Z" fill="#9573F2"/>
<path d="M41.2749 5.04952L42.4038 7.07157C42.4038 7.07157 42.9682 6.84691 43.1799 6.73458L42.1216 4.71252C42.1216 4.71252 41.5572 4.93718 41.2749 5.04952Z" fill="#8F6BEF"/>
<path d="M42.1222 4.71285L43.1806 6.7349C43.1806 6.7349 43.745 6.51024 44.0272 6.39791L42.9689 4.37585C42.9689 4.37585 42.3339 4.60051 42.0517 4.71285H42.1222Z" fill="#8666DC"/>
<path d="M43.0392 4.31917L44.0975 6.34122C44.0975 6.34122 44.7325 6.11652 45.0147 6.00419L44.0269 3.98218C44.0269 3.98218 43.392 4.20684 43.0392 4.31917Z" fill="#8466D7"/>
<path d="M44.028 3.98265L45.0157 6.00466C45.0157 6.00466 45.7213 5.78 46.0035 5.66767L45.0862 3.58948C44.7335 3.70181 44.3807 3.81414 44.028 3.92647V3.98265Z" fill="#8863E5"/>
<path d="M45.0853 3.64522L46.0025 5.72345C46.3553 5.61112 46.7786 5.4988 47.1314 5.38646L46.2847 3.30823C45.8614 3.42056 45.5086 3.53289 45.0853 3.64522Z" fill="#6D4AE6"/>
<path d="M46.2844 3.30855L47.131 5.38679C47.5543 5.27445 48.0482 5.16208 48.4715 5.04975L47.6954 2.97156C47.2016 3.08389 46.7782 3.19622 46.2844 3.30855Z" fill="#613DE0"/>
<path d="M47.6963 3.02755L48.4724 5.10578C49.0368 4.99344 49.6013 4.88109 50.1657 4.82492L49.4602 2.69055C48.8957 2.80289 48.2607 2.85904 47.6257 3.02755H47.6963Z" fill="#6832E1"/>
<path d="M49.531 2.69025L50.2365 4.82462C51.0832 4.71229 51.9298 4.59995 52.7059 4.59995L52.1415 2.46558C51.2948 2.46558 50.4482 2.57792 49.531 2.69025Z" fill="#6528EB"/>
<path d="M52.1408 2.46579L52.7052 4.60016C55.6685 4.48782 58.4201 4.93716 60.7484 6.00436C61.8068 6.4537 62.724 7.07158 63.6412 7.74559V5.77972C62.7945 5.04954 61.8068 4.43168 60.6779 3.92617C58.138 2.80281 55.3157 2.29727 52.1408 2.40961V2.46579Z" fill="#682AEE"/>
<path d="M63.5715 7.74531C64.2065 8.19465 64.7004 8.75632 65.1943 9.31801L65.3354 7.46445C64.7709 6.8466 64.2065 6.28492 63.5715 5.83557V7.80149V7.74531Z" fill="#4C00EF"/>
<path d="M65.2647 9.31816C65.6175 9.65516 65.8998 10.0483 66.182 10.4415L66.3936 8.64412C66.1114 8.25095 65.7586 7.80161 65.4764 7.4646L65.3353 9.31816H65.2647Z" fill="#4601E1"/>
<path d="M66.1105 10.4413C66.3927 10.8906 66.6749 11.2838 66.9571 11.7894L67.1688 10.0481C66.8866 9.54261 66.6043 9.09327 66.3221 8.64392L66.1105 10.4413Z" fill="#4100CC"/>
<path d="M66.958 11.7893C67.2402 12.2948 67.4518 12.8004 67.6635 13.362L67.9457 11.7332C67.7341 11.1715 67.4518 10.6098 67.1696 10.0481L66.958 11.7893Z" fill="#21037D"/>
<path d="M67.6627 13.3623C67.8743 13.9801 68.086 14.598 68.2976 15.272L68.5798 13.7555C68.3682 13.0814 68.1565 12.3512 67.9449 11.7334L67.6627 13.3623Z" fill="#230381"/>
<path d="M68.2979 15.2718C68.5095 16.0581 68.6507 16.8445 68.7212 17.687L69.074 16.2828C69.0034 15.3841 68.7917 14.5416 68.5801 13.6991L68.2979 15.2157V15.2718Z" fill="#230381"/>
<path d="M68.7217 17.6875C68.7923 18.4739 68.8628 19.3164 68.8628 20.1589L69.2156 18.867C69.2156 17.9683 69.2156 17.0697 69.0745 16.2272L68.7217 17.6314V17.6875Z" fill="#1A0369"/>
</g>
<mask id="mask18_41_16841" style="mask-type:luminance" maskUnits="userSpaceOnUse" x="34" y="0" width="27" height="6">
<path d="M39.9337 5.61055L34.7127 3.19532C42.4737 -0.399433 49.8819 -0.961088 55.3852 1.51031L60.6062 3.92553C55.0324 1.39797 47.6947 2.01579 39.9337 5.61055Z" fill="white"/>
</mask>
<g mask="url(#mask18_41_16841)">
<path d="M34.7127 3.19499L39.9337 5.61021C40.4276 5.38554 40.992 5.1609 41.4859 4.93622L36.2648 2.521C35.7709 2.74567 35.2066 2.97031 34.7127 3.19499Z" fill="#4C00EF"/>
<path d="M36.2643 2.52161L41.4854 4.93683C42.2615 4.59983 42.967 4.31898 43.7431 4.0943L38.5221 1.67908C37.746 1.95992 37.0404 2.24077 36.2643 2.52161Z" fill="#4601E1"/>
<path d="M38.4519 1.67849L43.673 4.09372C44.3079 3.86905 44.943 3.70055 45.5074 3.53205L40.2863 1.11682C39.6513 1.28533 39.0869 1.45382 38.4519 1.67849Z" fill="#4100CC"/>
<path d="M40.357 1.11705L45.578 3.53228C46.1424 3.36377 46.6363 3.25144 47.2008 3.1391L41.9797 0.723877C41.4859 0.836213 40.9214 1.00472 40.357 1.11705Z" fill="#21037D"/>
<path d="M41.9089 0.667332L47.1299 3.08256C47.6238 2.97022 48.1177 2.85787 48.541 2.8017L43.32 0.386475C42.8261 0.442643 42.3322 0.554996 41.9089 0.667332Z" fill="#230381"/>
<path d="M43.3903 0.386988L48.6113 2.80222C49.0347 2.74605 49.5286 2.63375 49.9519 2.57758L44.7309 0.162354C44.3075 0.162354 43.8136 0.274652 43.3903 0.386988Z" fill="#230381"/>
<path d="M44.7305 0.218396L49.9515 2.63362C50.3748 2.63362 50.7981 2.52131 51.2215 2.52131L46.0005 0.106079C45.5771 0.106079 45.1538 0.162228 44.801 0.218396H44.7305Z" fill="#1A0369"/>
<path d="M45.9309 0.0499544L51.1519 2.46518C51.5752 2.46518 51.928 2.46517 52.2808 2.409L47.0598 -0.00622559C46.707 -0.00622559 46.2836 -0.00621359 45.8603 0.0499544H45.9309Z" fill="#290293"/>
<path d="M47.1301 -0.00622559L52.3512 2.409C52.704 2.409 53.1273 2.409 53.48 2.409L48.259 -0.00622559C47.9063 -0.00622559 47.5535 -0.00622559 47.1301 -0.00622559Z" fill="#27028D"/>
<path d="M48.1874 -0.00622559L53.4085 2.409C53.7612 2.409 54.114 2.409 54.4668 2.409L49.2458 -0.00622559C48.893 -0.00622559 48.5402 -0.00622559 48.1874 -0.00622559Z" fill="#250388"/>
<path d="M49.3177 0.0499268L54.5388 2.46515C54.5388 2.46515 55.2443 2.46518 55.5971 2.57751L50.376 0.162287C50.376 0.162287 49.6705 0.106095 49.3177 0.0499268Z" fill="#1D0372"/>
<path d="M50.3045 0.162354L55.5256 2.57758C55.5256 2.57758 56.2311 2.68991 56.5133 2.74608L51.2923 0.330851C51.2923 0.330851 50.6573 0.218522 50.3045 0.162354Z" fill="#1C036F"/>
<path d="M51.3641 0.27478L56.5852 2.69001C56.5852 2.69001 57.2201 2.80235 57.5729 2.91469L52.3519 0.499458C52.3519 0.499458 51.7168 0.330948 51.3641 0.27478Z" fill="#250386"/>
<path d="M52.3509 0.499023L57.5719 2.91425C57.5719 2.91425 58.2069 3.08273 58.5596 3.19507L53.3386 0.779881C53.3386 0.779881 52.7036 0.61136 52.3509 0.499023Z" fill="#1E0374"/>
<path d="M53.2674 0.780151L58.4884 3.19534C58.4884 3.19534 59.1234 3.42004 59.4762 3.53237L54.2552 1.11715C54.2552 1.11715 53.6202 0.892487 53.2674 0.780151Z" fill="#1C036E"/>
<path d="M54.2562 1.06055L59.4772 3.47577C59.4772 3.47577 60.1122 3.70044 60.3944 3.86895L55.1734 1.45372C55.1734 1.45372 54.5384 1.17288 54.2562 1.06055Z" fill="#1A0369"/>
<path d="M55.1727 1.4541L60.3937 3.86933C60.3937 3.86933 60.5348 3.86934 60.6054 3.92551L55.3844 1.51028C55.3844 1.51028 55.2432 1.51027 55.1727 1.4541Z" fill="#1B036D"/>
</g>
<mask id="mask19_41_16841" style="mask-type:luminance" maskUnits="userSpaceOnUse" x="7" y="9" width="18" height="25">
<path d="M7.26718 33.414C7.26718 33.414 7.26718 33.414 7.26718 33.3578C7.26718 33.3578 7.26718 33.3578 7.26718 33.3016C7.26718 33.3016 7.26718 33.1893 7.26718 33.1331C7.26718 33.0208 7.33777 32.9085 7.40832 32.74C8.74886 28.6959 10.936 24.5394 13.8288 20.5515C16.792 16.4512 20.3198 12.8003 24.1298 9.82339C24.3414 9.65489 24.6236 9.48639 24.8353 9.26172C20.7431 12.4633 17.0743 16.2827 13.8993 20.6077C10.8655 24.8203 8.53719 29.2014 7.1261 33.4702L7.26718 33.414Z" fill="white"/>
</mask>
<g mask="url(#mask19_41_16841)">
<path d="M7.26742 33.4141C7.26742 33.4141 7.47909 32.8525 7.54964 32.5716L7.76135 31.8976C7.76135 31.8976 7.54968 32.4031 7.47912 32.6839L7.1969 33.4141H7.26742Z" fill="#00256D"/>
<path d="M7.55002 32.5714C8.18501 30.774 8.96112 29.0328 9.87833 27.2355L10.0195 26.8423C9.17282 28.5273 8.39668 30.2123 7.83224 31.8974L7.62059 32.5714H7.55002Z" fill="#002671"/>
<path d="M10.0183 26.8419L9.87717 27.2351C10.7238 25.6062 11.7116 23.9773 12.7699 22.3484V22.1799C11.7116 23.6965 10.7944 25.2692 10.0183 26.8419Z" fill="#002876"/>
<path d="M13.9702 20.4394C13.5468 21.0011 13.1235 21.5628 12.7708 22.1806V22.3491C13.1941 21.7313 13.6174 21.1134 14.1113 20.5517C14.9579 19.4284 15.8046 18.305 16.7218 17.2378L16.4396 17.3502C15.5929 18.3612 14.7463 19.4284 13.9702 20.4955V20.4394Z" fill="#00297A"/>
<path d="M16.3693 17.3496L16.6515 17.2372C18.7681 14.7097 21.0964 12.4068 23.5659 10.3848L22.9308 10.8341C20.6025 12.8 18.4154 14.9905 16.4398 17.3496H16.3693Z" fill="#002B7E"/>
<path d="M22.9304 10.8343L23.5654 10.385C24.0593 9.99179 24.4826 9.59862 24.9764 9.20544L24.2709 9.76712C23.8476 10.1041 23.3537 10.4973 22.9304 10.8905V10.8343Z" fill="#1B036C"/>
</g>
<path d="M60.7471 6.00353C55.5261 3.64448 48.5412 4.20619 41.133 7.57628C33.7247 11.0025 26.8104 16.7878 21.5894 23.9773C16.3684 31.1668 13.5462 38.8619 13.5462 45.602V50.0955L24.4115 45.0965V40.6031C24.4115 36.5028 26.1049 31.7847 29.2798 27.4036C32.4548 23.0225 36.6881 19.4839 41.2035 17.4057C50.5167 13.1369 58.0661 16.5631 58.1366 25.1007V29.5941L68.9315 24.6514V20.1579C68.9315 13.3616 65.9682 8.36262 60.7471 5.9474V6.00353Z" fill="url(#paint1_linear_41_16841)"/>
<mask id="mask20_41_16841" style="mask-type:luminance" maskUnits="userSpaceOnUse" x="5" y="3" width="35" height="43">
<path d="M10.7951 45.7706L5.57404 43.3553C5.57404 36.222 8.53736 28.0776 14.0406 20.495C19.5439 12.9123 26.8815 6.73378 34.7131 3.19519L39.9341 5.61042C32.1026 9.20517 24.8354 15.3275 19.2616 22.9102C13.7584 30.4929 10.7245 38.5811 10.7951 45.7706Z" fill="white"/>
</mask>
<g mask="url(#mask20_41_16841)">
<path d="M5.57401 43.3556L10.795 45.7708C10.795 45.3776 10.795 44.9283 10.795 44.5351L5.57401 42.1199C5.57401 42.513 5.57401 42.9624 5.57401 43.3556Z" fill="#1D0372"/>
<path d="M5.57401 42.1199L10.795 44.5351C10.795 43.6364 10.9361 42.6816 11.0773 41.7829L5.85623 39.3677C5.71512 40.3225 5.64456 41.2212 5.57401 42.1199Z" fill="#250388"/>
<path d="M5.85648 39.3672L11.0775 41.7824C11.2186 40.9399 11.3597 40.0974 11.5714 39.1987L6.35036 36.7834C6.13869 37.626 5.99758 38.5247 5.85648 39.3672Z" fill="#27028D"/>
<path d="M6.35086 36.7839L11.5719 39.1991C11.7835 38.3566 11.9952 37.5702 12.2069 36.7277L6.98588 34.3125C6.70366 35.155 6.49197 35.9976 6.35086 36.7839Z" fill="#290293"/>
<path d="M6.98505 34.3119L12.2061 36.7272C12.4883 35.8846 12.7 35.0983 13.0527 34.2558L7.83167 31.8406C7.54945 32.6831 7.26726 33.4694 6.98505 34.3119Z" fill="#1A0369"/>
<path d="M7.83228 31.8973L13.0534 34.3125C13.3356 33.47 13.6883 32.6837 14.0411 31.8411L8.82003 29.4259C8.46726 30.2684 8.11449 31.0547 7.83228 31.8973Z" fill="#230381"/>
<path d="M8.81931 29.4254L14.0404 31.8406C14.3932 30.9981 14.8165 30.2117 15.2398 29.3692L10.0188 26.954C9.59545 27.7965 9.17208 28.5829 8.81931 29.4254Z" fill="#230381"/>
<path d="M10.0182 26.9544L15.2392 29.3696C15.6625 28.5833 16.0859 27.7969 16.5797 27.0106L11.3587 24.5953C10.8648 25.3817 10.4415 26.168 10.0182 26.9544Z" fill="#21037D"/>
<path d="M11.3603 24.6517L16.5813 27.0669C17.0047 26.3367 17.428 25.6627 17.9218 24.9326L12.7008 22.5173C12.2069 23.1914 11.7836 23.9216 11.3603 24.6517Z" fill="#4100CC"/>
<path d="M12.7002 22.5167L17.9212 24.932C18.3445 24.3141 18.7679 23.6401 19.2617 23.0223L14.0407 20.6071C13.6174 21.2249 13.1235 21.8427 12.7002 22.5167Z" fill="#4601E1"/>
<path d="M14.0403 20.4951C14.0403 20.4951 14.0403 20.5513 13.9698 20.6074L19.1908 23.0227C19.1908 23.0227 19.1908 22.9665 19.2613 22.9103C19.6847 22.3486 20.108 21.787 20.5313 21.2253L15.3103 18.8101C14.887 19.3717 14.4637 19.9334 14.0403 20.4951Z" fill="#4C00EF"/>
<path d="M15.3099 18.8096L20.5309 21.2248C21.0248 20.607 21.4481 20.0453 21.942 19.4836L16.721 17.0684C16.2271 17.63 15.7332 18.2479 15.3099 18.8096Z" fill="#682AEE"/>
<path d="M16.7931 17.0685L22.0141 19.4838C22.5785 18.8097 23.143 18.1357 23.7779 17.5179L18.5569 15.1027C17.9219 15.7205 17.3575 16.3945 16.7931 17.0685Z" fill="#6528EB"/>
<path d="M18.4863 15.1027L23.7073 17.5179C25.3301 15.7767 27.094 14.1478 28.8578 12.6313L23.6368 10.2161C21.8729 11.7326 20.1091 13.3615 18.4863 15.1027Z" fill="#6832E1"/>
<path d="M23.6365 10.2161L28.8575 12.6313C30.057 11.6203 31.3269 10.6655 32.5969 9.82294L27.3759 7.40771C26.1059 8.3064 24.8359 9.26126 23.6365 10.2161Z" fill="#6528EB"/>
<path d="M27.3761 7.40768L32.5971 9.82291C34.5021 8.53105 36.407 7.35154 38.4531 6.34052L33.2321 3.92529C31.2565 4.93632 29.281 6.11582 27.3761 7.40768Z" fill="#682AEE"/>
<path d="M33.2312 3.9254L38.4523 6.34063C38.9462 6.11596 39.4401 5.83509 39.9339 5.61042L34.7129 3.19519C34.219 3.41986 33.7251 3.64456 33.2312 3.9254Z" fill="#4C00EF"/>
</g>
<mask id="mask21_41_16841" style="mask-type:luminance" maskUnits="userSpaceOnUse" x="10" y="5" width="32" height="41">
<path d="M13.5468 45.6585L10.7951 45.827C10.7951 38.6937 13.7585 30.5493 19.2617 22.9666C24.765 15.3839 32.1026 9.20546 39.9342 5.66687L41.1336 7.63274C33.7254 11.059 26.8111 16.8443 21.59 24.0338C16.369 31.2233 13.5468 38.9184 13.5468 45.6585Z" fill="white"/>
</mask>
<g mask="url(#mask21_41_16841)">
<path d="M10.7949 45.771L13.5466 45.6025V45.2094L10.7949 45.3217V45.7149V45.771Z" fill="#8666DC"/>
<path d="M10.7949 45.3772L13.5466 45.2649C13.5466 45.2649 13.5466 44.8155 13.5466 44.5908L10.7949 44.7032C10.7949 44.7032 10.7949 45.2087 10.7949 45.4333V45.3772Z" fill="#8F6BEF"/>
<path d="M10.7949 44.6478L13.5466 44.5354C13.5466 44.5354 13.5466 44.0861 13.5466 43.8615H10.7949C10.7949 44.1423 10.7949 44.3669 10.7949 44.5916V44.6478Z" fill="#9573F2"/>
<path d="M10.8657 43.9732H13.6173C13.6173 43.9732 13.6173 43.4677 13.6173 43.243H10.8657C10.8657 43.243 10.8657 43.7485 10.8657 43.9732Z" fill="#9A79EF"/>
<path d="M10.9362 43.243H13.6879C13.6879 43.243 13.6879 42.7936 13.6879 42.569H10.9362C10.9362 42.569 10.9362 43.0183 10.8657 43.243H10.9362Z" fill="#9974FA"/>
<path d="M11.0067 42.569H13.7583C13.7583 42.569 13.7583 42.1758 13.8289 41.9512H11.0772C11.0772 41.9512 11.0773 42.3444 11.0067 42.569Z" fill="#9D7EF0"/>
<path d="M11.0772 41.895H13.8289C13.8289 41.895 13.8289 41.5018 13.8994 41.2772L11.1478 41.1648C11.1478 41.1648 11.0773 41.6142 11.0067 41.8388L11.0772 41.895Z" fill="#9D7EEB"/>
<path d="M11.2188 41.1647L13.9704 41.2771C13.9704 41.2771 14.0409 40.8277 14.1115 40.603L11.4304 40.4907C11.4304 40.4907 11.3599 40.9962 11.2894 41.2209L11.2188 41.1647Z" fill="#B8A0F8"/>
<path d="M11.2893 40.4352L13.9703 40.5475C13.9703 40.5475 14.0409 40.042 14.1114 39.8173L11.4304 39.6488C11.4304 39.6488 11.2893 40.1543 11.2893 40.4352Z" fill="#A08CD7"/>
<path d="M11.5011 39.7049L14.1822 39.8735C14.1822 39.8735 14.3233 39.3679 14.3233 39.0871L11.6422 38.8624C11.6422 38.8624 11.5011 39.4241 11.4306 39.7049H11.5011Z" fill="#B09AEB"/>
<path d="M11.6424 38.8622L14.3234 39.0869C14.3234 38.806 14.4646 38.5252 14.5352 38.2444L11.8541 37.9635C11.7835 38.2443 11.7129 38.5814 11.6424 38.8622Z" fill="#AB91EF"/>
<path d="M11.8527 37.9631L14.5338 38.2439C14.6044 37.9069 14.7455 37.5699 14.8161 37.2329L12.1349 36.8959C11.9938 37.2329 11.9233 37.6261 11.8527 37.9631Z" fill="#B49DF2"/>
<path d="M12.2056 36.8965L14.8866 37.2335C15.0277 36.7842 15.1689 36.2787 15.31 35.8293L12.6994 35.4362C12.5583 35.9417 12.3467 36.4472 12.2056 36.8965Z" fill="#B091F3"/>
<path d="M12.6294 35.4358L15.24 35.829C16.2277 33.0206 17.5683 30.2122 19.2616 27.4038L16.8627 26.5613C15.0283 29.5382 13.6172 32.5151 12.6294 35.4358Z" fill="#B194F5"/>
<path d="M19.2623 22.9667C18.4156 24.1463 17.6395 25.3258 16.8634 26.5615L19.2623 27.404C19.9678 26.2807 20.7439 25.1011 21.52 24.0339C21.52 23.9778 21.5905 23.8654 21.6611 23.8093L19.4033 22.7421C19.4033 22.7421 19.2623 22.9106 19.2623 22.9667Z" fill="#B091F3"/>
<path d="M19.4732 22.742L21.7309 23.8092C22.4364 22.7982 23.2126 21.8433 24.0592 20.8884L21.872 19.6527C21.0254 20.6637 20.1787 21.6748 19.4026 22.742H19.4732Z" fill="#B194F5"/>
<path d="M21.8725 19.6527L24.0597 20.8885C24.6241 20.2144 25.1886 19.5966 25.753 18.9788L23.7069 17.6307C23.0719 18.3048 22.5075 18.9787 21.943 19.6527H21.8725Z" fill="#A38FE5"/>
<path d="M23.7068 17.6305L25.7529 18.9786C27.6579 16.9565 29.6334 15.103 31.75 13.4179L30.0567 11.7891C27.799 13.5303 25.6823 15.4962 23.7068 17.6305Z" fill="#B19FEF"/>
<path d="M30.0559 11.7331L31.7492 13.362C32.1725 13.025 32.5958 12.688 33.0192 12.351L31.3964 10.6659C30.9731 11.0029 30.4792 11.3399 30.0559 11.7331Z" fill="#A38FE5"/>
<path d="M31.3963 10.6659L33.019 12.3509C33.019 12.3509 33.7246 11.8454 34.0068 11.6207L32.3841 9.87952C32.0313 10.1604 31.6785 10.385 31.3257 10.6659H31.3963Z" fill="#B194F5"/>
<path d="M32.5261 9.93575L34.1488 11.6769C34.1488 11.6769 34.7133 11.2838 35.066 11.0591L33.5138 9.26172C33.5138 9.26172 32.8788 9.6549 32.5966 9.87957L32.5261 9.93575Z" fill="#B091F3"/>
<path d="M33.4426 9.26184L34.9947 11.0592C34.9947 11.0592 35.5592 10.7222 35.7708 10.5537L34.2892 8.75635C34.2892 8.75635 33.7248 9.14952 33.4426 9.31802V9.26184Z" fill="#B49DF2"/>
<path d="M34.2898 8.69949L35.7715 10.4969C35.7715 10.4969 36.2653 10.1599 36.5476 9.99137L35.0659 8.13782C35.0659 8.13782 34.5015 8.47481 34.2193 8.64331L34.2898 8.69949Z" fill="#AB91EF"/>
<path d="M35.0653 8.19447L36.5469 10.048C36.5469 10.048 37.0408 9.76718 37.2525 9.59867L35.8414 7.74512C35.8414 7.74512 35.3475 8.02597 35.0653 8.19447Z" fill="#B09AEB"/>
<path d="M35.8421 7.74535L37.2531 9.5989C37.2531 9.5989 37.747 9.31806 37.9587 9.20573L36.5476 7.35217C36.5476 7.35217 36.0537 7.63302 35.7715 7.80153L35.8421 7.74535Z" fill="#A08CD7"/>
<path d="M36.617 7.35182L38.028 9.20538C38.028 9.20538 38.522 8.92449 38.7336 8.81216L37.3931 6.90247C37.3931 6.90247 36.8992 7.1833 36.617 7.29564V7.35182Z" fill="#B8A0F8"/>
<path d="M37.3234 6.9027L38.664 8.81239C38.664 8.81239 39.1578 8.53155 39.3695 8.41921L38.0995 6.50952C38.0995 6.50952 37.6056 6.79036 37.3234 6.9027Z" fill="#9D7EEB"/>
<path d="M38.1002 6.50902L39.3702 8.41871C39.3702 8.41871 39.864 8.19404 40.0757 8.02554L38.8057 6.11584C38.8057 6.11584 38.3118 6.39668 38.0296 6.50902H38.1002Z" fill="#9D7EF0"/>
<path d="M38.8756 6.11632L40.1456 8.02601C40.1456 8.02601 40.6395 7.80135 40.9217 7.68902L39.7223 5.72314C39.7223 5.72314 39.2284 5.94781 38.9462 6.11632H38.8756Z" fill="#9974FA"/>
<path d="M39.6523 5.72296L40.8517 7.68883C40.8517 7.68883 40.9928 7.63268 41.134 7.57651L39.9345 5.6106C39.9345 5.6106 39.7229 5.72296 39.6523 5.72296Z" fill="#9A79EF"/>
</g>
<path d="M46.1429 72.3946L47.2718 72.9001L48.5417 72.3384L47.4128 71.7767L46.1429 72.3946Z" fill="#A6A6A6"/>
<path d="M43.0373 85.9868L53.691 81.1001L42.9667 76.2135L43.0373 85.9868Z" fill="url(#paint2_linear_41_16841)"/>
<path d="M41.8384 75.7081L42.9673 76.2136L53.6915 81.1003L52.5627 80.5386L41.8384 75.7081Z" fill="#838383"/>
<path d="M41.8384 75.7081L41.9089 85.4814L43.0378 85.9869L42.9673 76.2136L41.8384 75.7081Z" fill="#8F8F8F"/>
<path d="M45.4369 65.6539L47.4124 71.7763L48.5413 72.3379L46.5658 66.2156L45.4369 65.6539Z" fill="#868686"/>
<path d="M46.5648 66.2159L48.5403 72.3383L47.2703 72.8999L59.4762 78.4044L65.6851 75.5398C66.8139 75.0343 67.8722 74.248 68.7894 73.3493L48.117 63.9692L46.4942 66.2159H46.5648Z" fill="url(#paint3_linear_41_16841)"/>
<path d="M45.4369 65.6538L46.5658 66.2155L48.1885 63.9688L46.9891 63.4633L45.4369 65.6538Z" fill="#A8A8A8"/>
<path d="M46.9886 63.4633L48.188 63.9688L68.7899 73.3488L67.6611 72.8433L46.9886 63.4633Z" fill="#838383"/>
<mask id="mask22_41_16841" style="mask-type:luminance" maskUnits="userSpaceOnUse" x="64" y="33" width="6" height="3">
<path d="M68.8605 34.1999C69.2132 34.3684 69.6366 34.5369 69.9894 34.7054C68.8605 34.1999 67.2377 34.2561 65.5444 35.0425L64.4156 34.5369C66.1794 33.7506 67.7316 33.6383 68.8605 34.1999Z" fill="white"/>
</mask>
<g mask="url(#mask22_41_16841)">
<path d="M64.4156 34.5372L65.5444 35.0427C65.5444 35.0427 65.8972 34.8742 66.0383 34.818L64.9094 34.3125C64.9094 34.3125 64.5567 34.4248 64.4156 34.5372Z" fill="#999999"/>
<path d="M64.9099 34.3127L66.0388 34.8183C66.4621 34.6498 66.956 34.5374 67.3088 34.4251L66.1799 33.9196C65.7566 33.9757 65.3333 34.1442 64.9099 34.3127Z" fill="#949494"/>
<path d="M66.2498 33.9756L67.3787 34.4811C67.802 34.425 68.1548 34.3688 68.5076 34.3688L67.3787 33.8633C67.0259 33.8633 66.6731 33.8633 66.2498 33.9756Z" fill="#8F8F8F"/>
<path d="M67.3781 33.8633L68.507 34.3688C68.9303 34.3688 69.2831 34.4249 69.6359 34.5373L68.507 34.0318C68.507 34.0318 67.8015 33.8633 67.3781 33.8633Z" fill="#8A8A8A"/>
<path d="M68.5079 34.032L69.6368 34.5375C69.6368 34.5375 69.919 34.6498 70.0602 34.706L68.9313 34.2005C68.9313 34.2005 68.6491 34.0882 68.5079 34.032Z" fill="#858585"/>
</g>
<path d="M65.5448 35.099L62.9344 36.2786L71.8242 40.3226V37.9636C71.8242 34.762 69.002 33.5263 65.5448 35.099Z" fill="url(#paint4_linear_41_16841)"/>
<path d="M61.8058 35.7161L62.9347 36.2779L65.5452 35.0983L64.4163 34.5366L61.8058 35.7161Z" fill="#A6A6A6"/>
<mask id="mask23_41_16841" style="mask-type:luminance" maskUnits="userSpaceOnUse" x="45" y="55" width="4" height="4">
<path d="M45.8603 55.8807L46.9892 56.3862C47.9064 56.8356 48.4708 57.6781 48.6119 58.9138L47.4831 58.4083C47.4125 57.1726 46.7775 56.3301 45.8603 55.8807Z" fill="white"/>
</mask>
<g mask="url(#mask23_41_16841)">
<path d="M46.9892 56.3862L45.8603 55.8807C46.7775 56.3301 47.342 57.1726 47.4831 58.4083L48.6119 58.9138C48.5414 57.6781 47.9064 56.8356 46.9892 56.3862Z" fill="#858585"/>
</g>
<path d="M56.0199 38.4126L57.1488 38.9181L71.8947 45.6021L70.7658 45.0404L56.0199 38.4126Z" fill="#838383"/>
<path d="M57.1485 38.9178L46.9886 43.636L71.8944 54.9258V45.6019L57.1485 38.9178Z" fill="url(#paint5_linear_41_16841)"/>
<path d="M45.8603 43.0746L46.9892 43.6362L57.1491 38.9181L56.0202 38.4126L45.8603 43.0746Z" fill="#A6A6A6"/>
<path d="M41.768 46.5011L42.8969 47.0066L71.9654 60.2061L70.7659 59.6444L41.768 46.5011Z" fill="#838383"/>
<path d="M42.896 47.0065V56.3304L43.4604 56.555C46.2826 55.4317 48.4698 56.4427 48.6814 58.9141L71.6117 69.3052C71.8939 68.5188 72.1055 67.6763 72.1055 66.9461V60.2059L43.0371 47.0065H42.896Z" fill="url(#paint6_linear_41_16841)"/>
<path d="M41.768 46.5011V55.825L42.8969 56.3305V47.0066L41.768 46.5011Z" fill="#8F8F8F"/>
<defs>
<linearGradient id="paint0_linear_41_16841" x1="8.04257" y1="67.452" x2="74.7166" y2="67.452" gradientUnits="userSpaceOnUse">
<stop stop-color="#CCCCCC"/>
<stop offset="0.02" stop-color="#D3D3D3"/>
<stop offset="0.1" stop-color="#E6E6E6"/>
<stop offset="0.19" stop-color="#F4F4F4"/>
<stop offset="0.3" stop-color="#FCFCFC"/>
<stop offset="0.5" stop-color="white"/>
<stop offset="0.64" stop-color="#FAFAFA"/>
<stop offset="0.78" stop-color="#EDEDED"/>
<stop offset="0.93" stop-color="#D8D8D8"/>
<stop offset="1" stop-color="#CCCCCC"/>
</linearGradient>
<linearGradient id="paint1_linear_41_16841" x1="13.5462" y1="27.3474" x2="68.9315" y2="27.3474" gradientUnits="userSpaceOnUse">
<stop stop-color="#CCCCCC"/>
<stop offset="0.5" stop-color="white"/>
<stop offset="1" stop-color="#CCCCCC"/>
</linearGradient>
<linearGradient id="paint2_linear_41_16841" x1="42.9667" y1="81.1001" x2="53.691" y2="81.1001" gradientUnits="userSpaceOnUse">
<stop stop-color="#4C00F0"/>
<stop offset="1" stop-color="#1C0370"/>
</linearGradient>
<linearGradient id="paint3_linear_41_16841" x1="46.5648" y1="71.2149" x2="68.7894" y2="71.2149" gradientUnits="userSpaceOnUse">
<stop stop-color="#4E00F7"/>
<stop offset="1" stop-color="#1C036E"/>
</linearGradient>
<linearGradient id="paint4_linear_41_16841" x1="62.9344" y1="37.3457" x2="71.8947" y2="37.3457" gradientUnits="userSpaceOnUse">
<stop stop-color="#4D00F2"/>
<stop offset="1" stop-color="#1C036E"/>
</linearGradient>
<linearGradient id="paint5_linear_41_16841" x1="46.9886" y1="46.9499" x2="71.8944" y2="46.9499" gradientUnits="userSpaceOnUse">
<stop stop-color="#4D00F2"/>
<stop offset="1" stop-color="#1C036E"/>
</linearGradient>
<linearGradient id="paint6_linear_41_16841" x1="42.896" y1="58.1839" x2="71.9644" y2="58.1839" gradientUnits="userSpaceOnUse">
<stop stop-color="#4A00EB"/>
<stop offset="1" stop-color="#21037C"/>
</linearGradient>
</defs>
</svg>
