<svg width="75" height="105" viewBox="0 0 75 105" fill="none" xmlns="http://www.w3.org/2000/svg">
<mask id="mask0_41_22153" style="mask-type:luminance" maskUnits="userSpaceOnUse" x="63" y="2" width="2" height="1">
<path d="M64.132 2.66467C64.132 2.66467 64.0619 2.79789 63.9919 2.8645L64.132 2.66467Z" fill="white"/>
</mask>
<g mask="url(#mask0_41_22153)">
<path d="M63.9919 2.86455L64.0636 2.73132L63.9919 2.86455Z" fill="#002876"/>
<path d="M64.062 2.73127L64.1338 2.66467L64.062 2.73127Z" fill="#002876"/>
</g>
<mask id="mask1_41_22153" style="mask-type:luminance" maskUnits="userSpaceOnUse" x="39" y="3" width="36" height="102">
<path d="M70.7876 6.59475L70.157 3.46399C75.4122 7.26086 74.9918 17.1194 74.9918 26.5117C74.9918 48.3603 67.5644 67.0116 59.3661 80.667C51.238 94.2558 42.4091 102.849 39.9566 104.581L40.7975 103.448C42.8996 102.049 51.308 93.8562 59.226 80.667C67.1439 67.4779 74.4312 49.4261 74.3612 28.1103C74.3612 18.7847 74.7816 9.45905 70.7876 6.66135V6.59475Z" fill="white"/>
</mask>
<g mask="url(#mask1_41_22153)">
<path d="M70.1572 3.46382L70.7878 6.59458C71.2082 6.86103 71.5586 7.19407 71.8388 7.59374L71.5586 4.72943C71.1381 4.26315 70.6477 3.79689 70.1572 3.39722V3.46382Z" fill="#682AEE"/>
<path d="M71.5587 4.7959L71.8389 7.66021C71.8389 7.66021 72.2593 8.25971 72.4695 8.59277V5.92829C72.1192 5.52862 71.909 5.12896 71.5587 4.7959Z" fill="#4C00EF"/>
<path d="M72.4702 8.59307C72.4702 8.59307 72.7506 9.12597 72.8907 9.45903V6.92778C72.8206 6.59472 72.6104 6.26165 72.4002 5.92859V8.59307H72.4702Z" fill="#4601E1"/>
<path d="M72.8192 9.45911C73.0294 9.92539 73.1695 10.3917 73.3097 10.9246L73.59 8.59315C73.3798 7.99364 73.1696 7.46075 72.8893 6.92786V9.45911H72.8192Z" fill="#4100CC"/>
<path d="M73.31 10.9245C73.7304 12.5898 74.0107 14.5882 74.1508 16.7864L74.7114 14.9213C74.5011 12.5899 74.1508 10.4583 73.5903 8.59314L73.31 10.9245Z" fill="#21037D"/>
<path d="M74.7118 14.9208L74.1512 16.7859C74.3615 20.2498 74.2914 24.1798 74.2914 28.0433C74.2914 31.7736 74.0812 35.3706 73.6608 38.8344L74.2914 37.5688C74.7118 33.9718 74.922 30.2415 74.922 26.4447C74.922 22.5146 74.922 18.4512 74.7118 14.7876V14.9208Z" fill="#230381"/>
<path d="M71.3478 51.6243L71.9084 50.7584C72.9595 46.5618 73.8003 42.1655 74.2908 37.6359L73.6602 38.9015C73.1697 43.3645 72.3288 47.6276 71.3478 51.691V51.6243Z" fill="#230381"/>
<path d="M66.7239 65.6126L67.1444 65.1463C68.9662 60.6167 70.6479 55.8207 71.9092 50.7582L71.3486 51.6241C70.0873 56.5534 68.4757 61.2829 66.7239 65.6126Z" fill="#1A0369"/>
<path d="M59.2264 80.6005C52.85 91.2583 46.1232 98.6522 42.6898 101.85L42.0592 102.849C45.7729 99.385 52.85 91.658 59.4366 80.6671C62.1693 76.0709 64.9021 70.8751 67.2144 65.2131L66.794 65.6794C64.5517 71.2082 61.9591 76.2041 59.2264 80.6671V80.6005Z" fill="#290293"/>
<path d="M40.237 104.314C40.6574 103.981 41.288 103.515 41.9888 102.849L42.6194 101.85C41.9888 102.449 41.4282 102.915 41.0078 103.182L40.1669 104.314H40.237Z" fill="#1A0369"/>
<path d="M39.9566 104.581C39.9566 104.581 40.1668 104.447 40.2369 104.381L41.0778 103.248C41.0778 103.248 40.9376 103.382 40.7975 103.448L39.9566 104.581Z" fill="#230381"/>
</g>
<mask id="mask2_41_22153" style="mask-type:luminance" maskUnits="userSpaceOnUse" x="57" y="0" width="14" height="7">
<path d="M62.6597 6.26153C62.6597 6.26153 62.3094 6.06169 62.1693 5.99508C60.7678 5.19573 59.3664 4.46299 57.965 3.66365C59.1562 4.32977 60.7679 4.19656 62.5196 3.26399C63.5707 2.66449 64.5517 1.86514 65.4626 0.865967L70.0872 3.46382C69.2464 4.39639 68.1953 5.26233 67.1443 5.79522C65.3925 6.7944 63.7809 6.86102 62.5897 6.1949L62.6597 6.26153Z" fill="white"/>
</mask>
<g mask="url(#mask2_41_22153)">
<path d="M58.0352 3.66394L62.6598 6.26182H62.7299L58.0352 3.73057V3.66394Z" fill="#1B036D"/>
<path d="M58.0352 3.73059L62.6598 6.32845C62.6598 6.32845 62.8 6.32843 62.8701 6.39505L58.2454 3.79719C58.2454 3.79719 58.1053 3.7972 58.0352 3.73059Z" fill="#1A0369"/>
<path d="M58.2462 3.79651L62.8708 6.39436C62.8708 6.39436 63.011 6.39438 63.081 6.46099L58.4564 3.86313C58.4564 3.86313 58.3162 3.86312 58.2462 3.79651Z" fill="#1C036E"/>
<path d="M58.4565 3.92981L63.0812 6.52766C63.0812 6.52766 63.2213 6.52768 63.2914 6.59429L58.6667 3.99644C58.6667 3.99644 58.5266 3.99644 58.4565 3.99644V3.92981Z" fill="#1E0374"/>
<path d="M58.6668 3.99658L63.2915 6.59444C63.2915 6.59444 63.4316 6.59444 63.5017 6.59444L58.8771 3.99658C58.8771 3.99658 58.7369 3.99658 58.6668 3.99658Z" fill="#250386"/>
<path d="M58.8776 3.99658L63.5023 6.59444C63.5023 6.59444 63.6424 6.59444 63.7125 6.59444L59.0878 3.99658C59.0878 3.99658 58.9477 3.99658 58.8776 3.99658Z" fill="#1C036F"/>
<path d="M59.1562 4.06323L63.7808 6.66109C63.7808 6.66109 63.9209 6.66109 63.991 6.66109L59.3664 4.06323C59.3664 4.06323 59.2262 4.06323 59.1562 4.06323Z" fill="#1D0372"/>
<path d="M59.3667 4.06323L63.9913 6.66109C63.9913 6.66109 64.1315 6.66109 64.2015 6.66109L59.5769 4.06323C59.5769 4.06323 59.4368 4.06323 59.3667 4.06323Z" fill="#250388"/>
<path d="M59.5766 4.06323L64.2012 6.66109H64.4815L59.8569 4.06323C59.8569 4.06323 59.7167 4.06323 59.5766 4.06323Z" fill="#27028D"/>
<path d="M59.8575 4.06323L64.4821 6.66109C64.4821 6.66109 64.6223 6.66109 64.7624 6.66109L60.1378 4.06323C60.1378 4.06323 59.9976 4.06323 59.8575 4.06323Z" fill="#290293"/>
<path d="M60.0678 4.06323L64.6924 6.66109C64.6924 6.66109 64.9027 6.66109 64.9727 6.66109L60.3481 4.06323C60.3481 4.06323 60.1379 4.06323 60.0678 4.06323Z" fill="#1A0369"/>
<path d="M60.3483 4.06323L64.9729 6.66109C64.9729 6.66109 65.1831 6.66109 65.2532 6.66109L60.6286 4.06323C60.6286 4.06323 60.4183 4.06323 60.3483 4.06323Z" fill="#230381"/>
<path d="M60.6974 3.99644L65.322 6.59429C65.322 6.59429 65.5323 6.59428 65.6023 6.52766L60.9777 3.92981C60.9777 3.92981 60.7674 3.92982 60.6974 3.99644Z" fill="#230381"/>
<path d="M60.9781 3.92976L65.6027 6.52761C65.6027 6.52761 65.8129 6.461 65.953 6.39439L61.3284 3.86316C61.3284 3.86316 61.1182 3.92977 60.9781 3.99639V3.92976Z" fill="#21037D"/>
<path d="M61.3288 3.79712L65.9535 6.32837C65.9535 6.32837 66.2338 6.26176 66.3739 6.19514L61.7492 3.59729C61.7492 3.59729 61.469 3.73052 61.3288 3.73052V3.79712Z" fill="#4100CC"/>
<path d="M61.7497 3.66382L66.3744 6.2617C66.3744 6.2617 66.7248 6.12846 66.8649 6.06184L62.2402 3.46399C62.2402 3.46399 61.8899 3.5972 61.7497 3.66382Z" fill="#4601E1"/>
<path d="M62.5911 3.2637C62.5911 3.2637 62.3809 3.39691 62.2408 3.46352L66.8654 6.06138C66.8654 6.06138 67.0756 5.92816 67.2157 5.86155C67.2858 5.86155 67.426 5.72833 67.496 5.66172L62.8714 3.06384C62.8714 3.06384 62.6612 3.19708 62.5911 3.2637Z" fill="#4C00EF"/>
<path d="M62.8698 3.06379L67.4944 5.66167C67.9149 5.39522 68.3353 5.06214 68.7557 4.72908L64.1311 2.13123C63.7107 2.46428 63.2902 2.79734 62.8698 3.06379Z" fill="#682AEE"/>
<path d="M64.1328 2.19794L68.7574 4.7958C68.7574 4.7958 69.318 4.32951 69.5982 4.06306L64.9736 1.46521C64.9736 1.46521 64.413 1.99811 64.1328 2.19794Z" fill="#6528EB"/>
<path d="M64.9726 1.39885L69.5973 3.99673C69.5973 3.99673 69.9477 3.66366 70.0878 3.46382L65.4631 0.865967C65.4631 0.865967 65.1128 1.19901 64.9726 1.39885Z" fill="#6832E1"/>
</g>
<mask id="mask3_41_22153" style="mask-type:luminance" maskUnits="userSpaceOnUse" x="60" y="2" width="11" height="8">
<path d="M70.7186 6.32817C70.7186 6.32817 70.7186 6.52801 70.7186 6.59462C70.7186 6.59462 69.5274 7.5938 68.1961 8.25992C63.7817 10.6579 60.2081 8.79281 60.2081 8.85942L60.6986 2.5979C60.8387 6.32816 63.6416 7.72702 67.1451 5.86189C68.1961 5.26238 69.1771 4.46305 70.088 3.53049L70.6486 6.39477L70.7186 6.32817Z" fill="white"/>
</mask>
<g mask="url(#mask3_41_22153)">
<path d="M60.2779 8.85942L60.7684 2.73113C60.7684 2.73113 60.7684 2.66451 60.7684 2.5979L60.2779 8.85942Z" fill="#21037D"/>
<path d="M60.2779 8.85962L60.7684 2.86455C60.7684 2.86455 60.7684 2.79794 60.7684 2.73132L60.2779 8.85962Z" fill="#4100CC"/>
<path d="M60.348 8.85969L60.8385 2.99785C60.8385 2.99785 60.8385 2.93124 60.8385 2.86462L60.348 8.85969Z" fill="#4601E1"/>
<path d="M60.348 8.85989L60.8385 3.13127C60.8385 3.13127 60.8385 3.06466 60.8385 2.99805L60.348 8.85989Z" fill="#4C00EF"/>
<path d="M60.8385 3.13062L60.348 8.85923C60.348 8.85923 61.7494 9.52534 63.6413 9.52534V6.59443C62.0998 6.26137 61.0487 5.06236 60.8385 3.13062Z" fill="#682AEE"/>
<path d="M63.5011 6.59448V9.52539C63.9215 9.52539 64.2718 9.52539 64.6922 9.52539L64.3419 6.72771C64.3419 6.72771 63.7813 6.72769 63.5011 6.66108V6.59448Z" fill="#6528EB"/>
<path d="M64.3426 6.66108L64.6929 9.45879C64.6929 9.45879 65.1134 9.45879 65.3236 9.32556L64.9032 6.59448C64.9032 6.59448 64.5528 6.59448 64.4126 6.59448L64.3426 6.66108Z" fill="#6832E1"/>
<path d="M64.902 6.66108L65.3224 9.39216C65.3224 9.39216 65.6728 9.32555 65.8129 9.25894L65.2523 6.59448C65.2523 6.59448 64.9721 6.59448 64.8319 6.59448L64.902 6.66108Z" fill="#613DE0"/>
<path d="M65.3227 6.59441L65.8833 9.25886C65.8833 9.25886 66.1635 9.19225 66.3037 9.12564L65.673 6.46118C65.673 6.46118 65.4628 6.46117 65.3227 6.52778V6.59441Z" fill="#6D4AE6"/>
<path d="M65.6036 6.46104L66.2342 9.12549C66.2342 9.12549 66.4445 9.0589 66.5846 8.99229L65.8839 6.39441C65.8839 6.39441 65.7438 6.39442 65.6036 6.46104Z" fill="#8863E5"/>
<path d="M65.8843 6.39516L66.585 8.99304C66.585 8.99304 66.7952 8.92643 66.8653 8.85982L66.0945 6.26196C66.0945 6.26196 65.9543 6.26195 65.8142 6.32856L65.8843 6.39516Z" fill="#8466D7"/>
<path d="M66.0944 6.32854L66.8652 8.92639C66.8652 8.92639 67.0754 8.85978 67.1455 8.79317L66.3046 6.19531C66.3046 6.19531 66.1645 6.19533 66.0944 6.26194V6.32854Z" fill="#8666DC"/>
<path d="M66.3047 6.26194L67.1456 8.85979C67.1456 8.85979 67.2857 8.79318 67.4258 8.72657L66.5149 6.19531C66.5149 6.19531 66.3748 6.19533 66.3047 6.26194Z" fill="#8F6BEF"/>
<path d="M66.5134 6.19512L67.4243 8.72637C67.4243 8.72637 67.5644 8.65976 67.7046 8.59314L66.7937 6.06189C66.7937 6.06189 66.6535 6.0619 66.5835 6.12852L66.5134 6.19512Z" fill="#9573F2"/>
<path d="M66.7239 6.06184L67.6349 8.59309C67.6349 8.59309 67.775 8.52648 67.8451 8.45987L66.8641 5.99524C66.8641 5.99524 66.7239 5.99523 66.7239 6.06184Z" fill="#9A79EF"/>
<path d="M66.9342 5.99504L67.9152 8.45967C67.9152 8.45967 68.0554 8.39306 68.1254 8.32644L67.0744 5.86182C67.0744 5.86182 66.9342 5.86181 66.8642 5.92842L66.9342 5.99504Z" fill="#9974FA"/>
<path d="M67.2149 5.86182C67.2149 5.86182 67.1448 5.86181 67.0747 5.92842L68.1258 8.39307C68.1258 8.39307 68.2659 8.39306 68.2659 8.32644L67.2149 5.86182Z" fill="#9D7EF0"/>
<path d="M67.2848 5.79512L68.3359 8.25977C68.3359 8.25977 68.476 8.19316 68.5461 8.12654L67.4249 5.72852C67.4249 5.72852 67.2848 5.7285 67.2848 5.79512Z" fill="#9D7EEB"/>
<path d="M67.4255 5.72844L68.5467 8.12647C68.5467 8.12647 68.6868 8.05985 68.7569 7.99324L67.5657 5.59521C67.5657 5.59521 67.4255 5.66183 67.4255 5.72844Z" fill="#B8A0F8"/>
<path d="M67.5658 5.59587L68.7569 7.9939C68.7569 7.9939 68.8971 7.92729 68.9671 7.86067L67.776 5.46265C67.776 5.46265 67.6358 5.52926 67.6358 5.59587H67.5658Z" fill="#A08CD7"/>
<path d="M67.7758 5.52927L68.967 7.9273C68.967 7.9273 69.1071 7.86069 69.1772 7.79407L67.9159 5.46265C67.9159 5.46265 67.7758 5.52926 67.7057 5.59587L67.7758 5.52927Z" fill="#B09AEB"/>
<path d="M67.9165 5.3958L69.1778 7.7272C69.1778 7.7272 69.318 7.59397 69.3881 7.59397L68.1268 5.26257C68.1268 5.26257 67.9866 5.32919 67.9165 5.3958Z" fill="#AB91EF"/>
<path d="M68.1266 5.2625L69.3879 7.5939C69.3879 7.5939 69.528 7.46067 69.5981 7.46067L68.2667 5.12927C68.2667 5.12927 68.1266 5.2625 68.0565 5.2625H68.1266Z" fill="#B49DF2"/>
<path d="M68.3355 5.06243L69.6668 7.39383C69.6668 7.39383 69.807 7.2606 69.8771 7.2606L68.5457 4.9292C68.5457 4.9292 68.4056 5.06243 68.3355 5.06243Z" fill="#B091F3"/>
<path d="M68.5458 4.92898L69.8772 7.26038C69.8772 7.26038 70.0173 7.12716 70.0874 7.06055L68.756 4.72913C68.756 4.72913 68.6159 4.86237 68.5458 4.92898Z" fill="#B194F5"/>
<path d="M68.8265 4.72973L70.1579 7.06116C70.1579 7.06116 70.298 6.92793 70.3681 6.92793L69.1068 4.52991C69.1068 4.52991 68.9667 4.66312 68.8265 4.72973Z" fill="#A38FE5"/>
<path d="M69.0371 4.52978L70.2984 6.92781C70.2984 6.92781 70.4385 6.8612 70.5086 6.79458L69.3174 4.32996C69.3174 4.32996 69.1772 4.46319 69.0371 4.59641V4.52978Z" fill="#B19FEF"/>
<path d="M69.3175 4.26286L70.5087 6.72752C70.5087 6.72752 70.5788 6.6609 70.6489 6.59429L69.5277 3.92981C69.5277 3.92981 69.3876 4.06304 69.2474 4.19626L69.3175 4.26286Z" fill="#C2B3F7"/>
<path d="M69.598 4.06352L70.7191 6.728C70.7191 6.728 70.7892 6.66138 70.8592 6.66138L70.2286 3.53064C70.2286 3.53064 69.8782 3.93029 69.668 4.13012L69.598 4.06352Z" fill="#B3A1E8"/>
</g>
<mask id="mask4_41_22153" style="mask-type:luminance" maskUnits="userSpaceOnUse" x="14" y="0" width="47" height="27">
<path d="M18.8658 25.912C17.3242 25.046 15.7827 24.1801 14.2411 23.3141C17.1841 24.9794 25.3823 22.8478 35.052 17.5855C45.0721 12.0567 53.4105 4.92927 56.1432 0L60.7678 2.53125C58.0351 7.46053 49.6266 14.588 39.6766 20.1168C30.0069 25.3791 21.8087 27.5107 18.8658 25.8454V25.912Z" fill="white"/>
</mask>
<g mask="url(#mask4_41_22153)">
<path d="M18.8662 25.9122L18.9363 25.9788L14.592 23.5808L18.8662 25.9122Z" fill="#1B036D"/>
<path d="M14.2414 23.3807L14.5918 23.5806L14.1713 23.3807H14.2414Z" fill="#1B036D"/>
<path d="M14.2412 23.3807L18.8658 25.9786C18.8658 25.9786 19.006 26.0452 19.0761 26.1118L14.4514 23.514C14.4514 23.514 14.3113 23.514 14.2412 23.3807Z" fill="#1A0369"/>
<path d="M14.452 23.5142L19.0767 26.112C19.0767 26.112 19.2168 26.112 19.357 26.1786L14.7323 23.5808C14.7323 23.5808 14.5922 23.5808 14.452 23.5142Z" fill="#1C036E"/>
<path d="M14.7322 23.5808L19.3569 26.1787C19.3569 26.1787 19.5671 26.1787 19.6371 26.2453L15.0125 23.6474C15.0125 23.6474 14.8023 23.6474 14.7322 23.5808Z" fill="#1E0374"/>
<path d="M15.0129 23.6475L19.6375 26.2453C19.6375 26.2453 19.8478 26.2453 19.9879 26.3119L15.3632 23.7141C15.3632 23.7141 15.153 23.7141 15.0129 23.6475Z" fill="#250386"/>
<path d="M15.362 23.78L19.9867 26.3779C19.9867 26.3779 20.267 26.3779 20.3371 26.3779L15.7124 23.78C15.7124 23.78 15.4321 23.78 15.362 23.78Z" fill="#1C036F"/>
<path d="M15.7128 23.8467L20.3375 26.4445C20.3375 26.4445 20.6177 26.4445 20.7579 26.4445L16.1332 23.8467C16.1332 23.8467 15.8529 23.8467 15.7128 23.8467Z" fill="#1D0372"/>
<path d="M16.1337 23.8467L20.7584 26.4445C20.7584 26.4445 21.1087 26.4445 21.3189 26.4445L16.6943 23.8467C16.6943 23.8467 16.3439 23.8467 16.1337 23.8467Z" fill="#250388"/>
<path d="M16.6946 23.9135L21.3193 26.5113C21.3193 26.5113 21.7397 26.5113 21.9499 26.5113L17.3252 23.9135C17.3252 23.9135 16.9048 23.9135 16.6946 23.9135Z" fill="#27028D"/>
<path d="M17.3241 23.9135L21.9487 26.5113C21.9487 26.5113 22.4392 26.5113 22.7195 26.5113L18.0949 23.9135C18.0949 23.9135 17.5343 23.9135 17.3241 23.9135Z" fill="#290293"/>
<path d="M18.1659 23.8475L22.7906 26.4453C22.7906 26.4453 23.4212 26.3787 23.7716 26.3121L19.1469 23.7142C19.1469 23.7142 18.4462 23.7808 18.1659 23.8475Z" fill="#1A0369"/>
<path d="M19.146 23.714L23.7707 26.3118C24.1911 26.3118 24.6115 26.1786 25.032 26.0454L20.4073 23.4475C19.9869 23.5141 19.5665 23.6474 19.146 23.714Z" fill="#230381"/>
<path d="M20.4071 23.5138L25.0317 26.1117C25.5923 25.9784 26.1528 25.8452 26.7134 25.712L22.0888 23.1141C21.5282 23.2474 20.9676 23.3806 20.4071 23.5138Z" fill="#230381"/>
<path d="M22.0887 23.0476L26.7133 25.6455C27.414 25.4456 28.1848 25.2458 28.9556 24.9793L24.331 22.3815C23.5602 22.6479 22.7894 22.8477 22.0887 23.0476Z" fill="#21037D"/>
<path d="M24.4012 22.3819L29.0258 24.9797C30.0068 24.6467 31.0578 24.247 32.179 23.7807L27.5544 21.1829C26.4332 21.6491 25.4522 21.9822 24.4012 22.3819Z" fill="#4100CC"/>
<path d="M27.5539 21.1826L32.1786 23.7804C33.58 23.1809 35.1215 22.5148 36.6631 21.7821L32.0384 19.1842C30.4969 19.9169 29.0254 20.583 27.5539 21.1826Z" fill="#4601E1"/>
<path d="M35.0525 17.6524C34.0015 18.1853 33.0205 18.7182 31.9694 19.2511L36.5941 21.849C37.5751 21.3827 38.6261 20.8498 39.6772 20.2503C40.5881 19.7174 41.499 19.1845 42.4099 18.6516L37.7853 16.0537C36.8744 16.5866 35.9635 17.1195 35.0525 17.6524Z" fill="#4C00EF"/>
<path d="M37.7857 16.0532L42.4103 18.651C46.1941 16.3862 49.7677 13.855 52.7106 11.457L48.086 8.85913C45.1431 11.3238 41.6396 13.7884 37.7857 16.0532Z" fill="#682AEE"/>
<path d="M48.016 8.85901L52.6406 11.4569C54.0421 10.3245 55.3033 9.19205 56.3544 8.05965L51.7297 5.46179C50.6086 6.59419 49.3473 7.72661 48.016 8.85901Z" fill="#6528EB"/>
<path d="M51.8 5.46203L56.4246 8.05989C57.4757 6.9941 58.4567 5.92833 59.2274 4.92915L54.6028 2.3313C53.8321 3.33048 52.9211 4.39625 51.8 5.46203Z" fill="#6832E1"/>
<path d="M54.602 2.33134L59.2266 4.9292C59.2266 4.9292 59.6471 4.39628 59.8573 4.12984L55.2326 1.53198C55.2326 1.53198 54.8823 2.06489 54.602 2.33134Z" fill="#6528EB"/>
<path d="M55.1631 1.53227L59.7878 4.13013C59.7878 4.13013 60.0681 3.79708 60.1382 3.59724L55.5135 0.99939C55.5135 0.99939 55.2332 1.33244 55.1631 1.53227Z" fill="#682AEE"/>
<path d="M55.5821 0.998873L60.2067 3.59673C60.2067 3.59673 60.4169 3.26367 60.487 3.13045L55.8624 0.532593C55.8624 0.532593 55.6522 0.86565 55.5821 0.998873Z" fill="#4C00EF"/>
<path d="M55.863 0.466305L60.4876 3.06416C60.4876 3.06416 60.6978 2.7311 60.7679 2.59788L56.1433 0.0666504C56.1433 0.0666504 56.0032 0.333095 55.863 0.532931V0.466305Z" fill="#4601E1"/>
<path d="M56.1437 0.066626L60.7683 2.59785L56.1437 0V0.066626Z" fill="#4100CC"/>
</g>
<mask id="mask5_41_22153" style="mask-type:luminance" maskUnits="userSpaceOnUse" x="18" y="2" width="43" height="29">
<path d="M21.1793 30.3084L18.5868 25.7122C21.3195 27.7105 29.7279 25.579 39.6779 20.1834C49.698 14.6547 58.0363 7.52717 60.7691 2.5979L60.2786 8.85942C59.9282 9.45893 51.0293 16.9194 40.729 22.6481C30.4286 28.2434 21.5297 30.5082 21.1793 30.3084Z" fill="white"/>
</mask>
<g mask="url(#mask5_41_22153)">
<path d="M18.5867 25.712L21.1793 30.3082C21.1793 30.3082 21.3194 30.3082 21.4596 30.3082L19.3575 26.1783C19.3575 26.1783 18.7268 25.9119 18.5166 25.7786L18.5867 25.712Z" fill="#682AEE"/>
<path d="M19.4266 26.1788L21.5287 30.3088C21.5287 30.3088 21.879 30.3088 22.1593 30.1756L20.5477 26.3787C20.1273 26.3787 19.7769 26.2454 19.4966 26.1788H19.4266Z" fill="#6528EB"/>
<path d="M20.4784 26.3781L22.0901 30.1749C22.0901 30.1749 22.7207 30.0417 23.071 29.9085L21.7397 26.4447C21.2492 26.4447 20.8288 26.4447 20.4083 26.4447L20.4784 26.3781Z" fill="#6832E1"/>
<path d="M21.8096 26.4454L23.1409 29.9092C23.4912 29.8426 23.9117 29.7093 24.4021 29.5761L23.3511 26.3121C22.7906 26.3787 22.3001 26.4454 21.8096 26.4454Z" fill="#613DE0"/>
<path d="M23.2812 26.3785L24.3322 29.6425C24.8227 29.5093 25.3132 29.3094 25.8737 29.1762L24.9628 26.1121C24.4023 26.2453 23.8417 26.3119 23.2812 26.3785Z" fill="#6D4AE6"/>
<path d="M24.9624 26.045L25.8733 29.1092C26.4338 28.9093 27.0645 28.7095 27.6951 28.5097L26.8543 25.6454C26.2237 25.8452 25.5229 25.9784 24.9624 26.1117V26.045Z" fill="#8863E5"/>
<path d="M26.8544 25.5789L27.6952 28.4432C28.3258 28.2433 29.0265 27.9769 29.7272 27.7105L28.8864 24.9794C28.1857 25.2458 27.485 25.4457 26.8544 25.5789Z" fill="#8466D7"/>
<path d="M28.957 24.9794L29.7978 27.7105C30.4985 27.444 31.1992 27.1776 31.97 26.8445L31.1291 24.1801C30.3583 24.4465 29.6577 24.7129 28.957 24.9794Z" fill="#8666DC"/>
<path d="M31.1294 24.1801L31.9703 26.8446C32.671 26.5781 33.3717 26.245 34.0724 25.9786L33.2315 23.3807C32.5308 23.6472 31.8301 23.9802 31.1995 24.1801H31.1294Z" fill="#8F6BEF"/>
<path d="M33.1619 23.3807L34.0027 25.9786C34.7034 25.7121 35.3341 25.3791 36.0348 25.046L35.1239 22.5148C34.4232 22.8478 33.7925 23.1143 33.1619 23.3807Z" fill="#9573F2"/>
<path d="M35.124 22.5147L36.0349 25.046C36.6655 24.7795 37.2961 24.4464 37.9268 24.1134L36.9458 21.5822C36.3152 21.9152 35.7546 22.1816 35.124 22.4481V22.5147Z" fill="#9A79EF"/>
<path d="M36.9437 21.5822L37.9247 24.1134C38.4853 23.847 39.0459 23.5805 39.6064 23.2475L38.5554 20.7828C37.9948 21.0493 37.5043 21.3157 36.9437 21.5822Z" fill="#9974FA"/>
<path d="M39.6783 20.1836C39.328 20.3834 38.9076 20.5832 38.5572 20.7831L39.6083 23.2477C40.0287 23.0479 40.379 22.8481 40.7995 22.6482C40.7995 22.6482 40.8695 22.6482 40.9396 22.6482L39.8885 20.1836C39.8885 20.1836 39.8886 20.1836 39.8185 20.1836H39.6783Z" fill="#9D7EF0"/>
<path d="M39.818 20.1168L40.8691 22.5814C41.4296 22.2484 41.9902 21.9819 42.5507 21.6489L41.4296 19.2509C40.869 19.5839 40.3786 19.8504 39.818 20.1834V20.1168Z" fill="#9D7EEB"/>
<path d="M41.4293 19.1841L42.5505 21.5822C43.111 21.2491 43.6716 20.916 44.2322 20.583L43.041 18.1849C42.4804 18.518 41.9198 18.8511 41.4293 19.1841Z" fill="#B8A0F8"/>
<path d="M43.0409 18.2514L44.2321 20.6494C44.7926 20.3164 45.3532 19.9833 45.9138 19.6502L44.7226 17.2522C44.162 17.5853 43.6715 17.9183 43.111 18.2514H43.0409Z" fill="#A08CD7"/>
<path d="M44.6522 17.1861L45.8435 19.5842C46.404 19.2511 46.9646 18.8514 47.5251 18.5184L46.2639 16.1204C45.7033 16.4534 45.2128 16.8531 44.6522 17.1861Z" fill="#B09AEB"/>
<path d="M46.264 16.1867L47.5253 18.5847C48.0858 18.1851 48.6464 17.852 49.2069 17.4523L47.8756 15.0543C47.3151 15.454 46.7545 15.787 46.1939 16.1867H46.264Z" fill="#AB91EF"/>
<path d="M47.9457 15.0547L49.2771 17.4527C49.9077 17.053 50.4683 16.5868 51.0989 16.1871L49.7676 13.7891C49.207 14.1887 48.5764 14.655 48.0158 15.0547H47.9457Z" fill="#B49DF2"/>
<path d="M49.6977 13.7222L51.029 16.1202C51.8699 15.5207 52.6407 14.9878 53.3414 14.4549L52.01 11.8571C51.2392 12.4566 50.4685 13.056 49.6276 13.6556L49.6977 13.7222Z" fill="#B091F3"/>
<path d="M52.0805 11.9237L53.4118 14.5215C54.4629 13.7222 55.4439 12.9895 56.3548 12.3233L55.1636 9.32581C54.2527 10.1918 53.2017 11.1243 52.0805 11.9903V11.9237Z" fill="#B194F5"/>
<path d="M55.163 9.25885L56.3542 12.2564C56.9848 11.7235 57.6155 11.2572 58.106 10.8575L57.195 7.2605C56.5644 7.92662 55.9338 8.52613 55.233 9.19225L55.163 9.25885Z" fill="#B091F3"/>
<path d="M57.1251 7.26097L58.036 10.858C58.5265 10.4583 59.017 10.0587 59.3673 9.7256L58.8768 5.32922C58.3863 5.92873 57.7557 6.59485 57.1251 7.26097Z" fill="#B49DF2"/>
<path d="M58.8768 5.32944L59.3673 9.72581C59.3673 9.72581 59.5775 9.52598 59.7177 9.39276L59.3673 4.66333C59.3673 4.66333 59.017 5.1296 58.8068 5.32944H58.8768Z" fill="#AB91EF"/>
<path d="M59.7184 9.45913C59.7184 9.45913 59.9988 9.19268 60.1389 9.05945V3.59729C59.9287 3.93035 59.6484 4.33002 59.3681 4.66308L59.7184 9.39251V9.45913Z" fill="#B49DF2"/>
<path d="M60.1379 9.05945C60.1379 9.05945 60.278 8.92623 60.3481 8.85962L60.7685 2.73132C60.7685 2.73132 60.4181 3.33083 60.2079 3.66388V9.12605L60.1379 9.05945Z" fill="#B091F3"/>
<path d="M60.2779 8.85942L60.7684 2.5979C60.7684 2.5979 60.7683 2.66452 60.6983 2.73113L60.2779 8.85942Z" fill="#B194F5"/>
</g>
<mask id="mask6_41_22153" style="mask-type:luminance" maskUnits="userSpaceOnUse" x="9" y="25" width="13" height="15">
<path d="M10.7382 39.5673C10.2477 38.6348 9.75719 37.7688 9.2667 36.9029C10.1776 36.9029 11.1586 36.6364 12.2096 36.1035C15.6431 34.1718 18.516 29.6422 18.5861 25.7787L21.1786 30.3749C21.1786 30.3749 17.6051 36.1701 13.1906 38.5682C11.9294 39.3009 10.6681 39.6339 10.6681 39.6339L10.7382 39.5673Z" fill="white"/>
</mask>
<g mask="url(#mask6_41_22153)">
<path d="M9.40701 36.9032C9.40701 36.9032 9.26688 36.9032 9.19681 36.9032L10.6683 39.5677L9.33698 36.9032H9.40701Z" fill="#6528EB"/>
<path d="M9.40675 36.9032L10.7381 39.5677L9.61695 36.9032C9.61695 36.9032 9.40679 36.9032 9.33672 36.9032H9.40675Z" fill="#6832E1"/>
<path d="M9.68751 36.8365L10.8087 39.501C10.8087 39.501 10.8787 39.501 10.9488 39.501L10.0379 36.8365C10.0379 36.8365 9.82767 36.8365 9.7576 36.8365H9.68751Z" fill="#613DE0"/>
<path d="M10.0385 36.8364L10.9494 39.5009C10.9494 39.5009 11.0895 39.5009 11.1596 39.4343L10.3188 36.7698C10.3188 36.7698 10.1086 36.7698 9.96843 36.7698L10.0385 36.8364Z" fill="#6D4AE6"/>
<path d="M10.317 36.7697L11.1578 39.4342C11.1578 39.4342 11.3681 39.4342 11.4381 39.301L10.5973 36.7031C10.5973 36.7031 10.3871 36.7031 10.2469 36.7697H10.317Z" fill="#8863E5"/>
<path d="M10.6674 36.7031L11.5082 39.3009C11.5082 39.3009 11.7184 39.2343 11.7885 39.1677L10.9477 36.5698C10.9477 36.5698 10.7374 36.5698 10.6674 36.6364V36.7031Z" fill="#8466D7"/>
<path d="M10.948 36.5696L11.7889 39.1675C11.7889 39.1675 11.9991 39.1009 12.0692 39.0343L11.2283 36.4364C11.2283 36.4364 11.0882 36.4364 10.948 36.503V36.5696Z" fill="#8666DC"/>
<path d="M11.229 36.503L12.0698 39.1009C12.0698 39.1009 12.28 39.0343 12.3501 38.9677L11.4392 36.4364C11.4392 36.4364 11.299 36.4364 11.229 36.503Z" fill="#8F6BEF"/>
<path d="M11.4391 36.3697L12.35 38.9009C12.35 38.9009 12.4901 38.8343 12.6302 38.7677L11.7193 36.2365C11.7193 36.2365 11.5792 36.2364 11.5091 36.3031L11.4391 36.3697Z" fill="#9573F2"/>
<path d="M11.6498 36.3038L12.5607 38.835C12.5607 38.835 12.7009 38.7684 12.7709 38.7018L11.79 36.1705C11.79 36.1705 11.6498 36.1705 11.5798 36.2372L11.6498 36.3038Z" fill="#9A79EF"/>
<path d="M11.8599 36.1705L12.8409 38.7017C12.8409 38.7017 12.981 38.6351 13.0511 38.5685L12.0001 36.1039C12.0001 36.1039 11.8599 36.1039 11.7899 36.1705H11.8599Z" fill="#9974FA"/>
<path d="M12.1389 36.0372C12.1389 36.0372 12.0688 36.0372 11.9987 36.1039L13.0498 38.5685C13.0498 38.5685 13.1899 38.5685 13.1899 38.5019L12.1389 36.0372Z" fill="#9D7EF0"/>
<path d="M12.2091 36.0371L13.2601 38.5017C13.2601 38.5017 13.4003 38.4351 13.4703 38.3685L12.3492 35.9705C12.3492 35.9705 12.2091 35.9704 12.2091 36.0371Z" fill="#9D7EEB"/>
<path d="M12.3495 35.9037L13.4706 38.3018C13.4706 38.3018 13.6108 38.2351 13.6808 38.1685L12.4896 35.7705H12.3495V35.9037Z" fill="#B8A0F8"/>
<path d="M12.5599 35.8371L13.751 38.2351C13.751 38.2351 13.8912 38.1685 13.9612 38.1019L12.7701 35.7039C12.7701 35.7039 12.6299 35.7705 12.6299 35.8371H12.5599Z" fill="#A08CD7"/>
<path d="M12.6998 35.7037L13.891 38.1017C13.891 38.1017 14.0312 38.0351 14.1013 37.9685L12.84 35.6371C12.84 35.6371 12.6998 35.7037 12.6998 35.7703V35.7037Z" fill="#B09AEB"/>
<path d="M12.8405 35.637L14.1018 37.9684C14.1018 37.9684 14.2419 37.9018 14.312 37.8352L12.9807 35.5038C12.9807 35.5038 12.8405 35.5704 12.8405 35.637Z" fill="#AB91EF"/>
<path d="M13.0506 35.5038L14.3819 37.8352C14.3819 37.8352 14.5221 37.7685 14.5922 37.7019L13.2608 35.4371C13.2608 35.4371 13.1207 35.5037 13.1207 35.5704L13.0506 35.5038Z" fill="#B49DF2"/>
<path d="M13.1913 35.3711L14.5227 37.6359C14.5227 37.6359 14.6628 37.5027 14.803 37.436L13.4015 35.1713C13.4015 35.1713 13.2614 35.3045 13.1913 35.3045V35.3711Z" fill="#B091F3"/>
<path d="M13.4014 35.2377L14.8029 37.5025C14.8029 37.5025 14.943 37.3693 15.0831 37.3027L13.6116 35.1045C13.6116 35.1045 13.4715 35.2377 13.4014 35.2377Z" fill="#B194F5"/>
<path d="M13.6103 35.1044L15.0818 37.3026C15.0818 37.3026 15.292 37.1693 15.3621 37.1027L13.8906 34.9045C13.8906 34.9045 13.7505 35.0378 13.6804 35.1044H13.6103Z" fill="#A38FE5"/>
<path d="M13.8204 34.9043L15.2919 37.1025C15.2919 37.1025 15.5021 36.9693 15.5722 36.8361L14.0306 34.7045C14.0306 34.7045 13.8905 34.8377 13.8204 34.9043Z" fill="#B19FEF"/>
<path d="M14.031 34.705L15.5725 36.8366C15.5725 36.8366 15.8528 36.6368 15.9228 36.5035L14.3113 34.4386C14.3113 34.4386 14.101 34.6384 14.031 34.705Z" fill="#C2B3F7"/>
<path d="M14.3111 34.4381L15.9227 36.503C16.7636 35.7703 17.5343 34.971 18.165 34.1716L16.0629 32.3065C15.5023 33.0392 14.9418 33.772 14.2411 34.3715L14.3111 34.4381Z" fill="#B3A1E8"/>
<path d="M16.1335 32.3737L18.2357 34.2388C18.2357 34.2388 18.4459 33.9724 18.586 33.8391L16.4138 31.974C16.4138 31.974 16.2036 32.2405 16.1335 32.3737Z" fill="#C2B3F7"/>
<path d="M16.4142 31.9737L18.5864 33.8388C18.5864 33.8388 18.7966 33.639 18.8667 33.5058L16.6244 31.6406C16.6244 31.6406 16.4843 31.9071 16.4142 31.9737Z" fill="#B19FEF"/>
<path d="M16.6246 31.5735L18.8668 33.4387C18.8668 33.4387 19.007 33.2388 19.0771 33.1722L16.7647 31.2405C16.7647 31.2405 16.6246 31.4403 16.6246 31.5069V31.5735Z" fill="#A38FE5"/>
<path d="M16.8351 31.3077L19.1474 33.2395C19.1474 33.2395 19.2876 33.0396 19.3577 32.973L17.0453 31.0413C17.0453 31.0413 16.9052 31.2411 16.9052 31.3077H16.8351Z" fill="#B194F5"/>
<path d="M16.9753 30.9743L19.2877 32.906C19.2877 32.906 19.4278 32.7728 19.4979 32.6396L17.1155 30.6412C17.1155 30.6412 17.0454 30.8411 16.9753 30.9077V30.9743Z" fill="#B091F3"/>
<path d="M17.1134 30.7078L19.4958 32.7061C19.4958 32.7061 19.6359 32.5729 19.6359 32.5063L17.2536 30.5079C17.2536 30.5079 17.1835 30.7078 17.1134 30.7744V30.7078Z" fill="#B49DF2"/>
<path d="M17.2541 30.4417L19.6364 32.4401C19.6364 32.4401 19.7766 32.3069 19.7766 32.2402L17.3242 30.1753C17.3242 30.1753 17.2541 30.3751 17.184 30.4417H17.2541Z" fill="#AB91EF"/>
<path d="M17.3941 30.175L19.8466 32.24C19.8466 32.24 19.9166 32.1068 19.9867 32.0401L17.5343 29.9086C17.5343 29.9086 17.4642 30.1084 17.3941 30.175Z" fill="#B09AEB"/>
<path d="M17.5343 29.9084L19.9868 32.04C19.9868 32.04 20.0568 31.9068 20.1269 31.8402L17.6744 29.642C17.6744 29.642 17.6044 29.8418 17.5343 29.9084Z" fill="#A08CD7"/>
<path d="M17.6747 29.6424L20.1271 31.8406C20.1271 31.8406 20.1972 31.7073 20.2673 31.6407L17.7448 29.3093C17.7448 29.3093 17.6747 29.5092 17.6047 29.5758L17.6747 29.6424Z" fill="#B8A0F8"/>
<path d="M17.7449 29.3757L20.2674 31.7071C20.2674 31.7071 20.3375 31.5739 20.4075 31.5073L17.885 29.1093C17.885 29.1093 17.8149 29.3091 17.7449 29.3757Z" fill="#9D7EEB"/>
<path d="M17.8851 29.0431L20.4076 31.4412C20.4076 31.4412 20.4777 31.3079 20.5478 31.2413L18.0253 28.7101C18.0253 28.7101 17.9552 28.9099 17.8851 28.9765V29.0431Z" fill="#9D7EF0"/>
<path d="M17.9552 28.7764L20.4777 31.3077C20.4777 31.3077 20.5478 31.1745 20.6178 31.1078L18.0253 28.4434C18.0253 28.4434 18.0252 28.6432 17.8851 28.7764H17.9552Z" fill="#9974FA"/>
<path d="M18.0957 28.443L20.6882 31.1075C20.6882 31.1075 20.7583 30.9743 20.8284 30.9077L18.2358 28.11C18.2358 28.11 18.2358 28.3098 18.1657 28.443H18.0957Z" fill="#9A79EF"/>
<path d="M18.1658 28.1104L20.7584 30.9081C20.7584 30.9081 20.8284 30.7749 20.8985 30.7749L18.3059 27.7773C18.3059 27.7773 18.3059 28.0438 18.2359 28.1104H18.1658Z" fill="#9573F2"/>
<path d="M18.3058 27.777L20.8983 30.7745C20.8983 30.7745 20.8983 30.6413 20.9684 30.6413L18.3758 27.3773C18.3758 27.3773 18.3758 27.6438 18.3058 27.777Z" fill="#8F6BEF"/>
<path d="M18.3758 27.3778L20.9684 30.6418C20.9684 30.6418 20.9684 30.5752 21.0385 30.5086L18.3758 26.9781C18.3758 26.9781 18.3758 27.2446 18.3058 27.3778H18.3758Z" fill="#8666DC"/>
<path d="M18.4465 26.9776L21.1092 30.508C21.1092 30.508 21.1091 30.4414 21.1792 30.3748L18.5165 26.3781C18.5165 26.3781 18.5165 26.7111 18.4465 26.911V26.9776Z" fill="#8466D7"/>
<path d="M18.5166 26.3782L21.1792 30.3749L18.5867 25.7787C18.5867 25.7787 18.5867 26.245 18.5867 26.4448L18.5166 26.3782Z" fill="#8863E5"/>
</g>
<path d="M70.788 6.59448C70.788 6.59448 69.5968 7.52705 68.2654 8.25978C63.851 10.6578 60.2774 8.79267 60.2774 8.85928C59.9271 9.45879 51.0281 16.9193 40.7278 22.6479C30.4275 28.2433 21.5285 30.5081 21.1782 30.3083C21.1782 30.3083 17.6046 36.1035 13.1902 38.5015C11.8588 39.2343 10.5975 39.5673 10.6676 39.5673C6.74368 46.6282 7.2342 55.4875 7.30427 64.8132C7.30427 83.5977 14.7317 93.6561 22.7197 98.7852C30.7077 103.914 39.1862 104.047 40.7278 103.381C42.8299 101.983 51.2383 93.7893 59.1563 80.6002C67.0742 67.411 74.3616 49.3592 74.2915 28.0435C74.2915 18.7178 74.7119 9.39218 70.7179 6.59448H70.788Z" fill="url(#paint0_linear_41_22153)"/>
<mask id="mask7_41_22153" style="mask-type:luminance" maskUnits="userSpaceOnUse" x="4" y="36" width="37" height="70">
<path d="M40.7974 103.382L39.9565 104.514C37.5041 105.513 28.6752 105.38 20.477 100.118C12.2788 94.8554 4.6411 84.464 4.6411 65.1465C4.6411 55.7543 4.08058 46.4286 9.33585 36.8365L10.8073 39.501C6.88338 46.5619 7.37385 55.4212 7.44392 64.7469C7.44392 83.5314 14.8714 93.5898 22.8594 98.7189C30.8474 103.848 39.3259 103.981 40.8675 103.315L40.7974 103.382Z" fill="white"/>
</mask>
<g mask="url(#mask7_41_22153)">
<path d="M39.5363 104.714C39.5363 104.714 39.8166 104.647 39.8866 104.581L40.7275 103.448C40.7275 103.448 40.5873 103.448 40.4472 103.515L39.4662 104.714H39.5363Z" fill="#21037D"/>
<path d="M38.9046 104.847C38.9046 104.847 39.3952 104.714 39.6054 104.714L40.5863 103.515C40.5863 103.515 40.236 103.582 40.0959 103.648L38.9747 104.914L38.9046 104.847Z" fill="#4100CC"/>
<path d="M37.8546 104.981C38.2751 104.981 38.6254 104.914 38.9057 104.847L40.0268 103.582C40.0268 103.582 39.4662 103.582 39.1859 103.648L37.8546 104.981Z" fill="#4601E1"/>
<path d="M23.9802 99.5184L21.6679 100.917C27.9041 104.514 34.2806 105.314 37.8542 104.981L39.1855 103.648C36.1724 103.782 30.0763 103.049 23.9802 99.5184Z" fill="#4C00EF"/>
<path d="M9.54667 80.7333L6.81393 81.5327C9.68682 90.7917 14.872 96.587 20.4075 100.117C20.828 100.384 21.2484 100.65 21.6688 100.85L23.9811 99.4513C23.5607 99.1848 23.2104 98.985 22.79 98.7185C17.4646 95.3213 12.3494 89.6593 9.6167 80.6667L9.54667 80.7333Z" fill="#682AEE"/>
<path d="M5.55123 76.0712C5.90158 78.0029 6.39203 79.868 6.88253 81.5333L9.61526 80.734C9.12477 79.0687 8.63432 77.2702 8.28397 75.405L5.55123 76.0712Z" fill="#6528EB"/>
<path d="M4.92144 72.0739C5.06158 73.4727 5.27181 74.805 5.48202 76.0706L8.21476 75.4045C8.00454 74.1389 7.79432 72.8733 7.65418 71.541L4.92144 72.0739Z" fill="#6832E1"/>
<path d="M4.71135 68.6768C4.71135 69.8758 4.8515 71.0082 4.99164 72.1406L7.72438 71.6077C7.58424 70.5419 7.51416 69.4095 7.44409 68.2771L4.71135 68.7434V68.6768Z" fill="#613DE0"/>
<path d="M4.57087 65.5461C4.57087 66.6119 4.57083 67.6777 4.6409 68.6769L7.37364 68.2106C7.37364 67.2114 7.3036 66.2123 7.3036 65.1465L4.50078 65.4795L4.57087 65.5461Z" fill="#6D4AE6"/>
<path d="M7.37404 56.1541L4.64131 56.2873C4.57123 59.2848 4.64131 62.2157 4.64131 65.2133C4.64131 65.3465 4.64131 65.4797 4.64131 65.6129L7.44413 65.2799C7.44413 65.2799 7.44413 65.0134 7.44413 64.8802C7.44413 61.9493 7.44413 59.0184 7.44413 56.2207L7.37404 56.1541Z" fill="#8863E5"/>
<path d="M4.57083 56.221L7.30357 56.0877C7.30357 55.355 7.30357 54.6223 7.30357 53.8895H4.57083C4.57083 54.6223 4.50073 55.4216 4.43066 56.221H4.57083Z" fill="#8466D7"/>
<path d="M4.71135 53.8889H7.44409C7.44409 53.4226 7.4441 52.9563 7.51417 52.49L4.85147 52.3568C4.85147 52.8897 4.78142 53.4226 4.71135 53.9555V53.8889Z" fill="#8666DC"/>
<path d="M4.85149 52.2904L7.5142 52.4236C7.5142 52.0239 7.51421 51.6243 7.58429 51.2246L4.92158 50.9581C4.92158 51.3578 4.85153 51.8241 4.78146 52.2237L4.85149 52.2904Z" fill="#8F6BEF"/>
<path d="M4.92144 51.0246L7.58415 51.2911C7.58415 51.2911 7.58411 50.625 7.65418 50.3585L5.06161 49.9589C5.06161 50.2919 4.99151 50.6916 4.92144 51.0246Z" fill="#9573F2"/>
<path d="M5.06164 49.9587L7.6542 50.3584C7.6542 50.3584 7.65422 49.8255 7.72429 49.4924L5.13167 49.0261C5.13167 49.0261 5.06162 49.6256 4.99155 49.9587H5.06164Z" fill="#9A79EF"/>
<path d="M5.20236 49.0269L7.79499 49.4932C7.79499 49.4932 7.79495 48.9603 7.86502 48.6939L5.34253 48.0944C5.34253 48.0944 5.27243 48.6939 5.20236 48.9603V49.0269Z" fill="#9974FA"/>
<path d="M5.34066 48.1602L7.86314 48.7597C7.86314 48.7597 7.93324 48.2934 8.00331 48.0269L5.55086 47.3608C5.55086 47.3608 5.48076 47.8937 5.41069 48.1602H5.34066Z" fill="#9D7EF0"/>
<path d="M5.48136 47.3609L7.93381 48.027C7.93381 48.027 8.00391 47.5607 8.07398 47.3609L5.62147 46.5615C5.62147 46.5615 5.48136 47.0944 5.48136 47.3609Z" fill="#9D7EEB"/>
<path d="M5.69145 46.5617L8.1439 47.361C8.1439 47.361 8.214 46.8948 8.28407 46.6949L5.90165 45.829C5.90165 45.829 5.76153 46.3619 5.76153 46.6283L5.69145 46.5617Z" fill="#B8A0F8"/>
<path d="M5.83191 45.7622L8.21427 46.6281C8.21427 46.6281 8.28432 46.1618 8.35439 45.8954L6.04211 44.8962C6.04211 44.8962 5.90198 45.4291 5.83191 45.7622Z" fill="#A08CD7"/>
<path d="M6.04224 44.9629L8.35452 45.9621C8.35452 45.9621 8.49471 45.4292 8.56478 45.2293L6.32253 44.0969C6.32253 44.0969 6.18238 44.6964 6.04224 44.9629Z" fill="#B09AEB"/>
<path d="M6.32292 44.0306L8.56517 45.163C8.56517 45.163 8.70532 44.4969 8.84546 44.1639L6.67324 42.765C6.5331 43.1647 6.39299 43.5644 6.32292 43.964V44.0306Z" fill="#AB91EF"/>
<path d="M6.67371 42.8317L8.84593 44.2305C9.12621 43.298 9.40647 42.432 9.75682 41.5661L7.93498 39.5011C7.44449 40.6335 7.02407 41.6993 6.67371 42.8317Z" fill="#B49DF2"/>
<path d="M7.93422 39.5678L9.75607 41.6327C10.0363 40.9666 10.3166 40.3671 10.667 39.701L9.12541 37.0365C8.70499 37.9025 8.28456 38.7018 7.86414 39.5678H7.93422Z" fill="#B091F3"/>
<path d="M9.19503 37.0364L10.7366 39.7009C10.7366 39.7009 10.7366 39.6343 10.7366 39.5677L9.26511 36.9032C9.26511 36.9032 9.2651 37.0364 9.19503 37.0364Z" fill="#B194F5"/>
</g>
<mask id="mask8_41_22153" style="mask-type:luminance" maskUnits="userSpaceOnUse" x="10" y="39" width="1" height="1">
<path d="M10.5973 39.3011L10.7375 39.5676C10.7375 39.5676 10.6674 39.3678 10.5973 39.3011Z" fill="white"/>
</mask>
<g mask="url(#mask8_41_22153)">
<path d="M10.7393 39.5677L10.6675 39.4344L10.7393 39.5677Z" fill="#6528EB"/>
<path d="M10.5973 39.3011L10.6691 39.4344L10.5973 39.3011Z" fill="#6528EB"/>
</g>
<mask id="mask9_41_22153" style="mask-type:luminance" maskUnits="userSpaceOnUse" x="4" y="23" width="15" height="14">
<path d="M9.26579 36.9028L4.64112 34.305C5.48196 34.305 6.53306 34.0385 7.58411 33.5057C11.0876 31.5739 13.8904 27.0443 13.9605 23.2474L18.5851 25.7787C18.445 29.6421 15.6422 34.1718 12.2087 36.1035C11.1577 36.703 10.1767 36.9695 9.26579 36.9028Z" fill="white"/>
</mask>
<g mask="url(#mask9_41_22153)">
<path d="M4.57041 34.3052L9.19503 36.903C9.19503 36.903 9.33516 36.903 9.40523 36.903L4.78061 34.3718H4.57041V34.3052Z" fill="#27028D"/>
<path d="M4.78132 34.3052L9.40593 36.8364C9.40593 36.8364 9.54608 36.8364 9.68622 36.8364L5.0616 34.2385C5.0616 34.2385 4.85139 34.2385 4.78132 34.2385V34.3052Z" fill="#290293"/>
<path d="M5.062 34.3052L9.68661 36.903C9.68661 36.903 9.89683 36.903 9.9669 36.903L5.34229 34.3718C5.34229 34.3718 5.13207 34.3718 5.062 34.3718V34.3052Z" fill="#1A0369"/>
<path d="M5.3422 34.2385L9.96681 36.7697C9.96681 36.7697 10.177 36.7697 10.2471 36.7697L5.62243 34.1719C5.62243 34.1719 5.41227 34.1719 5.3422 34.1719V34.2385Z" fill="#230381"/>
<path d="M5.62119 34.1719L10.2459 36.7697C10.2459 36.7697 10.4561 36.7697 10.5962 36.7031L5.97157 34.1719C5.97157 34.1719 5.76133 34.1719 5.62119 34.2385V34.1719Z" fill="#230381"/>
<path d="M5.97198 34.105L10.5967 36.6362C10.5967 36.6362 10.8068 36.6362 10.947 36.503L6.32236 33.9052C6.32236 33.9052 6.11213 33.9718 5.97198 34.0384V34.105Z" fill="#21037D"/>
<path d="M6.32278 34.0384L10.9474 36.6362C10.9474 36.6362 11.2277 36.5696 11.3678 36.503L6.74318 33.9052C6.74318 33.9052 6.46292 34.0384 6.32278 34.0384Z" fill="#4100CC"/>
<path d="M6.67357 33.8383L11.2982 36.4361C11.2982 36.4361 11.6486 36.3029 11.7887 36.2363L7.16406 33.6384C7.16406 33.6384 6.81371 33.7717 6.67357 33.8383Z" fill="#4601E1"/>
<path d="M7.51495 33.5058C7.51495 33.5058 7.30472 33.639 7.16458 33.7056L11.7892 36.3034C11.7892 36.3034 11.9994 36.1702 12.1396 36.1036C12.2797 36.037 12.3498 35.9704 12.4899 35.9038L7.86527 33.3059C7.86527 33.3059 7.65509 33.4391 7.51495 33.5058Z" fill="#4C00EF"/>
<path d="M7.86399 33.2391L12.4887 35.837C12.9091 35.5705 13.3295 35.3041 13.7499 34.971L9.12526 32.3732C8.70484 32.7062 8.28442 32.9727 7.86399 33.2391Z" fill="#682AEE"/>
<path d="M9.12501 32.3734L13.7497 34.9712C13.7497 34.9712 14.3103 34.5049 14.5905 34.2385L9.96587 31.6406C9.96587 31.6406 9.40529 32.1735 9.12501 32.3734Z" fill="#6528EB"/>
<path d="M9.96658 31.6401L14.5912 34.238C15.0117 33.8383 15.362 33.4386 15.7123 32.9724L11.0877 30.3745C10.7374 30.8408 10.387 31.2405 9.96658 31.6401Z" fill="#6832E1"/>
<path d="M11.0869 30.3748L15.7115 32.9727C15.7115 32.9727 15.9918 32.6396 16.1319 32.4398L11.5073 29.9086C11.5073 29.9086 11.227 30.2416 11.0869 30.4415V30.3748Z" fill="#6528EB"/>
<path d="M11.4374 29.8423L16.0621 32.3735C16.0621 32.3735 16.2723 32.0405 16.4124 31.9072L11.7878 29.376C11.7878 29.376 11.5776 29.709 11.4374 29.8423Z" fill="#682AEE"/>
<path d="M11.7882 29.3755L16.4128 31.9068C16.4128 31.9068 16.6231 31.5737 16.6931 31.4405L12.0685 28.8427C12.0685 28.8427 11.8583 29.1757 11.7882 29.3089V29.3755Z" fill="#4C00EF"/>
<path d="M12.0689 28.9096L16.6935 31.5075C16.6935 31.5075 16.9037 31.1744 16.9738 31.0412L12.3492 28.4434C12.3492 28.4434 12.139 28.7764 12.0689 28.9096Z" fill="#4601E1"/>
<path d="M12.3496 28.3762L16.9742 30.974C16.9742 30.974 17.1844 30.5743 17.2545 30.4411L12.6298 27.8433C12.6298 27.8433 12.4197 28.2429 12.3496 28.3762Z" fill="#4100CC"/>
<path d="M12.6281 27.8435L17.2528 30.4414C17.2528 30.4414 17.463 30.0417 17.5331 29.8419L12.9084 27.3107C12.9084 27.3107 12.6982 27.7103 12.6281 27.9102V27.8435Z" fill="#21037D"/>
<path d="M12.9088 27.2441L17.5335 29.7753C17.5335 29.7753 17.7437 29.3757 17.8137 29.1092L13.1891 26.5114C13.1891 26.5114 13.0489 26.9777 12.9088 27.1775V27.2441Z" fill="#230381"/>
<path d="M13.1897 26.5782L17.8144 29.1761C17.8144 29.1761 17.9545 28.7764 18.0246 28.51L13.3999 25.9121C13.3999 25.9121 13.2598 26.3784 13.1897 26.5782Z" fill="#230381"/>
<path d="M13.3998 25.9122L18.0245 28.5101C18.0245 28.5101 18.1646 28.1104 18.2347 27.8439L13.61 25.2461C13.61 25.2461 13.4699 25.6458 13.3998 25.9122Z" fill="#1A0369"/>
<path d="M13.6104 25.3122L18.235 27.91C18.235 27.91 18.3752 27.4437 18.3752 27.2439L13.7505 24.7126C13.7505 24.7126 13.6804 25.1789 13.6104 25.3788V25.3122Z" fill="#290293"/>
<path d="M13.7506 24.6462L18.3752 27.1775C18.3752 27.1775 18.4453 26.7112 18.4453 26.5113L13.8207 23.9801C13.8207 23.9801 13.8207 24.4464 13.7506 24.6462Z" fill="#27028D"/>
<path d="M13.8903 23.9801L18.515 26.5114C18.515 26.5114 18.515 26.0451 18.515 25.7786L13.8903 23.1808C13.8903 23.1808 13.8903 23.6471 13.8903 23.9135V23.9801Z" fill="#250388"/>
<path d="M13.8903 23.2474L18.5851 25.7786V25.712L13.8903 23.1808V23.2474Z" fill="#1D0372"/>
</g>
<mask id="mask10_41_22153" style="mask-type:luminance" maskUnits="userSpaceOnUse" x="-1" y="34" width="24" height="68">
<path d="M22.2295 101.183C20.6879 100.317 19.1464 99.4514 17.6049 98.5855C17.0443 98.2524 16.4137 97.9194 15.8531 97.5197C7.65489 92.2574 0.0172083 81.8659 0.0172083 62.5485C0.0172083 53.1563 -0.543367 43.8972 4.71191 34.2385L9.33657 36.8364C4.0813 46.4285 4.64182 55.6875 4.64182 65.1464C4.64182 84.5304 12.2795 94.8553 20.4777 100.118C21.0383 100.517 21.6689 100.85 22.2295 101.183Z" fill="white"/>
</mask>
<g mask="url(#mask10_41_22153)">
<path d="M22.0893 101.117C22.0893 101.117 22.1594 101.117 22.2295 101.184L17.8151 98.7191L22.0893 101.117Z" fill="#613FCA"/>
<path d="M17.3941 98.5857L17.7445 98.7855L17.5343 98.6523C17.5343 98.6523 17.4642 98.6523 17.3941 98.5857Z" fill="#613FCA"/>
<path d="M18.6556 98.9182L14.031 96.3203C14.5916 96.7866 15.2222 97.1863 15.8529 97.586C16.4134 97.919 16.9039 98.2521 17.4645 98.5851L22.0891 101.183C21.5286 100.85 21.0381 100.583 20.4775 100.184C19.8469 99.7841 19.2863 99.3845 18.6556 98.9182Z" fill="#1B036D"/>
<path d="M15.4327 96.121L10.8081 93.5232C11.8592 94.5224 12.9102 95.4549 14.0314 96.3209L18.656 98.9188C17.5349 98.1194 16.4838 97.1868 15.4327 96.121Z" fill="#1A0369"/>
<path d="M7.72522 90.0592C8.7062 91.3248 9.68719 92.5238 10.7382 93.523L15.3629 96.1209C14.3118 95.0551 13.2608 93.9227 12.3499 92.6571L7.72522 90.0592Z" fill="#1C036E"/>
<path d="M4.85143 85.3967C5.76234 87.1286 6.74336 88.6607 7.79442 90.0596L12.419 92.6574C11.368 91.2586 10.387 89.6599 9.47609 87.9946L4.85143 85.4634V85.3967Z" fill="#1E0374"/>
<path d="M1.76851 77.3361C2.60935 80.3337 3.5903 82.9981 4.85156 85.3961L9.47623 87.9274C8.28504 85.596 7.23396 82.9315 6.39312 79.8674L1.76851 77.2695V77.3361Z" fill="#250386"/>
<path d="M0.0870686 67.3444C0.36735 71.008 0.927882 74.3386 1.69866 77.3361L6.32332 79.934C5.55255 76.9365 4.92189 73.6059 4.71168 69.9422L0.0870686 67.3444Z" fill="#1C036F"/>
<path d="M4.64266 55.6206L0.0180457 53.0227C-0.122095 56.2201 0.0180457 59.3508 0.0180457 62.5482C0.0180457 64.2135 0.0180222 65.8122 0.158163 67.3442L4.78283 69.9421C4.64269 68.41 4.64266 66.8114 4.64266 65.1461C4.64266 61.9487 4.57259 58.818 4.64266 55.6206Z" fill="#1D0372"/>
<path d="M-0.0531254 53.0894L4.57154 55.6872C4.57154 54.0219 4.78172 52.3567 4.92186 50.6914L0.297248 48.0935C0.0870366 49.7588 -0.0531254 51.4241 -0.0531254 53.0894Z" fill="#250388"/>
<path d="M0.36775 48.027L4.99242 50.6249C5.13256 49.6257 5.2727 48.5599 5.48291 47.5607L0.85824 44.9629C0.648029 45.9621 0.507891 47.0278 0.36775 48.027Z" fill="#27028D"/>
<path d="M0.788652 44.9631L5.41327 47.5609C5.55341 46.7616 5.76363 45.9623 5.97384 45.1629L1.34917 42.5651C1.13896 43.3644 0.998863 44.1637 0.788652 44.9631Z" fill="#290293"/>
<path d="M1.34761 42.6314L5.97227 45.2293C6.11241 44.5631 6.32264 43.897 6.53285 43.2309L1.90818 40.6331C1.69797 41.2992 1.48775 41.9653 1.34761 42.6314Z" fill="#1A0369"/>
<path d="M1.90897 40.6337L6.53363 43.2316C6.74385 42.6321 6.95403 42.0326 7.16424 41.4331L2.53963 38.8352C2.32942 39.4347 2.11918 40.0342 1.90897 40.6337Z" fill="#230381"/>
<path d="M2.5402 38.7684L7.16481 41.3663C7.37503 40.8334 7.58523 40.2339 7.86551 39.701L3.24089 37.1031C2.96061 37.7027 2.75041 38.2355 2.5402 38.7684Z" fill="#230381"/>
<path d="M3.23986 37.1025L7.86447 39.7004C8.07468 39.1675 8.355 38.7012 8.56522 38.1683L3.94055 35.5704C3.66027 36.1033 3.45007 36.5696 3.23986 37.1025Z" fill="#21037D"/>
<path d="M3.94168 35.5042L8.56635 38.102C8.77656 37.7024 8.98674 37.3027 9.19695 36.903L4.57234 34.3052C4.36213 34.7048 4.15189 35.1045 3.94168 35.5042Z" fill="#4100CC"/>
</g>
<path d="M60.4109 40.5871L58.9728 42.9513L60.0039 43.5182L61.4421 41.154L60.4109 40.5871Z" fill="#A8A8A8"/>
<path d="M45.9836 53.5557L46.9646 54.0886L62.8706 27.9768L61.8195 27.3773L45.9836 53.5557Z" fill="#A8A8A8"/>
<mask id="mask11_41_22153" style="mask-type:luminance" maskUnits="userSpaceOnUse" x="35" y="43" width="26" height="29">
<path d="M36.9449 70.2085C36.9449 70.2085 36.8748 70.2085 36.8047 70.1419C36.5245 70.0087 36.2442 69.8088 35.9639 69.6756C38.4864 71.0744 41.9199 70.8746 45.7037 68.743C53.2712 64.6131 59.3674 54.4881 59.3674 46.2283C59.3674 45.0293 59.2272 43.9634 59.017 43.0309L59.998 43.5638C60.2082 44.563 60.3484 45.6288 60.3484 46.7612C60.3484 55.021 54.2522 65.146 46.6846 69.2759C42.9008 71.3409 39.3973 71.5407 36.9449 70.2085Z" fill="white"/>
</mask>
<g mask="url(#mask11_41_22153)">
<path d="M35.9639 69.609L36.9449 70.1419C36.9449 70.1419 37.5054 70.4083 37.7857 70.5416L36.8047 70.0087C36.8047 70.0087 36.2442 69.7422 35.9639 69.609Z" fill="#858585"/>
<path d="M36.8057 70.009L37.7866 70.5419C38.5574 70.8084 39.3982 71.0082 40.2391 71.0082L39.2581 70.4753C38.3472 70.4753 37.5764 70.2755 36.8057 70.009Z" fill="#8A8A8A"/>
<path d="M39.2571 70.4747L40.2381 71.0076C41.0089 71.0076 41.8497 71.0076 42.6905 70.7411L41.7096 70.2083C40.8687 70.4081 40.0279 70.4747 39.2571 70.4747Z" fill="#8F8F8F"/>
<path d="M41.7801 70.2748L42.7611 70.8077C43.672 70.6079 44.653 70.2748 45.5639 69.8085L44.5829 69.2756C43.6019 69.7419 42.691 70.075 41.7801 70.2748Z" fill="#949494"/>
<path d="M45.7034 68.7431C45.3531 68.943 44.9327 69.1428 44.5823 69.2761L45.5633 69.8089C45.9137 69.6757 46.264 69.4759 46.6844 69.2761C47.8756 68.6099 48.9968 67.8106 50.1179 66.9446L49.1369 66.4117C48.0158 67.3443 46.8946 68.1436 45.7034 68.7431Z" fill="#999999"/>
<path d="M49.1378 66.3453L50.1188 66.8782C51.5202 65.7458 52.7814 64.3469 53.9726 62.9481L52.9916 62.4152C51.8005 63.8806 50.5392 65.2129 49.1378 66.3453Z" fill="#9E9E9E"/>
<path d="M52.9902 62.4149L53.9712 62.9479C55.2325 61.3492 56.4237 59.6173 57.3346 57.7521L56.3536 57.2192C55.3727 59.0178 54.2515 60.8163 52.9902 62.4149Z" fill="#999999"/>
<path d="M56.4237 57.2191L57.4047 57.752C58.0353 56.6196 58.5258 55.4206 58.9463 54.2216L57.9653 53.6887C57.5449 54.8877 56.9843 56.0867 56.4237 57.2191Z" fill="#949494"/>
<path d="M57.9649 53.6888L58.9459 54.2217C59.3663 53.1559 59.6466 52.0235 59.9269 50.9577L58.9459 50.4248C58.7357 51.4906 58.3854 52.623 58.035 53.6888H57.9649Z" fill="#8F8F8F"/>
<path d="M58.8768 50.4246L59.8578 50.9575C60.1381 49.7585 60.2782 48.6261 60.2782 47.4937L59.2972 46.9608C59.2972 48.0932 59.087 49.2256 58.8067 50.4246H58.8768Z" fill="#8A8A8A"/>
<path d="M59.0173 42.9642C59.2976 43.9634 59.3677 45.0292 59.3677 46.1616C59.3677 46.428 59.3677 46.6279 59.3677 46.8943L60.3487 47.4272C60.3487 47.4272 60.3487 46.9609 60.3487 46.6945C60.3487 45.4955 60.2085 44.4297 59.9983 43.4971L59.0173 42.9642Z" fill="#858585"/>
</g>
<path d="M38.4854 49.4921L39.4664 50.025L46.9639 54.0883L45.983 53.5554L38.4854 49.4921Z" fill="#838383"/>
<path d="M38.4854 49.4921V57.8185L39.4664 58.418V50.025L38.4854 49.4921Z" fill="#8F8F8F"/>
<path d="M46.9652 54.0884L39.4677 50.0251V58.4181L43.1814 60.3499L46.9652 62.4815L62.8712 36.303V27.9766L46.9652 54.0884Z" fill="url(#paint1_linear_41_22153)"/>
<mask id="mask12_41_22153" style="mask-type:luminance" maskUnits="userSpaceOnUse" x="45" y="34" width="12" height="4">
<path d="M46.6138 37.4361L45.6328 36.9033C49.2765 34.9049 52.78 34.372 55.5828 35.3712L56.5638 35.9041C53.761 34.9049 50.3275 35.4378 46.6138 37.4361Z" fill="white"/>
</mask>
<g mask="url(#mask12_41_22153)">
<path d="M45.6328 36.8367L46.6138 37.3696C47.0342 37.1697 47.4546 36.9033 47.8751 36.7701L46.894 36.2372C46.4736 36.437 46.0532 36.6369 45.6328 36.8367Z" fill="#999999"/>
<path d="M46.8933 36.2378L47.8743 36.7706C48.9955 36.2377 50.0465 35.9047 51.0976 35.6383L50.1166 35.1053C49.0655 35.3052 48.0144 35.7049 46.8933 36.2378Z" fill="#949494"/>
<path d="M50.1164 35.1051L51.0974 35.638C52.0784 35.4381 52.9893 35.3049 53.9002 35.3715L52.9192 34.8386C52.0083 34.8386 51.0974 34.8386 50.1164 35.1051Z" fill="#8F8F8F"/>
<path d="M52.8505 34.8386L53.8315 35.3715C54.8125 35.3715 55.6533 35.5714 56.4941 35.9044L55.5132 35.3715C54.6723 35.0385 53.7614 34.9052 52.8505 34.8386Z" fill="#8A8A8A"/>
</g>
<path d="M59.9967 43.5641C60.207 44.5633 60.3471 45.6291 60.3471 46.7615C60.3471 55.0213 54.251 65.1463 46.6834 69.2762C39.1158 73.4062 32.9496 70.0756 32.9496 61.8157C32.9496 53.5559 39.0457 43.4975 46.6133 39.3009C49.9066 37.5024 52.9197 37.1028 55.302 37.9021L56.5633 35.8371C53.7605 34.838 50.3271 35.3708 46.6133 37.3692C42.4792 39.634 38.6253 43.4975 35.6823 48.2935C32.8095 53.0896 31.1978 58.2187 31.1978 62.6817C31.1978 67.2113 32.8095 70.5419 35.7524 72.1405C38.6954 73.7392 42.5492 73.3396 46.6834 71.0748C50.8175 68.81 54.6714 64.9465 57.6144 60.1504C60.5573 55.3544 62.0989 50.2253 62.0989 45.7623C62.0989 44.0304 61.8887 42.4983 61.3982 41.1661L59.9967 43.4975V43.5641Z" fill="url(#paint2_linear_41_22153)"/>
<mask id="mask13_41_22153" style="mask-type:luminance" maskUnits="userSpaceOnUse" x="30" y="36" width="17" height="37">
<path d="M35.7534 72.2074L34.7724 71.6746C31.8294 70.0759 30.2178 66.7453 30.2178 62.2157C30.2178 57.6861 31.8294 52.557 34.7023 47.8275C37.5752 43.0315 41.4992 39.168 45.6333 36.9032L46.6143 37.4361C42.4802 39.7009 38.6262 43.5644 35.6833 48.3604C32.8104 53.1565 31.1988 58.2856 31.1988 62.7486C31.1988 67.2782 32.8104 70.6087 35.7534 72.2074Z" fill="white"/>
</mask>
<g mask="url(#mask13_41_22153)">
<path d="M31.1988 62.7488C31.1988 62.7488 31.1988 62.1493 31.1988 61.8829L30.2178 61.35C30.2178 61.35 30.2178 61.9495 30.2178 62.2159C30.2178 66.7455 31.8294 70.0761 34.7724 71.6748L35.7534 72.2077C32.8104 70.609 31.1988 67.2784 31.1988 62.7488Z" fill="#858585"/>
<path d="M30.2178 61.3494L31.1988 61.8823C31.1988 60.6167 31.409 59.2845 31.6893 57.9522L30.7083 57.4193C30.428 58.7515 30.2178 60.0838 30.2178 61.3494Z" fill="#8A8A8A"/>
<path d="M30.7786 57.4865L31.7596 58.0194C32.0399 56.8204 32.3902 55.6214 32.8107 54.3558L31.8297 53.8229C31.4093 55.0219 31.0589 56.2875 30.7786 57.4865Z" fill="#8F8F8F"/>
<path d="M31.8293 53.8222L32.8103 54.355C33.3008 53.0228 33.8613 51.6906 34.5621 50.3583L33.5811 49.8254C32.8804 51.1577 32.3198 52.4899 31.8293 53.8222Z" fill="#949494"/>
<path d="M34.7017 47.8271C34.2813 48.4932 33.931 49.1593 33.5806 49.8921L34.5616 50.4249C34.912 49.7588 35.3323 49.0261 35.6827 48.36C36.5235 47.0278 37.4345 45.6955 38.3454 44.4965L37.3644 43.9636C36.3834 45.1626 35.4725 46.4282 34.7017 47.8271Z" fill="#999999"/>
<path d="M37.3646 43.9641L38.3456 44.497C39.677 42.8317 41.1484 41.2996 42.6899 40.034L41.709 39.5011C40.1674 40.7667 38.696 42.2988 37.3646 43.9641Z" fill="#9E9E9E"/>
<path d="M41.7083 39.501L42.6893 40.0339C43.9506 38.9681 45.2119 38.1022 46.5432 37.3694L45.5622 36.8365C44.2309 37.5693 42.8995 38.4352 41.7083 39.501Z" fill="#999999"/>
</g>
<defs>
<linearGradient id="paint0_linear_41_22153" x1="7.30427" y1="55.1545" x2="74.2915" y2="55.1545" gradientUnits="userSpaceOnUse">
<stop stop-color="#CCCCCC"/>
<stop offset="0.02" stop-color="#D3D3D3"/>
<stop offset="0.1" stop-color="#E6E6E6"/>
<stop offset="0.19" stop-color="#F4F4F4"/>
<stop offset="0.3" stop-color="#FCFCFC"/>
<stop offset="0.5" stop-color="white"/>
<stop offset="0.64" stop-color="#FAFAFA"/>
<stop offset="0.78" stop-color="#EDEDED"/>
<stop offset="0.93" stop-color="#D8D8D8"/>
<stop offset="1" stop-color="#CCCCCC"/>
</linearGradient>
<linearGradient id="paint1_linear_41_22153" x1="39.4677" y1="45.229" x2="62.8712" y2="45.229" gradientUnits="userSpaceOnUse">
<stop stop-color="#4B00EE"/>
<stop offset="1" stop-color="#22037F"/>
</linearGradient>
<linearGradient id="paint2_linear_41_22153" x1="31.1978" y1="54.2886" x2="62.0989" y2="54.2886" gradientUnits="userSpaceOnUse">
<stop stop-color="#4C00F0"/>
<stop offset="1" stop-color="#1C0370"/>
</linearGradient>
</defs>
</svg>
