<svg width="70" height="106" viewBox="0 0 70 106" fill="none" xmlns="http://www.w3.org/2000/svg">
<path d="M60.4807 103.332L58.5135 105.016L66.2557 102.771L66.1287 101.648L60.4807 103.332Z" fill="#4C00EF"/>
<path d="M53.6269 101.298L54.325 102.35L58.5134 105.017L57.8153 103.964L53.6269 101.298Z" fill="#250386"/>
<path d="M57.8155 103.964L58.5136 105.017L60.4808 103.333L60.1635 102.771L57.8155 103.964Z" fill="#4C00EF"/>
<path d="M66.1284 101.648L66.2554 102.771L69.9995 82.4211L69.3014 84.3859L66.1284 101.648Z" fill="#230381"/>
<path d="M47.7255 50.4932L69.3021 84.3861L70.0001 82.4213L48.8678 49.2301L47.7255 50.4932Z" fill="#4C00EF"/>
<path d="M66.446 88.4557L67.9056 93.8589L69.746 83.8945L67.1441 84.6664L66.446 88.4557Z" fill="#4C00EF"/>
<path d="M52.5478 99.5436L53.6266 101.298L57.815 103.964L56.7362 102.28L52.5478 99.5436Z" fill="#250386"/>
<path d="M56.7364 102.28L57.8152 103.964L60.1632 102.771L59.4017 101.578L56.7364 102.28Z" fill="#4C00EF"/>
<path d="M52.5478 99.5434L56.7362 102.28L58.2592 94.1402L54.0708 91.4736L52.5478 99.5434Z" fill="#250387"/>
<path d="M56.7364 102.28L59.4017 101.578L61.1151 92.1752L58.2594 94.14L56.7364 102.28Z" fill="#4C00EF"/>
<path d="M52.6113 95.8241L58.2593 94.14L61.115 92.1752L54.6421 94.0698L52.6113 95.8241Z" fill="#4C00EF"/>
<path d="M46.9005 90.7019L48.4235 93.0878L52.612 95.8245L51.0889 93.4386L46.9005 90.7019Z" fill="#250386"/>
<path d="M51.0883 93.4379L52.6114 95.8238L54.6421 94.0695L53.7537 92.666L51.0883 93.4379Z" fill="#4C00EF"/>
<path d="M46.9005 90.7016L51.0889 93.4383L53.1196 82.5617L48.9312 79.8951L46.9005 90.7016Z" fill="#4100CC"/>
<path d="M51.0883 93.4381L53.7537 92.6662L55.9748 80.5967L53.119 82.5615L51.0883 93.4381Z" fill="#4C00EF"/>
<path d="M45.6309 84.807L53.1191 82.5615L55.9749 80.5967L47.5981 83.0527L45.6309 84.807Z" fill="#4C00EF"/>
<path d="M40.6172 80.8074L41.4422 82.0705L45.6306 84.8072L44.8056 83.5441L40.6172 80.8074Z" fill="#250386"/>
<path d="M44.8058 83.5444L45.6309 84.8074L47.5981 83.0532L47.4077 82.8427L44.8058 83.5444Z" fill="#4C00EF"/>
<path d="M40.6172 80.807L44.8056 83.5437L46.0114 76.9475L41.823 74.281L40.6172 80.807Z" fill="#250387"/>
<path d="M44.8058 83.5444L47.4077 82.8426L48.8673 74.9834L46.0116 76.9482L44.8058 83.5444Z" fill="#4C00EF"/>
<path d="M41.5057 78.2815L46.0114 76.9482L48.8671 74.9834L43.473 76.5974L41.5057 78.2815Z" fill="#4C00EF"/>
<path d="M36.1753 73.8605L37.2541 75.6148L41.506 78.2813L40.4271 76.5972L36.1753 73.8605Z" fill="#250386"/>
<path d="M40.4274 76.5975L41.5063 78.2816L43.4735 76.5975L43.0293 75.8958L40.4274 76.5975Z" fill="#4C00EF"/>
<path d="M36.1753 73.86L40.4271 76.5968L41.4425 70.9128L37.2541 68.2463L36.1753 73.86Z" fill="#250387"/>
<path d="M40.4274 76.5967L43.0293 75.895L44.2985 68.948L41.4428 70.9128L40.4274 76.5967Z" fill="#4C00EF"/>
<path d="M37.5078 72.1057L41.4423 70.9128L44.298 68.948L39.4751 70.3514L37.5078 72.1057Z" fill="#4C00EF"/>
<path d="M47.7255 50.4933L48.8678 49.2302L50.7716 46.6338L49.6294 47.8969L47.7255 50.4933Z" fill="#22037F"/>
<path d="M46.5194 52.3174L67.144 84.6666L69.7459 83.8947L48.1059 49.8615L46.5194 52.3174Z" fill="#4C00EF"/>
<path d="M44.8698 54.6331L46.5197 52.3174L48.1063 49.8615L43.7275 55.8962L44.8698 54.6331Z" fill="#22037F"/>
<path d="M30.8448 65.4393L33.3198 69.3689L37.5082 72.1056L35.0332 68.176L30.8448 65.4393Z" fill="#250386"/>
<path d="M35.0334 68.1763L37.5084 72.1059L39.4757 70.3516L36.5565 65.7203L35.0334 68.1763Z" fill="#4C00EF"/>
<path d="M33.1293 70.7727L35.0331 68.1763L36.5562 65.7203L34.6524 68.3868L33.1293 70.7727Z" fill="#22037F"/>
<path d="M45.1234 40.8793L49.6291 47.8965L50.7714 46.6334L46.0119 39.125L45.1234 40.8793Z" fill="#4C00EF"/>
<path d="M24.1812 60.5979L28.8773 68.0361L33.1291 70.7728L28.3696 63.3346L24.1812 60.5979Z" fill="#250386"/>
<path d="M28.3698 63.3345L33.1293 70.7728L34.6524 68.3869L30.2102 61.3698L28.3698 63.3345Z" fill="#4C00EF"/>
<mask id="mask0_41_22504" style="mask-type:luminance" maskUnits="userSpaceOnUse" x="21" y="18" width="8" height="15">
<path d="M22.9754 18.4247C24.3716 19.3369 25.7677 20.2491 27.1638 21.1614C27.4811 21.3719 27.7984 21.6526 28.0523 22.0736C29.5753 24.4594 28.6869 29.3013 26.0215 32.88L21.8332 30.1433C24.4351 26.5646 25.3235 21.7227 23.8639 19.3369C23.6101 18.986 23.3562 18.6352 22.9754 18.4247Z" fill="white"/>
</mask>
<g mask="url(#mask0_41_22504)">
<path d="M21.8332 30.073L26.0215 32.8097C26.0215 32.8097 26.2119 32.529 26.3389 32.3887L22.1505 29.652C22.1505 29.652 21.9601 29.9326 21.8332 30.073Z" fill="#6832E1"/>
<path d="M22.1508 29.6523L26.3392 32.389C26.3392 32.389 26.593 32.0381 26.7199 31.8276L22.5315 29.0909C22.5315 29.0909 22.2777 29.4418 22.1508 29.6523Z" fill="#6528EB"/>
<path d="M22.5311 29.0904L26.7195 31.8271C26.7195 31.8271 26.9099 31.5464 26.9734 31.3359L22.785 28.5992C22.785 28.5992 22.5946 28.8799 22.5311 29.0203V29.0904Z" fill="#682AEE"/>
<path d="M22.7852 28.67L26.9736 31.4067C26.9736 31.4067 27.164 31.126 27.2275 30.9856L23.0391 28.2489C23.0391 28.2489 22.8487 28.5296 22.7852 28.7402V28.67Z" fill="#4C00EF"/>
<path d="M23.0385 28.1782L27.2269 30.9149C27.2269 30.9149 27.4173 30.6342 27.4808 30.4237L23.2924 27.687C23.2924 27.687 23.1654 28.0379 23.0385 28.1782Z" fill="#4601E1"/>
<path d="M23.2291 27.6872L27.4175 30.4239C27.4175 30.4239 27.6079 30.0731 27.6713 29.8625L23.4829 27.1259C23.4829 27.1259 23.356 27.4767 23.2291 27.6872Z" fill="#4100CC"/>
<path d="M23.4832 27.1964L27.6716 29.9331C27.6716 29.9331 27.8619 29.512 27.9254 29.3015L23.737 26.5648C23.737 26.5648 23.6101 26.9859 23.4832 27.1964Z" fill="#21037D"/>
<path d="M23.7372 26.5641L27.9257 29.3008C27.9257 29.3008 28.0526 28.8798 28.1795 28.6693L23.9911 25.9326C23.9911 25.9326 23.8642 26.3536 23.7372 26.5641Z" fill="#230381"/>
<path d="M23.9906 25.933L28.179 28.6697C28.179 28.6697 28.3059 28.2486 28.3694 28.0381L24.181 25.3014C24.181 25.3014 24.0541 25.7224 23.9906 25.933Z" fill="#230381"/>
<path d="M24.1812 25.3016L28.3696 28.0383C28.3696 28.0383 28.4965 27.6172 28.4965 27.4067L24.3081 24.67C24.3081 24.67 24.1812 25.091 24.1812 25.3016Z" fill="#1A0369"/>
<path d="M24.3082 24.6703L28.4965 27.407C28.4965 27.407 28.56 26.9859 28.6235 26.7754L24.4351 24.0387C24.4351 24.0387 24.3716 24.4598 24.3082 24.6703Z" fill="#290293"/>
<path d="M24.4352 23.9679L28.6236 26.7046C28.6236 26.7046 28.6871 26.2835 28.6871 26.0028L24.4987 23.2661C24.4987 23.2661 24.4987 23.6872 24.4352 23.9679Z" fill="#27028D"/>
<path d="M24.4988 23.3365L28.6871 26.0732C28.6871 26.0732 28.6871 25.582 28.6871 25.3715L24.4988 22.6348C24.4988 22.6348 24.4988 23.126 24.4988 23.3365Z" fill="#250388"/>
<path d="M24.5615 21.7927C24.5615 21.7927 24.5615 22.3541 24.5615 22.6348L28.7499 25.3715C28.7499 25.3715 28.7499 24.8101 28.7499 24.5294L24.5615 21.8629V21.7927Z" fill="#1D0372"/>
<path d="M24.4352 20.6698C24.4352 20.6698 24.5621 21.3715 24.5621 21.7925L28.7505 24.4591C28.7505 24.1082 28.6871 23.6872 28.6236 23.4065L24.4352 20.6698Z" fill="#1C036F"/>
<path d="M24.1176 19.8278C24.1176 19.8278 24.308 20.3891 24.4349 20.74L28.6233 23.4767C28.6233 23.4767 28.4329 22.8451 28.306 22.5644L24.1176 19.8278Z" fill="#250386"/>
<path d="M28.0519 22.0034L23.8635 19.2667C23.8635 19.2667 24.0539 19.6176 24.1173 19.7579L28.3057 22.4946C28.3057 22.4946 28.1153 22.1438 28.0519 22.0034Z" fill="#1E0374"/>
<path d="M23.5467 18.9155C23.5467 18.9155 23.7371 19.126 23.8005 19.2664L27.9889 22.003C27.9889 22.003 27.7985 21.7224 27.735 21.6522L23.5467 18.9155Z" fill="#1C036E"/>
<path d="M23.2926 18.6354C23.2926 18.6354 23.483 18.8459 23.5464 18.9161L27.7348 21.6528C27.7348 21.6528 27.5445 21.4422 27.481 21.3721L23.2926 18.6354Z" fill="#1A0369"/>
<path d="M22.975 18.4247C22.975 18.4247 23.1654 18.565 23.2923 18.6352L27.4807 21.3719C27.4807 21.3719 27.2903 21.2315 27.1634 21.1614L22.975 18.4247Z" fill="#1B036D"/>
<path d="M27.2272 21.1616L23.3561 18.6354L27.2272 21.1616Z" fill="#613FCA"/>
<path d="M22.975 18.4247L23.3558 18.6352L22.975 18.4247Z" fill="#613FCA"/>
</g>
<mask id="mask1_41_22504" style="mask-type:luminance" maskUnits="userSpaceOnUse" x="15" y="30" width="12" height="7">
<path d="M19.4215 35.8976C18.0253 34.9854 16.6292 34.0732 15.2331 33.1609C16.2485 33.8627 17.708 33.6522 19.1676 32.7399C20.1195 32.1785 21.008 31.2663 21.8964 30.0734L26.0848 32.8101C25.1964 34.003 24.3079 34.9152 23.356 35.4766C21.8964 36.3888 20.5003 36.5993 19.4215 35.8976Z" fill="white"/>
</mask>
<g mask="url(#mask1_41_22504)">
<path d="M15.2331 33.1614L19.4215 35.8981H19.4849L15.2965 33.1614H15.2331Z" fill="#1B036D"/>
<path d="M15.2967 33.1614L19.4851 35.8981C19.4851 35.8981 19.612 35.8981 19.6755 35.9683L15.4871 33.2316C15.4871 33.2316 15.3602 33.2315 15.2967 33.1614Z" fill="#1A0369"/>
<path d="M15.4237 33.301L19.6121 36.0377C19.6121 36.0377 19.739 36.0377 19.8024 36.1079L15.6141 33.3712C15.6141 33.3712 15.4872 33.3712 15.4237 33.301Z" fill="#1C036E"/>
<path d="M15.6143 33.3712L19.8026 36.1079C19.8026 36.1079 19.9296 36.1079 19.993 36.1079L15.8046 33.3712C15.8046 33.3712 15.6777 33.3712 15.6143 33.3712Z" fill="#1E0374"/>
<path d="M15.8041 33.4415L19.9925 36.1782C19.9925 36.1782 20.1194 36.1782 20.1829 36.1782L15.9945 33.4415C15.9945 33.4415 15.8675 33.4415 15.8041 33.4415Z" fill="#250386"/>
<path d="M15.9946 33.5117L20.183 36.2485C20.183 36.2485 20.3099 36.2485 20.3734 36.2485L16.185 33.5117C16.185 33.5117 16.0581 33.5117 15.9946 33.5117Z" fill="#1C036F"/>
<path d="M16.1852 33.5117L20.3736 36.2485C20.3736 36.2485 20.5005 36.2485 20.564 36.2485L16.3756 33.5117C16.3756 33.5117 16.2486 33.5117 16.1852 33.5117Z" fill="#1D0372"/>
<path d="M16.3758 33.582L20.5642 36.3187C20.5642 36.3187 20.6911 36.3187 20.7545 36.3187L16.5662 33.582C16.5662 33.582 16.4393 33.582 16.3758 33.582Z" fill="#250388"/>
<path d="M16.5656 33.582L20.7539 36.3187H20.9443L16.7559 33.582C16.7559 33.582 16.629 33.582 16.5656 33.582Z" fill="#27028D"/>
<path d="M16.8196 33.582L21.008 36.3187C21.008 36.3187 21.1349 36.3187 21.2618 36.3187L17.0735 33.582C17.0735 33.582 16.9466 33.582 16.8196 33.582Z" fill="#290293"/>
<path d="M17.0102 33.582L21.1986 36.3187C21.1986 36.3187 21.3255 36.3187 21.4524 36.3187L17.264 33.582C17.264 33.582 17.1371 33.582 17.0102 33.582Z" fill="#1A0369"/>
<path d="M17.2635 33.5117L21.4519 36.2485C21.4519 36.2485 21.6423 36.2485 21.7058 36.2485L17.5174 33.5117C17.5174 33.5117 17.327 33.5117 17.2635 33.5117Z" fill="#230381"/>
<path d="M17.5176 33.4414L21.706 36.1781C21.706 36.1781 21.8964 36.1781 21.9598 36.1079L17.7714 33.3712C17.7714 33.3712 17.5811 33.3712 17.5176 33.4414Z" fill="#230381"/>
<path d="M17.7717 33.3712L21.9601 36.1078C21.9601 36.1078 22.1505 36.1079 22.2775 35.9675L18.089 33.2308C18.089 33.2308 17.8986 33.301 17.7717 33.3712Z" fill="#21037D"/>
<path d="M18.0885 33.3017L22.2769 36.0384C22.2769 36.0384 22.5307 35.9682 22.5942 35.8981L18.4058 33.1614C18.4058 33.1614 18.1519 33.2315 18.025 33.3017H18.0885Z" fill="#4100CC"/>
<path d="M18.4697 33.1612L22.6581 35.8979C22.6581 35.8979 22.9119 35.7575 23.0388 35.6874L18.8505 32.9507C18.8505 32.9507 18.5966 33.091 18.4697 33.1612Z" fill="#4601E1"/>
<path d="M19.1039 32.7399C19.1039 32.7399 18.9135 32.8802 18.85 32.8802L23.0384 35.6169C23.0384 35.6169 23.2288 35.4766 23.2922 35.4766C23.3557 35.4766 23.4826 35.3362 23.5461 35.3362L19.3577 32.5995C19.3577 32.5995 19.1673 32.7399 19.1039 32.7399Z" fill="#4C00EF"/>
<path d="M19.3582 32.5995L23.5466 35.3362C23.9274 35.0555 24.3081 34.7748 24.6254 34.4239L20.4371 31.6873C20.0563 32.0381 19.739 32.3188 19.3582 32.5995Z" fill="#682AEE"/>
<path d="M20.5001 31.6874L24.6885 34.4241C24.6885 34.4241 25.1327 33.9329 25.3865 33.7224L21.1981 30.9857C21.1981 30.9857 20.7539 31.4769 20.5001 31.6874Z" fill="#6528EB"/>
<path d="M21.1981 30.9154L25.3865 33.6521C25.3865 33.6521 25.8307 33.0907 26.0845 32.8101L21.8961 30.0734C21.8961 30.0734 21.4519 30.6348 21.1981 30.9154Z" fill="#6832E1"/>
</g>
<mask id="mask2_41_22504" style="mask-type:luminance" maskUnits="userSpaceOnUse" x="17" y="19" width="15" height="21">
<path d="M27.7987 34.6346L26.0853 32.8102C28.6871 29.2314 29.5756 24.3896 28.116 22.0037C27.1006 20.3898 25.2603 20.3196 23.3565 21.5827C22.468 22.1441 21.5161 23.0563 20.6277 24.2492C18.0258 27.828 17.1374 32.6698 18.5969 35.0557C19.6123 36.6696 21.4527 36.7398 23.3565 35.4767C24.3084 34.9154 25.1968 34.0031 26.0853 32.8102L27.7987 34.6346C26.7198 36.1083 25.5141 37.3012 24.3084 38.073C21.8969 39.6168 19.4854 39.5467 18.2161 37.5117C16.3123 34.4242 17.4546 28.249 20.818 23.6879C21.8969 22.2143 23.1026 21.0213 24.3084 20.3196C26.7199 18.7758 29.1314 18.846 30.4006 20.881C32.3044 23.9686 31.2255 30.1437 27.8621 34.7048L27.7987 34.6346Z" fill="white"/>
</mask>
<g mask="url(#mask2_41_22504)">
<path d="M26.0854 32.8102L27.7988 34.6346C28.0526 34.2838 28.3065 33.8628 28.5603 33.4417L26.6565 31.8979C26.6565 31.8979 26.2758 32.5295 26.0219 32.8102H26.0854Z" fill="#B3A1E8"/>
<path d="M26.6572 31.8976L28.561 33.4414C28.561 33.4414 28.7513 33.0905 28.8783 32.9502L26.911 31.4766C26.911 31.4766 26.7841 31.7572 26.6572 31.8976Z" fill="#C2B3F7"/>
<path d="M26.9105 31.477L28.8777 32.9506C28.8777 32.9506 29.0681 32.6699 29.1316 32.4594L27.1008 31.1261C27.1008 31.1261 26.9739 31.3366 26.9105 31.477Z" fill="#B19FEF"/>
<path d="M27.101 31.1257L29.1317 32.459C29.1317 32.459 29.3221 32.1081 29.3856 31.9678L27.2914 30.7047C27.2914 30.7047 27.1645 30.9854 27.101 31.0555V31.1257Z" fill="#A38FE5"/>
<path d="M27.2916 30.7052L29.3858 31.9683C29.3858 31.9683 29.5762 31.6175 29.6397 31.4771L27.482 30.3544C27.482 30.3544 27.3551 30.635 27.2916 30.7754V30.7052Z" fill="#B194F5"/>
<path d="M27.4822 30.354L29.6398 31.4768C29.6398 31.4768 29.8302 31.1259 29.8937 30.9154L27.6726 29.933C27.6726 29.933 27.5456 30.2137 27.4822 30.354Z" fill="#B091F3"/>
<path d="M27.7355 29.863L29.9566 30.8454C29.9566 30.8454 30.147 30.4244 30.2105 30.2139L27.9259 29.3718C27.9259 29.3718 27.7989 29.6525 27.7355 29.863Z" fill="#B49DF2"/>
<path d="M27.926 29.4415L30.2106 30.2835C30.2106 30.2835 30.3375 29.8625 30.4644 29.652L28.1799 28.8801C28.1799 28.8801 28.0529 29.231 27.9895 29.3713L27.926 29.4415Z" fill="#AB91EF"/>
<path d="M28.0531 28.9509L30.3377 29.7227C30.3377 29.7227 30.4646 29.3017 30.5281 29.1614L28.18 28.5298C28.18 28.5298 28.0531 28.8105 28.0531 29.021V28.9509Z" fill="#B09AEB"/>
<path d="M28.2437 28.4593L30.5917 29.0908C30.5917 29.0908 30.7186 28.7399 30.7821 28.5294L28.3706 28.0382C28.3706 28.0382 28.3071 28.3189 28.2437 28.4593Z" fill="#A08CD7"/>
<path d="M28.3699 28.0387L30.7814 28.5299C30.7814 28.5299 30.8448 28.179 30.9083 28.0387L28.4968 27.6879C28.4968 27.6879 28.4969 27.9685 28.3699 28.0387Z" fill="#B8A0F8"/>
<path d="M28.4335 27.6875L30.845 28.0384C30.845 28.0384 30.9084 27.7577 30.9719 27.6174L28.5604 27.3367C28.5604 27.3367 28.5604 27.5472 28.4969 27.6875H28.4335Z" fill="#9D7EEB"/>
<path d="M28.5604 27.3372L30.9719 27.6178C30.9719 27.6178 30.9719 27.3372 31.0354 27.1968L28.5604 26.9863C28.5604 26.9863 28.5604 27.1968 28.4969 27.3372H28.5604Z" fill="#9D7EF0"/>
<path d="M28.624 26.986L31.099 27.1965C31.099 27.1965 31.0989 26.9158 31.1624 26.8456L28.6874 26.7053C28.6874 26.7053 28.6874 26.9158 28.6874 26.986H28.624Z" fill="#9974FA"/>
<path d="M28.624 26.7052L31.099 26.8455C31.099 26.8455 31.099 26.5648 31.099 26.4946H28.624C28.624 26.4946 28.624 26.635 28.624 26.7753V26.7052Z" fill="#9A79EF"/>
<path d="M28.6876 26.4249H31.1625C31.1625 26.4249 31.1625 26.2143 31.1625 26.074H28.6876C28.6876 26.074 28.6876 26.2845 28.6876 26.4249Z" fill="#9573F2"/>
<path d="M28.751 26.1438H31.226C31.226 26.1438 31.226 25.8631 31.226 25.7228L28.751 25.8631C28.751 25.8631 28.751 26.0736 28.751 26.1438Z" fill="#8F6BEF"/>
<path d="M28.751 25.8628L31.226 25.7225C31.226 25.7225 31.226 25.5119 31.226 25.3716L28.751 25.5821C28.751 25.5821 28.751 25.7926 28.751 25.8628Z" fill="#8666DC"/>
<path d="M28.751 25.5826L31.226 25.3721C31.226 25.3721 31.226 25.1616 31.226 25.0212L28.6876 25.3019C28.6876 25.3019 28.6876 25.5125 28.6876 25.5826H28.751Z" fill="#8466D7"/>
<path d="M28.8146 25.3016L31.353 25.0209C31.353 25.0209 31.353 24.7402 31.353 24.5999L28.8146 24.9507C28.8146 24.9507 28.8146 25.1613 28.8146 25.2314V25.3016Z" fill="#8863E5"/>
<path d="M28.8146 24.6706C28.8146 24.6706 28.8146 24.8811 28.8146 25.0214L31.353 24.6706C31.353 24.6706 31.353 24.3899 31.353 24.2495L28.878 24.7407L28.8146 24.6706Z" fill="#6D4AE6"/>
<path d="M28.751 24.2488C28.751 24.2488 28.751 24.5295 28.751 24.5997L31.226 24.1085C31.226 24.1085 31.226 23.8278 31.226 23.6173L28.751 24.1787V24.2488Z" fill="#613DE0"/>
<path d="M28.6874 23.8282C28.6874 23.8282 28.6874 24.1088 28.6874 24.2492L31.1624 23.6879C31.1624 23.6879 31.1624 23.2668 31.099 23.1265L28.624 23.8282H28.6874Z" fill="#6832E1"/>
<path d="M28.5605 23.2669C28.5605 23.2669 28.6239 23.6178 28.6874 23.8283L31.1623 23.1266C31.1623 23.1266 31.0989 22.6354 31.0354 22.3547L28.5605 23.1968V23.2669Z" fill="#6528EB"/>
<path d="M29.1953 19.6179L27.1646 21.0915C27.4819 21.302 27.7992 21.5827 28.053 22.0037C28.3068 22.3546 28.4338 22.7757 28.5607 23.1967L31.0356 22.3546C30.9087 21.7932 30.6549 21.2319 30.401 20.8108C30.0837 20.3196 29.703 19.8986 29.2588 19.6179H29.1953Z" fill="#682AEE"/>
<path d="M26.6565 19.1968L25.1969 20.7405C25.895 20.6002 26.593 20.7405 27.1642 21.0914L29.1949 19.6178C28.4968 19.1968 27.6084 19.0565 26.6565 19.1968Z" fill="#4C00EF"/>
<path d="M24.7531 20.8805C24.7531 20.8805 25.0704 20.8103 25.1973 20.7401L26.6568 19.1964C26.6568 19.1964 26.2761 19.2666 26.0857 19.3367L24.7531 20.8805Z" fill="#4601E1"/>
<path d="M24.2456 21.021C24.2456 21.021 24.5629 20.8807 24.7533 20.8807L26.086 19.3369C26.086 19.3369 25.7052 19.4772 25.4514 19.5474L24.2456 21.021Z" fill="#4100CC"/>
<path d="M23.7374 21.3019C23.7374 21.3019 24.1182 21.0914 24.2451 21.0212L25.4509 19.5476C25.4509 19.5476 25.0067 19.7581 24.7528 19.8985L23.674 21.3019H23.7374Z" fill="#21037D"/>
<path d="M24.0549 20.39L23.1665 21.7233C23.1665 21.7233 23.2934 21.6531 23.3569 21.5829C23.4838 21.5127 23.6107 21.4426 23.8011 21.3022L24.8799 19.8988C24.8799 19.8988 24.4991 20.1093 24.3722 20.1795C24.3088 20.1795 24.2453 20.2496 24.1184 20.3198L24.0549 20.39Z" fill="#230381"/>
<path d="M22.405 22.2141C22.405 22.2141 22.8493 21.8633 23.1031 21.6527L23.9915 20.3195C23.9915 20.3195 23.4204 20.7405 23.1031 21.0212L22.405 22.2141Z" fill="#230381"/>
<path d="M21.5165 23.056C21.5165 23.056 22.1511 22.4245 22.4049 22.214L23.103 21.021C22.7222 21.3719 22.3415 21.7227 21.9607 22.1438L21.5165 23.056Z" fill="#1A0369"/>
<path d="M18.2164 28.4594L18.5972 27.9682C19.0414 26.6349 19.7395 25.3718 20.5645 24.1789C20.8818 23.7579 21.1991 23.407 21.5164 23.0561L21.9606 22.1439C21.5799 22.565 21.1356 23.0561 20.7549 23.6175C19.676 25.1613 18.7876 26.7753 18.2164 28.4594Z" fill="#290293"/>
<path d="M17.582 30.6344L18.0897 29.652C18.2166 29.0906 18.3435 28.5293 18.5974 27.9679L18.2166 28.4591C17.9627 29.1608 17.7724 29.9327 17.582 30.6344Z" fill="#1A0369"/>
<path d="M17.3279 32.3887L17.899 31.0554C17.899 30.6344 18.026 30.1432 18.0894 29.7222L17.5817 30.7046C17.4548 31.2659 17.3913 31.8975 17.3279 32.4589V32.3887Z" fill="#230381"/>
<path d="M17.2647 33.7925L17.8358 32.1084C17.8358 31.7576 17.8358 31.4067 17.8358 30.9857L17.2647 32.3189C17.2647 32.8101 17.2012 33.3014 17.2647 33.7224V33.7925Z" fill="#230381"/>
<path d="M17.2643 33.7929C17.2643 34.1437 17.2643 34.4946 17.3278 34.8455L17.8989 32.9508C17.8989 32.9508 17.8989 32.3895 17.8989 32.179L17.3278 33.8631L17.2643 33.7929Z" fill="#21037D"/>
<path d="M17.3278 34.8454C17.3278 34.8454 17.3913 35.4067 17.4547 35.6874L17.9624 33.6524C17.9624 33.6524 17.8989 33.2314 17.8355 33.0209L17.2643 34.9155L17.3278 34.8454Z" fill="#4100CC"/>
<path d="M17.5184 35.6872C17.5184 35.6872 17.6453 36.1082 17.7088 36.3187L18.2165 34.1434C18.2165 34.1434 18.0896 33.7926 18.0896 33.6522L17.5819 35.6872H17.5184Z" fill="#4601E1"/>
<path d="M17.6454 36.3184C17.7724 36.7394 17.9628 37.0903 18.1531 37.4411L18.5339 34.9851C18.5339 34.9851 18.2166 34.4238 18.0897 34.1431L17.582 36.3184H17.6454Z" fill="#4C00EF"/>
<path d="M18.5972 34.9851L18.2164 37.4411C18.9145 38.4937 19.803 38.9849 20.8818 39.055L20.6914 36.2482C19.8664 36.2482 19.1049 35.757 18.5972 34.9851Z" fill="#682AEE"/>
<path d="M20.6914 36.2485L20.8818 39.0554C20.8818 39.0554 21.326 39.0554 21.5164 39.0554L21.1356 36.2485C21.1356 36.2485 20.8183 36.2485 20.6279 36.2485H20.6914Z" fill="#6528EB"/>
<path d="M21.1989 36.2485L21.5796 39.0554C21.5796 39.0554 21.8969 39.0554 22.0239 39.0554L21.5796 36.2485C21.5796 36.2485 21.3258 36.2485 21.1989 36.2485Z" fill="#6832E1"/>
<path d="M21.58 36.1782L22.0242 38.9851C22.0242 38.9851 22.2781 38.9851 22.405 38.9149L21.8339 36.108C21.8339 36.108 21.6435 36.108 21.58 36.108V36.1782Z" fill="#613DE0"/>
<path d="M21.8341 36.108L22.4052 38.9149C22.4052 38.9149 22.5956 38.9149 22.7225 38.8447L22.0879 36.108C22.0879 36.108 21.961 36.108 21.8341 36.1782V36.108Z" fill="#6D4AE6"/>
<path d="M22.0874 36.0378L22.722 38.7745C22.722 38.7745 22.9124 38.7745 22.9758 38.7043L22.2778 35.9677C22.2778 35.9677 22.1509 35.9676 22.0874 36.0378Z" fill="#8863E5"/>
<path d="M22.278 35.9675L22.976 38.7042C22.976 38.7042 23.103 38.7042 23.2299 38.634L22.5318 35.8973C22.5318 35.8973 22.4049 35.8974 22.3414 35.9675H22.278Z" fill="#8466D7"/>
<path d="M22.4685 35.8973L23.1666 38.634C23.1666 38.634 23.2935 38.634 23.3569 38.5638L22.5954 35.8973C22.5954 35.8973 22.4685 35.8974 22.405 35.9675L22.4685 35.8973Z" fill="#8666DC"/>
<path d="M22.6591 35.8278L23.4206 38.4944C23.4206 38.4944 23.5475 38.4944 23.611 38.4242L22.786 35.7577C22.786 35.7577 22.659 35.7577 22.5956 35.8278H22.6591Z" fill="#8F6BEF"/>
<path d="M22.7854 35.7577L23.6104 38.4242C23.6104 38.4242 23.7373 38.4242 23.8008 38.354L22.9123 35.6875C22.9123 35.6875 22.7854 35.6875 22.7854 35.7577Z" fill="#9573F2"/>
<path d="M22.9124 35.6874L23.8009 38.3539C23.8009 38.3539 23.9278 38.3539 23.9912 38.2136L23.1028 35.6172C23.1028 35.6172 22.9758 35.6172 22.9758 35.6874H22.9124Z" fill="#9A79EF"/>
<path d="M23.103 35.6171L23.9915 38.2135C23.9915 38.2135 24.1184 38.1433 24.1818 38.0731L23.2299 35.4768C23.2299 35.4768 23.1665 35.4768 23.103 35.5469V35.6171Z" fill="#9974FA"/>
<path d="M23.357 35.4767C23.357 35.4767 23.2935 35.4767 23.23 35.4767L24.182 38.073C24.182 38.073 24.2454 38.073 24.3089 38.0029L23.357 35.4065V35.4767Z" fill="#9D7EF0"/>
<path d="M23.3571 35.4065L24.309 38.0029C24.309 38.0029 24.4359 37.9327 24.4994 37.8625L23.484 35.3363C23.484 35.3363 23.4206 35.3363 23.3571 35.4065Z" fill="#9D7EEB"/>
<path d="M23.4841 35.3361L24.4995 37.8623C24.4995 37.8623 24.6264 37.7922 24.6899 37.722L23.6111 35.1958C23.6111 35.1958 23.5476 35.1958 23.4841 35.2659V35.3361Z" fill="#B8A0F8"/>
<path d="M23.674 35.2659L24.7528 37.7921C24.7528 37.7921 24.8797 37.722 24.9432 37.6518L23.8644 35.1256C23.8644 35.1256 23.8009 35.1256 23.7374 35.1958L23.674 35.2659Z" fill="#A08CD7"/>
<path d="M23.801 35.1255L24.8798 37.6517C24.8798 37.6517 25.0067 37.5815 25.0702 37.5113L23.9279 35.0553C23.9279 35.0553 23.8644 35.0553 23.801 35.1255Z" fill="#B09AEB"/>
<path d="M23.928 35.056L25.0703 37.512C25.0703 37.512 25.1972 37.4418 25.2607 37.3716L24.1184 34.9156C24.1184 34.9156 24.055 34.9858 23.9915 35.056H23.928Z" fill="#AB91EF"/>
<path d="M24.0551 34.9156L25.1973 37.3716C25.1973 37.3716 25.3243 37.3015 25.3877 37.2313L24.182 34.8455C24.182 34.8455 24.1185 34.9157 24.0551 34.9858V34.9156Z" fill="#B49DF2"/>
<path d="M24.1821 34.8453L25.3879 37.2311C25.3879 37.2311 25.5148 37.1609 25.5783 37.0908L24.3091 34.705C24.3091 34.705 24.2456 34.7751 24.1821 34.8453Z" fill="#B091F3"/>
<path d="M24.3091 34.7048L25.5783 37.0906C25.5783 37.0906 25.7052 36.9503 25.7687 36.8801L24.4995 34.5645C24.4995 34.5645 24.3726 34.6347 24.3091 34.7048Z" fill="#B194F5"/>
<path d="M24.499 34.5643L25.7681 36.8799C25.7681 36.8799 25.8951 36.7396 25.9585 36.6694L24.6259 34.3538C24.6259 34.3538 24.499 34.424 24.499 34.4941V34.5643Z" fill="#A38FE5"/>
<path d="M24.626 34.4239L25.9586 36.7396C25.9586 36.7396 26.0856 36.5992 26.2125 36.5291L24.8163 34.2836C24.8163 34.2836 24.6894 34.424 24.626 34.4941V34.4239Z" fill="#B19FEF"/>
<path d="M24.8165 34.2139L26.2127 36.4594C26.2127 36.4594 26.4031 36.3191 26.4665 36.1787L25.007 34.0034C25.007 34.0034 24.88 34.1438 24.8165 34.2139Z" fill="#C2B3F7"/>
<path d="M25.0071 34.0031L26.4667 36.1784C26.9109 35.6872 27.3551 35.196 27.7994 34.5644L26.086 32.74C25.7687 33.2312 25.3879 33.5821 25.0706 34.0031H25.0071Z" fill="#B3A1E8"/>
</g>
<path d="M49.5658 47.8971L45.1236 40.88C49.9465 28.5297 50.5176 17.1619 46.3293 10.636C42.3947 4.46087 35.2237 4.11 27.7989 8.8115C24.2451 11.1272 20.5644 14.5656 17.2645 19.1267C7.1108 33.0207 3.62048 51.8268 9.52229 61.0192C13.4568 67.1944 20.6278 67.5452 27.9892 62.8437C28.37 62.563 28.8142 62.2823 30.1469 61.3701L34.5891 68.3872L36.4929 65.7909L39.4121 70.4222L44.2351 69.0188L42.9659 75.9658L43.4101 76.6675L48.8043 75.0536L47.3447 82.8426L47.535 83.1233L55.9118 80.6673L53.6272 92.7368L54.5157 94.1403L60.9886 92.2456L59.2752 101.649L60.0367 102.842L60.354 103.403L66.002 101.719L69.2385 84.4566L47.5985 50.5636L49.5023 47.9673L49.5658 47.8971ZM27.7354 34.6347C26.6566 36.1083 25.4508 37.3012 24.2451 38.0731C21.8336 39.6169 19.4221 39.5467 18.1529 37.5117C16.2491 34.4944 17.3914 28.2491 20.7548 23.6879C21.8336 22.2143 23.0393 21.0214 24.2451 20.3197C26.6566 18.7759 29.0681 18.8461 30.3373 20.881C32.2411 23.8984 31.1623 30.0735 27.7989 34.7049L27.7354 34.6347Z" fill="url(#paint0_linear_41_22504)"/>
<mask id="mask3_41_22504" style="mask-type:luminance" maskUnits="userSpaceOnUse" x="4" y="2" width="46" height="66">
<path d="M30.2103 61.3695L28.37 63.3343C27.9258 63.6149 27.4815 63.8956 27.1007 64.1763C19.1682 69.2287 11.4895 68.8779 7.23767 62.2817C0.955096 52.3875 4.69924 32.2482 15.551 17.3718C19.1047 12.4598 23.0393 8.74071 26.8469 6.2847C34.7794 1.23234 42.4582 1.58319 46.71 8.2495C51.1522 15.2667 50.5811 27.4064 46.0119 39.1952L45.1869 40.8793C50.0099 28.5291 50.5811 17.1613 46.3927 10.6354C42.4582 4.46026 35.2871 4.10938 27.8623 8.81088C24.3085 11.1266 20.6278 14.565 17.3278 19.1261C7.17419 33.0201 3.68391 51.8261 9.58572 61.0186C13.5203 67.1937 20.6913 67.5446 28.0527 62.8431C28.4334 62.5624 28.8777 62.2817 30.2103 61.3695Z" fill="white"/>
</mask>
<g mask="url(#mask3_41_22504)">
<path d="M26.4027 63.8258L25.3239 65.2292C25.895 64.9485 26.4662 64.5977 27.0373 64.1766C27.4815 63.8959 27.9257 63.6152 28.3065 63.3345L30.1469 61.3698C28.8142 62.282 28.3699 62.6328 27.9892 62.8433C27.418 63.1942 26.9104 63.4749 26.3392 63.8258H26.4027Z" fill="#230381"/>
<path d="M23.1029 66.2816C23.8644 66.0009 24.5625 65.65 25.324 65.229L26.4028 63.8256C25.7048 64.1764 25.0067 64.5273 24.3087 64.808L23.1029 66.2816Z" fill="#21037D"/>
<path d="M21.0725 66.9834C21.7071 66.7729 22.4052 66.5624 23.1032 66.2817L24.309 64.8081C23.6744 65.0888 23.0398 65.2993 22.4052 65.5098L21.0725 67.0536V66.9834Z" fill="#4100CC"/>
<path d="M19.2319 67.405C19.8665 67.2646 20.4376 67.1243 21.0722 66.984L22.4049 65.4402C21.8337 65.5805 21.2626 65.7209 20.6915 65.8612L19.2319 67.405Z" fill="#4601E1"/>
<path d="M13.076 64.5981L11.0453 66.0718C13.3933 67.5454 16.2491 67.9664 19.2952 67.405L20.7547 65.8612C17.899 66.3524 15.2971 65.9314 13.076 64.5981Z" fill="#4C00EF"/>
<path d="M9.52252 61.019C8.63408 59.6156 7.93602 58.0016 7.4918 56.2473L5.01685 57.0893C5.52453 58.984 6.22257 60.6681 7.17447 62.2119C8.2533 63.896 9.52253 65.1591 10.9187 66.0012L12.9494 64.5276C11.6167 63.6855 10.411 62.4926 9.45905 60.9488L9.52252 61.019Z" fill="#682AEE"/>
<path d="M4.5722 54.7039C4.69913 55.546 4.88947 56.388 5.07985 57.1599L7.55485 56.3178C7.36447 55.6161 7.17407 54.8443 7.04715 54.0022L4.5722 54.7039Z" fill="#6528EB"/>
<path d="M4.31885 52.8794C4.31885 53.511 4.44577 54.1425 4.57269 54.7039L7.04764 54.0022C6.98418 53.4408 6.85727 52.8795 6.85727 52.2479L4.38232 52.8093L4.31885 52.8794Z" fill="#6832E1"/>
<path d="M4.19172 51.3352C4.19172 51.8264 4.19175 52.3878 4.31867 52.879L6.79362 52.3176C6.79362 51.8264 6.73013 51.4054 6.66667 50.9142L4.1283 51.4054L4.19172 51.3352Z" fill="#613DE0"/>
<path d="M4.19183 50.0024C4.19183 50.4234 4.19183 50.9146 4.19183 51.3356L6.73026 50.8444C6.73026 50.4234 6.73026 50.0023 6.73026 49.5813L4.19183 49.9322V50.0024Z" fill="#6D4AE6"/>
<path d="M4.19183 50.0022L6.73026 49.6513C6.73026 49.2302 6.73026 48.8794 6.73026 48.4584L4.19183 48.7391C4.19183 49.1601 4.19183 49.5811 4.19183 50.0723V50.0022Z" fill="#8863E5"/>
<path d="M4.19183 48.6686L6.73026 48.3879C6.73026 48.0371 6.73026 47.6862 6.73026 47.3353L4.19183 47.5458C4.19183 47.9669 4.19183 48.3178 4.19183 48.7388V48.6686Z" fill="#8466D7"/>
<path d="M4.25537 47.5456L6.79379 47.3351C6.79379 46.9843 6.79381 46.6334 6.85727 46.2124L4.38232 46.3527C4.38232 46.7738 4.38231 47.1246 4.31884 47.5456H4.25537Z" fill="#8666DC"/>
<path d="M4.31885 46.3534L6.7938 46.2131C6.7938 45.8622 6.85724 45.5114 6.9207 45.1605H4.44575C4.44575 45.5816 4.38231 46.0026 4.31885 46.3534Z" fill="#8F6BEF"/>
<path d="M4.44592 45.1602H6.92087C6.92087 44.7392 6.98436 44.3883 7.04782 43.9673H4.57287C4.57287 44.3181 4.44592 44.7392 4.44592 45.1602Z" fill="#9573F2"/>
<path d="M4.5722 44.0371H7.04715C7.04715 43.6862 7.17407 43.3354 7.23753 42.9144L4.76258 42.774C4.69912 43.1951 4.63566 43.6161 4.5722 43.967V44.0371Z" fill="#9A79EF"/>
<path d="M4.76276 42.7746L7.23771 42.9149C7.23771 42.4939 7.36462 42.143 7.42808 41.722L4.95313 41.5115C4.88967 41.9325 4.82622 42.3535 4.76276 42.7746Z" fill="#9974FA"/>
<path d="M4.95331 41.511L7.42826 41.7215C7.49172 41.3005 7.61864 40.8795 7.68211 40.4584L5.27063 40.1777C5.14371 40.5988 5.08024 41.09 5.01678 41.511H4.95331Z" fill="#9D7EF0"/>
<path d="M5.27094 40.1781L7.68241 40.4588C7.80933 40.0378 7.87281 39.5466 7.99973 39.1255L5.58821 38.7747C5.46129 39.2659 5.3344 39.7571 5.27094 40.2483V40.1781Z" fill="#9D7EEB"/>
<path d="M5.5877 38.7045L7.99923 39.0554C8.12615 38.5642 8.25305 38.073 8.37998 37.5818L5.9685 37.0906C5.84158 37.6519 5.71461 38.1432 5.52423 38.7045H5.5877Z" fill="#B8A0F8"/>
<path d="M6.03241 37.0905L8.44393 37.5817C8.57085 37.0203 8.7612 36.4589 8.95158 35.8976L6.60358 35.266C6.4132 35.8975 6.2228 36.4589 6.09588 37.0905H6.03241Z" fill="#A08CD7"/>
<path d="M6.53979 35.336L8.88785 35.9676C9.07823 35.336 9.26858 34.7747 9.45897 34.1431L7.17439 33.3712C6.92055 34.0028 6.73018 34.6343 6.53979 35.2658V35.336Z" fill="#B09AEB"/>
<path d="M7.17425 33.371L9.45883 34.1429C9.64921 33.5114 9.90306 32.8799 10.1569 32.2483L7.87232 31.4062C7.61848 32.108 7.36462 32.7395 7.11078 33.4412L7.17425 33.371Z" fill="#AB91EF"/>
<path d="M7.93579 31.4069L10.2204 32.249C10.4742 31.6175 10.728 30.9859 10.9819 30.4245L8.76076 29.4421C8.50692 30.0737 8.18963 30.7754 7.93579 31.4069Z" fill="#B49DF2"/>
<path d="M8.69727 29.3718L10.9184 30.3542C11.1723 29.7929 11.4261 29.2315 11.6799 28.6701L9.52228 27.5474C9.26844 28.1789 8.95111 28.7403 8.69727 29.3718Z" fill="#B091F3"/>
<path d="M9.52228 27.5474L11.6799 28.6702C11.9337 28.1088 12.1876 27.6176 12.4414 27.0562L10.3472 25.7931C10.0934 26.3545 9.77612 26.9159 9.52228 27.4772V27.5474Z" fill="#B194F5"/>
<path d="M10.3473 25.8626L12.4415 27.1257C12.6953 26.6345 12.9492 26.1433 13.203 25.6521L11.1723 24.3188C10.9185 24.8802 10.6011 25.3714 10.3473 25.9328V25.8626Z" fill="#A38FE5"/>
<path d="M11.1723 24.2487L13.203 25.582C13.4569 25.0908 13.7742 24.5996 14.028 24.1084L12.0607 22.6348C11.7434 23.1961 11.4261 23.6873 11.1723 24.2487Z" fill="#B19FEF"/>
<path d="M12.1244 22.6349L14.0917 24.1085C14.409 23.6173 14.7263 23.0559 15.0436 22.5647L13.1398 20.9508C12.8225 21.5122 12.4417 22.0735 12.1244 22.6349Z" fill="#C2B3F7"/>
<path d="M15.5514 17.3017C14.6629 18.4946 13.8379 19.6876 13.0764 20.9507L14.9802 22.5646C15.6783 21.3717 16.5033 20.2489 17.2648 19.1262C18.5975 17.3719 19.9302 15.6877 21.3263 14.2843L19.8667 12.109C18.4071 13.6528 16.9475 15.4071 15.5514 17.3017Z" fill="#B3A1E8"/>
<path d="M19.8663 12.109L21.3259 14.2844C21.3259 14.2844 21.8336 13.723 22.0874 13.5125L20.6913 11.267C20.6913 11.267 20.1202 11.8284 19.8663 12.109Z" fill="#C2B3F7"/>
<path d="M20.7549 11.2671L22.151 13.5126C22.151 13.5126 22.5952 13.0214 22.8491 12.8109L21.5164 10.4952C21.5164 10.4952 21.0087 10.9865 20.7549 11.197V11.2671Z" fill="#B19FEF"/>
<path d="M21.5164 10.4955L22.849 12.8112C22.849 12.8112 23.2298 12.3902 23.4836 12.2498L22.2144 9.9342C22.2144 9.9342 21.7702 10.3552 21.5798 10.5657L21.5164 10.4955Z" fill="#A38FE5"/>
<path d="M22.1508 9.9337L23.42 12.2493C23.42 12.2493 23.8007 11.8985 23.9911 11.7581L22.7219 9.37231C22.7219 9.37231 22.3411 9.72319 22.0873 9.9337H22.1508Z" fill="#B194F5"/>
<path d="M22.7853 9.37267L24.0545 11.7585C24.0545 11.7585 24.4353 11.4076 24.6256 11.2673L23.4199 8.88147C23.4199 8.88147 23.0391 9.23233 22.7853 9.37267Z" fill="#B091F3"/>
<path d="M23.357 8.81151L24.5627 11.1974C24.5627 11.1974 24.9435 10.9167 25.0704 10.7763L23.9281 8.32031C23.9281 8.32031 23.5474 8.601 23.357 8.81151Z" fill="#B49DF2"/>
<path d="M23.9278 8.39018L25.0701 10.8462C25.0701 10.8462 25.4509 10.5655 25.5778 10.4252L24.4355 7.96912C24.4355 7.96912 24.0548 8.24984 23.8644 8.39018H23.9278Z" fill="#AB91EF"/>
<path d="M24.4988 7.89928L25.6411 10.3553C25.6411 10.3553 25.9584 10.0746 26.1488 9.93427L25.07 7.40808C25.07 7.40808 24.6892 7.68875 24.4988 7.82909V7.89928Z" fill="#B09AEB"/>
<path d="M25.0704 7.47802L26.1493 10.0042C26.1493 10.0042 26.4666 9.72355 26.657 9.65338L25.5781 7.1272C25.5781 7.1272 25.1974 7.40787 25.007 7.54821L25.0704 7.47802Z" fill="#A08CD7"/>
<path d="M25.6415 7.12676L26.7203 9.65294C26.7203 9.65294 27.1011 9.37224 27.228 9.30206L26.2126 6.77588C26.2126 6.77588 25.8319 7.05655 25.6415 7.19689V7.12676Z" fill="#B8A0F8"/>
<path d="M26.2124 6.70617L27.2278 9.23235C27.2278 9.23235 27.5451 9.02187 27.7354 8.88153L26.7836 6.28516C26.7836 6.28516 26.4028 6.56586 26.2124 6.63604V6.70617Z" fill="#9D7EEB"/>
<path d="M26.8467 6.28484C26.8467 6.28484 26.7832 6.28486 26.7198 6.35503L27.6717 8.95135C27.6717 8.95135 27.7351 8.95139 27.7986 8.88121C27.9255 8.81104 28.0524 8.67069 28.2428 8.60052L27.2909 6.00415C27.2909 6.00415 26.9736 6.21467 26.8467 6.28484Z" fill="#9D7EF0"/>
<path d="M27.355 6.00463L28.3069 8.60101C28.3069 8.60101 28.6876 8.39047 28.878 8.25013L27.9896 5.65381C27.9896 5.65381 27.6088 5.86429 27.4185 6.00463H27.355Z" fill="#9974FA"/>
<path d="M27.9259 5.65349L28.8143 8.24981C28.8143 8.24981 29.1951 8.03932 29.3855 7.89898L28.497 5.23242C28.497 5.23242 28.1163 5.44296 27.8624 5.5833L27.9259 5.65349Z" fill="#9A79EF"/>
<path d="M28.5604 5.3023L29.4488 7.9688C29.4488 7.9688 29.8295 7.75834 30.0199 7.68816L29.195 5.02161C29.195 5.02161 28.7507 5.23214 28.5604 5.37249V5.3023Z" fill="#9573F2"/>
<path d="M29.1948 4.9519L30.0198 7.61846C30.0198 7.61846 30.4641 7.40794 30.6544 7.33777L29.8929 4.67126C29.8929 4.67126 29.4487 4.88175 29.1948 5.02209V4.9519Z" fill="#8F6BEF"/>
<path d="M29.8301 4.60076L30.5916 7.26726C30.5916 7.26726 31.0358 7.05674 31.2262 6.98657L30.5281 4.24988C30.5281 4.24988 30.0839 4.46041 29.8301 4.60076Z" fill="#8666DC"/>
<path d="M30.528 4.25042L31.2261 6.98711C31.2261 6.98711 31.7338 6.77659 31.9876 6.70642L31.353 3.96973C31.353 3.96973 30.8453 4.18026 30.5915 4.32061L30.528 4.25042Z" fill="#8466D7"/>
<path d="M31.353 3.96954L31.9876 6.70623C31.9876 6.70623 32.5587 6.49576 32.8125 6.42559L32.1779 3.68884C32.1779 3.68884 31.6068 3.89936 31.2895 3.96954H31.353Z" fill="#8863E5"/>
<path d="M32.2416 3.61821L32.8762 6.3549C32.8762 6.3549 33.5108 6.14438 33.7646 6.07421L33.1934 3.26733C32.8761 3.33751 32.5589 3.47786 32.2416 3.54803V3.61821Z" fill="#6D4AE6"/>
<path d="M33.1929 3.33819L33.764 6.14507C34.1448 6.07489 34.4621 5.93454 34.8429 5.86437L34.3986 3.0575C34.0179 3.12767 33.6371 3.19784 33.2563 3.33819H33.1929Z" fill="#613DE0"/>
<path d="M34.3355 3.05731L34.7797 5.86419C35.224 5.79401 35.6682 5.72385 36.1759 5.65368L35.7951 2.8468C35.2874 2.8468 34.8432 2.98714 34.3355 3.05731Z" fill="#6832E1"/>
<path d="M35.7949 2.8468L36.1757 5.65368C36.8737 5.65368 37.5083 5.58351 38.2064 5.65368L37.9526 2.8468C37.2545 2.8468 36.5564 2.8468 35.7949 2.8468Z" fill="#6528EB"/>
<path d="M37.9524 2.84668L38.2062 5.65355C41.5062 5.86407 44.3619 7.47801 46.3926 10.6357C46.583 10.9866 46.7734 11.2673 46.9638 11.6181L47.408 9.23227C47.2176 8.88141 47.0272 8.5306 46.7734 8.17974C44.6157 4.8115 41.5696 3.05718 38.0159 2.77649L37.9524 2.84668Z" fill="#682AEE"/>
<path d="M46.964 11.6887C47.3447 12.4606 47.7255 13.3027 47.9793 14.1447L48.487 11.9694C48.1697 11.0571 47.789 10.1449 47.3447 9.30286L46.9005 11.6887H46.964Z" fill="#4C00EF"/>
<path d="M47.9796 14.1448C48.2335 14.8466 48.4239 15.4781 48.5508 16.25L49.1219 14.215C48.9315 13.4431 48.7412 12.6712 48.4873 11.9695L47.9796 14.1448Z" fill="#4601E1"/>
<path d="M48.5505 16.2496C48.7409 17.1618 48.8678 18.0741 48.9947 19.0565L49.5658 17.1619C49.4389 16.1093 49.312 15.1268 49.0581 14.2146L48.487 16.2496H48.5505Z" fill="#4100CC"/>
<path d="M48.9944 18.9864C49.1214 20.3898 49.1848 21.7933 49.1213 23.3371L49.7559 21.653C49.7559 20.1092 49.7559 18.5654 49.5656 17.0918L48.9944 18.9864Z" fill="#21037D"/>
<path d="M48.2964 30.4238L48.9945 28.88C49.4387 26.424 49.7559 23.968 49.7559 21.6523L49.1214 23.3364C49.0579 25.5819 48.7406 27.8976 48.2329 30.4238H48.2964Z" fill="#230381"/>
<path d="M46.71 36.3183L47.4715 34.7745C48.1061 32.8097 48.5503 30.7748 48.9311 28.8801L48.233 30.4239C47.8522 32.3185 47.3446 34.3535 46.71 36.3885V36.3183Z" fill="#230381"/>
<path d="M45.441 40.1785L46.2661 38.4944C46.7103 37.2313 47.1545 36.0384 47.5352 34.7753L46.7737 36.3191C46.3929 37.5821 45.9487 38.8453 45.441 40.1785Z" fill="#1A0369"/>
<path d="M45.1234 40.8796L45.9484 39.1955C45.9484 39.1955 46.1388 38.7745 46.2022 38.564L45.3773 40.2481C45.3773 40.2481 45.1869 40.6691 45.1234 40.9498V40.8796Z" fill="#290293"/>
</g>
<mask id="mask4_41_22504" style="mask-type:luminance" maskUnits="userSpaceOnUse" x="0" y="0" width="44" height="66">
<path d="M10.8547 65.931C9.45858 65.0187 8.06242 64.1065 6.6663 63.1943C5.27017 62.2821 4.06442 61.0891 3.04906 59.4752C-3.23352 49.581 0.510678 29.4417 11.3624 14.5653C14.9162 9.65329 18.8507 5.93418 22.6583 3.47817C28.6871 -0.381272 34.5889 -1.08299 38.9042 1.72388C40.3003 2.63611 41.6964 3.54834 43.0926 4.46057C38.7773 1.6537 32.8754 2.42559 26.8467 6.21486C22.9756 8.67087 19.1045 12.39 15.5508 17.302C4.63557 32.2486 0.89143 52.3879 7.23746 62.2119C8.25283 63.8258 9.45858 65.0187 10.8547 65.931Z" fill="white"/>
</mask>
<g mask="url(#mask4_41_22504)">
<path d="M6.60339 63.2644L6.98414 63.4749L6.60339 63.1942V63.2644Z" fill="#613FCA"/>
<path d="M6.98376 63.4752L10.8548 65.9312H10.7914L6.98376 63.4752Z" fill="#613FCA"/>
<path d="M5.39728 62.3522C5.77804 62.703 6.15882 62.9838 6.60304 63.2644L10.7914 66.0011C10.3472 65.7204 9.96645 65.4397 9.58568 65.0889L5.39728 62.3522Z" fill="#1B036D"/>
<path d="M4.19189 61.1589C4.57266 61.58 4.95342 62.001 5.33418 62.3518L9.52259 65.0885C9.14183 64.7377 8.6976 64.3167 8.3803 63.8956L4.19189 61.1589Z" fill="#1A0369"/>
<path d="M3.04926 59.6154C3.43002 60.1767 3.81078 60.6679 4.19154 61.1591L8.37995 63.8958C7.99919 63.4046 7.61842 62.9134 7.23766 62.352L3.04926 59.6154Z" fill="#1C036E"/>
<path d="M6.09582 60.1069L1.90741 57.3702C2.22471 58.1421 2.60548 58.8439 3.0497 59.5456L7.2381 62.2823C6.79388 61.5806 6.41312 60.8788 6.09582 60.1069Z" fill="#1E0374"/>
<path d="M0.637756 53.7212C0.955058 55.0545 1.33584 56.2474 1.84352 57.4403L6.03188 60.177C5.52419 59.0542 5.14346 57.7911 4.82616 56.4579L0.637756 53.7212Z" fill="#250386"/>
<path d="M0.00323486 49.2301C0.130156 50.8441 0.320527 52.3177 0.637829 53.7211L4.82623 56.4578C4.50893 55.0543 4.31851 53.5106 4.19159 51.9668L0.00323486 49.2301Z" fill="#1C036F"/>
<path d="M4.19159 48.5285L0.00323486 45.7917C0.00323486 46.9847 0.00323486 48.1074 0.00323486 49.16L4.19159 51.8967C4.12813 50.774 4.12813 49.6512 4.19159 48.5285Z" fill="#1D0372"/>
<path d="M0.00323486 45.7914L4.19159 48.5282C4.19159 47.5458 4.31855 46.5633 4.38201 45.5809L0.193608 42.8442C0.0666875 43.8266 0.00323486 44.809 0.00323486 45.7914Z" fill="#250388"/>
<path d="M0.193848 42.8441L4.38225 45.5808C4.44571 44.6686 4.57262 43.6862 4.763 42.774L0.574594 40.0372C0.447674 41.0196 0.320768 41.9319 0.193848 42.8441Z" fill="#27028D"/>
<path d="M0.574219 40.038L4.76263 42.7747C4.88955 41.8625 5.07994 40.9502 5.27032 40.038L1.08191 37.3013C0.891532 38.2135 0.701139 39.1257 0.574219 40.038Z" fill="#290293"/>
<path d="M1.0824 37.3011L5.2708 40.0378C5.46118 39.1256 5.71502 38.2134 5.9054 37.3011L1.71699 34.5645C1.46315 35.4767 1.27278 36.389 1.0824 37.231V37.3011Z" fill="#1A0369"/>
<path d="M1.78033 34.6346L5.96874 37.3713C6.22258 36.4591 6.47641 35.5469 6.79371 34.6346L2.6053 31.8979C2.288 32.8102 2.03418 33.7224 1.78033 34.6346Z" fill="#230381"/>
<path d="M2.54187 31.8979L6.73023 34.6346C7.04753 33.7224 7.36484 32.8804 7.68214 31.9681L3.49374 29.2314C3.17643 30.1437 2.85917 30.9857 2.54187 31.8979Z" fill="#230381"/>
<path d="M3.4939 29.2315L7.6823 31.9682C7.9996 31.1261 8.31688 30.2841 8.69764 29.442L4.50929 26.7053C4.12852 27.5474 3.8112 28.3894 3.4939 29.2315Z" fill="#21037D"/>
<path d="M4.50873 26.7048L8.69709 29.4415C9.01439 28.6696 9.33171 27.9679 9.71247 27.196L5.52407 24.4594C5.14331 25.2312 4.82603 25.933 4.50873 26.7048Z" fill="#4100CC"/>
<path d="M5.52429 24.4599L9.7127 27.1966C10.03 26.4949 10.3473 25.8633 10.7281 25.1616L6.53968 22.4249C6.22238 23.0565 5.84159 23.7582 5.52429 24.4599Z" fill="#4601E1"/>
<path d="M6.53986 22.4248L10.7283 25.1615C11.0456 24.53 11.4263 23.8984 11.7436 23.2668L7.55524 20.5302C7.17448 21.1617 6.85716 21.7933 6.53986 22.4248Z" fill="#4C00EF"/>
<path d="M7.55469 20.53L11.743 23.2667C12.1238 22.6351 12.5046 22.0036 12.8853 21.3721L8.69693 18.6354C8.31617 19.2669 7.93545 19.8984 7.55469 20.53Z" fill="#682AEE"/>
<path d="M8.69733 18.6349L12.8857 21.3716C13.3934 20.5997 13.8377 19.8278 14.3453 19.0559L10.1569 16.3192C9.64925 17.0911 9.14155 17.863 8.69733 18.6349Z" fill="#6528EB"/>
<path d="M11.3626 14.6352C10.9818 15.1965 10.5376 15.7579 10.1568 16.3193L14.3452 19.056C14.726 18.4946 15.1067 17.9332 15.5509 17.3719C16.4394 16.1088 17.3913 14.986 18.3432 13.8633L14.1548 11.1266C13.2029 12.1792 12.3145 13.3721 11.3626 14.6352Z" fill="#6832E1"/>
<path d="M14.1548 11.127L18.3432 13.8637C19.2951 12.7409 20.247 11.7585 21.2624 10.7761L17.074 8.03943C16.1221 8.95166 15.1067 10.0043 14.1548 11.127Z" fill="#6528EB"/>
<path d="M17.011 8.03915L21.1993 10.7758C22.7224 9.30224 24.2454 8.03914 25.7685 6.98657L21.5801 4.24988C20.0571 5.30245 18.534 6.56555 17.011 8.03915Z" fill="#682AEE"/>
<path d="M22.6588 3.54851C22.278 3.75902 21.9607 4.0397 21.58 4.25021L25.7683 6.9869C26.1491 6.70622 26.4664 6.49571 26.8471 6.2852C27.2279 6.00451 27.6721 5.79401 28.0529 5.58349L23.8645 2.8468C23.4838 3.05732 23.103 3.33799 22.6588 3.54851Z" fill="#4C00EF"/>
<path d="M23.8644 2.84671L28.0528 5.58341C28.6239 5.23255 29.1951 4.95188 29.7663 4.67119L25.5778 1.93445C25.0067 2.21513 24.4356 2.49586 23.8644 2.84671Z" fill="#4601E1"/>
<path d="M25.578 1.93474L29.7664 4.67149C30.2741 4.46097 30.7183 4.25043 31.226 4.03991L27.0376 1.30322C26.5299 1.51374 26.0857 1.72423 25.578 1.93474Z" fill="#4100CC"/>
<path d="M27.0375 1.30273L31.2258 4.03942C31.6701 3.89907 32.0508 3.68858 32.495 3.6184L28.3067 0.881714C27.8624 1.02206 27.4817 1.16238 27.0375 1.30273Z" fill="#21037D"/>
<path d="M28.3063 0.881397L32.4947 3.61809C32.8755 3.47775 33.2562 3.40755 33.637 3.26721L29.4486 0.530518C29.0679 0.600689 28.6871 0.741054 28.3063 0.881397Z" fill="#230381"/>
<path d="M29.449 0.531185L33.6373 3.26788C34.0181 3.1977 34.3354 3.12754 34.7162 3.05737L30.5278 0.320679C30.2105 0.320679 29.8297 0.461013 29.449 0.531185Z" fill="#230381"/>
<path d="M30.4645 0.320549L34.6529 3.05724C34.9702 3.05724 35.2876 2.91692 35.6049 2.91692L31.4165 0.180176C31.0992 0.180176 30.7818 0.250377 30.4645 0.320549Z" fill="#1A0369"/>
<path d="M31.4794 0.180176L35.6677 2.91692C35.6677 2.91692 36.3023 2.91692 36.6196 2.91692L32.4313 0.180176C32.4313 0.180176 31.7967 0.180176 31.4794 0.180176Z" fill="#290293"/>
<path d="M32.4314 0.109985L36.6198 2.84668C36.6198 2.84668 37.1909 2.84668 37.5082 2.84668L33.3198 0.109985C33.3198 0.109985 32.7487 0.109985 32.4314 0.109985Z" fill="#27028D"/>
<path d="M33.2565 0.109985L37.4449 2.84668C37.4449 2.84668 38.016 2.84668 38.2698 2.84668L34.0814 0.109985C34.0814 0.109985 33.5103 0.109985 33.2565 0.109985Z" fill="#250388"/>
<path d="M34.145 0.109985L38.3334 2.84668C38.3334 2.84668 38.9045 2.84665 39.1583 2.987L34.97 0.250305C34.97 0.250305 34.4623 0.180157 34.145 0.109985Z" fill="#1D0372"/>
<path d="M34.97 0.250488L39.1583 2.98718C39.1583 2.98718 39.666 3.05738 39.9199 3.12755L35.7315 0.390862C35.7315 0.390862 35.2238 0.250488 34.97 0.250488Z" fill="#1C036F"/>
<path d="M35.7315 0.390991L39.9199 3.12768C39.9199 3.12768 40.4276 3.26802 40.6814 3.33819L36.493 0.601498C36.493 0.601498 35.9853 0.461163 35.7315 0.390991Z" fill="#250386"/>
<path d="M36.493 0.60083L40.6813 3.33752C40.6813 3.33752 41.189 3.47787 41.4429 3.61821L37.2545 0.881523C37.2545 0.881523 36.7468 0.671002 36.493 0.60083Z" fill="#1E0374"/>
<path d="M37.2545 0.881714L41.4429 3.6184C41.4429 3.6184 41.9506 3.82889 42.2044 3.96923L38.016 1.23254C38.016 1.23254 37.5083 1.02206 37.2545 0.881714Z" fill="#1C036E"/>
<path d="M37.9525 1.23291L42.1409 3.9696C42.1409 3.9696 42.6485 4.25032 42.8389 4.39067L38.6505 1.65398C38.6505 1.65398 38.1428 1.37325 37.9525 1.23291Z" fill="#1A0369"/>
<path d="M38.7139 1.65356L42.9023 4.39026C42.9023 4.39026 43.0292 4.4604 43.0927 4.53058L38.9043 1.79388C38.9043 1.79388 38.7774 1.72374 38.7139 1.65356Z" fill="#1B036D"/>
</g>
<path d="M32.6854 51.5455L49.1216 69.1586L50.0735 69.7902L33.5739 52.1771L32.6854 51.5455Z" fill="#808080"/>
<mask id="mask5_41_22504" style="mask-type:luminance" maskUnits="userSpaceOnUse" x="12" y="12" width="32" height="45">
<path d="M13.4566 54.9138C13.4566 54.9138 12.822 54.4928 12.5682 54.3525C15.8681 56.4576 20.3104 55.8963 24.8795 53.0192C27.8621 51.1246 30.9082 48.1773 33.7005 44.3179C41.2523 33.7922 44.108 19.9684 40.6811 12.1793L41.633 12.7407C45.1233 20.5297 42.2676 34.3535 34.6524 44.8793C31.8601 48.7387 28.8775 51.6859 25.8314 53.5806C21.2623 56.4576 16.82 57.019 13.5201 54.9138H13.4566Z" fill="white"/>
</mask>
<g mask="url(#mask5_41_22504)">
<path d="M12.5681 54.3525L13.4565 54.9139C13.7738 55.1244 14.1546 55.335 14.5354 55.4753L13.5835 54.9139C13.2027 54.7736 12.8854 54.5631 12.5046 54.3525H12.5681Z" fill="#858585"/>
<path d="M13.6472 54.9136L14.5991 55.475C15.551 55.896 16.6298 56.1065 17.7087 56.1767L16.7568 55.6153C15.6779 55.6153 14.5991 55.3346 13.6472 54.9136Z" fill="#8A8A8A"/>
<path d="M16.7567 55.6156L17.7086 56.177C18.724 56.177 19.8028 56.1068 20.8816 55.8261L19.9297 55.2648C18.8509 55.5455 17.7721 55.6858 16.7567 55.6156Z" fill="#8F8F8F"/>
<path d="M19.8662 55.2651L20.8181 55.8264C22.0239 55.5457 23.2296 55.0546 24.4354 54.3528L23.4834 53.7915C22.2777 54.423 21.072 54.9142 19.8662 55.2651Z" fill="#949494"/>
<path d="M24.8792 53.0188C24.435 53.2995 23.9908 53.5802 23.4831 53.7907L24.435 54.3521C24.8792 54.0714 25.3235 53.8609 25.8311 53.51C27.2907 52.5978 28.6869 51.475 30.1464 50.0716L29.258 49.5103C27.8619 50.8435 26.4023 52.0364 24.9427 52.9487L24.8792 53.0188Z" fill="#999999"/>
<path d="M33.7004 44.3179C32.2408 46.3529 30.7178 48.1072 29.1947 49.5808L30.0831 50.1422C31.6062 48.6686 33.1292 46.9143 34.5888 44.8793C34.7157 44.6688 34.8427 44.5284 34.9696 44.3179L34.0177 43.7566C34.0177 43.7566 33.7638 44.1074 33.6369 44.3179H33.7004Z" fill="#9E9E9E"/>
<path d="M34.0813 43.7569L35.0332 44.3182C36.6832 41.9324 38.1428 39.3361 39.2851 36.7397L38.3332 36.1783C37.1909 38.7747 35.7313 41.3711 34.0813 43.7569Z" fill="#999999"/>
<path d="M38.3326 36.1784L39.2846 36.7398C40.0461 35.0557 40.6807 33.3013 41.2518 31.5471L40.2999 30.9857C39.7922 32.74 39.0942 34.4241 38.3326 36.1784Z" fill="#949494"/>
<path d="M40.3003 30.9852L41.2522 31.5465C41.7599 29.9326 42.1407 28.3186 42.458 26.7047L41.5695 26.0731C41.2522 27.6871 40.8714 29.301 40.3638 30.915L40.3003 30.9852Z" fill="#8F8F8F"/>
<path d="M41.5056 26.2139L42.3941 26.8454C42.7114 25.0911 42.9017 23.3368 42.9652 21.7229L42.0767 21.1615C42.0767 22.7754 41.8229 24.5297 41.5056 26.284V26.2139Z" fill="#8A8A8A"/>
<path d="M40.6179 12.1793C41.6967 14.6353 42.2043 17.7229 42.0774 21.0911L42.9659 21.6525C43.0928 18.2842 42.6486 15.1967 41.5063 12.7407L40.5544 12.1793H40.6179Z" fill="#858585"/>
</g>
<mask id="mask6_41_22504" style="mask-type:luminance" maskUnits="userSpaceOnUse" x="11" y="53" width="5" height="6">
<path d="M15.678 58.282C15.678 58.282 15.1703 57.9311 14.9164 57.7908C14.9164 57.7908 14.853 57.7908 14.7895 57.7206C13.8376 57.0891 12.9492 56.247 12.1876 55.1242C11.8069 54.5629 11.4896 53.9313 11.1723 53.2998L12.1242 53.8611C12.378 54.4927 12.7588 55.1242 13.1396 55.6856C13.9011 56.8084 14.7895 57.6504 15.7414 58.282H15.678Z" fill="white"/>
</mask>
<g mask="url(#mask6_41_22504)">
<path d="M13.076 55.6856C12.6952 55.1242 12.3779 54.4927 12.0606 53.8611L11.1087 53.2998C11.3625 53.9313 11.7433 54.5629 12.124 55.1242C12.8856 56.247 13.774 57.0891 14.7259 57.7206L15.6779 58.3521C14.726 57.7206 13.8375 56.8785 13.076 55.7558V55.6856Z" fill="#858585"/>
</g>
<path d="M42.7756 14.214C42.3948 13.6526 42.014 13.1614 41.5698 12.7404C45.0601 20.5294 42.2044 34.3532 34.5892 44.879C31.7969 48.7384 28.8143 51.6856 25.7682 53.5803C20.5645 56.9485 15.4242 57.1591 12.0608 53.7908C12.3146 54.4224 12.6954 55.0539 13.0761 55.6153C16.3126 60.4571 22.0875 60.6676 27.9893 56.8783C29.8297 55.6854 31.7335 54.0715 33.5738 52.1067L50.0101 69.7198L51.2158 67.9655L39.6026 43.6159C45.5044 32.9498 46.9639 20.5294 42.7121 14.1438L42.7756 14.214Z" fill="url(#paint1_linear_41_22504)"/>
<defs>
<linearGradient id="paint0_linear_41_22504" x1="6.66658" y1="54.4933" x2="69.3019" y2="54.4933" gradientUnits="userSpaceOnUse">
<stop stop-color="#CCCCCC"/>
<stop offset="0.02" stop-color="#D3D3D3"/>
<stop offset="0.1" stop-color="#E6E6E6"/>
<stop offset="0.19" stop-color="#F4F4F4"/>
<stop offset="0.3" stop-color="#FCFCFC"/>
<stop offset="0.5" stop-color="white"/>
<stop offset="0.64" stop-color="#FAFAFA"/>
<stop offset="0.78" stop-color="#EDEDED"/>
<stop offset="0.93" stop-color="#D8D8D8"/>
<stop offset="1" stop-color="#CCCCCC"/>
</linearGradient>
<linearGradient id="paint1_linear_41_22504" x1="12.1243" y1="41.2301" x2="51.2793" y2="41.2301" gradientUnits="userSpaceOnUse">
<stop stop-color="#4A00EB"/>
<stop offset="1" stop-color="#1C036E"/>
</linearGradient>
</defs>
</svg>
